<svg width="102" height="31" viewBox="0 0 102 31" fill="none" xmlns="http://www.w3.org/2000/svg">
<g clip-path="url(#clip0_206_4727)">
<g clip-path="url(#clip1_206_4727)">
<g clip-path="url(#clip2_206_4727)">
<path d="M100.686 27.3685C100.686 27.7452 100.611 28.1182 100.467 28.4661C100.323 28.8141 100.111 29.1302 99.8449 29.3963C99.5785 29.6625 99.2621 29.8736 98.914 30.0174C98.5659 30.1613 98.1928 30.2351 97.8162 30.2347H3.90472C3.14363 30.2355 2.41337 29.9341 1.87451 29.3966C1.33565 28.8591 1.03233 28.1296 1.03125 27.3685V4.51391C1.03233 3.75253 1.33555 3.0227 1.87431 2.48471C2.41307 1.94671 3.14333 1.64453 3.90472 1.64453H97.8145C98.5756 1.64453 99.3054 1.94684 99.8435 2.48495C100.382 3.02307 100.684 3.75291 100.684 4.51391V27.3685H100.686Z" fill="white"/>
<path d="M97.8204 30.9068H3.89915C2.9614 30.9066 2.06203 30.5344 1.39841 29.8718C0.734782 29.2093 0.361105 28.3105 0.359375 27.3728L0.359375 4.50917C0.361104 3.57119 0.734703 2.67218 1.39826 2.00923C2.06182 1.34629 2.96118 0.973519 3.89915 0.972656L97.8196 0.972656C98.7576 0.973951 99.6568 1.34697 100.32 2.01C100.984 2.67302 101.357 3.572 101.359 4.50998V27.3736C101.358 28.3113 100.984 29.21 100.321 29.8726C99.6574 30.5352 98.7581 30.9066 97.8204 30.9068Z" fill="#AAAAAA"/>
<path d="M100.686 27.3685C100.686 27.7452 100.611 28.1182 100.467 28.4661C100.323 28.8141 100.111 29.1302 99.8449 29.3963C99.5785 29.6625 99.2621 29.8736 98.914 30.0174C98.5659 30.1613 98.1928 30.2351 97.8162 30.2347H3.90472C3.14363 30.2355 2.41337 29.9341 1.87451 29.3966C1.33565 28.8591 1.03233 28.1296 1.03125 27.3685V4.51391C1.03233 3.75253 1.33555 3.0227 1.87431 2.48471C2.41307 1.94671 3.14333 1.64453 3.90472 1.64453H97.8145C98.5756 1.64453 99.3054 1.94684 99.8435 2.48495C100.382 3.02307 100.684 3.75291 100.684 4.51391V27.3685H100.686Z" fill="white"/>
<path d="M23.0933 15.7989C23.1027 15.061 23.2986 14.3376 23.6629 13.6958C24.0271 13.0541 24.5477 12.5149 25.1763 12.1284C24.7769 11.5582 24.25 11.0888 23.6375 10.7577C23.0251 10.4266 22.3438 10.2428 21.6479 10.221C20.1634 10.065 18.7239 11.1094 17.9677 11.1094C17.1969 11.1094 16.0325 10.2365 14.7774 10.2618C13.9662 10.2879 13.1757 10.5238 12.4828 10.9464C11.7899 11.369 11.2183 11.9639 10.8237 12.6731C9.11379 15.6331 10.3893 19.9829 12.0273 22.3754C12.8438 23.548 13.8041 24.8553 15.0575 24.8096C16.2823 24.7598 16.7421 24.0289 18.2217 24.0289C19.6915 24.0289 20.1177 24.8096 21.3956 24.7802C22.7119 24.7598 23.5399 23.6027 24.3312 22.4203C24.9202 21.5856 25.3733 20.6629 25.6736 19.6865C24.9097 19.3628 24.2579 18.8217 23.7991 18.1305C23.3404 17.4393 23.0949 16.6285 23.0933 15.7989ZM20.6787 8.64745C21.3962 7.78658 21.7497 6.67989 21.6643 5.5625C20.5678 5.67854 19.5553 6.20331 18.8284 7.0323C18.4728 7.43683 18.2005 7.9075 18.0271 8.41737C17.8536 8.92725 17.7824 9.46632 17.8175 10.0038C18.366 10.009 18.9086 9.88953 19.4042 9.65443C19.8999 9.41934 20.3357 9.07556 20.6787 8.64745Z" fill="#AAAAAA"/>
<path d="M40.0458 24.5047H38.3311L37.3929 21.5553H34.1267L33.2325 24.5047H31.5684L34.8019 14.461H36.7984L40.0458 24.5047ZM37.1111 20.3174L36.2619 17.6954C36.1721 17.4276 36.0034 16.7969 35.7557 15.8035H35.7254C35.6258 16.2308 35.4669 16.8614 35.2486 17.6954L34.4141 20.3174H37.1111ZM48.3445 20.7951C48.4031 21.8617 48.043 22.9091 47.341 23.7143C47.0583 24.023 46.713 24.2677 46.3282 24.4322C45.9433 24.5967 45.5278 24.6771 45.1093 24.668C44.7038 24.7013 44.297 24.6232 43.9326 24.4422C43.5683 24.2611 43.2602 23.984 43.0418 23.6408V27.4402H41.4332V19.6437C41.4332 18.8702 41.4133 18.077 41.3736 17.2643H42.7879L42.8777 18.4115H42.9079C43.1511 18.0376 43.4784 17.7257 43.8637 17.501C44.2491 17.2762 44.6816 17.1447 45.1269 17.1171C45.5721 17.0895 46.0176 17.1665 46.4277 17.3419C46.8378 17.5173 47.2012 17.7863 47.4888 18.1274C48.0864 18.8846 48.3903 19.8323 48.3445 20.7959V20.7951ZM46.7073 20.8555C46.7323 20.2391 46.5658 19.63 46.2305 19.1122C46.0751 18.8858 45.8655 18.7019 45.621 18.5771C45.3764 18.4524 45.1045 18.3907 44.8301 18.3977C44.4349 18.3975 44.0525 18.5372 43.7506 18.7921C43.4278 19.0554 43.2046 19.4209 43.1178 19.8283C43.0738 19.9881 43.0488 20.1525 43.0434 20.3182V21.5259C43.0303 22.0159 43.2033 22.4927 43.5277 22.8602C43.6844 23.0379 43.8784 23.1789 44.0959 23.2729C44.3135 23.3669 44.5491 23.4117 44.786 23.404C45.0616 23.4149 45.3356 23.3565 45.5828 23.2341C45.8301 23.1117 46.0427 22.9292 46.2011 22.7034C46.5618 22.1568 46.7392 21.5096 46.7073 20.8555ZM56.6742 20.7967C56.7328 21.8633 56.3727 22.9107 55.6707 23.7159C55.3878 24.0244 55.0423 24.2691 54.6573 24.4335C54.2724 24.598 53.8567 24.6785 53.4382 24.6696C53.0327 24.7029 52.6258 24.6248 52.2615 24.4438C51.8971 24.2628 51.5891 23.9857 51.3707 23.6424V27.4418H49.7621V19.6454C49.7621 18.8718 49.7422 18.0787 49.7024 17.2659H51.1167L51.2066 18.4132H51.2368C51.4806 18.0399 51.8082 17.7288 52.1936 17.5045C52.5789 17.2803 53.0114 17.1491 53.4564 17.1215C53.9013 17.0939 54.3466 17.1706 54.7567 17.3455C55.1668 17.5205 55.5304 17.7887 55.8185 18.129C56.4155 18.8866 56.7194 19.834 56.6742 20.7975V20.7967ZM55.0362 20.8555C55.0611 20.239 54.8941 19.6299 54.5585 19.1122C54.4034 18.8859 54.1942 18.702 53.9499 18.5772C53.7056 18.4524 53.434 18.3907 53.1598 18.3977C52.7642 18.3977 52.3813 18.5374 52.0787 18.7921C51.7562 19.0555 51.5333 19.421 51.4467 19.8283C51.4028 19.9881 51.3776 20.1525 51.3715 20.3182V21.5259C51.3588 22.0157 51.5314 22.4922 51.8549 22.8602C52.012 23.0379 52.2064 23.1788 52.4241 23.2728C52.6419 23.3668 52.8778 23.4116 53.1149 23.404C53.3905 23.4151 53.6646 23.3567 53.9118 23.2343C54.1591 23.1119 54.3717 22.9293 54.53 22.7034C54.8907 22.1568 55.0681 21.5096 55.0362 20.8555ZM65.9871 21.6892C65.9998 22.081 65.9265 22.4709 65.7723 22.8314C65.6181 23.1918 65.3868 23.5141 65.0946 23.7755C64.3252 24.4011 63.3489 24.715 62.3591 24.6549C61.4506 24.6984 60.5486 24.4813 59.7592 24.0295L60.1315 22.6887C60.8345 23.1057 61.6382 23.3223 62.4555 23.315C62.9601 23.3461 63.46 23.2019 63.8706 22.9067C64.035 22.7768 64.1665 22.6101 64.2548 22.4201C64.343 22.23 64.3854 22.0219 64.3785 21.8125C64.3824 21.6217 64.3474 21.4321 64.2755 21.2554C64.2036 21.0786 64.0963 20.9183 63.9604 20.7845C63.5561 20.4333 63.0835 20.1697 62.5723 20.0104C60.8139 19.3571 59.9345 18.3985 59.9339 17.1344C59.9248 16.7482 60.0038 16.365 60.1651 16.0139C60.3265 15.6628 60.5658 15.3532 60.8648 15.1086C61.5641 14.5555 62.4403 14.2749 63.3308 14.319C64.1181 14.2913 64.9004 14.4549 65.6106 14.7958L65.2073 16.1072C64.6133 15.7933 63.9495 15.6346 63.2777 15.6459C62.7979 15.617 62.3242 15.7655 61.9467 16.0631C61.8181 16.1768 61.7155 16.317 61.6458 16.4739C61.5762 16.6309 61.5413 16.8011 61.5434 16.9728C61.5405 17.1605 61.5806 17.3465 61.6608 17.5163C61.7409 17.6862 61.8588 17.8354 62.0055 17.9526C62.4477 18.2866 62.9403 18.5479 63.4647 18.7267C64.1865 18.982 64.8391 19.4013 65.3714 19.9516C65.7849 20.4339 66.0031 21.0534 65.983 21.6884L65.9871 21.6892ZM71.32 18.4728H69.5464V21.9881C69.5464 22.8825 69.8595 23.3291 70.4855 23.328C70.7258 23.3337 70.9659 23.3088 71.2 23.2537L71.2441 24.4786C70.8407 24.6103 70.4173 24.6706 69.9931 24.6566C69.7176 24.672 69.4419 24.628 69.1849 24.5277C68.9278 24.4274 68.6952 24.2731 68.5029 24.0752C68.0913 23.5119 67.9004 22.8173 67.9664 22.1228V18.4728H66.9098V17.2627H67.9664V15.9366L69.5464 15.4597V17.2627H71.32V18.4728ZM79.3043 20.8261C79.3436 21.8274 79.0029 22.8066 78.3506 23.5673C78.0158 23.9333 77.605 24.2217 77.147 24.4122C76.689 24.6026 76.1948 24.6905 75.6992 24.6696C75.2242 24.6906 74.7504 24.6069 74.3114 24.4243C73.8723 24.2417 73.4789 23.9647 73.1589 23.613C72.5165 22.8763 72.1782 21.923 72.2125 20.9461C72.1723 19.9364 72.5216 18.9497 73.1883 18.1903C73.5227 17.8314 73.9311 17.5495 74.3853 17.3643C74.8394 17.179 75.3285 17.0947 75.8184 17.1173C76.2968 17.0984 76.7735 17.1835 77.2158 17.3668C77.658 17.5501 78.0552 17.8271 78.3799 18.1788C79.0125 18.9116 79.3417 19.8581 79.3002 20.8253L79.3043 20.8261ZM77.6369 20.8629C77.6536 20.2646 77.5044 19.6733 77.2057 19.1546C77.0694 18.8902 76.8618 18.6693 76.6063 18.5169C76.3509 18.3645 76.0579 18.2867 75.7605 18.2923C75.4585 18.2837 75.1601 18.3599 74.8993 18.5123C74.6385 18.6647 74.4256 18.8873 74.285 19.1546C73.9832 19.6831 73.8337 20.2848 73.8529 20.8931C73.8358 21.4918 73.9854 22.0835 74.285 22.6021C74.4273 22.8642 74.638 23.0829 74.8947 23.2347C75.1514 23.3865 75.4445 23.4659 75.7428 23.4644C76.041 23.4629 76.3333 23.3806 76.5885 23.2261C76.8437 23.0717 77.0522 22.851 77.1919 22.5874C77.4964 22.0645 77.6491 21.467 77.6328 20.862L77.6369 20.8629ZM84.5352 18.6802C84.3679 18.6498 84.1982 18.6348 84.0281 18.6353C83.7733 18.6233 83.5195 18.6758 83.2903 18.7878C83.0611 18.8998 82.8638 19.0678 82.7167 19.2763C82.436 19.6989 82.2954 20.1991 82.315 20.7061V24.5055H80.7063V19.5449C80.7063 18.711 80.6908 17.951 80.6598 17.2651H82.061L82.1198 18.6532H82.1647C82.3171 18.2015 82.5963 17.8033 82.969 17.506C83.3047 17.2547 83.7125 17.1187 84.1318 17.1181C84.2665 17.1174 84.4012 17.1272 84.5344 17.1475L84.5352 18.6802ZM91.7307 20.5428C91.7348 20.7874 91.7151 21.0319 91.6719 21.2728H86.8461C86.8353 21.5809 86.8924 21.8876 87.0135 22.1711C87.1346 22.4546 87.3166 22.708 87.5466 22.9132C87.9958 23.2643 88.5555 23.4435 89.125 23.4187C89.7915 23.4275 90.4537 23.3115 91.0775 23.0765L91.3297 24.1928C90.56 24.5076 89.7335 24.6599 88.9021 24.6402C88.4167 24.667 87.931 24.5928 87.4757 24.4225C87.0203 24.2521 86.6052 23.9893 86.2565 23.6506C85.9282 23.2932 85.6742 22.8741 85.5094 22.4177C85.3445 21.9612 85.2721 21.4766 85.2962 20.9919C85.2617 20.0054 85.5802 19.0389 86.1944 18.2662C86.4957 17.8876 86.8818 17.5853 87.3215 17.3835C87.7613 17.1818 88.2423 17.0864 88.7258 17.105C89.1869 17.0794 89.6469 17.1728 90.0615 17.3761C90.4762 17.5794 90.8316 17.8859 91.0938 18.2662C91.5341 18.9414 91.7548 19.7363 91.7258 20.5419L91.7307 20.5428ZM90.1964 20.1255C90.218 19.6912 90.109 19.2603 89.8836 18.8884C89.751 18.6709 89.5618 18.4935 89.3361 18.3752C89.1104 18.257 88.8568 18.2024 88.6025 18.2172C88.3518 18.2125 88.1038 18.2696 87.8805 18.3836C87.6572 18.4975 87.4654 18.6647 87.3221 18.8704C87.0481 19.2339 86.883 19.6677 86.8461 20.1214L90.1964 20.1255Z" fill="#2C2C2C"/>
<path d="M36.3343 11.06H35.4917L35.0303 9.61061H33.4266L32.9865 11.06H32.1699L33.7589 6.12472H34.7388L36.3343 11.06ZM34.8915 9.00227L34.4742 7.71374C34.4301 7.58146 34.3501 7.27444 34.2293 6.7845H34.2146C34.1631 6.99681 34.0896 7.30464 33.9802 7.71374L33.5719 9.00227H34.8915ZM40.3077 7.50144L38.9604 11.06H38.1912L36.8847 7.50144H37.7339L38.3422 9.37952C38.4451 9.69389 38.5325 9.99439 38.5979 10.2777H38.6199C38.6787 10.0222 38.7661 9.72166 38.8755 9.37952L39.4765 7.50144H40.3077ZM43.1763 11.06L43.1175 10.6517H43.0955C42.9762 10.8129 42.8188 10.942 42.6374 11.0275C42.456 11.113 42.2562 11.1522 42.056 11.1417C41.9144 11.1493 41.7727 11.1277 41.6398 11.0783C41.5068 11.0289 41.3855 10.9528 41.2832 10.8546C41.1809 10.7563 41.0999 10.6381 41.0452 10.5073C40.9904 10.3765 40.9632 10.2358 40.9651 10.094C40.9651 9.21539 41.7261 8.76139 43.0448 8.76139V8.69769C43.0448 8.22899 42.7999 7.99464 42.305 7.99464C41.976 7.9886 41.6526 8.08039 41.3758 8.25838L41.2125 7.73824C41.5836 7.52225 42.0082 7.41553 42.4373 7.43039C43.3665 7.43039 43.8361 7.92033 43.8361 8.9002V10.2108C43.8304 10.4948 43.8476 10.7788 43.8875 11.06H43.1763ZM43.0661 9.28725C42.1874 9.28725 41.7481 9.50037 41.7481 10.005C41.7402 10.0787 41.7486 10.1532 41.7728 10.2233C41.797 10.2934 41.8364 10.3572 41.8881 10.4103C41.9398 10.4634 42.0025 10.5045 42.0719 10.5305C42.1413 10.5566 42.2156 10.567 42.2895 10.5611C42.4881 10.5664 42.6808 10.4934 42.8261 10.3579C42.9714 10.2224 43.0576 10.0353 43.0661 9.83679V9.28725ZM45.5974 6.91515C45.5052 6.91021 45.4166 6.87842 45.3423 6.8237C45.268 6.76897 45.2114 6.69372 45.1793 6.6072C45.1473 6.52067 45.1413 6.42667 45.162 6.33676C45.1828 6.24686 45.2293 6.165 45.296 6.10125C45.3627 6.03751 45.4466 5.99467 45.5374 5.97802C45.6281 5.96137 45.7218 5.97163 45.8067 6.00755C45.8917 6.04346 45.9644 6.10346 46.0157 6.18014C46.067 6.25682 46.0947 6.34684 46.0955 6.4391C46.0973 6.50406 46.0856 6.56869 46.061 6.62882C46.0363 6.68895 45.9993 6.74324 45.9524 6.78818C45.9054 6.83312 45.8495 6.86771 45.7884 6.88973C45.7273 6.91174 45.6622 6.91986 45.5974 6.91515ZM46.0056 11.06H45.2153V7.50226H46.0056V11.06ZM48.2014 11.06H47.4109V5.86914H48.2014V11.06ZM51.5623 11.06L51.5036 10.6517H51.4815C51.3622 10.8129 51.2048 10.942 51.0234 11.0275C50.842 11.113 50.6422 11.1522 50.442 11.1417C50.3004 11.1493 50.1588 11.1277 50.0258 11.0783C49.8929 11.0289 49.7715 10.9528 49.6692 10.8546C49.567 10.7563 49.4859 10.6381 49.4312 10.5073C49.3765 10.3765 49.3492 10.2358 49.3511 10.094C49.3511 9.21539 50.1122 8.76139 51.4309 8.76139V8.69769C51.4309 8.22899 51.1859 7.99464 50.6911 7.99464C50.3621 7.9886 50.0386 8.08039 49.7618 8.25838L49.5985 7.73743C49.9696 7.52139 50.3942 7.41467 50.8234 7.42958C51.7526 7.42958 52.2221 7.91952 52.2221 8.89938V10.21C52.217 10.4939 52.2339 10.7778 52.2727 11.0592L51.5623 11.06ZM51.4521 9.28725C50.5727 9.28725 50.1342 9.50037 50.1342 10.005C50.1263 10.0787 50.1347 10.1532 50.1589 10.2233C50.183 10.2934 50.2224 10.3572 50.2741 10.4103C50.3258 10.4634 50.3886 10.5045 50.458 10.5305C50.5274 10.5566 50.6017 10.567 50.6755 10.5611C50.8741 10.5664 51.0669 10.4934 51.2121 10.3579C51.3574 10.2224 51.4436 10.0353 51.4521 9.83679V9.28725ZM55.4255 11.14C55.1986 11.1508 54.9733 11.0973 54.7754 10.9858C54.5775 10.8743 54.4151 10.7093 54.3068 10.5096H54.2913L54.2464 11.0592H53.5703C53.5923 10.7742 53.5996 10.4508 53.5996 10.1005V5.86914H54.3909V8.0224H54.4056C54.5216 7.8285 54.6891 7.67048 54.8894 7.56586C55.0898 7.46123 55.3151 7.41406 55.5406 7.42958C56.398 7.42958 56.9982 8.16448 56.9982 9.23091C57.0251 9.46022 57.0055 9.69263 56.9405 9.91418C56.8754 10.1357 56.7663 10.3419 56.6197 10.5202C56.4731 10.6986 56.2919 10.8455 56.0871 10.9521C55.8823 11.0588 55.6581 11.123 55.4279 11.1408L55.4255 11.14ZM55.2621 8.04935C55.0214 8.05933 54.7945 8.16441 54.6311 8.34153C54.4678 8.51866 54.3814 8.75335 54.3909 8.9941V9.61632C54.3881 9.73146 54.4081 9.84602 54.4498 9.95338C54.4915 10.0607 54.554 10.1588 54.6338 10.2418C54.7136 10.3249 54.8091 10.3913 54.9147 10.4373C55.0203 10.4832 55.1339 10.5078 55.2491 10.5096C55.8411 10.5096 56.1938 10.0271 56.1938 9.25786C56.1971 8.54173 55.8305 8.05016 55.2671 8.05016L55.2621 8.04935ZM58.9571 11.0592H58.1675V5.86914H58.9571V11.0592ZM63.262 9.47016H60.8882C60.8829 9.61576 60.9088 9.76082 60.9641 9.8956C61.0194 10.0304 61.1029 10.1518 61.209 10.2516C61.3152 10.3515 61.4414 10.4275 61.5793 10.4745C61.7172 10.5215 61.8636 10.5385 62.0086 10.5243C62.336 10.5276 62.6612 10.4706 62.968 10.3561L63.0913 10.9057C62.713 11.0603 62.3069 11.1351 61.8983 11.1253C61.6587 11.1439 61.418 11.11 61.1929 11.0259C60.9677 10.9418 60.7637 10.8097 60.5949 10.6387C60.4261 10.4676 60.2967 10.2618 60.2156 10.0356C60.1346 9.80938 60.1038 9.56821 60.1256 9.32889C60.1015 9.091 60.1269 8.8507 60.2 8.62305C60.2731 8.39539 60.3924 8.18528 60.5505 8.00585C60.7085 7.82642 60.9019 7.68154 61.1185 7.58028C61.3351 7.47901 61.5703 7.42354 61.8093 7.41733C62.0401 7.45506 62.2611 7.53824 62.4594 7.66207C62.6577 7.78589 62.8295 7.94789 62.9647 8.13865C63.0999 8.3294 63.1959 8.54512 63.2471 8.77327C63.2983 9.00143 63.3036 9.23747 63.2628 9.46771L63.262 9.47016ZM62.5369 8.90674C62.5369 8.35719 62.2584 7.96933 61.753 7.96933C61.5173 7.98803 61.2974 8.09494 61.1371 8.26871C60.9768 8.44248 60.8879 8.67032 60.8882 8.90674H62.5369ZM68.0551 11.14C67.8189 11.1438 67.5846 11.098 67.3671 11.0058C67.1496 10.9136 66.9538 10.7768 66.7923 10.6044C66.6308 10.432 66.5072 10.2277 66.4294 10.0047C66.3515 9.78162 66.3212 9.54475 66.3404 9.3093C66.32 9.06638 66.351 8.82189 66.4315 8.59179C66.512 8.36169 66.6401 8.15115 66.8075 7.97392C66.9748 7.79668 67.1777 7.65675 67.4029 7.56323C67.628 7.46972 67.8703 7.42473 68.114 7.43122C68.3501 7.42554 68.5847 7.46968 68.8026 7.56079C69.0205 7.65189 69.2168 7.7879 69.3786 7.95994C69.5404 8.13199 69.6641 8.33621 69.7416 8.55928C69.8192 8.78235 69.8489 9.01927 69.8287 9.25459C69.8486 9.49737 69.8174 9.74163 69.7371 9.97162C69.6569 10.2016 69.5293 10.4123 69.3627 10.59C69.1961 10.7677 68.9941 10.9085 68.7697 11.0034C68.5454 11.0982 68.3036 11.1451 68.0601 11.1408L68.0551 11.14ZM68.0854 8.00525C67.5138 8.00525 67.148 8.53928 67.148 9.28643C67.148 10.0213 67.5211 10.5529 68.0772 10.5529C68.6333 10.5529 69.0056 9.98132 69.0056 9.27092C69.0121 8.54827 68.6456 8.00689 68.0895 8.00689L68.0854 8.00525ZM74.0789 11.0592H73.2893V9.01778C73.2893 8.38822 73.0443 8.07303 72.5715 8.07303C72.4619 8.07697 72.3543 8.10279 72.2548 8.14898C72.1553 8.19516 72.0661 8.26078 71.9924 8.34196C71.9186 8.42315 71.8619 8.51826 71.8255 8.6217C71.7891 8.72514 71.7737 8.83483 71.7803 8.9443V11.0608H70.9907V8.51887C70.9907 8.20449 70.9825 7.86562 70.9613 7.50062H71.657L71.6937 8.05016H71.7158C71.8318 7.85584 71.9973 7.69583 72.1954 7.5865C72.3936 7.47717 72.6172 7.42245 72.8434 7.42795C73.5898 7.42795 74.0805 7.99954 74.0805 8.92878V11.06L74.0789 11.0592ZM79.2535 8.09344H78.3838V9.82128C78.3838 10.2611 78.5373 10.4811 78.8443 10.4811C78.9627 10.4822 79.0807 10.4698 79.1963 10.4443L79.2183 11.0453C79.0205 11.1108 78.8125 11.1407 78.6043 11.1335C77.9812 11.1335 77.6089 10.7897 77.6089 9.88823V8.09181H77.0896V7.49899H77.6089V6.84574L78.3846 6.61139V7.49735H79.2543L79.2535 8.09344ZM83.4416 11.0592H82.6503V9.03249C82.6503 8.39557 82.4053 8.07384 81.9325 8.07384C81.8236 8.07124 81.7154 8.09166 81.6149 8.13376C81.5144 8.17586 81.424 8.2387 81.3494 8.31816C81.2749 8.39762 81.218 8.49192 81.1824 8.59489C81.1468 8.69787 81.1334 8.80719 81.1429 8.91571V11.0608H80.3533V5.86914H81.1446V8.00689H81.1593C81.2699 7.8233 81.4277 7.67274 81.6163 7.57091C81.8048 7.46909 82.0173 7.41971 82.2314 7.42795C82.9851 7.42795 83.4464 8.01342 83.4464 8.94348L83.4416 11.0592ZM87.4819 9.47016H85.109C85.1035 9.61572 85.1292 9.76076 85.1845 9.89555C85.2397 10.0303 85.3232 10.1517 85.4292 10.2516C85.5353 10.3515 85.6615 10.4275 85.7993 10.4745C85.9372 10.5215 86.0835 10.5385 86.2285 10.5243C86.5556 10.5275 86.8806 10.4705 87.1871 10.3561L87.3112 10.9057C86.9327 11.0603 86.5262 11.135 86.1174 11.1253C85.8778 11.1439 85.6371 11.11 85.412 11.0259C85.1869 10.9418 84.9828 10.8097 84.814 10.6387C84.6452 10.4676 84.5158 10.2618 84.4347 10.0356C84.3537 9.80938 84.3229 9.56821 84.3447 9.32889C84.3207 9.091 84.346 8.8507 84.4191 8.62305C84.4922 8.39539 84.6116 8.18528 84.7696 8.00585C84.9276 7.82642 85.121 7.68154 85.3376 7.58028C85.5542 7.47901 85.7894 7.42354 86.0284 7.41733C86.2412 7.41769 86.4514 7.46345 86.645 7.55155C86.8387 7.63965 87.0113 7.76807 87.1513 7.92821C87.2914 8.08836 87.3957 8.27656 87.4572 8.48023C87.5187 8.6839 87.536 8.89834 87.508 9.10924C87.5149 9.23026 87.5075 9.35168 87.486 9.47097L87.4819 9.47016ZM86.7568 8.90674C86.7568 8.35719 86.4792 7.96933 85.9737 7.96933C85.738 7.98785 85.5179 8.0947 85.3576 8.26851C85.1972 8.44232 85.1084 8.67027 85.109 8.90674H86.7568Z" fill="#2C2C2C"/>
</g>
</g>
</g>
<defs>
<clipPath id="clip0_206_4727">
<rect width="101" height="30" fill="white" transform="translate(0.359375 0.939453)"/>
</clipPath>
<clipPath id="clip1_206_4727">
<rect width="101" height="30" fill="white" transform="translate(0.359375 0.939453)"/>
</clipPath>
<clipPath id="clip2_206_4727">
<rect width="101" height="29.9342" fill="white" transform="translate(0.359375 0.972656)"/>
</clipPath>
</defs>
</svg>
