<svg width="56" height="57" viewBox="0 0 56 57" fill="none" xmlns="http://www.w3.org/2000/svg">
<path d="M27.44 31.3H36.4C37.1933 31.3 37.8583 31.0317 38.395 30.495C38.9317 29.9583 39.2 29.2933 39.2 28.5C39.2 27.7067 38.9317 27.0417 38.395 26.505C37.8583 25.9683 37.1933 25.7 36.4 25.7H27.44L29.96 23.18C30.4733 22.6667 30.73 22.0133 30.73 21.22C30.73 20.4267 30.4733 19.7733 29.96 19.26C29.4467 18.7467 28.7933 18.49 28 18.49C27.2067 18.49 26.5533 18.7467 26.04 19.26L18.76 26.54C18.2 27.1 17.92 27.7533 17.92 28.5C17.92 29.2467 18.2 29.9 18.76 30.46L26.04 37.74C26.5533 38.2533 27.2067 38.51 28 38.51C28.7933 38.51 29.4467 38.2533 29.96 37.74C30.4733 37.2267 30.73 36.5733 30.73 35.78C30.73 34.9867 30.4733 34.3333 29.96 33.82L27.44 31.3ZM28 56.5C24.1267 56.5 20.4867 55.765 17.08 54.295C13.6733 52.825 10.71 50.83 8.19 48.31C5.67 45.79 3.675 42.8267 2.205 39.42C0.735 36.0133 0 32.3733 0 28.5C0 24.6267 0.735 20.9867 2.205 17.58C3.675 14.1733 5.67 11.21 8.19 8.69C10.71 6.17 13.6733 4.175 17.08 2.705C20.4867 1.235 24.1267 0.5 28 0.5C31.8733 0.5 35.5133 1.235 38.92 2.705C42.3267 4.175 45.29 6.17 47.81 8.69C50.33 11.21 52.325 14.1733 53.795 17.58C55.265 20.9867 56 24.6267 56 28.5C56 32.3733 55.265 36.0133 53.795 39.42C52.325 42.8267 50.33 45.79 47.81 48.31C45.29 50.83 42.3267 52.825 38.92 54.295C35.5133 55.765 31.8733 56.5 28 56.5Z" fill="#E7E7E7"/>
<path d="M27.44 31.3H36.4C37.1933 31.3 37.8583 31.0317 38.395 30.495C38.9317 29.9583 39.2 29.2933 39.2 28.5C39.2 27.7067 38.9317 27.0417 38.395 26.505C37.8583 25.9683 37.1933 25.7 36.4 25.7H27.44L29.96 23.18C30.4733 22.6667 30.73 22.0133 30.73 21.22C30.73 20.4267 30.4733 19.7733 29.96 19.26C29.4467 18.7467 28.7933 18.49 28 18.49C27.2067 18.49 26.5533 18.7467 26.04 19.26L18.76 26.54C18.2 27.1 17.92 27.7533 17.92 28.5C17.92 29.2467 18.2 29.9 18.76 30.46L26.04 37.74C26.5533 38.2533 27.2067 38.51 28 38.51C28.7933 38.51 29.4467 38.2533 29.96 37.74C30.4733 37.2267 30.73 36.5733 30.73 35.78C30.73 34.9867 30.4733 34.3333 29.96 33.82L27.44 31.3Z" fill="#B9B9B9"/>
</svg>
