<svg width="56" height="57" viewBox="0 0 56 57" fill="none" xmlns="http://www.w3.org/2000/svg">
<path d="M28 56.5C24.1267 56.5 20.4867 55.765 17.08 54.295C13.6733 52.825 10.71 50.83 8.19 48.31C5.67 45.79 3.675 42.8267 2.205 39.42C0.735 36.0133 0 32.3733 0 28.5C0 24.6267 0.735 20.9867 2.205 17.58C3.675 14.1733 5.67 11.21 8.19 8.69C10.71 6.17 13.6733 4.175 17.08 2.705C20.4867 1.235 24.1267 0.5 28 0.5C31.8733 0.5 35.5133 1.235 38.92 2.705C42.3267 4.175 45.29 6.17 47.81 8.69C50.33 11.21 52.325 14.1733 53.795 17.58C55.265 20.9867 56 24.6267 56 28.5C56 32.3733 55.265 36.0133 53.795 39.42C52.325 42.8267 50.33 45.79 47.81 48.31C45.29 50.83 42.3267 52.825 38.92 54.295C35.5133 55.765 31.8733 56.5 28 56.5ZM28.56 31.3L26.04 33.82C25.5267 34.3333 25.27 34.9867 25.27 35.78C25.27 36.5733 25.5267 37.2267 26.04 37.74C26.5533 38.2533 27.2067 38.51 28 38.51C28.7933 38.51 29.4467 38.2533 29.96 37.74L37.24 30.46C37.8 29.9 38.08 29.2467 38.08 28.5C38.08 27.7533 37.8 27.1 37.24 26.54L29.96 19.26C29.4467 18.7467 28.7933 18.49 28 18.49C27.2067 18.49 26.5533 18.7467 26.04 19.26C25.5267 19.7733 25.27 20.4267 25.27 21.22C25.27 22.0133 25.5267 22.6667 26.04 23.18L28.56 25.7H19.6C18.8067 25.7 18.1417 25.9683 17.605 26.505C17.0683 27.0417 16.8 27.7067 16.8 28.5C16.8 29.2933 17.0683 29.9583 17.605 30.495C18.1417 31.0317 18.8067 31.3 19.6 31.3H28.56Z" fill="#55C360"/>
<path d="M28.56 31.3L26.04 33.82C25.5267 34.3333 25.27 34.9867 25.27 35.78C25.27 36.5733 25.5267 37.2267 26.04 37.74C26.5533 38.2533 27.2067 38.51 28 38.51C28.7933 38.51 29.4467 38.2533 29.96 37.74L37.24 30.46C37.8 29.9 38.08 29.2467 38.08 28.5C38.08 27.7533 37.8 27.1 37.24 26.54L29.96 19.26C29.4467 18.7467 28.7933 18.49 28 18.49C27.2067 18.49 26.5533 18.7467 26.04 19.26C25.5267 19.7733 25.27 20.4267 25.27 21.22C25.27 22.0133 25.5267 22.6667 26.04 23.18L28.56 25.7H19.6C18.8067 25.7 18.1417 25.9683 17.605 26.505C17.0683 27.0417 16.8 27.7067 16.8 28.5C16.8 29.2933 17.0683 29.9583 17.605 30.495C18.1417 31.0317 18.8067 31.3 19.6 31.3H28.56Z" fill="white"/>
</svg>
