<svg width="69" height="69" viewBox="0 0 69 69" fill="none" xmlns="http://www.w3.org/2000/svg">
<path d="M18.6114 12.4184L16.3472 14.1912L19.0949 17.7006L21.3591 15.9278L18.6114 12.4184Z" fill="#575858" stroke="#575858" stroke-linejoin="round"/>
<path d="M18.4298 10.5536L14.5801 13.5679L16.53 16.0583L20.3798 13.044L18.4298 10.5536Z" fill="#92E3A9" stroke="#575858" stroke-linejoin="round"/>
<path d="M15.4111 13.0352L16.841 14.8614" stroke="#575858" stroke-linejoin="round"/>
<path d="M16.7148 12.0151L18.1447 13.84" stroke="#575858" stroke-linejoin="round"/>
<path d="M16.3599 12.9937L17.7897 14.8185" stroke="#575858" stroke-linejoin="round"/>
<path d="M47.9858 15.9301L50.25 17.7029L52.9978 14.1935L50.7336 12.4207L47.9858 15.9301Z" fill="#575858" stroke="#575858" stroke-linejoin="round"/>
<path d="M48.9671 13.0434L52.8169 16.0577L54.7668 13.5673L50.9171 10.553L48.9671 13.0434Z" fill="#92E3A9" stroke="#575858" stroke-linejoin="round"/>
<path d="M53.9372 13.0352L52.5073 14.8614" stroke="#575858" stroke-linejoin="round"/>
<path d="M52.6339 12.0151L51.2041 13.84" stroke="#575858" stroke-linejoin="round"/>
<path d="M52.9889 12.9937L51.5591 14.8185" stroke="#575858" stroke-linejoin="round"/>
<path d="M36.8327 6.25311H32.1694V10.9231H36.8327V6.25311Z" fill="#575858" stroke="#575858" stroke-linejoin="round"/>
<path d="M37.8753 3.57428H31.1265V8.24423H37.8753V3.57428Z" fill="#92E3A9" stroke="#575858" stroke-linejoin="round"/>
<path d="M31.7329 3.55817V7.45001" stroke="#575858" stroke-linejoin="round"/>
<path d="M32.2891 7.62446V5.53888" stroke="#575858" stroke-linejoin="round"/>
<path d="M32.8799 3.66339V6.61619" stroke="#575858" stroke-linejoin="round"/>
<path d="M33.4707 5.08777V7.79849" stroke="#575858" stroke-linejoin="round"/>
<path d="M34.374 3.69781V6.75569" stroke="#575858" stroke-linejoin="round"/>
<path d="M51.75 51.75C61.2769 42.2231 61.2769 26.7769 51.75 17.25C42.2231 7.72309 26.7769 7.72309 17.25 17.25C7.72309 26.7769 7.72309 42.2231 17.25 51.75C26.7769 61.2769 42.2231 61.2769 51.75 51.75Z" fill="#575858" stroke="#575858" stroke-linejoin="round"/>
<path d="M49.7281 49.7279C58.1382 41.3178 58.1382 27.6822 49.7281 19.2721C41.318 10.862 27.6825 10.862 19.2723 19.2721C10.8622 27.6822 10.8622 41.3178 19.2723 49.7279C27.6825 58.138 41.318 58.138 49.7281 49.7279Z" fill="white" stroke="#575858" stroke-linejoin="round"/>
<path d="M48.5343 48.5344C56.2853 40.7834 56.2853 28.2166 48.5343 20.4656C40.7833 12.7147 28.2165 12.7147 20.4655 20.4656C12.7146 28.2166 12.7146 40.7834 20.4655 48.5344C28.2165 56.2853 40.7833 56.2853 48.5343 48.5344Z" fill="white" stroke="#575858" stroke-linejoin="round"/>
<path d="M34.501 14.6524V17.3432" stroke="#575858" stroke-linejoin="round"/>
<path d="M34.501 51.637V54.3277" stroke="#575858" stroke-linejoin="round"/>
<path d="M54.3373 34.4907H51.6465" stroke="#575858" stroke-linejoin="round"/>
<path d="M17.3534 34.4907H14.6626" stroke="#575858" stroke-linejoin="round"/>
<path d="M48.5279 20.4638L46.6245 22.3658" stroke="#575858" stroke-linejoin="round"/>
<path d="M22.3757 46.6147L20.4736 48.518" stroke="#575858" stroke-linejoin="round"/>
<path d="M20.4736 20.4638L22.3757 22.3658" stroke="#575858" stroke-linejoin="round"/>
<path d="M46.6245 46.6147L48.5279 48.518" stroke="#575858" stroke-linejoin="round"/>
<path d="M39.3972 32.6006L39.7071 33.783L19.4232 38.6751L19.3301 38.32L39.3972 32.6006Z" fill="#575858" stroke="#575858" stroke-linejoin="round"/>
<path d="M35.2789 34.5002C35.2789 34.3463 35.2332 34.1959 35.1477 34.0679C35.0622 33.94 34.9407 33.8402 34.7985 33.7813C34.6563 33.7224 34.4999 33.707 34.349 33.7371C34.198 33.7671 34.0594 33.8412 33.9506 33.95C33.8417 34.0588 33.7676 34.1975 33.7376 34.3484C33.7076 34.4993 33.723 34.6558 33.7819 34.798C33.8408 34.9402 33.9405 35.0617 34.0685 35.1472C34.1964 35.2327 34.3469 35.2783 34.5008 35.2783C34.6029 35.2783 34.7041 35.2582 34.7985 35.2191C34.8929 35.18 34.9787 35.1227 35.051 35.0504C35.1232 34.9782 35.1805 34.8924 35.2196 34.798C35.2587 34.7036 35.2789 34.6024 35.2789 34.5002Z" fill="white" stroke="#575858" stroke-linejoin="round"/>
</svg>
