<svg width="14" height="15" viewBox="0 0 14 15" fill="none" xmlns="http://www.w3.org/2000/svg">
<g clip-path="url(#clip0_206_4685)">
<g clip-path="url(#clip1_206_4685)">
<g clip-path="url(#clip2_206_4685)">
<path d="M2.81534 6.49394C3.94058 8.70058 5.73484 10.4948 7.94147 11.6201L9.65691 9.90464C9.75827 9.80215 9.88601 9.72971 10.026 9.69533C10.166 9.66096 10.3128 9.666 10.4501 9.70989C11.3461 10.0049 12.2837 10.1544 13.227 10.1529C13.3292 10.1529 13.4304 10.173 13.5248 10.2121C13.6192 10.2512 13.7049 10.3085 13.7772 10.3807C13.8494 10.453 13.9067 10.5388 13.9458 10.6331C13.9849 10.7275 14.005 10.8287 14.005 10.9309V13.6554C14.005 13.7576 13.9849 13.8587 13.9458 13.9531C13.9067 14.0475 13.8494 14.1333 13.7772 14.2055C13.7049 14.2778 13.6192 14.3351 13.5248 14.3742C13.4304 14.4133 13.3292 14.4334 13.227 14.4334C11.4907 14.4345 9.77112 14.0934 8.16658 13.4298C6.56205 12.7661 5.10398 11.7929 3.87567 10.5656C2.64736 9.3383 1.67287 7.88105 1.00788 6.27707C0.342877 4.6731 0.000397317 2.95382 0 1.21746C0 1.01112 0.081968 0.813228 0.227872 0.667325C0.373775 0.521421 0.571663 0.439453 0.778002 0.439453H3.50252C3.70886 0.439453 3.90675 0.521421 4.05265 0.667325C4.19856 0.813228 4.28053 1.01112 4.28053 1.21746C4.27899 2.16083 4.42855 3.09837 4.72351 3.99445C4.7674 4.13175 4.77244 4.27852 4.73806 4.4185C4.70369 4.55849 4.63125 4.68623 4.52876 4.78759L2.81534 6.49394Z" fill="#2C2C2C"/>
</g>
</g>
</g>
<defs>
<clipPath id="clip0_206_4685">
<rect width="14" height="14" fill="white" transform="translate(0 0.439453)"/>
</clipPath>
<clipPath id="clip1_206_4685">
<rect width="14" height="14" fill="white" transform="translate(0 0.439453)"/>
</clipPath>
<clipPath id="clip2_206_4685">
<rect width="14" height="14" fill="white" transform="translate(0 0.439453)"/>
</clipPath>
</defs>
</svg>
