<svg width="124" height="37" viewBox="0 0 124 37" fill="none" xmlns="http://www.w3.org/2000/svg">
<g clip-path="url(#clip0_206_3970)">
<g clip-path="url(#clip1_206_3970)">
<g clip-path="url(#clip2_206_3970)">
<path d="M117.769 36.5002H5.26962C4.67708 36.506 4.08933 36.3936 3.54077 36.1695C2.9922 35.9454 2.49384 35.6141 2.07483 35.1951C1.65581 34.7761 1.32457 34.2778 1.10048 33.7292C0.876395 33.1806 0.763955 32.5929 0.769744 32.0003V5.00009C0.763955 4.40755 0.876395 3.8198 1.10048 3.27124C1.32457 2.72267 1.65581 2.2243 2.07483 1.80529C2.49384 1.38628 2.9922 1.05504 3.54077 0.830953C4.08933 0.606863 4.67708 0.494424 5.26962 0.500213H117.769C118.362 0.494424 118.95 0.606863 119.498 0.830953C120.047 1.05504 120.545 1.38628 120.964 1.80529C121.383 2.2243 121.715 2.72267 121.939 3.27124C122.163 3.8198 122.275 4.40755 122.269 5.00009V32.0003C122.275 32.5929 122.163 33.1806 121.939 33.7292C121.715 34.2778 121.383 34.7761 120.964 35.1951C120.545 35.6141 120.047 35.9454 119.498 36.1695C118.95 36.3936 118.362 36.506 117.769 36.5002Z" fill="white"/>
<path d="M117.769 1.21978C118.77 1.22573 119.728 1.62589 120.436 2.33351C121.143 3.04113 121.544 3.99917 121.55 4.99988V32.0001C121.544 33.0008 121.143 33.9589 120.436 34.6665C119.728 35.3741 118.77 35.7743 117.769 35.7802H5.26962C4.26891 35.7743 3.31088 35.3741 2.60326 34.6665C1.89564 33.9589 1.49547 33.0008 1.48953 32.0001V4.99988C1.49547 3.99917 1.89564 3.04113 2.60326 2.33351C3.31088 1.62589 4.26891 1.22573 5.26962 1.21978H117.769ZM117.769 0.5H5.26962C4.07722 0.503378 2.93462 0.978555 2.09146 1.82171C1.2483 2.66487 0.773122 3.80747 0.769744 4.99988V32.0001C0.763955 32.5927 0.876395 33.1804 1.10048 33.729C1.32457 34.2775 1.65581 34.7759 2.07483 35.1949C2.49384 35.6139 2.9922 35.9452 3.54077 36.1693C4.08933 36.3934 4.67708 36.5058 5.26962 36.5H117.769C118.362 36.5058 118.95 36.3934 119.498 36.1693C120.047 35.9452 120.545 35.6139 120.964 35.1949C121.383 34.7759 121.715 34.2775 121.939 33.729C122.163 33.1804 122.275 32.5927 122.269 32.0001V4.99988C122.266 3.80747 121.791 2.66487 120.948 1.82171C120.104 0.978555 118.962 0.503378 117.769 0.5Z" fill="#AAAAAA"/>
<path d="M43.3534 9.69463C43.3742 10.0242 43.3287 10.3546 43.2196 10.6663C43.1105 10.978 42.9401 11.2646 42.7183 11.5094C42.325 11.9056 41.8226 12.1759 41.2751 12.2856C40.7277 12.3954 40.1599 12.3397 39.6442 12.1256C39.1285 11.9115 38.6882 11.5488 38.3794 11.0836C38.0706 10.6184 37.9073 10.0718 37.9103 9.51346C37.907 9.14324 37.9775 8.77608 38.1176 8.43341C38.2578 8.09074 38.4648 7.77942 38.7266 7.51763C38.9884 7.25584 39.2997 7.04882 39.6424 6.90866C39.9851 6.76849 40.3522 6.698 40.7224 6.70128C41.1018 6.7051 41.4748 6.7982 41.8115 6.97305C42.1351 7.10849 42.4169 7.32771 42.6278 7.60815L42.1738 8.06208C42.0021 7.84579 41.7801 7.67482 41.5271 7.56412C41.2741 7.45341 40.9978 7.40632 40.7224 7.42697C40.4481 7.41548 40.1748 7.46671 39.9233 7.57677C39.6718 7.68682 39.4487 7.8528 39.2711 8.06208C39.0532 8.25247 38.8824 8.49082 38.7722 8.75838C38.662 9.02594 38.6154 9.31542 38.636 9.60405C38.6154 9.89268 38.662 10.1822 38.7722 10.4497C38.8824 10.7173 39.0532 10.9556 39.2711 11.146C39.6661 11.5203 40.1794 11.745 40.7224 11.7811C41.0101 11.7931 41.2969 11.7425 41.5632 11.6329C41.8294 11.5232 42.0686 11.3571 42.2644 11.146C42.4096 11.0045 42.5247 10.8351 42.6027 10.6479C42.6807 10.4608 42.7201 10.2597 42.7183 10.057H40.7224V9.33228H43.3534V9.69463ZM47.5264 7.42993H45.0776V9.1511H47.3423V9.78621H45.0776V11.5103H47.5274V12.236H44.3509V6.79187H47.5264V7.42993ZM50.5198 12.238H49.7941V7.42697H48.2492V6.79187H52.0598V7.42697H50.5198V12.238ZM54.6927 12.238V6.79187H55.4184V12.235L54.6927 12.238ZM58.5034 12.238H57.7777V7.42697H56.2357V6.79187H59.9547V7.42697H58.4128V12.235L58.5034 12.238ZM67.122 11.5123C66.7287 11.9086 66.2263 12.1788 65.6788 12.2886C65.1314 12.3983 64.5636 12.3426 64.0479 12.1285C63.5323 11.9145 63.092 11.5517 62.7832 11.0865C62.4744 10.6213 62.311 10.0748 62.314 9.51641C62.314 8.77058 62.6103 8.05529 63.1376 7.5279C63.665 7.00052 64.3803 6.70424 65.1262 6.70424C65.872 6.70424 66.5873 7.00052 67.1147 7.5279C67.642 8.05529 67.9383 8.77058 67.9383 9.51641C67.9483 9.8871 67.8808 10.2558 67.7403 10.5989C67.5997 10.9421 67.3892 11.2521 67.122 11.5094V11.5123ZM63.6758 11.0584C64.0605 11.4479 64.5799 11.6752 65.1271 11.6935C65.4014 11.705 65.6747 11.6537 65.9262 11.5437C66.1777 11.4336 66.4008 11.2677 66.5785 11.0584C66.9854 10.6483 67.2137 10.0941 67.2136 9.51641C67.2342 9.22778 67.1876 8.93831 67.0774 8.67075C66.9672 8.40319 66.7964 8.16484 66.5785 7.97444C66.1937 7.58492 65.6743 7.35764 65.1271 7.33934C64.8528 7.32785 64.5795 7.37908 64.328 7.48913C64.0765 7.59919 63.8534 7.76517 63.6758 7.97444C63.2689 8.38449 63.0406 8.93875 63.0406 9.51641C63.0204 9.80448 63.0671 10.0933 63.1771 10.3603C63.2871 10.6273 63.4575 10.8652 63.6748 11.0554L63.6758 11.0584ZM68.9378 12.24V6.79187H69.754L72.385 11.0554V6.79187H73.1107V12.235H72.385L69.5709 7.79031V12.235L68.9378 12.24Z" fill="#2C2C2C" stroke="#2C2C2C" stroke-width="0.196931"/>
<path d="M61.5783 19.9883C61.0628 19.9768 60.5503 20.0698 60.0718 20.2617C59.5932 20.4537 59.1585 20.7406 58.7939 21.1052C58.4294 21.4698 58.1424 21.9045 57.9505 22.383C57.7585 22.8616 57.6655 23.3741 57.6771 23.8895C57.6731 24.403 57.7714 24.912 57.966 25.3871C58.1607 25.8622 58.4479 26.2938 58.8109 26.6569C59.174 27.0199 59.6056 27.3071 60.0807 27.5018C60.5558 27.6965 61.0649 27.7947 61.5783 27.7908C62.0938 27.8023 62.6062 27.7093 63.0848 27.5174C63.5633 27.3254 63.998 27.0385 64.3626 26.6739C64.7272 26.3093 65.0141 25.8746 65.2061 25.3961C65.3981 24.9175 65.4911 24.405 65.4795 23.8895C65.4988 23.372 65.4111 22.8561 65.2219 22.374C65.0327 21.892 64.746 21.4542 64.3799 21.088C64.0137 20.7218 63.5758 20.4351 63.0938 20.2459C62.6117 20.0567 62.0958 19.969 61.5783 19.9883ZM61.5783 26.1572C60.9777 26.1204 60.4138 25.8558 60.0015 25.4175C59.5893 24.9792 59.3598 24.4002 59.3598 23.7985C59.3598 23.1968 59.5893 22.6177 60.0015 22.1794C60.4138 21.7411 60.9777 21.4766 61.5783 21.4397C61.8796 21.4417 62.1773 21.5056 62.4529 21.6275C62.7285 21.7494 62.9761 21.9267 63.1802 22.1483C63.3844 22.37 63.5408 22.6312 63.6398 22.9158C63.7387 23.2005 63.778 23.5024 63.7554 23.8029C63.7697 24.1013 63.7246 24.3996 63.6226 24.6805C63.5205 24.9613 63.3636 25.219 63.161 25.4385C62.9584 25.6581 62.7141 25.8352 62.4424 25.9594C62.1706 26.0836 61.8769 26.1525 61.5783 26.1621V26.1572ZM53.1418 19.9883C52.6263 19.9768 52.1138 20.0698 51.6352 20.2617C51.1567 20.4537 50.722 20.7406 50.3574 21.1052C49.9928 21.4698 49.7059 21.9045 49.5139 22.383C49.322 22.8616 49.229 23.3741 49.2405 23.8895C49.2366 24.403 49.3348 24.912 49.5295 25.3871C49.7242 25.8622 50.0114 26.2938 50.3744 26.6569C50.7375 27.0199 51.1691 27.3071 51.6442 27.5018C52.1193 27.6965 52.6283 27.7947 53.1418 27.7908C53.6572 27.8023 54.1697 27.7093 54.6483 27.5174C55.1268 27.3254 55.5615 27.0385 55.9261 26.6739C56.2907 26.3093 56.5776 25.8746 56.7696 25.3961C56.9615 24.9175 57.0545 24.405 57.043 23.8895C57.0623 23.372 56.9746 22.8561 56.7854 22.374C56.5962 21.892 56.3095 21.4542 55.9433 21.088C55.5771 20.7218 55.1393 20.4351 54.6572 20.2459C54.1752 20.0567 53.6593 19.969 53.1418 19.9883ZM53.1418 26.1572C52.5412 26.1204 51.9773 25.8558 51.565 25.4175C51.1528 24.9792 50.9232 24.4002 50.9232 23.7985C50.9232 23.1968 51.1528 22.6177 51.565 22.1794C51.9773 21.7411 52.5412 21.4766 53.1418 21.4397C53.4431 21.4417 53.7408 21.5056 54.0164 21.6275C54.292 21.7494 54.5395 21.9267 54.7437 22.1483C54.9479 22.37 55.1043 22.6312 55.2032 22.9158C55.3022 23.2005 55.3415 23.5024 55.3188 23.8029C55.3332 24.1013 55.2881 24.3996 55.186 24.6805C55.084 24.9613 54.9271 25.219 54.7245 25.4385C54.5219 25.6581 54.2776 25.8352 54.0058 25.9594C53.7341 26.0836 53.4404 26.1525 53.1418 26.1621V26.1572ZM43.0717 21.168V22.8005H46.9729C46.9167 23.5789 46.5968 24.3149 46.066 24.887C45.6755 25.2797 45.208 25.5874 44.6929 25.7908C44.1777 25.9941 43.6261 26.0887 43.0727 26.0686C42.5035 26.0742 41.9391 25.9647 41.4134 25.7467C40.8876 25.5287 40.4113 25.2067 40.0131 24.8C39.6149 24.3933 39.303 23.9104 39.0961 23.3801C38.8892 22.8499 38.7916 22.2833 38.8091 21.7144C38.7992 21.1475 38.902 20.5843 39.1116 20.0575C39.3213 19.5307 39.6335 19.0507 40.0302 18.6456C40.4269 18.2405 40.9001 17.9183 41.4224 17.6976C41.9447 17.477 42.5057 17.3623 43.0727 17.3603C44.182 17.3715 45.2481 17.7923 46.066 18.5419L47.2476 17.3603C46.153 16.3005 44.6858 15.7131 43.1623 15.7248C41.569 15.7352 40.0426 16.3665 38.9076 17.4847C37.7725 18.6028 37.1183 20.1196 37.084 21.7125C37.1183 23.3054 37.7725 24.8221 38.9076 25.9403C40.0426 27.0584 41.569 27.6898 43.1623 27.7002C43.9425 27.7436 44.7226 27.6112 45.4449 27.3128C46.1671 27.0143 46.8131 26.5575 47.3352 25.976C48.2929 24.9409 48.813 23.5754 48.7866 22.1654C48.8058 21.8303 48.7753 21.4942 48.696 21.168H43.0717ZM84.2579 22.4382C84.035 21.7414 83.6008 21.1312 83.0156 20.6923C82.4304 20.2533 81.7231 20.0073 80.9918 19.9883C80.4925 19.9907 79.9991 20.0953 79.5419 20.2958C79.0846 20.4962 78.6733 20.7882 78.3333 21.1538C77.9933 21.5193 77.7319 21.9507 77.565 22.4212C77.3982 22.8917 77.3295 23.3915 77.3633 23.8895C77.3493 24.398 77.4376 24.9041 77.623 25.3778C77.8084 25.8515 78.0871 26.2831 78.4426 26.647C78.798 27.0109 79.223 27.2996 79.6922 27.4961C80.1614 27.6926 80.6652 27.7928 81.1739 27.7908C81.806 27.7961 82.4291 27.6404 82.9844 27.3382C83.5396 27.0361 84.0087 26.5974 84.3475 26.0637L83.0773 25.1568C82.8819 25.4884 82.6034 25.7633 82.2692 25.9543C81.9351 26.1453 81.5568 26.2458 81.1719 26.2458C80.7719 26.266 80.3752 26.1637 80.0347 25.9526C79.6943 25.7415 79.4264 25.4316 79.2666 25.0642L84.438 22.8872L84.2579 22.4382ZM78.9959 23.7084C78.9778 23.1478 79.1743 22.6014 79.5451 22.1806C79.916 21.7598 80.4333 21.4963 80.9918 21.4437C81.2852 21.434 81.5757 21.5049 81.8316 21.6489C82.0875 21.7928 82.299 22.0041 82.4431 22.2599L78.9959 23.7084ZM74.7323 27.4274H76.4564V16.0881H74.7323V27.4274ZM72.0107 20.8046C71.462 20.239 70.7121 19.913 69.9242 19.8977C68.9212 19.9439 67.9747 20.3753 67.2819 21.1021C66.589 21.8288 66.2034 22.7949 66.2052 23.799C66.198 24.2937 66.2887 24.7849 66.4719 25.2445C66.6551 25.7041 66.9274 26.1229 67.2729 26.477C67.6185 26.8311 68.0306 27.1134 68.4856 27.3078C68.9406 27.5021 69.4295 27.6047 69.9242 27.6096C70.3028 27.6126 70.6775 27.533 71.0222 27.3764C71.3669 27.2198 71.6733 26.9899 71.9201 26.7027H72.0107V27.2453C72.0601 27.7454 71.9252 28.2463 71.6313 28.654C71.3375 29.0617 70.9049 29.3481 70.4148 29.4595C69.9248 29.5708 69.4109 29.4994 68.9697 29.2587C68.5286 29.018 68.1905 28.6245 68.0189 28.1521L66.5675 28.7872C66.8569 29.4608 67.3378 30.0346 67.9505 30.4372C68.5632 30.8398 69.2807 31.0536 70.0138 31.0519C72.0097 31.0519 73.6423 29.8703 73.6423 27.0601V20.1675H72.0107V20.8046ZM70.0148 26.1621C69.4142 26.1253 68.8503 25.8608 68.4381 25.4225C68.0258 24.9842 67.7963 24.4051 67.7963 23.8034C67.7963 23.2017 68.0258 22.6226 68.4381 22.1843C68.8503 21.746 69.4142 21.4815 70.0148 21.4446C70.3091 21.4566 70.5979 21.5281 70.8639 21.6546C71.1298 21.7811 71.3674 21.9602 71.5623 22.181C71.7573 22.4018 71.9055 22.6597 71.9981 22.9393C72.0908 23.2189 72.1259 23.5143 72.1013 23.8078C72.1246 24.1006 72.0886 24.3951 71.9954 24.6736C71.9022 24.9522 71.7537 25.209 71.5589 25.4289C71.3641 25.6487 71.1269 25.8269 70.8616 25.9529C70.5963 26.0789 70.3083 26.1501 70.0148 26.1621ZM92.1499 16.0921H88.0685V27.4274H89.7926V23.1639H92.1558C92.639 23.194 93.1232 23.1249 93.5786 22.9608C94.0341 22.7966 94.4511 22.5409 94.8039 22.2094C95.1567 21.878 95.4379 21.4777 95.6301 21.0334C95.8223 20.5891 95.9215 20.1101 95.9215 19.626C95.9215 19.1419 95.8223 18.6629 95.6301 18.2186C95.4379 17.7742 95.1567 17.374 94.8039 17.0425C94.4511 16.711 94.0341 16.4553 93.5786 16.2912C93.1232 16.1271 92.639 16.0579 92.1558 16.0881L92.1499 16.0921ZM92.2414 21.5342H89.7916V17.6301H92.2414C92.7557 17.6288 93.2505 17.8264 93.6225 18.1815C93.9944 18.5365 94.2147 19.0217 94.2373 19.5354C94.2183 20.059 94.002 20.556 93.6318 20.9267C93.2617 21.2974 92.765 21.5145 92.2414 21.5342ZM102.679 19.9017C102.064 19.8531 101.449 19.9918 100.915 20.2996C100.38 20.6073 99.9519 21.0697 99.6854 21.6258L101.227 22.2609C101.376 21.9902 101.6 21.7683 101.872 21.6219C102.144 21.4755 102.453 21.4109 102.761 21.4358C103.19 21.4033 103.617 21.535 103.954 21.8043C104.29 22.0736 104.512 22.4606 104.575 22.8872V22.9778C104.048 22.6842 103.455 22.5281 102.851 22.5238C101.219 22.5238 99.585 23.4307 99.585 25.0642C99.6001 25.4166 99.6851 25.7625 99.8352 26.0817C99.9852 26.4009 100.197 26.687 100.459 26.9235C100.721 27.1599 101.027 27.3419 101.36 27.4588C101.692 27.5758 102.045 27.6254 102.397 27.6047C102.822 27.6187 103.244 27.5265 103.624 27.3363C104.004 27.1461 104.331 26.864 104.574 26.5156H104.665V27.4225H106.305V23.0733C106.239 22.1728 105.821 21.3347 105.141 20.7403C104.462 20.146 103.575 19.8433 102.674 19.8977L102.679 19.9017ZM102.498 26.1611C101.953 26.1611 101.137 25.8894 101.137 25.1637C101.137 24.2568 102.134 23.9821 102.952 23.9821C103.487 23.9841 104.014 24.1083 104.494 24.3454C104.425 24.8343 104.187 25.2836 103.822 25.6155C103.456 25.9473 102.986 26.1407 102.493 26.1621L102.498 26.1611ZM112.023 20.1735L110.118 25.0721H110.027L108.031 20.1735H106.217L109.21 27.066L107.486 30.8767H109.21L113.838 20.1715L112.023 20.1735ZM96.7827 27.4314H98.5068V16.0881H96.7827V27.4314Z" fill="#2C2C2C"/>
<path d="M10.2047 7.30469C9.92492 7.6596 9.79457 8.10963 9.84137 8.55914V28.3507C9.82205 28.8123 9.9851 29.2629 10.2953 29.6052L10.3859 29.6948L21.6346 18.5879V18.4116L10.2047 7.30469Z" fill="url(#paint0_linear_206_3970)"/>
<path d="M25.0862 22.4003L21.3672 18.6812V18.4095L25.0862 14.6895L25.1768 14.78L29.6225 17.3205C30.8927 18.0461 30.8927 19.2258 29.6225 19.9515L25.0862 22.4003Z" fill="url(#paint1_linear_206_3970)"/>
<path d="M25.355 22.2423L21.5454 18.4316L10.2051 29.7719C10.659 30.2258 11.2941 30.2258 12.1104 29.8625L25.355 22.2423Z" fill="url(#paint2_linear_206_3970)"/>
<path d="M25.355 14.7569L12.1104 7.22725C11.8339 7.01335 11.4902 6.90498 11.141 6.92158C10.7919 6.93818 10.46 7.07867 10.2051 7.31784L21.5454 18.5675L25.355 14.7569Z" fill="url(#paint3_linear_206_3970)"/>
<path opacity="0.2" d="M25.2644 22.1426L12.1104 29.5817C11.8505 29.7825 11.5314 29.8914 11.203 29.8914C10.8746 29.8914 10.5555 29.7825 10.2957 29.5817L10.2051 29.6722L10.2957 29.7628C10.5555 29.9636 10.8746 30.0726 11.203 30.0726C11.5314 30.0726 11.8505 29.9636 12.1104 29.7628L25.2644 22.1426Z" fill="#2C2C2C"/>
<path opacity="0.12" d="M10.2048 29.5937C9.92454 29.2329 9.79437 28.7779 9.84149 28.3235V28.414C9.82191 28.8804 9.98473 29.336 10.2954 29.6843V29.5937H10.2048ZM29.7995 19.6171L25.2632 22.1575L25.3538 22.2481L29.7995 19.7077C30.0525 19.5988 30.271 19.4226 30.431 19.1984C30.591 18.9741 30.6866 18.7103 30.7073 18.4355C30.7073 18.8895 30.344 19.2518 29.7995 19.6171Z" fill="#2C2C2C"/>
<path opacity="0.25" d="M12.1065 7.31878L29.7998 17.3889C30.3443 17.7522 30.7067 18.1145 30.7067 18.5704C30.6857 18.2962 30.5901 18.0328 30.4303 17.8089C30.2704 17.5851 30.0524 17.4091 29.7998 17.3002L12.1065 7.22819C10.8363 6.5025 9.8418 7.04701 9.8418 8.49839V8.58898C9.8418 7.22819 10.8393 6.59309 12.1065 7.31878Z" fill="white"/>
</g>
</g>
</g>
<defs>
<linearGradient id="paint0_linear_206_3970" x1="20.5488" y1="30.4113" x2="2.5391" y2="25.4696" gradientUnits="userSpaceOnUse">
<stop stop-color="#00A0FF"/>
<stop offset="0.007" stop-color="#00A1FF"/>
<stop offset="0.26" stop-color="#00BEFF"/>
<stop offset="0.512" stop-color="#00D2FF"/>
<stop offset="0.76" stop-color="#00DFFF"/>
<stop offset="1" stop-color="#00E3FF"/>
</linearGradient>
<linearGradient id="paint1_linear_206_3970" x1="31.2842" y1="20.3107" x2="9.33232" y2="20.3107" gradientUnits="userSpaceOnUse">
<stop stop-color="#FFE000"/>
<stop offset="0.409" stop-color="#FFBD00"/>
<stop offset="0.775" stop-color="#FFA500"/>
<stop offset="1" stop-color="#FF9C00"/>
</linearGradient>
<linearGradient id="paint2_linear_206_3970" x1="23.2946" y1="18.1627" x2="8.80717" y2="-6.15771" gradientUnits="userSpaceOnUse">
<stop stop-color="#FF3A44"/>
<stop offset="1" stop-color="#C31162"/>
</linearGradient>
<linearGradient id="paint3_linear_206_3970" x1="7.38719" y1="38.3801" x2="13.8178" y2="27.5025" gradientUnits="userSpaceOnUse">
<stop stop-color="#32A071"/>
<stop offset="0.069" stop-color="#2DA771"/>
<stop offset="0.476" stop-color="#15CF74"/>
<stop offset="0.801" stop-color="#06E775"/>
<stop offset="1" stop-color="#00F076"/>
</linearGradient>
<clipPath id="clip0_206_3970">
<rect width="123" height="36" fill="white" transform="translate(0.0195312 0.5)"/>
</clipPath>
<clipPath id="clip1_206_3970">
<rect width="123" height="36" fill="white" transform="translate(0.0195312 0.5)"/>
</clipPath>
<clipPath id="clip2_206_3970">
<rect width="121.5" height="36" fill="white" transform="translate(0.769531 0.5)"/>
</clipPath>
</defs>
</svg>
