<svg width="250" height="240" viewBox="0 0 250 240" fill="none" xmlns="http://www.w3.org/2000/svg">
<path d="M74.7348 43.1941L66.8594 49.3604L76.4168 61.5669L84.2923 55.4007L74.7348 43.1941Z" fill="#263238" stroke="#263238" stroke-linejoin="round"/>
<path d="M74.1033 36.708L60.7129 47.1924L67.4952 55.8547L80.8857 45.3703L74.1033 36.708Z" fill="#92E3A9" stroke="#263238" stroke-linejoin="round"/>
<path d="M63.6035 45.3398L68.5769 51.6919" stroke="#263238" stroke-linejoin="round"/>
<path d="M68.1387 41.792L73.1121 48.1394" stroke="#263238" stroke-linejoin="round"/>
<path d="M66.9043 45.1953L71.8777 51.5427" stroke="#263238" stroke-linejoin="round"/>
<path d="M176.908 55.4089L184.783 61.5752L194.341 49.3686L186.465 43.2023L176.908 55.4089Z" fill="#263238" stroke="#263238" stroke-linejoin="round"/>
<path d="M180.32 45.3682L193.711 55.8525L200.493 47.1903L187.103 36.7059L180.32 45.3682Z" fill="#92E3A9" stroke="#263238" stroke-linejoin="round"/>
<path d="M197.608 45.3398L192.635 51.6919" stroke="#263238" stroke-linejoin="round"/>
<path d="M193.075 41.792L188.102 48.1394" stroke="#263238" stroke-linejoin="round"/>
<path d="M194.309 45.1953L189.336 51.5427" stroke="#263238" stroke-linejoin="round"/>
<path d="M138.113 21.75H121.893V37.9933H138.113V21.75Z" fill="#263238" stroke="#263238" stroke-linejoin="round"/>
<path d="M141.74 12.4326H118.266V28.6759H141.74V12.4326Z" fill="#92E3A9" stroke="#263238" stroke-linejoin="round"/>
<path d="M120.375 12.376V25.9128" stroke="#263238" stroke-linejoin="round"/>
<path d="M122.311 26.5198V19.2656" stroke="#263238" stroke-linejoin="round"/>
<path d="M124.365 12.7422V23.0128" stroke="#263238" stroke-linejoin="round"/>
<path d="M126.42 17.6963V27.1249" stroke="#263238" stroke-linejoin="round"/>
<path d="M129.562 12.8623V23.4984" stroke="#263238" stroke-linejoin="round"/>
<path d="M190 180C223.137 146.863 223.137 93.1371 190 60C156.863 26.8629 103.137 26.8629 70 60C36.8629 93.1371 36.8629 146.863 70 180C103.137 213.137 156.863 213.137 190 180Z" fill="#263238" stroke="#263238" stroke-linejoin="round"/>
<path d="M182.968 172.967C212.221 143.714 212.221 96.286 182.968 67.0334C153.715 37.7808 106.288 37.7808 77.0349 67.0334C47.7823 96.2861 47.7823 143.714 77.0349 172.967C106.288 202.219 153.715 202.219 182.968 172.967Z" fill="white" stroke="#263238" stroke-linejoin="round"/>
<path d="M178.815 168.815C205.775 141.855 205.775 98.1447 178.815 71.1848C151.855 44.2249 108.144 44.2249 81.1844 71.1848C54.2245 98.1447 54.2245 141.855 81.1844 168.815C108.144 195.775 151.855 195.775 178.815 168.815Z" fill="white" stroke="#263238" stroke-linejoin="round"/>
<path d="M130.002 50.9648V60.3241" stroke="#263238" stroke-linejoin="round"/>
<path d="M130.002 179.606V188.966" stroke="#263238" stroke-linejoin="round"/>
<path d="M199 119.968H189.641" stroke="#263238" stroke-linejoin="round"/>
<path d="M70.3592 119.968H61" stroke="#263238" stroke-linejoin="round"/>
<path d="M178.792 71.1787L172.172 77.7945" stroke="#263238" stroke-linejoin="round"/>
<path d="M87.8287 162.138L81.2129 168.758" stroke="#263238" stroke-linejoin="round"/>
<path d="M81.2129 71.1787L87.8287 77.7945" stroke="#263238" stroke-linejoin="round"/>
<path d="M172.172 162.138L178.792 168.758" stroke="#263238" stroke-linejoin="round"/>
<path d="M147.033 113.394L148.111 117.506L77.5582 134.522L77.2344 133.287L147.033 113.394Z" fill="#263238" stroke="#263238" stroke-linejoin="round"/>
<path d="M132.71 120C132.71 119.465 132.551 118.942 132.254 118.497C131.956 118.052 131.534 117.705 131.039 117.5C130.544 117.295 130 117.242 129.475 117.346C128.95 117.45 128.468 117.708 128.09 118.087C127.711 118.465 127.453 118.947 127.349 119.472C127.244 119.997 127.298 120.542 127.503 121.036C127.708 121.531 128.055 121.953 128.5 122.251C128.945 122.548 129.468 122.707 130.003 122.707C130.359 122.707 130.711 122.637 131.039 122.501C131.367 122.365 131.666 122.165 131.917 121.914C132.168 121.663 132.368 121.364 132.504 121.036C132.64 120.708 132.71 120.356 132.71 120Z" fill="white" stroke="#263238" stroke-linejoin="round"/>
<g opacity="0.3">
<path d="M219.658 79.1691C228.265 78.228 234.479 70.488 233.538 61.8811C232.597 53.2743 224.857 47.06 216.25 48.0011C207.643 48.9422 201.429 56.6823 202.37 65.2891C203.311 73.8959 211.051 80.1102 219.658 79.1691Z" stroke="black" stroke-linecap="round" stroke-linejoin="round"/>
<path d="M229.722 69.946C233.229 63.4524 230.808 55.3455 224.314 51.8388C217.82 48.3321 209.714 50.7535 206.207 57.2471C202.7 63.7407 205.122 71.8476 211.615 75.3543C218.109 78.861 226.216 76.4396 229.722 69.946Z" stroke="black" stroke-linecap="round" stroke-linejoin="round"/>
<path d="M223.645 66.2677C223.645 61.7742 217.271 61.673 217.271 59.7972C217.271 58.8108 217.79 58.5115 218.852 58.5115C219.767 58.5115 220.538 58.9077 221.419 59.7002L223.527 57.2764C222.554 56.1864 221.24 55.4583 219.801 55.2109V52.6816H217.023V55.2825C214.641 55.7968 213.229 57.4956 213.229 59.9953C213.229 64.316 219.607 64.59 219.607 66.567C219.607 67.5281 219.109 67.9496 217.874 67.9496C216.837 67.9496 215.8 67.5534 214.464 66.567L212.639 69.4334C213.892 70.4688 215.42 71.1163 217.035 71.2966V73.7795H219.805V71.1238C222.372 70.5126 223.645 68.6494 223.645 66.2677Z" stroke="black" stroke-linecap="round" stroke-linejoin="round"/>
</g>
<g opacity="0.3">
<path d="M227.296 154.022C231.244 154.022 234.445 150.821 234.445 146.873C234.445 142.924 231.244 139.724 227.296 139.724C223.347 139.724 220.146 142.924 220.146 146.873C220.146 150.821 223.347 154.022 227.296 154.022Z" stroke="black" stroke-linecap="round" stroke-linejoin="round"/>
<path d="M231.604 151.183C233.985 148.803 233.985 144.943 231.604 142.563C229.224 140.183 225.364 140.183 222.984 142.563C220.604 144.943 220.604 148.803 222.984 151.183C225.364 153.564 229.224 153.564 231.604 151.183Z" stroke="black" stroke-linecap="round" stroke-linejoin="round"/>
<path d="M229.888 148.095C229.888 146.046 226.979 145.987 226.979 145.144C226.979 144.693 227.215 144.558 227.7 144.558C228.147 144.581 228.568 144.774 228.876 145.098L229.833 143.993C229.391 143.501 228.798 143.169 228.147 143.049V141.898H226.882V143.083C226.37 143.157 225.904 143.421 225.577 143.822C225.25 144.223 225.085 144.733 225.116 145.25C225.116 147.222 228.025 147.357 228.025 148.247C228.025 148.689 227.797 148.879 227.236 148.879C226.662 148.848 226.114 148.625 225.681 148.247L224.838 149.558C225.41 150.029 226.108 150.322 226.844 150.401V151.535H228.109V150.308C228.625 150.22 229.09 149.946 229.418 149.539C229.746 149.131 229.913 148.617 229.888 148.095Z" stroke="black" stroke-linecap="round" stroke-linejoin="round"/>
</g>
<g opacity="0.3">
<path d="M98.8623 33.2717C104.982 32.2926 109.149 26.538 108.17 20.4185C107.191 14.299 101.436 10.1319 95.3167 11.111C89.1972 12.0901 85.03 17.8446 86.0091 23.9641C86.9882 30.0836 92.7428 34.2508 98.8623 33.2717Z" stroke="black" stroke-linecap="round" stroke-linejoin="round"/>
<path d="M105.167 27.3239C107.997 22.8633 106.675 16.9534 102.214 14.1237C97.7538 11.2941 91.8439 12.6162 89.0142 17.0767C86.1845 21.5373 87.5066 27.4472 91.9672 30.2769C96.4278 33.1066 102.338 31.7845 105.167 27.3239Z" stroke="black" stroke-linecap="round" stroke-linejoin="round"/>
<path d="M101.156 24.1174C101.156 20.9011 96.5951 20.8294 96.5951 19.4805C96.5951 18.7765 96.9661 18.5616 97.7291 18.5616C98.4279 18.5933 99.087 18.8956 99.567 19.4046L101.068 17.6721C100.371 16.8905 99.4307 16.3675 98.3993 16.1883V14.3926H96.4181V16.26C95.628 16.3868 94.9127 16.8015 94.41 17.4241C93.9073 18.0466 93.6526 18.8332 93.695 19.6323C93.695 22.7263 98.256 22.9202 98.256 24.3366C98.256 25.0237 97.9061 25.3272 97.0209 25.3272C96.279 25.3272 95.5329 25.0448 94.5802 24.3366L93.2734 26.3768C94.1679 27.1211 95.2615 27.5858 96.4181 27.7131V29.4962H98.3993V27.5951C99.2018 27.4471 99.9234 27.0131 100.43 26.3736C100.937 25.7341 101.195 24.9325 101.156 24.1174Z" stroke="black" stroke-linecap="round" stroke-linejoin="round"/>
</g>
<g opacity="0.3">
<path d="M9.34785 155.905C13.2453 155.272 15.8919 151.6 15.2592 147.702C14.6266 143.805 10.9543 141.158 7.05687 141.791C3.15947 142.424 0.512855 146.096 1.14549 149.993C1.77813 153.891 5.45045 156.537 9.34785 155.905Z" stroke="black" stroke-linecap="round" stroke-linejoin="round"/>
<path d="M14.2885 148.85C14.2885 147.645 13.931 146.466 13.2612 145.464C12.5914 144.461 11.6395 143.68 10.5257 143.219C9.41188 142.758 8.1863 142.637 7.0039 142.872C5.82151 143.107 4.73542 143.688 3.88296 144.54C3.03051 145.393 2.44997 146.479 2.21478 147.661C1.97959 148.844 2.1003 150.069 2.56164 151.183C3.02299 152.297 3.80425 153.249 4.80664 153.918C5.80902 154.588 6.9875 154.946 8.19306 154.946C9.80966 154.946 11.36 154.303 12.5032 153.16C13.6463 152.017 14.2885 150.467 14.2885 148.85Z" stroke="black" stroke-linecap="round" stroke-linejoin="round"/>
<path d="M10.7861 150.077C10.7861 148.025 7.88173 147.97 7.88173 147.127C7.88173 146.676 8.11779 146.541 8.60256 146.541C9.04818 146.563 9.46809 146.756 9.77442 147.08L10.7313 145.976C10.2906 145.482 9.69671 145.151 9.04517 145.036V143.881H7.78056V145.07C7.27623 145.149 6.8194 145.413 6.49855 145.81C6.1777 146.208 6.01567 146.71 6.04384 147.219C6.04384 149.188 8.95243 149.327 8.95243 150.217C8.95243 150.638 8.72902 150.845 8.16416 150.845C7.59018 150.814 7.04274 150.593 6.6087 150.217L5.76562 151.523C6.33904 151.992 7.03593 152.285 7.77213 152.366V153.496H9.03674V152.29C9.54777 152.198 10.0074 151.922 10.3295 151.514C10.6516 151.107 10.8139 150.596 10.7861 150.077Z" stroke="black" stroke-linecap="round" stroke-linejoin="round"/>
</g>
<g opacity="0.3">
<path d="M187.444 187.938C191.348 187.351 194.038 183.71 193.45 179.805C192.863 175.901 189.222 173.211 185.318 173.798C181.413 174.385 178.724 178.027 179.311 181.931C179.898 185.836 183.539 188.525 187.444 187.938Z" stroke="black" stroke-linecap="round" stroke-linejoin="round"/>
<path d="M192.47 180.879C192.468 179.674 192.11 178.496 191.439 177.495C190.768 176.494 189.815 175.714 188.701 175.254C187.588 174.794 186.362 174.674 185.18 174.91C183.999 175.146 182.913 175.727 182.062 176.58C181.21 177.433 180.63 178.519 180.396 179.701C180.161 180.884 180.282 182.109 180.744 183.222C181.206 184.335 181.987 185.287 182.989 185.956C183.991 186.626 185.169 186.983 186.375 186.983C187.176 186.983 187.97 186.826 188.71 186.519C189.45 186.212 190.123 185.763 190.689 185.196C191.255 184.629 191.704 183.956 192.01 183.215C192.315 182.474 192.472 181.68 192.47 180.879Z" stroke="black" stroke-linecap="round" stroke-linejoin="round"/>
<path d="M188.966 182.101C188.966 180.052 186.061 179.993 186.061 179.15C186.061 178.699 186.297 178.564 186.782 178.564C187.228 178.586 187.648 178.779 187.954 179.104L188.911 177.999C188.471 177.504 187.877 177.172 187.225 177.055V175.904H185.96V177.093C185.457 177.173 185 177.436 184.68 177.832C184.359 178.228 184.196 178.73 184.224 179.239C184.224 181.211 187.132 181.346 187.132 182.24C187.132 182.662 186.909 182.868 186.344 182.868C185.77 182.838 185.222 182.617 184.788 182.24L183.945 183.547C184.519 184.016 185.216 184.308 185.952 184.39V185.52H187.216V184.31C187.726 184.216 188.185 183.941 188.507 183.534C188.828 183.128 188.992 182.619 188.966 182.101Z" stroke="black" stroke-linecap="round" stroke-linejoin="round"/>
</g>
<g opacity="0.3">
<path d="M44.9774 74.8698C48.9258 74.8698 52.1266 71.6689 52.1266 67.7205C52.1266 63.7721 48.9258 60.5713 44.9774 60.5713C41.0289 60.5713 37.8281 63.7721 37.8281 67.7205C37.8281 71.6689 41.0289 74.8698 44.9774 74.8698Z" stroke="black" stroke-linecap="round" stroke-linejoin="round"/>
<path d="M50.7095 69.7901C51.8553 66.6248 50.2182 63.1298 47.0528 61.984C43.8874 60.8381 40.3925 62.4753 39.2466 65.6406C38.1008 68.806 39.7379 72.301 42.9033 73.4468C46.0687 74.5927 49.5636 72.9555 50.7095 69.7901Z" stroke="black" stroke-linecap="round" stroke-linejoin="round"/>
<path d="M47.5735 68.9524C47.5735 66.8995 44.6649 66.8447 44.6649 66.0017C44.6649 65.5506 44.901 65.4157 45.3858 65.4157C45.8323 65.4374 46.2528 65.6325 46.5576 65.9595L47.5145 64.8551C47.0744 64.36 46.4805 64.0274 45.8284 63.9109V62.7559H44.5638V63.9446C44.0598 64.0251 43.6036 64.2893 43.2829 64.6863C42.9622 65.0832 42.7998 65.5848 42.827 66.0944C42.827 68.0672 45.7356 68.2021 45.7356 69.0915C45.7356 69.5131 45.5122 69.7238 44.9474 69.7238C44.3732 69.6911 43.8261 69.4687 43.3919 69.0915L42.5488 70.3983C43.1222 70.8671 43.8191 71.1599 44.5553 71.2414V72.3753H45.8199V71.1613C46.3306 71.0688 46.7901 70.7936 47.1128 70.3872C47.4355 69.9807 47.5992 69.4707 47.5735 68.9524Z" stroke="black" stroke-linecap="round" stroke-linejoin="round"/>
</g>
<g opacity="0.3">
<path d="M40.5491 169.931C49.1556 168.987 55.3672 161.245 54.4231 152.638C53.479 144.032 45.7368 137.82 37.1303 138.764C28.5238 139.708 22.3122 147.451 23.2563 156.057C24.2004 164.664 31.9426 170.875 40.5491 169.931Z" stroke="black" stroke-linecap="round" stroke-linejoin="round"/>
<path d="M50.8306 160.248C54.0958 153.63 51.3776 145.618 44.7592 142.352C38.1409 139.087 30.1287 141.805 26.8634 148.424C23.5982 155.042 26.3164 163.054 32.9348 166.319C39.5531 169.585 47.5653 166.866 50.8306 160.248Z" stroke="black" stroke-linecap="round" stroke-linejoin="round"/>
<path d="M44.5359 157.027C44.5359 152.529 38.1623 152.432 38.1623 150.552C38.1623 149.566 38.6808 149.266 39.743 149.266C40.6578 149.266 41.4292 149.663 42.3144 150.455L44.4221 148.031C43.4462 146.943 42.1319 146.215 40.6915 145.966V143.437H37.9136V146.042C35.5361 146.556 34.1198 148.255 34.1198 150.75C34.1198 155.075 40.4934 155.345 40.4934 157.322C40.4934 158.287 40.0002 158.705 38.7651 158.705C37.7281 158.705 36.6869 158.308 35.3549 157.322L33.5254 160.188C34.779 161.223 36.3067 161.87 37.922 162.052V164.534H40.6915V161.879C43.2629 161.267 44.5359 159.404 44.5359 157.027Z" stroke="black" stroke-linecap="round" stroke-linejoin="round"/>
</g>
</svg>
