<svg width="54" height="43" viewBox="0 0 54 43" fill="none" xmlns="http://www.w3.org/2000/svg">
<g clip-path="url(#clip0_680_1745)">
<path d="M28.3878 18.2671L25.9235 20.5268C22.5883 23.5855 18.7932 21.5058 17.5692 20.1742C15.3595 17.7575 15.532 14.0174 17.9307 11.8145L24.6502 5.65771H24.108C19.36 5.65771 14.7927 7.5442 11.4329 10.9021L3.53052 10.9267C2.08475 10.9267 0.901855 12.1096 0.901855 13.5555V26.691C0.901855 28.1369 2.08475 29.3246 3.45659 29.3246L12.8458 29.3197L20.28 36.0452C22.539 37.8841 25.8454 37.5339 27.6732 35.2845L29.1616 36.538C30.4661 37.5326 32.3965 37.4011 33.4644 36.0967L36.0422 32.9238L36.4836 33.2935C37.6131 34.1977 39.2667 34.0335 40.1802 32.9032L40.9668 31.9308C41.877 30.8047 41.7044 29.1566 40.5806 28.2433L28.3878 18.2671ZM50.8465 10.9267L42.9605 10.9164C39.5941 7.54948 35.0285 5.66547 30.269 5.66547L29.5625 5.65771C28.9053 5.65771 28.2794 5.92051 27.7865 6.362L19.7132 13.7379C19.705 13.7544 19.6968 13.7708 19.6968 13.7708C18.3168 15.0696 18.3496 17.1081 19.5161 18.374C20.3067 19.2371 22.3912 20.1512 24.1269 18.6C24.1269 18.5898 24.1475 18.5898 24.1577 18.5795L30.7294 12.5707C31.2633 12.0881 32.0947 12.1189 32.5875 12.6529C33.0804 13.1869 33.0393 14.0191 32.5054 14.5123L30.3597 16.4744L42.3202 26.1821C43.3158 27.0035 43.922 28.113 44.1372 29.3041L50.8465 29.3066C52.2922 29.3066 53.4751 28.1245 53.4751 26.6778V13.5571C53.4751 12.1022 52.3005 10.9267 50.8465 10.9267Z" fill="#55C360" fill-opacity="0.89"/>
</g>
<defs>
<clipPath id="clip0_680_1745">
<rect width="52.5733" height="42.0862" fill="white" transform="translate(0.901855 0.396973)"/>
</clipPath>
</defs>
</svg>
