<svg width="60" height="54" viewBox="0 0 60 54" fill="none" xmlns="http://www.w3.org/2000/svg">
<g clip-path="url(#clip0_680_1719)">
<path d="M58.9129 35.4878C57.5657 33.6591 54.9966 33.2637 53.1698 34.6182L40.8788 43.6717H28.4953C27.5971 43.6717 26.9448 42.9273 26.9448 42.0298C26.9448 41.1313 27.6893 40.3869 28.4953 40.3869H36.5302C38.0807 40.3869 39.6877 39.2697 39.9567 37.6535C40.2904 35.5999 38.7122 33.8152 36.7099 33.8152H20.1914C17.5114 33.8152 14.7369 34.765 12.5806 36.5106L7.80589 40.3859L2.11935 40.2934C1.3134 40.2934 0.568848 41.1353 0.568848 42.0287V51.8841C0.568848 52.7898 1.3134 53.5291 2.11935 53.5291H37.6576C39.9197 53.5291 42.1674 52.791 43.9931 51.4477L57.8655 41.2288C59.8678 39.8826 60.258 37.3156 58.9129 35.4878ZM29.248 18.9252C28.4676 18.8122 27.4408 18.4426 26.5372 18.114L26.034 17.9394C24.7505 17.3952 23.3438 18.1551 22.892 19.3462C22.4401 20.5373 23.1097 22.0365 24.3901 22.4924L24.8681 22.6624C25.7394 22.9767 26.704 23.2883 27.6805 23.5159V24.7781C27.6805 26.1386 28.7823 27.2425 30.1429 27.2425C31.5034 27.2425 32.6072 26.1386 32.6072 24.7781V23.7102C35.202 23.1225 37.0102 21.4666 37.3409 19.0156C38.233 13.8763 33.3476 12.4788 30.7261 11.7303L30.1824 11.5423C27.4818 10.7763 27.6359 10.4457 27.7077 10.0237C27.8264 9.32893 29.2788 8.99069 31.0151 9.26475C31.5222 9.34494 32.1826 9.52628 33.0328 9.82149C34.3195 10.2611 35.7241 9.58409 36.1667 8.29769C36.6093 7.01129 35.9296 5.60844 34.6429 5.1628C33.8623 4.89306 33.2136 4.71531 32.6077 4.57536V3.42018C32.6077 2.05964 31.5039 0.955811 30.1434 0.955811C28.7828 0.955811 27.681 2.05964 27.681 3.42018V4.5004C25.0894 5.08672 23.2719 6.73168 22.7585 9.18373C21.9678 14.2634 26.9274 15.7215 28.7962 16.276L29.4634 16.4685C32.7143 17.399 32.662 17.6894 32.5788 18.1772C32.4619 18.8739 31.0141 19.2127 29.248 18.9252Z" fill="#55C360" fill-opacity="0.89"/>
</g>
<defs>
<clipPath id="clip0_680_1719">
<rect width="59.1449" height="52.5733" fill="white" transform="translate(0.568848 0.955811)"/>
</clipPath>
</defs>
</svg>
