<svg width="53" height="54" viewBox="0 0 53 54" fill="none" xmlns="http://www.w3.org/2000/svg">
<path d="M14.2002 7.52734C12.2395 7.52734 10.359 8.30626 8.97252 9.69274C7.58604 11.0792 6.80713 12.9597 6.80713 14.9205V32.9925C6.80713 34.9533 7.58604 36.8338 8.97252 38.2203C10.359 39.6067 12.2395 40.3856 14.2002 40.3856H35.5581C37.5189 40.3856 39.3994 39.6067 40.7859 38.2203C42.1723 36.8338 42.9513 34.9533 42.9513 32.9925V14.9205C42.9513 12.9597 42.1723 11.0792 40.7859 9.69274C39.3994 8.30626 37.5189 7.52734 35.5581 7.52734H14.2002ZM19.9504 30.515V17.398C19.9502 17.1003 20.0309 16.8081 20.1838 16.5527C20.3367 16.2973 20.5562 16.0882 20.8187 15.9478C21.0812 15.8075 21.3769 15.741 21.6743 15.7557C21.9716 15.7704 22.2594 15.8656 22.5068 16.0311L32.3545 22.5896C32.5802 22.7395 32.7653 22.9429 32.8933 23.1817C33.0214 23.4205 33.0884 23.6872 33.0884 23.9581C33.0884 24.2291 33.0214 24.4958 32.8933 24.7346C32.7653 24.9734 32.5802 25.1768 32.3545 25.3267L22.5035 31.8852C22.2559 32.05 21.9682 32.1445 21.671 32.1585C21.3739 32.1726 21.0786 32.1057 20.8165 31.9651C20.5544 31.8244 20.3354 31.6152 20.1828 31.3598C20.0303 31.1045 19.95 30.8125 19.9504 30.515ZM19.9504 46.9573C18.675 46.9583 17.4169 46.6619 16.2761 46.0915C15.1353 45.5211 14.1432 44.6925 13.3788 43.6715H37.2011C39.5976 43.6715 41.8959 42.7195 43.5905 41.0249C45.2851 39.3303 46.2371 37.0319 46.2371 34.6354V14.099C48.2316 15.5973 49.5229 17.9829 49.5229 20.6707V34.6354C49.5229 37.9034 48.2247 41.0375 45.9139 43.3483C43.6031 45.6591 40.469 46.9573 37.2011 46.9573H19.9504Z" fill="#55C360" fill-opacity="0.89"/>
</svg>
