<svg width="15" height="25" viewBox="0 0 15 25" fill="none" xmlns="http://www.w3.org/2000/svg">
<g clip-path="url(#clip0_206_4713)">
<g clip-path="url(#clip1_206_4713)">
<g clip-path="url(#clip2_206_4713)">
<path d="M4.34965 6.04883H10.6458C11.7992 6.04963 12.905 6.50816 13.7206 7.3237C14.5361 8.13924 14.9946 9.24513 14.9955 10.3985V16.6946C14.9955 17.2658 14.8829 17.8314 14.6644 18.3592C14.4458 18.8869 14.1254 19.3664 13.7215 19.7703C13.3176 20.1742 12.8381 20.4946 12.3103 20.7132C11.7826 20.9318 11.217 21.0443 10.6458 21.0443H4.34965C3.19696 21.0435 2.09165 20.5855 1.27621 19.7707C0.460776 18.956 0.00180937 17.8511 1.65382e-06 16.6984V10.4023C-0.00049671 9.83075 0.111643 9.26473 0.33001 8.73657C0.548377 8.20841 0.868691 7.72846 1.27264 7.32415C1.6766 6.91985 2.15627 6.59912 2.68424 6.38029C3.21221 6.16146 3.77813 6.04883 4.34965 6.04883ZM4.19794 7.54852C3.48205 7.54893 2.79563 7.83365 2.28963 8.34007C1.78364 8.84649 1.4995 9.53315 1.4997 10.249V16.8486C1.4991 17.2035 1.56852 17.5551 1.704 17.8831C1.83947 18.2112 2.03833 18.5092 2.28919 18.7603C2.54004 19.0114 2.83797 19.2105 3.16589 19.3462C3.49382 19.482 3.8453 19.5517 4.20021 19.5514H10.7998C11.1548 19.5518 11.5065 19.4822 11.8346 19.3465C12.1627 19.2108 12.4608 19.0117 12.7118 18.7607C12.9629 18.5096 13.162 18.2115 13.2977 17.8834C13.4333 17.5553 13.503 17.2037 13.5026 16.8486V10.249C13.5028 9.89445 13.4331 9.54329 13.2975 9.21565C13.1619 8.88801 12.963 8.59031 12.7123 8.33958C12.4615 8.08884 12.1639 7.88999 11.8362 7.75438C11.5086 7.61878 11.1574 7.54908 10.8028 7.54928H4.20325M11.437 8.67349C11.6223 8.67334 11.8036 8.72812 11.9578 8.83092C12.112 8.93372 12.2323 9.07992 12.3035 9.25106C12.3746 9.42219 12.3935 9.61058 12.3576 9.79242C12.3218 9.97426 12.2329 10.1414 12.1021 10.2727C11.9713 10.404 11.8045 10.4937 11.6228 10.5302C11.4411 10.5668 11.2526 10.5487 11.0812 10.4782C10.9098 10.4078 10.7631 10.2881 10.6597 10.1343C10.5563 9.98046 10.5008 9.79946 10.5002 9.61412C10.4998 9.4908 10.5237 9.36861 10.5706 9.25456C10.6175 9.1405 10.6864 9.03682 10.7734 8.94944C10.8604 8.86207 10.9639 8.79272 11.0777 8.74536C11.1916 8.69801 11.3137 8.67359 11.437 8.67349ZM7.5 9.79845C8.24161 9.79845 8.96656 10.0184 9.58318 10.4304C10.1998 10.8424 10.6804 11.428 10.9642 12.1132C11.248 12.7983 11.3223 13.5522 11.1776 14.2796C11.0329 15.0069 10.6758 15.6751 10.1514 16.1995C9.62699 16.7238 8.95887 17.081 8.23152 17.2256C7.50416 17.3703 6.75024 17.2961 6.06508 17.0123C5.37993 16.7285 4.79432 16.2479 4.38231 15.6312C3.97029 15.0146 3.75038 14.2897 3.75038 13.5481C3.75038 12.5536 4.14543 11.5999 4.84862 10.8967C5.55181 10.1935 6.50554 9.79845 7.5 9.79845ZM7.5 11.2981C7.05501 11.2981 6.62001 11.4301 6.25001 11.6773C5.88001 11.9246 5.59163 12.2759 5.42134 12.6871C5.25105 13.0982 5.2065 13.5506 5.29331 13.987C5.38012 14.4235 5.59441 14.8243 5.90907 15.139C6.22372 15.4537 6.62462 15.6679 7.06106 15.7548C7.49751 15.8416 7.94989 15.797 8.36101 15.6267C8.77213 15.4564 9.12352 15.1681 9.37074 14.7981C9.61797 14.4281 9.74993 13.9931 9.74993 13.5481C9.74993 12.9514 9.51288 12.3791 9.09094 11.9571C8.669 11.5352 8.09672 11.2981 7.5 11.2981Z" fill="#AAAAAA"/>
</g>
</g>
</g>
<defs>
<clipPath id="clip0_206_4713">
<rect width="15" height="15" fill="white" transform="translate(0 6.04883)"/>
</clipPath>
<clipPath id="clip1_206_4713">
<rect width="15" height="15" fill="white" transform="translate(0 6.04883)"/>
</clipPath>
<clipPath id="clip2_206_4713">
<rect width="15" height="14.9992" fill="white" transform="translate(0 6.04883)"/>
</clipPath>
</defs>
</svg>
