<svg width="15" height="25" viewBox="0 0 15 25" fill="none" xmlns="http://www.w3.org/2000/svg">
<g clip-path="url(#clip0_206_4702)">
<g clip-path="url(#clip1_206_4702)">
<g clip-path="url(#clip2_206_4702)">
<path d="M14.154 9.51249C13.7597 8.81071 13.3316 8.68124 12.4621 8.62975C11.5926 8.57825 9.39826 8.54883 7.5011 8.54883C5.60393 8.54883 3.40885 8.5731 2.53935 8.63122C1.66985 8.68933 1.24024 8.80923 0.842275 9.51396C0.444306 10.2187 0.226562 11.4177 0.226562 13.5459V13.5532C0.226562 15.6696 0.435478 16.8863 0.842275 17.58C1.24907 18.2737 1.66838 18.4061 2.53861 18.4679C3.40885 18.5297 5.60026 18.5488 7.50183 18.5488C9.40341 18.5488 11.5889 18.5187 12.4614 18.4686C13.3338 18.4186 13.7612 18.2825 14.1533 17.5808C14.563 16.8871 14.7705 15.6681 14.7705 13.554V13.5466C14.7727 11.4177 14.5652 10.2135 14.154 9.51249Z" fill="#AAAAAA"/>
<path d="M5.12012 15.7614V11.3359L10.6946 13.5487L5.12012 15.7614Z" fill="white"/>
</g>
</g>
</g>
<defs>
<clipPath id="clip0_206_4702">
<rect width="15" height="10" fill="white" transform="translate(0 8.54883)"/>
</clipPath>
<clipPath id="clip1_206_4702">
<rect width="15" height="10" fill="white" transform="translate(0 8.54883)"/>
</clipPath>
<clipPath id="clip2_206_4702">
<rect width="14.5461" height="10" fill="white" transform="translate(0.226562 8.54883)"/>
</clipPath>
</defs>
</svg>
