<svg width="176" height="42" viewBox="0 0 176 42" fill="none" xmlns="http://www.w3.org/2000/svg">
<g clip-path="url(#clip0_804_2346)">
<path d="M69.0957 15.1673H74.6502V32.1435H69.0957V15.1673Z" fill="#101010"/>
<path d="M75.8096 15.1673H81.1595V17.4883H81.2615C82.5566 15.6646 84.2263 14.6701 86.6459 14.6701C90.4622 14.6701 92.7112 17.3226 92.7112 21.1024V32.1436H87.1569V22.1967C87.1569 20.406 86.2369 19.1792 84.4309 19.1792C82.5908 19.1792 81.3639 20.6713 81.3639 22.7602V32.1436H75.8096V15.1673Z" fill="#101010"/>
<path d="M75.2046 10.6255C75.2046 8.83495 73.713 7.38359 71.8729 7.38359C70.0328 7.38359 68.541 8.83495 68.541 10.6255C68.541 12.4159 70.0328 13.8673 71.8729 13.8673C73.713 13.8673 75.2046 12.4159 75.2046 10.6255Z" fill="#101010"/>
<path d="M131.777 14.9222C131.618 14.9083 131.437 14.9021 131.224 14.9021C129.111 14.9021 127.68 15.7972 126.453 17.8199H126.351V15.1674H121.035V32.1435H126.589V24.5174C126.589 20.984 128.601 19.3467 131.777 19.6323V14.9222Z" fill="#101010"/>
<path d="M159.034 21.4338C156.819 21.0362 154.843 20.8704 154.843 19.6767C154.843 18.6155 155.9 18.1183 157.263 18.1183C158.796 18.1183 159.853 18.5824 160.056 20.1078H165.168C164.896 16.759 162.237 14.67 157.297 14.67C153.173 14.67 149.766 16.5268 149.766 20.1078C149.766 24.0863 153.003 24.8821 156.035 25.3796C158.353 25.7775 160.466 25.9434 160.466 27.4684C160.466 28.5627 159.409 29.1595 157.74 29.1595C156.065 29.1595 154.957 28.4698 154.617 27.0706H149.324C149.714 30.5605 152.862 32.6741 157.774 32.6741C162.34 32.6741 165.714 30.7511 165.714 27.0375C165.714 22.6938 162.102 21.9313 159.034 21.4338Z" fill="#101010"/>
<path d="M140.393 18.5161C142.199 18.5161 143.494 19.8093 143.699 21.832H136.815C137.19 19.8093 138.281 18.5161 140.393 18.5161ZM140.7 28.7614C138.417 28.7614 137.122 27.3359 136.781 25.048H149.321C149.355 21.5998 148.333 18.6488 146.254 16.7921C144.755 15.4659 142.779 14.67 140.291 14.67C134.975 14.67 131.329 18.5492 131.329 23.6223C131.329 28.7614 134.873 32.641 140.632 32.641C142.847 32.641 144.619 32.0772 146.084 31.0825C147.617 30.0547 148.64 28.5959 149.014 27.0708H143.596C143.119 28.1317 142.165 28.7614 140.7 28.7614Z" fill="#101010"/>
<path d="M175.495 28.1404C175.238 28.1503 174.893 28.1648 174.576 28.1648C173.383 28.1648 172.633 27.8332 172.633 26.5068V18.5492H175.495V15.1673H172.633V9.79593H167.215V15.1673H165.51V18.5492H167.215V27.6674C167.215 31.3147 169.532 32.3424 172.77 32.3424C174.005 32.3424 174.938 32.2524 175.495 32.1466V28.1404Z" fill="#101010"/>
<path d="M102.631 28.1482C102.41 28.1565 102.154 28.1648 101.915 28.1648C100.723 28.1648 99.9728 27.8332 99.9728 26.5068V18.5492H102.631V15.1673H99.9728V9.79593H94.5547V15.1673H92.748V18.5492H94.5547V27.6674C94.5547 31.3147 96.8717 32.3424 100.109 32.3424C101.204 32.3424 102.062 32.2715 102.631 32.1817V28.1482Z" fill="#101010"/>
<path d="M114.729 21.832C114.525 19.8095 113.23 18.5161 111.424 18.5161C109.311 18.5161 108.22 19.8095 107.846 21.832H114.729ZM102.359 23.6223C102.359 18.5493 106.005 14.6702 111.321 14.6702C113.809 14.6702 115.785 15.4659 117.285 16.7921C119.363 18.6489 120.386 21.5998 120.351 25.0481H107.812C108.152 27.3359 109.447 28.7617 111.73 28.7617C113.196 28.7617 114.15 28.1317 114.627 27.0708H120.045C119.67 28.5959 118.648 30.0547 117.114 31.0827C115.649 32.0772 113.877 32.641 111.662 32.641C105.903 32.641 102.359 28.7617 102.359 23.6223Z" fill="#101010"/>
<path d="M59.4494 19.5773C61.6304 19.5773 62.8571 18.3173 62.8571 16.4272C62.8571 14.5374 61.5961 13.3769 59.4494 13.3769H55.1897V19.5773H59.4494ZM49.5664 8.4366H59.2119C62.1764 8.4366 64.3573 9.23227 65.8567 10.6249C67.4243 12.0505 68.3102 14.0733 68.3102 16.4605C68.3102 21.0029 65.073 24.2192 60.0637 24.2192H55.1897V32.1436H49.5664V8.4366Z" fill="#101010"/>
<path d="M20.9709 0.597778C9.389 0.597778 0 9.73329 0 21.0028C0 29.6474 5.52741 37.0372 13.3284 40.0103C13.1451 38.3959 12.9794 35.9129 13.4011 34.1506C13.7822 32.5579 15.8602 24.0079 15.8602 24.0079C15.8602 24.0079 15.2329 22.7856 15.2329 20.9784C15.2329 18.1411 16.9231 16.0227 19.0275 16.0227C20.8167 16.0227 21.6808 17.3299 21.6808 18.8971C21.6808 20.6479 20.5353 23.2655 19.944 25.6911C19.45 27.7221 20.9908 29.3782 23.0494 29.3782C26.7767 29.3782 29.6418 25.5543 29.6418 20.0344C29.6418 15.1487 26.034 11.7328 20.8822 11.7328C14.9152 11.7328 11.4129 16.0876 11.4129 20.588C11.4129 22.3418 12.1072 24.2224 12.9736 25.2446C13.145 25.4467 13.17 25.6237 13.119 25.8298C12.9598 26.4743 12.606 27.8604 12.5366 28.1441C12.4451 28.5176 12.2327 28.5968 11.8352 28.4169C9.2161 27.2305 7.57856 23.5046 7.57856 20.5119C7.57856 14.0752 12.385 8.16388 21.4347 8.16388C28.7095 8.16388 34.363 13.2079 34.363 19.9488C34.363 26.9811 29.8059 32.6407 23.4809 32.6407C21.3559 32.6407 19.3582 31.5667 18.6744 30.2978C18.6744 30.2978 17.6228 34.1936 17.368 35.1484C16.8945 36.9208 15.6164 39.1424 14.7615 40.4977C16.7237 41.0889 18.8089 41.4078 20.9709 41.4078C32.5526 41.4078 41.9416 32.2721 41.9416 21.0028C41.9416 9.73329 32.5526 0.597778 20.9709 0.597778Z" fill="#101010"/>
</g>
<defs>
<clipPath id="clip0_804_2346">
<rect width="175.78" height="40.81" fill="white" transform="translate(0 0.597778)"/>
</clipPath>
</defs>
</svg>
