<svg width="56" height="56" viewBox="0 0 56 56" fill="none" xmlns="http://www.w3.org/2000/svg">
<path d="M0 12C0 5.37258 5.37258 0 12 0H44C50.6274 0 56 5.37258 56 12V44C56 50.6274 50.6274 56 44 56H12C5.37258 56 0 50.6274 0 44V12Z" fill="#FFED9E"/>
<path fill-rule="evenodd" clip-rule="evenodd" d="M16.0374 20.2895C15.9999 20.0661 16.0268 20.0327 16.2509 20.0182C16.5825 19.9966 16.9156 19.9982 17.2481 19.9998C17.3358 20.0002 17.4234 20.0007 17.511 20.0007C17.7339 20.0007 17.7449 20.0091 17.7783 20.2344C18.4511 24.765 22.0924 28.3283 26.6656 28.9154V35.1381C24.5968 35.5732 22.882 36.9991 21.9294 38.8901C21.1325 40.4721 22.2487 42.3334 23.944 42.3334H32.0539C33.7492 42.3334 34.8655 40.4721 34.0685 38.8901C33.1159 36.9991 31.4011 35.5732 29.3323 35.1381V28.9157C33.9066 28.3295 37.5491 24.7658 38.2219 20.2344C38.2554 20.0091 38.2663 20.0007 38.4893 20.0007C38.5769 20.0007 38.6645 20.0002 38.7521 19.9998C39.0847 19.9982 39.4178 19.9966 39.7493 20.0182C39.9869 20.0336 39.9903 20.1312 39.9528 20.3474C39.9195 20.5342 39.873 20.7509 39.812 21.0343C39.4057 22.9207 38.5301 24.5487 37.3769 25.74C36.8648 26.2691 36.8785 27.1132 37.4076 27.6254C37.9367 28.1375 38.7808 28.1238 39.2929 27.5947C40.8156 26.0217 41.9148 23.9362 42.4189 21.5958C42.4291 21.5484 42.4395 21.5009 42.4498 21.4533C42.551 20.9887 42.6533 20.5193 42.6656 20.0432C42.6809 19.4543 42.5439 18.8586 42.0963 18.3144C41.6213 17.7369 41.0113 17.5073 40.4318 17.4131C39.9436 17.3336 39.3552 17.3338 38.7699 17.334L38.5111 17.334C38.2831 17.334 38.2723 17.326 38.2416 17.0932C38.212 16.8682 38.17 16.6476 38.108 16.435C37.9211 15.7935 37.5737 15.2689 37.0113 14.7547C35.8178 13.6634 34.4362 13.6649 32.662 13.6669H23.3382C21.5641 13.6649 20.1824 13.6634 18.9889 14.7547C18.4265 15.2689 18.0791 15.7935 17.8922 16.435C17.8303 16.6476 17.7883 16.8682 17.7586 17.0932C17.728 17.326 17.7172 17.334 17.4891 17.334L17.2304 17.334C16.6451 17.3338 16.0567 17.3336 15.5684 17.4131C14.989 17.5073 14.3789 17.7369 13.9039 18.3144C13.4563 18.8586 13.3193 19.4543 13.3346 20.0432C13.3467 20.5092 13.46 21.0336 13.5641 21.5158C14.0522 23.7778 15.0892 25.923 16.7073 27.5947C17.2195 28.1238 18.0636 28.1375 18.5927 27.6254C19.1218 27.1132 19.1355 26.2691 18.6234 25.74C17.1838 24.2528 16.3866 22.3054 16.0374 20.2895Z" fill="#DB6E00"/>
</svg>
