<svg width="191" height="27" viewBox="0 0 191 27" fill="none" xmlns="http://www.w3.org/2000/svg">
<g clip-path="url(#clip0_206_4754)">
<g clip-path="url(#clip1_206_4754)">
<g clip-path="url(#clip2_206_4754)">
<path d="M186.721 0.939453H154.721C152.512 0.939453 150.721 2.73031 150.721 4.93945V22.9395C150.721 25.1486 152.512 26.9395 154.721 26.9395H186.721C188.93 26.9395 190.721 25.1486 190.721 22.9395V4.93945C190.721 2.73031 188.93 0.939453 186.721 0.939453Z" fill="#EAEAEA"/>
<path d="M171.593 14.2355C173.056 14.2355 174.241 13.0499 174.241 11.5875C174.241 10.125 173.056 8.93945 171.593 8.93945C170.131 8.93945 168.945 10.125 168.945 11.5875C168.945 13.0499 170.131 14.2355 171.593 14.2355Z" fill="#F26E21"/>
<path d="M157.332 12.8558C156.949 13.1596 156.464 13.3031 155.978 13.2558H155.712V9.93185H155.977C156.218 9.90734 156.462 9.93066 156.694 10.0005C156.927 10.0703 157.143 10.1853 157.331 10.3388C157.504 10.4976 157.642 10.691 157.736 10.9065C157.83 11.122 157.878 11.3547 157.877 11.5898C157.878 11.8273 157.831 12.0626 157.737 12.2807C157.643 12.4988 157.504 12.695 157.331 12.8568L157.332 12.8558ZM156.176 9.08084H154.723V14.1068H156.169C156.822 14.1431 157.466 13.9365 157.977 13.5268C158.391 13.1872 158.686 12.7241 158.818 12.205C158.95 11.6859 158.913 11.1381 158.712 10.6416C158.511 10.1451 158.157 9.72581 157.701 9.44502C157.245 9.16424 156.71 9.03662 156.176 9.08084Z" fill="#0B161F"/>
<path d="M159.352 14.1061H160.34V9.08008H159.352V14.1061Z" fill="#0B161F"/>
<path d="M162.758 11.0074C162.164 10.7894 161.99 10.6454 161.99 10.3754C161.99 10.0584 162.301 9.81741 162.727 9.81741C162.882 9.82051 163.035 9.85863 163.173 9.92893C163.312 9.99923 163.433 10.0999 163.527 10.2234L164.043 9.55341C163.632 9.19012 163.101 8.99139 162.553 8.9954C162.354 8.98227 162.154 9.00946 161.965 9.07532C161.777 9.14119 161.604 9.24437 161.456 9.37872C161.309 9.51306 161.19 9.67579 161.106 9.85719C161.023 10.0386 160.977 10.2349 160.972 10.4344C160.972 11.1284 161.291 11.4824 162.219 11.8154C162.455 11.8885 162.684 11.9843 162.903 12.1014C162.994 12.1541 163.07 12.2299 163.122 12.3212C163.175 12.4125 163.203 12.516 163.203 12.6214C163.201 12.7192 163.18 12.8157 163.14 12.9051C163.101 12.9944 163.043 13.0747 162.971 13.141C162.899 13.2074 162.815 13.2584 162.722 13.291C162.63 13.3235 162.532 13.3369 162.435 13.3304C162.209 13.3345 161.988 13.2734 161.796 13.1546C161.605 13.0357 161.452 12.8641 161.356 12.6604L160.719 13.2714C160.9 13.5726 161.158 13.8201 161.466 13.9883C161.775 14.1566 162.123 14.2394 162.474 14.2284C162.699 14.2447 162.926 14.2138 163.139 14.1379C163.351 14.062 163.546 13.9426 163.711 13.7873C163.875 13.632 164.005 13.4443 164.093 13.236C164.181 13.0277 164.224 12.8034 164.221 12.5774C164.221 11.7774 163.888 11.4164 162.763 11.0084" fill="#0B161F"/>
<path d="M164.527 11.5953C164.526 11.9446 164.595 12.2907 164.729 12.6131C164.864 12.9354 165.062 13.2275 165.311 13.4721C165.561 13.7167 165.857 13.9089 166.182 14.0372C166.507 14.1655 166.854 14.2274 167.203 14.2193C167.634 14.2198 168.058 14.1195 168.442 13.9263V12.7713C168.294 12.9429 168.111 13.0808 167.905 13.1757C167.699 13.2706 167.475 13.3202 167.248 13.3213C167.02 13.3285 166.793 13.2883 166.581 13.2033C166.37 13.1182 166.178 12.9902 166.018 12.8272C165.858 12.6642 165.734 12.4699 165.653 12.2565C165.572 12.0431 165.537 11.8152 165.548 11.5873C165.542 11.3646 165.58 11.1429 165.66 10.935C165.74 10.7272 165.861 10.5374 166.016 10.3767C166.17 10.216 166.355 10.0877 166.559 9.99924C166.764 9.91074 166.984 9.86383 167.206 9.86127C167.441 9.86243 167.673 9.91339 167.886 10.0108C168.1 10.1082 168.291 10.2498 168.445 10.4263V9.27127C168.072 9.06844 167.653 8.96254 167.228 8.96327C166.878 8.95732 166.53 9.02074 166.205 9.14987C165.879 9.27901 165.582 9.47131 165.331 9.71569C165.08 9.96006 164.88 10.2517 164.742 10.5738C164.604 10.8958 164.532 11.242 164.528 11.5923" fill="#0B161F"/>
<path d="M176.452 12.4561L175.104 9.08008H174.025L176.177 14.2351H176.708L178.897 9.08008H177.825L176.457 12.4561" fill="#0B161F"/>
<path d="M179.342 14.1071H182.142V13.2561H180.326V11.8981H182.072V11.0471H180.326V9.93108H182.142V9.08008H179.342V14.1071Z" fill="#0B161F"/>
<path d="M184.075 11.395H183.787V9.87202H184.087C184.704 9.87202 185.038 10.129 185.038 10.618C185.038 11.118 184.703 11.395 184.071 11.395H184.075ZM186.059 10.565C186.059 9.62303 185.406 9.08203 184.265 9.08203H182.799V14.108H183.788V12.088H183.918L185.285 14.108H186.501L184.901 11.99C185.239 11.9441 185.546 11.7712 185.761 11.5064C185.976 11.2417 186.082 10.905 186.057 10.565" fill="#0B161F"/>
<path d="M161.934 18.7772V15.9492L163.865 17.9692V16.1292H164.265V18.9382L162.334 16.9232V18.7772H161.934Z" fill="#2C2C2C"/>
<path d="M166.361 16.5059H165.299V17.1419H166.33V17.5179H165.299V18.4029H166.361V18.7789H164.9V16.1309H166.361V16.5059Z" fill="#2C2C2C"/>
<path d="M167.615 16.5059V18.7769H167.215V16.5049H166.607V16.1289H168.223V16.5049L167.615 16.5059Z" fill="#2C2C2C"/>
<path d="M168.867 16.132L169.557 17.9019L170.278 16.002L170.967 17.9019L171.699 16.132H172.133L170.95 18.948L170.269 17.072L169.559 18.95L168.434 16.132H168.867Z" fill="#2C2C2C"/>
<path d="M172.21 17.4422C172.208 17.2625 172.244 17.0845 172.314 16.9192C172.385 16.754 172.489 16.6052 172.62 16.4822C172.748 16.3528 172.901 16.2506 173.069 16.1819C173.238 16.1131 173.419 16.0792 173.601 16.0822C173.965 16.0841 174.315 16.2297 174.572 16.4875C174.83 16.7454 174.976 17.0946 174.978 17.4592C174.981 17.6402 174.946 17.8199 174.876 17.9868C174.806 18.1536 174.702 18.304 174.57 18.4282C174.316 18.6762 173.978 18.8188 173.624 18.8271C173.269 18.8355 172.925 18.709 172.66 18.4732C172.512 18.346 172.395 18.1874 172.318 18.0089C172.24 17.8305 172.203 17.6368 172.21 17.4422ZM172.61 17.4422C172.606 17.5763 172.63 17.7099 172.681 17.8341C172.731 17.9583 172.808 18.0704 172.905 18.1632C173.088 18.346 173.336 18.4486 173.595 18.4486C173.854 18.4486 174.103 18.346 174.286 18.1632C174.469 17.9722 174.571 17.7181 174.571 17.4537C174.571 17.1893 174.469 16.9352 174.286 16.7442C174.101 16.5597 173.85 16.456 173.589 16.456C173.327 16.456 173.077 16.5597 172.892 16.7442C172.8 16.8359 172.728 16.9456 172.68 17.0663C172.632 17.187 172.609 17.3163 172.613 17.4462L172.61 17.4422Z" fill="#2C2C2C"/>
<path d="M176.377 17.6492L177.197 18.7772H176.708L175.952 17.6932H175.88V18.7732H175.48V16.1252H175.948C176.217 16.1027 176.484 16.1733 176.706 16.3252C176.791 16.396 176.857 16.485 176.902 16.5855C176.946 16.686 176.967 16.7953 176.963 16.9052C176.968 17.08 176.911 17.2509 176.802 17.3882C176.697 17.5232 176.546 17.6158 176.377 17.6492ZM175.877 17.3492H176.003C176.382 17.3492 176.571 17.2045 176.571 16.9152C176.571 16.6438 176.387 16.5085 176.019 16.5092H175.877V17.3492Z" fill="#2C2C2C"/>
<path d="M177.996 17.1869L179.027 16.1309H179.561L178.361 17.3308L179.561 18.7798H179.026L178.072 17.6018L177.99 17.6848V18.7849H177.59V16.1368H177.99V17.1928L177.996 17.1869Z" fill="#2C2C2C"/>
<path d="M136.721 0.939453H104.721C102.512 0.939453 100.721 2.73031 100.721 4.93945V22.9395C100.721 25.1486 102.512 26.9395 104.721 26.9395H136.721C138.93 26.9395 140.721 25.1486 140.721 22.9395V4.93945C140.721 2.73031 138.93 0.939453 136.721 0.939453Z" fill="#EAEAEA"/>
<path d="M107.393 11.006H108.542L107.967 9.54297L107.393 11.006Z" fill="#306FC5"/>
<path d="M113.506 15.9171V16.5961H115.439V17.3281H113.506V18.1121H115.648L116.641 17.0121L115.701 15.9121L113.506 15.9171Z" fill="#306FC5"/>
<path d="M128.604 9.54297L127.977 11.006H129.177L128.604 9.54297Z" fill="#306FC5"/>
<path d="M119.094 18.5288V15.5508L117.736 17.0138L119.094 18.5288Z" fill="#306FC5"/>
<path d="M121.655 16.3865C121.641 16.2481 121.573 16.1211 121.465 16.033C121.357 15.945 121.219 15.9031 121.08 15.9165H119.98V16.8565H121.129C121.446 16.8565 121.655 16.7005 121.655 16.3865Z" fill="#306FC5"/>
<path d="M125.313 16.7525C125.368 16.7101 125.411 16.6541 125.439 16.59C125.466 16.5259 125.477 16.4559 125.47 16.3865C125.495 16.317 125.493 16.2405 125.464 16.1725C125.434 16.1045 125.38 16.0501 125.313 16.0205C125.178 15.9742 125.036 15.9565 124.895 15.9685H123.85V16.8045H124.895C125.036 16.8166 125.178 16.7989 125.313 16.7525Z" fill="#306FC5"/>
<path d="M132.835 8.18718V8.81418L132.522 8.18718H130.067V8.81418L129.753 8.18718H126.41C125.904 8.17399 125.403 8.28165 124.947 8.50119V8.18718H122.596V8.50119C122.313 8.28184 121.961 8.17051 121.603 8.18718H113.192L112.617 9.49318L112.042 8.18718H109.379V8.81418L109.118 8.18718H106.818L105.773 10.6422L104.573 13.3062L104.551 13.3582H107.271L107.29 13.3062L107.604 12.5232H108.283L108.596 13.3592H111.626V12.7322L111.887 13.3592H113.402L113.663 12.7322V13.3592H120.925V12.0012H121.025C121.125 12.0012 121.125 12.0012 121.125 12.1582V13.3072H124.887V12.9872C125.326 13.2002 125.809 13.3074 126.297 13.3002H127.865L128.178 12.4642H128.909L129.222 13.3002H132.252V12.5172L132.722 13.3002H135.177V8.18718H132.835ZM115.125 12.5762H114.289V9.70319L114.237 9.82318L113.022 12.5782H112.252L111.002 9.70018V12.5732H109.222L108.856 11.7892H107.08L106.714 12.5732H105.796L107.341 8.91618H108.647L110.11 12.4162V8.91618H111.494L111.519 8.96819L112.178 10.4032L112.651 11.4782L112.668 11.4242L113.713 8.91618H115.124V12.5732L115.125 12.5762ZM118.725 9.70319H116.693V10.3822H118.678V11.1132H116.693V11.8452H118.731V12.6282H115.802V8.91718H118.728V9.70119L118.725 9.70319ZM122.451 11.0502C122.469 11.0697 122.486 11.0904 122.502 11.1122C122.629 11.2904 122.694 11.5054 122.687 11.7242V11.7392C122.687 11.7392 122.687 11.7442 122.687 11.7472C122.687 11.7762 122.687 11.8052 122.687 11.8372V12.5682H121.904V12.1502C121.928 11.8962 121.873 11.641 121.747 11.4192C121.703 11.3744 121.651 11.3387 121.593 11.3142C121.441 11.2606 121.279 11.2428 121.12 11.2622H120.179V12.5682H119.302V8.91718H121.287C121.643 8.87488 122.004 8.92911 122.332 9.07419C122.468 9.15884 122.579 9.27919 122.653 9.42229C122.726 9.56538 122.759 9.72579 122.748 9.88619C122.75 10.0907 122.692 10.2912 122.58 10.4627C122.469 10.6342 122.309 10.769 122.122 10.8502C122.249 10.8831 122.365 10.9514 122.456 11.0472L122.451 11.0502ZM124.21 12.5762H123.322V8.91919H124.21V12.5762ZM134.397 12.5762H133.247L131.575 9.80719V12.1072L131.57 12.1022V12.5802H130.687H129.802L129.489 11.7962H127.663L127.35 12.6322H126.357C126.115 12.6597 125.869 12.6304 125.64 12.5466C125.411 12.4628 125.205 12.3268 125.038 12.1494C124.87 11.972 124.747 11.7581 124.676 11.5246C124.606 11.2911 124.591 11.0444 124.633 10.8042C124.603 10.2752 124.771 9.75394 125.103 9.34119C125.278 9.18173 125.485 9.06184 125.71 8.9897C125.936 8.91757 126.174 8.89489 126.409 8.92319H127.245V9.70718H126.409C126.164 9.68777 125.921 9.76253 125.73 9.91618C125.543 10.1533 125.45 10.4509 125.469 10.7522C125.448 10.9102 125.46 11.071 125.505 11.2239C125.55 11.3769 125.626 11.5187 125.73 11.6402C125.815 11.716 125.914 11.7736 126.022 11.8095C126.129 11.8455 126.244 11.859 126.357 11.8492H126.723L127.923 8.97618H129.229L130.692 12.4762V8.97618H132.002L133.517 11.5362V8.97618H134.402V12.5762H134.397Z" fill="#306FC5"/>
<path d="M121.71 10.4369C121.726 10.42 121.74 10.4012 121.751 10.3809C121.823 10.2628 121.848 10.1226 121.823 9.98691C121.822 9.97072 121.819 9.95467 121.815 9.93892C121.815 9.93892 121.815 9.93091 121.815 9.92691C121.803 9.88775 121.782 9.85165 121.755 9.82099C121.727 9.79032 121.694 9.76577 121.656 9.74892C121.522 9.70281 121.38 9.6851 121.238 9.69692H120.193V10.5329H121.238C121.38 10.5449 121.522 10.5272 121.656 10.4809C121.672 10.4725 121.686 10.4621 121.699 10.4499L121.71 10.4369Z" fill="#306FC5"/>
<path d="M137.486 17.7979C137.487 17.4498 137.397 17.1075 137.225 16.8048V14.4539V14.2969H134.709C134.445 14.3346 134.196 14.4427 133.988 14.6098V14.2969H131.588C131.214 14.2805 130.846 14.3908 130.543 14.6098V14.2969H126.259V14.6098C125.916 14.3925 125.516 14.2834 125.11 14.2969H122.289V14.6098C121.932 14.38 121.512 14.2703 121.089 14.2969H117.955L117.223 15.0808L116.544 14.2969H111.844V19.5739H116.444L117.199 18.8178L117.854 19.5739H120.78V18.3738H121.041C121.447 18.3989 121.855 18.3456 122.241 18.2168V19.6278H124.592V18.2698H124.692C124.849 18.2698 124.849 18.2699 124.849 18.4269V19.6268H131.949C132.372 19.6487 132.791 19.539 133.149 19.3128V19.6268H135.396C135.83 19.6578 136.264 19.5674 136.65 19.3659C136.892 19.2159 137.094 19.0093 137.238 18.7638C137.383 18.5183 137.465 18.2414 137.479 17.9569C137.479 17.9389 137.479 17.9208 137.485 17.9028C137.485 17.8648 137.486 17.8319 137.486 17.7979ZM121.03 17.4848H119.985V18.8449H118.268L117.268 17.6958L117.219 17.6398L116.07 18.8399H112.727V15.1849H116.127L117.055 16.2008L117.255 16.4139L117.281 16.3868L118.381 15.1868H121.15C121.419 15.1497 121.694 15.1946 121.938 15.3157C122.182 15.4368 122.383 15.6285 122.517 15.8659C122.546 15.9853 122.561 16.1079 122.56 16.2308C122.54 17.2748 121.813 17.4848 121.03 17.4848ZM126.254 17.4328C126.373 17.6383 126.428 17.8749 126.411 18.1119V18.8428H125.523V18.3728C125.552 18.1182 125.497 17.861 125.366 17.6408C125.266 17.4848 125.053 17.4848 124.739 17.4848H123.799V18.8449H122.911V15.1358H124.896C125.252 15.0986 125.611 15.1526 125.941 15.2929C126.088 15.3759 126.21 15.4978 126.293 15.6452C126.375 15.7926 126.416 15.9599 126.411 16.1289C126.418 16.3383 126.363 16.5451 126.251 16.7223C126.139 16.8995 125.976 17.0388 125.784 17.1219C125.97 17.1716 126.135 17.2814 126.254 17.4328ZM129.854 15.9179H127.816V16.5968H129.801V17.3289H127.816V18.0609H129.854V18.8449H126.928V15.1358H129.854V15.9179ZM132.048 18.8438H130.376V18.0599H132.048C132.112 18.0714 132.179 18.0684 132.242 18.0511C132.305 18.0338 132.364 18.0026 132.414 17.9598C132.481 17.8894 132.518 17.796 132.518 17.6989C132.518 17.6017 132.481 17.5083 132.414 17.4378C132.326 17.3654 132.213 17.3296 132.1 17.3378C131.264 17.2858 130.271 17.3379 130.271 16.1889C130.271 15.6669 130.584 15.0888 131.525 15.0888H133.249V15.9768H131.64C131.515 15.9644 131.39 15.9822 131.274 16.0288C131.174 16.0808 131.174 16.1859 131.174 16.2899C131.174 16.4469 131.274 16.4988 131.383 16.5508C131.481 16.5933 131.589 16.6111 131.696 16.6029H132.166C132.344 16.5857 132.524 16.6047 132.694 16.6586C132.865 16.7126 133.023 16.8004 133.159 16.9168C133.346 17.1333 133.44 17.4153 133.42 17.7008C133.411 18.4758 132.94 18.8449 132.053 18.8449L132.048 18.8438ZM136.541 18.4779C136.237 18.7402 135.841 18.8717 135.441 18.8438H133.77V18.0599H135.441C135.505 18.0715 135.572 18.0685 135.635 18.0512C135.698 18.0339 135.757 18.0027 135.807 17.9598C135.874 17.8894 135.911 17.796 135.911 17.6989C135.911 17.6017 135.874 17.5083 135.807 17.4378C135.719 17.3655 135.607 17.3297 135.494 17.3378C134.658 17.2858 133.665 17.3379 133.665 16.1889C133.661 15.9177 133.761 15.6554 133.944 15.4552C134.127 15.255 134.379 15.1319 134.65 15.1108C134.739 15.0983 134.829 15.0919 134.919 15.0918H136.643V15.9798H135.023C134.898 15.9673 134.773 15.9852 134.657 16.0318C134.593 16.104 134.558 16.1967 134.557 16.2929C134.557 16.4499 134.609 16.5018 134.766 16.5538C134.864 16.5963 134.972 16.6142 135.079 16.6058H135.549C135.739 16.6011 135.928 16.6296 136.108 16.6899C136.29 16.7532 136.453 16.8624 136.581 17.0071C136.709 17.1518 136.798 17.327 136.839 17.5158C136.849 17.5777 136.854 17.6402 136.855 17.7029C136.858 17.8459 136.832 17.988 136.779 18.1209C136.726 18.2537 136.647 18.3744 136.546 18.4758L136.541 18.4779Z" fill="#306FC5"/>
<path d="M86.7207 0.939453H54.7207C52.5116 0.939453 50.7207 2.73031 50.7207 4.93945V22.9395C50.7207 25.1486 52.5116 26.9395 54.7207 26.9395H86.7207C88.9298 26.9395 90.7207 25.1486 90.7207 22.9395V4.93945C90.7207 2.73031 88.9298 0.939453 86.7207 0.939453Z" fill="#EAEAEA"/>
<path d="M66.7852 18.4522L68.2032 10.0762H70.5032L69.0852 18.4522H66.7852Z" fill="#293688"/>
<path d="M77.2564 10.2935C76.5961 10.056 75.8991 9.93685 75.1974 9.94154C72.9274 9.94154 71.3294 11.0775 71.3154 12.7055C71.3024 13.9055 72.4564 14.5795 73.3284 14.9805C74.2224 15.3905 74.5224 15.6535 74.5184 16.0195C74.5124 16.5805 73.8044 16.8376 73.1444 16.8376C72.3995 16.8591 71.6596 16.7085 70.9824 16.3975L70.6824 16.2645L70.3594 18.1395C71.1788 18.4403 72.0455 18.5917 72.9184 18.5865C75.3324 18.5865 76.9004 17.4635 76.9184 15.7245C76.9274 14.7715 76.3184 14.0465 74.9904 13.4485C74.1904 13.0615 73.6954 12.8035 73.7014 12.4105C73.7014 12.0625 74.1174 11.6905 75.0164 11.6905C75.6054 11.6775 76.1908 11.7868 76.7354 12.0115L76.9404 12.1115L77.2524 10.2966L77.2564 10.2935Z" fill="#293688"/>
<path d="M81.1721 10.0757C80.9229 10.0473 80.6713 10.1017 80.4562 10.2306C80.2411 10.3595 80.0745 10.5556 79.9821 10.7887L76.582 18.4517H79.013L79.4861 17.1677H82.386L82.656 18.4517H84.8181L82.927 10.0757H81.17H81.1721ZM80.1281 15.4927C80.3181 15.0107 81.0431 13.1517 81.0431 13.1517C81.0301 13.1737 81.232 12.6667 81.343 12.3517L81.498 13.0737L82.0301 15.4927H80.1241H80.1281Z" fill="#293688"/>
<path d="M62.5968 15.8172L62.3968 14.6692C61.8132 13.1427 60.6795 11.8899 59.2188 11.1572L61.2477 18.4522H63.6777L67.3248 10.0762H64.8938L62.5968 15.8172Z" fill="#293688"/>
<path d="M56.7207 10.0754V10.2103C57.9543 10.4448 59.1136 10.9721 60.101 11.7479C61.0884 12.5237 61.875 13.5252 62.3947 14.6684L61.5617 10.7894C61.4986 10.564 61.3575 10.3683 61.1635 10.2374C60.9695 10.1064 60.7353 10.0486 60.5027 10.0743L56.7207 10.0754Z" fill="#F7981D"/>
<path d="M36.7207 0.939453H4.7207C2.51156 0.939453 0.720703 2.73031 0.720703 4.93945V22.9395C0.720703 25.1486 2.51156 26.9395 4.7207 26.9395H36.7207C38.9298 26.9395 40.7207 25.1486 40.7207 22.9395V4.93945C40.7207 2.73031 38.9298 0.939453 36.7207 0.939453Z" fill="#EAEAEA"/>
<path d="M32.7212 14.1399C32.7212 16.0656 31.9562 17.9125 30.5945 19.2742C29.2328 20.6359 27.3859 21.4009 25.4602 21.4009C23.5345 21.4009 21.6876 20.6359 20.3259 19.2742C18.9642 17.9125 18.1992 16.0656 18.1992 14.1399C18.1992 12.2142 18.9642 10.3673 20.3259 9.00561C21.6876 7.64391 23.5345 6.87891 25.4602 6.87891C27.3859 6.87891 29.2328 7.64391 30.5945 9.00561C31.9562 10.3673 32.7212 12.2142 32.7212 14.1399Z" fill="#FFB600"/>
<path d="M25.4602 6.93946C27.3764 6.93625 29.2159 7.69184 30.5765 9.04106C31.9372 10.3903 32.7083 12.2233 32.7212 14.1395C32.7212 16.0652 31.9562 17.9121 30.5945 19.2738C29.2328 20.6355 27.3859 21.4005 25.4602 21.4005C23.5345 21.4005 21.6876 20.6355 20.3259 19.2738C18.9642 17.9121 18.1992 16.0652 18.1992 14.1395" fill="#F7981D"/>
<path d="M25.459 6.93946C27.3752 6.93625 29.2147 7.69184 30.5753 9.04106C31.936 10.3903 32.7071 12.2233 32.72 14.1395C32.7167 15.0892 32.5262 16.029 32.1594 16.905C31.7926 17.781 31.2567 18.5762 30.5823 19.2449C29.9079 19.9136 29.1083 20.4428 28.2292 20.8022C27.35 21.1616 26.4087 21.3442 25.459 21.3395" fill="#FF8500"/>
<path d="M15.9038 6.93945C14.9583 6.94451 14.023 7.13575 13.1514 7.50225C12.2798 7.86876 11.4889 8.40335 10.8239 9.07551C10.1589 9.74766 9.63279 10.5442 9.27562 11.4197C8.91846 12.2952 8.73723 13.2324 8.74229 14.1779C8.74735 15.1235 8.93859 16.0587 9.30509 16.9303C9.6716 17.802 10.2062 18.5928 10.8783 19.2578C11.5505 19.9228 12.3471 20.449 13.2225 20.8061C14.098 21.1633 15.0353 21.3445 15.9808 21.3394C17.7804 21.3328 19.5155 20.6688 20.8598 19.4725C21.1223 19.2375 21.3664 18.9828 21.5898 18.7104H20.0898C19.8982 18.4785 19.7186 18.2368 19.5518 17.9865H22.1258C22.2893 17.7456 22.4309 17.4906 22.5488 17.2244H19.1308C19.0055 16.9803 18.9028 16.7252 18.8238 16.4624H22.8238C23.0694 15.7249 23.1989 14.9537 23.2078 14.1765C23.1965 13.6652 23.145 13.1556 23.0538 12.6525H18.5928C18.6386 12.3942 18.7028 12.1396 18.7848 11.8904H22.7848C22.7058 11.6277 22.6031 11.3726 22.4778 11.1284H19.0928C19.219 10.8665 19.3602 10.6121 19.5158 10.3664H22.0898C21.9322 10.0882 21.7386 9.83193 21.5138 9.60445H20.0918C20.3157 9.34427 20.5598 9.10219 20.8218 8.88045C19.4906 7.66259 17.7469 6.99533 15.9428 7.01345C15.9418 6.93945 15.9418 6.93945 15.9038 6.93945Z" fill="#FF5050"/>
<path d="M8.7207 14.139C8.72398 15.0888 8.91447 16.0285 9.28128 16.9046C9.64809 17.7806 10.184 18.5757 10.8584 19.2445C11.5328 19.9132 12.3324 20.4424 13.2115 20.8018C14.0906 21.1612 15.032 21.3438 15.9817 21.339C17.7813 21.3324 19.5164 20.6684 20.8607 19.472C21.1232 19.2371 21.3673 18.9824 21.5907 18.71H20.0907C19.8991 18.4781 19.7195 18.2364 19.5527 17.986H22.1267C22.2902 17.7452 22.4318 17.4902 22.5497 17.224H19.1317C19.0064 16.9799 18.9037 16.7248 18.8247 16.462H22.8247C23.0703 15.7245 23.1998 14.9533 23.2087 14.176C23.1974 13.6648 23.1459 13.1552 23.0547 12.652H18.5937C18.6396 12.3938 18.7037 12.1392 18.7857 11.89H22.7857C22.7067 11.6272 22.604 11.3722 22.4787 11.128H19.0937C19.2199 10.8661 19.3611 10.6116 19.5167 10.366H22.0907C21.9332 10.0877 21.7395 9.8315 21.5147 9.60402H20.0927C20.3166 9.34385 20.5607 9.10176 20.8227 8.88002C19.4908 7.6631 17.7467 6.99693 15.9427 7.01602H15.9047" fill="#E52836"/>
<path d="M15.8954 21.34C17.6949 21.3334 19.43 20.6694 20.7744 19.473C21.0369 19.2381 21.2809 18.9834 21.5043 18.711H20.0043C19.8128 18.479 19.6332 18.2374 19.4664 17.987H22.0404C22.2039 17.7462 22.3454 17.4912 22.4633 17.225H19.0444C18.9191 16.9809 18.8163 16.7258 18.7374 16.463H22.7374C22.9829 15.7255 23.1125 14.9543 23.1214 14.177C23.1101 13.6658 23.0586 13.1562 22.9673 12.653H18.5114C18.5572 12.3948 18.6214 12.1402 18.7034 11.891H22.7034C22.6244 11.6282 22.5216 11.3732 22.3963 11.129H19.0154C19.1415 10.8671 19.2828 10.6127 19.4384 10.367H22.0124C21.8548 10.0887 21.6611 9.8325 21.4364 9.60502H20.0154C20.2392 9.34485 20.4833 9.10277 20.7453 8.88102C19.4141 7.66325 17.6704 6.996 15.8663 7.01403H15.8184" fill="#CB2026"/>
<path d="M18.4786 15.9865L18.5936 15.3335C18.5304 15.3499 18.4663 15.3626 18.4016 15.3715C18.1326 15.3715 18.0946 15.2175 18.1326 15.1415L18.3626 13.7965H18.7856L18.9006 13.0665H18.5166L18.5936 12.6055H17.8256C17.8256 12.6055 17.3646 15.1415 17.3646 15.4485C17.3531 15.5337 17.3607 15.6204 17.3869 15.7023C17.4132 15.7841 17.4574 15.8591 17.5163 15.9217C17.5753 15.9843 17.6475 16.0329 17.7276 16.064C17.8078 16.0951 17.8939 16.1079 17.9796 16.1015C18.1524 16.1002 18.3227 16.0609 18.4786 15.9865Z" fill="white"/>
<path d="M18.7296 14.7563C18.7102 14.9377 18.7317 15.1211 18.7924 15.2931C18.8531 15.4651 18.9516 15.6214 19.0806 15.7503C19.2096 15.8793 19.3658 15.9778 19.5378 16.0385C19.7098 16.0993 19.8932 16.1207 20.0746 16.1013C20.3486 16.119 20.6234 16.0798 20.8816 15.9863L21.0356 15.2563C20.7804 15.3687 20.507 15.4338 20.2286 15.4483C19.3836 15.4483 19.5376 14.8333 19.5376 14.8333H21.1126C21.1671 14.606 21.2055 14.3751 21.2276 14.1423C21.2385 13.9932 21.2171 13.8436 21.165 13.7035C21.1128 13.5634 21.0311 13.4362 20.9254 13.3305C20.8197 13.2248 20.6925 13.1431 20.5524 13.0909C20.4124 13.0388 20.2627 13.0174 20.1136 13.0283C19.3056 12.9513 18.7296 13.7963 18.7296 14.7563ZM20.0746 13.6423C20.4976 13.6423 20.4206 14.1423 20.4206 14.1803H19.5756C19.5746 14.1423 19.6516 13.6423 20.0746 13.6423Z" fill="white"/>
<path d="M24.9128 15.9848L25.0668 15.1398C24.8625 15.2428 24.6413 15.3079 24.4138 15.3318C23.8758 15.3318 23.6458 14.9088 23.6458 14.4478C23.6458 13.5258 24.1068 13.0268 24.6458 13.0268C24.8935 13.0351 25.1335 13.115 25.3368 13.2568L25.4518 12.4498C25.17 12.3366 24.8711 12.2716 24.5678 12.2578C23.6838 12.2578 22.8008 13.0258 22.8008 14.4858C22.8008 15.4458 23.2618 16.0998 24.1838 16.0998C24.4302 16.0877 24.6746 16.0491 24.9128 15.9848Z" fill="white"/>
<path d="M14.2949 12.9509C13.981 12.9486 13.6691 13.0007 13.3729 13.1049L13.2579 13.7579C13.5272 13.6533 13.814 13.601 14.1029 13.6039C14.3719 13.6039 14.6029 13.6419 14.6029 13.8729C14.6029 14.0269 14.5649 14.0649 14.5649 14.0649H14.2189C13.5659 14.0649 12.8359 14.3339 12.8359 15.2179C12.8359 15.9099 13.2969 16.0629 13.5659 16.0629C13.87 16.0584 14.16 15.934 14.3729 15.7169L14.3349 16.0239H15.0269L15.3339 13.9109C15.3428 13.7756 15.3213 13.64 15.271 13.5141C15.2208 13.3882 15.143 13.2751 15.0434 13.183C14.9438 13.091 14.825 13.0224 14.6955 12.9822C14.566 12.9421 14.4291 12.9314 14.2949 12.9509ZM14.4489 14.6799C14.4489 14.7949 14.3719 15.4099 13.9109 15.4099C13.8704 15.4108 13.83 15.4036 13.7923 15.3885C13.7546 15.3734 13.7204 15.3508 13.6917 15.3221C13.663 15.2934 13.6404 15.2592 13.6254 15.2215C13.6103 15.1838 13.603 15.1435 13.6039 15.1029C13.6039 14.9109 13.7189 14.6419 14.2959 14.6419C14.3451 14.6612 14.3965 14.6739 14.4489 14.6799Z" fill="white"/>
<path d="M16.0403 16.0618C16.1842 16.0868 16.3319 16.0795 16.4727 16.0403C16.6134 16.0012 16.7437 15.9312 16.8541 15.8355C16.9644 15.7397 17.0521 15.6207 17.1108 15.4869C17.1695 15.3531 17.1976 15.2079 17.1933 15.0618C17.1933 14.1018 16.2713 14.2938 16.2713 13.9088C16.2713 13.7168 16.4253 13.6398 16.6943 13.6398C16.8093 13.6398 17.2323 13.6778 17.2323 13.6778L17.3473 12.9858C17.1081 12.9296 16.8629 12.9037 16.6172 12.9088C16.0412 12.9088 15.4642 13.1388 15.4642 13.9088C15.4642 14.7928 16.4243 14.7158 16.4243 15.0618C16.4243 15.2918 16.1553 15.3308 15.9633 15.3308C15.7283 15.3251 15.4954 15.2863 15.2713 15.2158L15.1562 15.9078C15.1942 15.9848 15.3873 16.0618 16.0403 16.0618Z" fill="white"/>
<path d="M31.2213 12.3359L31.0672 13.3729C30.9772 13.2636 30.8663 13.1733 30.7409 13.1074C30.6156 13.0415 30.4783 13.0012 30.3372 12.9889C29.6462 12.9889 29.0312 13.8339 29.0312 14.8329C29.0312 15.4479 29.3382 16.1009 29.9912 16.1009C30.1272 16.1007 30.2618 16.0735 30.3871 16.0208C30.5124 15.9681 30.626 15.891 30.7213 15.7939L30.6832 16.0629H31.4512L32.0273 12.3749L31.2213 12.3359ZM30.8752 14.3719C30.8752 14.7949 30.6832 15.3319 30.2602 15.3319C29.9912 15.3319 29.8372 15.1009 29.8372 14.7169C29.8372 14.1019 30.1062 13.7169 30.4522 13.7169C30.7212 13.7189 30.8752 13.9109 30.8752 14.3719Z" fill="white"/>
<path d="M10.1421 16.0239L10.6031 13.2579L10.6801 16.0239H11.2181L12.2181 13.2579L11.7951 16.0239H12.6021L13.2121 12.3359H11.9481L11.1801 14.603L11.1421 12.3359H10.0271L9.41211 16.0239H10.1421Z" fill="white"/>
<path d="M21.9359 16.0263C22.1659 14.7583 22.2049 13.7213 22.7429 13.9133C22.7866 13.6066 22.8773 13.3084 23.0118 13.0293H22.8578C22.5118 13.0293 22.2429 13.4903 22.2429 13.4903L22.3199 13.0673H21.5898L21.0898 16.0673H21.9348L21.9359 16.0263Z" fill="white"/>
<path d="M26.6562 12.9507C26.3423 12.9485 26.0304 13.0006 25.7343 13.1047L25.6193 13.7577C25.8886 13.6531 26.1754 13.6008 26.4643 13.6037C26.7333 13.6037 26.9643 13.6417 26.9643 13.8727C26.9643 14.0267 26.9263 14.0647 26.9263 14.0647H26.5803C25.9273 14.0647 25.1973 14.3337 25.1973 15.2177C25.1973 15.9097 25.6583 16.0627 25.9273 16.0627C26.2314 16.0582 26.5214 15.9339 26.7343 15.7167L26.6963 16.0237H27.3883L27.6953 13.9107C27.706 13.7749 27.6859 13.6385 27.6363 13.5116C27.5866 13.3848 27.5089 13.2709 27.4088 13.1784C27.3088 13.086 27.1891 13.0175 27.0587 12.978C26.9284 12.9386 26.7907 12.9292 26.6562 12.9507ZM26.8483 14.6797C26.8483 14.7947 26.7713 15.4097 26.3103 15.4097C26.2697 15.4107 26.2293 15.4034 26.1917 15.3883C26.154 15.3732 26.1197 15.3506 26.091 15.3219C26.0623 15.2932 26.0398 15.259 26.0247 15.2213C26.0096 15.1836 26.0023 15.1433 26.0033 15.1027C26.0033 14.9107 26.1183 14.6417 26.6953 14.6417C26.8103 14.6797 26.8103 14.6797 26.8483 14.6797Z" fill="white"/>
<path d="M28.303 16.0263C28.534 14.7583 28.572 13.7213 29.11 13.9133C29.1538 13.6066 29.2445 13.3084 29.3791 13.0293H29.225C28.879 13.0293 28.61 13.4903 28.61 13.4903L28.687 13.0673H27.957L27.457 16.0673H28.302L28.303 16.0263Z" fill="white"/>
<path d="M17.2884 15.4485C17.2769 15.5337 17.2845 15.6204 17.3108 15.7023C17.337 15.7841 17.3812 15.8591 17.4402 15.9217C17.4991 15.9843 17.5713 16.0329 17.6515 16.064C17.7316 16.0951 17.8177 16.1079 17.9035 16.1015C18.1013 16.1025 18.2972 16.0634 18.4794 15.9865L18.5944 15.3335C18.5312 15.3499 18.4671 15.3626 18.4024 15.3715C18.1334 15.3715 18.0954 15.2175 18.1334 15.1415L18.3634 13.7965H18.7864L18.9015 13.0665H18.5175L18.5944 12.6055" fill="#DCE5E5"/>
<path d="M19.1113 14.7559C19.1113 15.8319 19.4573 16.1009 20.0713 16.1009C20.3454 16.1186 20.6201 16.0794 20.8783 15.9859L21.0323 15.2559C20.7772 15.3683 20.5038 15.4334 20.2253 15.4479C19.3803 15.4479 19.5343 14.8329 19.5343 14.8329H21.1113C21.1658 14.6056 21.2043 14.3747 21.2263 14.1419C21.2378 13.9924 21.2169 13.8422 21.165 13.7016C21.1131 13.5609 21.0314 13.4331 20.9255 13.327C20.8196 13.2208 20.692 13.1388 20.5515 13.0865C20.411 13.0342 20.2609 13.0128 20.1113 13.0239C19.3033 12.9509 19.1113 13.7959 19.1113 14.7559ZM20.0713 13.6419C20.4943 13.6419 20.5713 14.1419 20.5713 14.1799H19.5713C19.5723 14.1419 19.6493 13.6419 20.0713 13.6419Z" fill="#DCE5E5"/>
<path d="M24.9116 15.9848L25.0656 15.1398C24.8613 15.2428 24.6401 15.3079 24.4126 15.3318C23.8746 15.3318 23.6446 14.9088 23.6446 14.4478C23.6446 13.5258 24.1056 13.0268 24.6446 13.0268C24.8923 13.0351 25.1323 13.115 25.3356 13.2568L25.4506 12.4498C25.1688 12.3366 24.87 12.2716 24.5666 12.2578C23.6826 12.2578 23.1836 13.0258 23.1836 14.4858C23.1836 15.4458 23.2606 16.0998 24.1836 16.0998C24.4297 16.0876 24.6737 16.0491 24.9116 15.9848Z" fill="#DCE5E5"/>
<path d="M13.2579 13.7944C13.5272 13.6898 13.814 13.6375 14.1029 13.6404C14.3719 13.6404 14.6029 13.6784 14.6029 13.9094C14.6029 14.0634 14.5649 14.1014 14.5649 14.1014H14.2189C13.5659 14.1014 12.8359 14.3704 12.8359 15.2544C12.8359 15.9464 13.2969 16.0994 13.5659 16.0994C13.87 16.0949 14.16 15.9706 14.3729 15.7534L14.3349 16.0604H15.0269L15.3339 13.9474C15.3339 13.0634 14.5659 13.0254 14.2579 13.0254M14.8339 14.6774C14.7514 14.865 14.6242 15.0295 14.4635 15.1568C14.3028 15.284 14.1135 15.37 13.9119 15.4074C13.8714 15.4084 13.831 15.4011 13.7933 15.386C13.7556 15.3709 13.7214 15.3483 13.6927 15.3196C13.664 15.2909 13.6414 15.2567 13.6264 15.219C13.6113 15.1813 13.604 15.141 13.6049 15.1004C13.6049 14.9084 13.7199 14.6394 14.2969 14.6394C14.4748 14.6678 14.6548 14.6809 14.8349 14.6784L14.8339 14.6774Z" fill="#DCE5E5"/>
<path d="M15.1934 15.9848C15.4831 16.0508 15.7806 16.0767 16.0774 16.0618C16.2213 16.0868 16.369 16.0795 16.5098 16.0403C16.6505 16.0012 16.7808 15.9312 16.8912 15.8355C17.0015 15.7397 17.0892 15.6207 17.1479 15.4869C17.2066 15.3531 17.2347 15.2079 17.2304 15.0618C17.2304 14.1018 16.3084 14.2938 16.3084 13.9088C16.3084 13.7168 16.4624 13.6398 16.7314 13.6398C16.8464 13.6398 17.2694 13.6778 17.2694 13.6778L17.3844 12.9858C17.1452 12.9296 16.9 12.9037 16.6544 12.9088C16.0784 12.9088 15.8864 13.1388 15.8864 13.9088C15.8864 14.7928 16.4624 14.7158 16.4624 15.0618C16.4624 15.2918 16.1934 15.3308 16.0014 15.3308" fill="#DCE5E5"/>
<path d="M31.0728 13.373C30.9827 13.2637 30.8718 13.1734 30.7465 13.1075C30.6211 13.0415 30.4839 13.0012 30.3428 12.989C29.6508 12.989 29.4208 13.834 29.4208 14.833C29.4208 15.448 29.3438 16.101 29.9968 16.101C30.1327 16.1007 30.2673 16.0735 30.3926 16.0208C30.5179 15.9681 30.6315 15.891 30.7268 15.794L30.6887 16.063H31.4568L32.0328 12.375M31.0328 14.375C31.0328 14.798 30.6868 15.335 30.2648 15.335C29.9958 15.335 29.8418 15.105 29.8418 14.72C29.8418 14.105 30.1108 13.72 30.4568 13.72C30.5386 13.7213 30.6193 13.7397 30.6937 13.774C30.768 13.8084 30.8343 13.8579 30.8884 13.9194C30.9424 13.9809 30.983 14.053 31.0076 14.1311C31.0321 14.2093 31.04 14.2916 31.0308 14.373L31.0328 14.375Z" fill="#DCE5E5"/>
<path d="M10.1421 16.0239L10.6031 13.2579L10.6801 16.0239H11.2181L12.2181 13.2579L11.7951 16.0239H12.6021L13.2121 12.3359H12.2521L11.1761 14.603L11.1381 12.3359H10.7151L9.41211 16.0239H10.1421Z" fill="#DCE5E5"/>
<path d="M21.1309 16.0263H21.9379C22.1679 14.7583 22.2069 13.7213 22.7449 13.9133C22.7886 13.6066 22.8793 13.3084 23.0139 13.0293H22.8599C22.5139 13.0293 22.2449 13.4903 22.2449 13.4903L22.3219 13.0673" fill="#DCE5E5"/>
<path d="M25.6193 13.7944C25.8886 13.6898 26.1754 13.6375 26.4643 13.6404C26.7333 13.6404 26.9643 13.6784 26.9643 13.9094C26.9643 14.0634 26.9263 14.1014 26.9263 14.1014H26.5803C25.9273 14.1014 25.1973 14.3704 25.1973 15.2544C25.1973 15.9464 25.6583 16.0994 25.9273 16.0994C26.2314 16.0949 26.5214 15.9706 26.7343 15.7534L26.6963 16.0604H27.3883L27.6953 13.9474C27.6953 13.0634 26.9273 13.0254 26.6193 13.0254M27.1953 14.6774C27.1127 14.865 26.9855 15.0295 26.8248 15.1568C26.6641 15.284 26.4748 15.37 26.2733 15.4074C26.2327 15.4084 26.1923 15.4011 26.1547 15.386C26.117 15.3709 26.0827 15.3483 26.054 15.3196C26.0253 15.2909 26.0028 15.2567 25.9877 15.219C25.9726 15.1813 25.9653 15.141 25.9663 15.1004C25.9663 14.9084 26.0813 14.6394 26.6573 14.6394C26.8356 14.6668 27.0158 14.6798 27.1963 14.6784L27.1953 14.6774Z" fill="#DCE5E5"/>
<path d="M27.4961 16.0263H28.3031C28.5341 14.7583 28.5721 13.7213 29.1101 13.9133C29.1538 13.6066 29.2445 13.3084 29.3791 13.0293H29.2251C28.8791 13.0293 28.6101 13.4903 28.6101 13.4903L28.6871 13.0673" fill="#DCE5E5"/>
</g>
</g>
</g>
<defs>
<clipPath id="clip0_206_4754">
<rect width="190" height="26" fill="white" transform="translate(0.720703 0.939453)"/>
</clipPath>
<clipPath id="clip1_206_4754">
<rect width="190" height="26" fill="white" transform="translate(0.720703 0.939453)"/>
</clipPath>
<clipPath id="clip2_206_4754">
<rect width="190" height="26" fill="white" transform="translate(0.720703 0.939453)"/>
</clipPath>
</defs>
</svg>
