<svg width="24" height="24" viewBox="0 0 24 24" fill="none" xmlns="http://www.w3.org/2000/svg">
<path d="M10.2303 17.4603L18.7202 8.97022L17.3402 7.62024L10.2303 14.7302L6.63024 11.1303L5.28025 12.4802L10.2303 17.4603ZM12.0002 24.0002C10.4017 24.0087 8.81867 23.687 7.35025 23.0552C5.92241 22.447 4.62409 21.5712 3.52525 20.4752C2.42922 19.3764 1.55349 18.0781 0.945247 16.6503C0.313538 15.1818 -0.00817774 13.5988 0.0002471 12.0002C-0.0102126 10.3918 0.311502 8.79859 0.945247 7.32025C1.55129 5.89565 2.42741 4.60184 3.52525 3.51026C4.62738 2.42206 5.92512 1.5518 7.35025 0.945254C8.81867 0.313518 10.4017 -0.00820649 12.0002 0.000247095C13.6087 -0.0102126 15.2019 0.311509 16.6802 0.945254C18.1021 1.5496 19.3953 2.42023 20.4902 3.51026C21.5803 4.60515 22.4509 5.89837 23.0552 7.32025C23.689 8.79859 24.0107 10.3918 24.0002 12.0002C24.0087 13.5988 23.687 15.1819 23.0552 16.6503C22.4487 18.0754 21.5784 19.3731 20.4902 20.4752C19.3987 21.5731 18.1049 22.4492 16.6802 23.0552C15.2019 23.689 13.6087 24.0107 12.0002 24.0002ZM12.0002 22.2003C13.3456 22.2249 14.6817 21.9726 15.9254 21.4591C17.1692 20.9456 18.2941 20.1819 19.2303 19.2153C20.1903 18.2781 20.949 17.1548 21.4597 15.9142C21.9704 14.6736 22.2224 13.3417 22.2002 12.0002C22.2253 10.6562 21.9747 9.32119 21.4639 8.0777C20.9531 6.83421 20.1929 5.7086 19.2303 4.77027C18.2919 3.8076 17.1663 3.04737 15.9228 2.53656C14.6793 2.02575 13.3443 1.77516 12.0002 1.80023C10.6588 1.7781 9.32694 2.03014 8.08631 2.54084C6.84567 3.05153 5.72238 3.81017 4.78525 4.77027C3.81867 5.70641 3.0549 6.83125 2.5414 8.07502C2.0279 9.31878 1.77562 10.6549 1.80025 12.0002C1.77858 13.343 2.03226 14.6759 2.54565 15.9168C3.05904 17.1577 3.82125 18.2803 4.78525 19.2153C5.7202 20.1793 6.84275 20.9414 8.08366 21.4548C9.32457 21.9682 10.6575 22.2219 12.0002 22.2003Z" fill="#2BAFFC"/>
</svg>
