<svg width="57" height="169" viewBox="0 0 57 169" fill="none" xmlns="http://www.w3.org/2000/svg">
<path d="M0.505785 166.924C0.463901 167.197 0.651214 167.452 0.924161 167.494L5.3721 168.177C5.64504 168.219 5.90027 168.031 5.94215 167.758C5.98404 167.485 5.79672 167.23 5.52377 167.188L1.57005 166.582L2.17676 162.628C2.21865 162.355 2.03133 162.1 1.75839 162.058C1.48544 162.016 1.23022 162.203 1.18833 162.476L0.505785 166.924ZM55.9854 86.5623L56.4852 86.5747L55.9854 86.5623ZM1 1C0.694823 1.39606 0.694818 1.39606 0.694813 1.39606C0.694813 1.39606 0.69481 1.39605 0.694809 1.39605C0.694809 1.39605 0.694813 1.39606 0.69482 1.39606C0.694836 1.39607 0.694868 1.3961 0.694916 1.39614C0.695012 1.39621 0.695174 1.39633 0.6954 1.39651C0.695854 1.39686 0.696568 1.39741 0.697542 1.39816C0.699489 1.39967 0.702475 1.40197 0.70649 1.40508C0.714519 1.41129 0.726665 1.42071 0.742854 1.43329C0.775232 1.45846 0.823781 1.49631 0.887917 1.54661C1.01619 1.64722 1.20681 1.79765 1.45509 1.99607L2.0794 1.21489C1.82867 1.01452 1.63567 0.8622 1.50507 0.759769C1.43977 0.708553 1.39007 0.669807 1.35656 0.643759C1.33981 0.630735 1.3271 0.620886 1.31851 0.614239C1.31422 0.610916 1.31095 0.608393 1.30873 0.606675C1.30761 0.605815 1.30676 0.605157 1.30617 0.604701C1.30587 0.604472 1.30564 0.604294 1.30548 0.604167C1.30539 0.604103 1.30533 0.604052 1.30528 0.604013C1.30525 0.603994 1.30523 0.603978 1.30522 0.603965C1.30521 0.603959 1.3052 0.603951 1.30519 0.603948C1.30518 0.603941 1.30518 0.603936 1 1ZM3.0309 3.27698C3.48482 3.6514 3.99817 4.07914 4.56494 4.55786L5.21021 3.7939C4.64037 3.3126 4.12404 2.88237 3.66722 2.50555L3.0309 3.27698ZM6.09477 5.86389C6.57762 6.2804 7.08702 6.72379 7.62052 7.19312L8.28103 6.4423C7.74502 5.97077 7.23318 5.52524 6.74794 5.10668L6.09477 5.86389ZM9.11709 8.52206C9.59654 8.95176 10.0912 9.39889 10.5997 9.86292L11.2738 9.12426C10.763 8.65816 10.2661 8.20902 9.7845 7.77737L9.11709 8.52206ZM12.0835 11.2292C12.5677 11.679 13.0621 12.1423 13.5658 12.6187L14.253 11.8922C13.7471 11.4137 13.2504 10.9484 12.7641 10.4965L12.0835 11.2292ZM15.0061 13.993C15.4823 14.4513 15.9655 14.9204 16.4547 15.3997L17.1545 14.6854C16.6632 14.204 16.1779 13.7329 15.6996 13.2725L15.0061 13.993ZM17.887 16.8158C18.3537 17.2814 18.825 17.7557 19.3003 18.2384L20.0129 17.5369C19.5355 17.0519 19.0621 16.5755 18.5933 16.1079L17.887 16.8158ZM20.7161 19.6899C21.1736 20.1633 21.6341 20.6441 22.0969 21.132L22.8224 20.4438C22.3574 19.9536 21.8948 19.4706 21.4352 18.995L20.7161 19.6899ZM23.4836 22.6079C23.9338 23.0917 24.3857 23.582 24.8388 24.0785L25.5775 23.4045C25.1221 22.9055 24.668 22.4128 24.2157 21.9267L23.4836 22.6079ZM26.1933 25.5777C26.6355 26.0722 27.0784 26.5724 27.5216 27.0782L28.2737 26.4192C27.8283 25.9108 27.3831 25.4081 26.9386 24.9111L26.1933 25.5777ZM28.8432 28.6027C29.2761 29.1075 29.7088 29.6174 30.1407 30.1322L30.9068 29.4894C30.4725 28.9718 30.0375 28.4592 29.6023 27.9517L28.8432 28.6027ZM31.4281 31.6838C31.8504 32.1988 32.2717 32.7184 32.6915 33.2423L33.4719 32.6171C33.0497 32.0901 32.626 31.5675 32.2013 31.0497L31.4281 31.6838ZM33.9421 34.8225C34.3528 35.3478 34.7616 35.8773 35.1681 36.4107L35.9635 35.8046C35.5544 35.2678 35.1431 34.7351 34.7299 34.2066L33.9421 34.8225ZM36.3788 38.0204C36.7766 38.5564 37.1718 39.0961 37.564 39.6395L38.3748 39.0542C37.98 38.5072 37.5822 37.9639 37.1818 37.4245L36.3788 38.0204ZM38.7308 41.2796C39.1143 41.8267 39.4946 42.3772 39.8712 42.931L40.6981 42.3687C40.3188 41.8108 39.9358 41.2564 39.5496 40.7055L38.7308 41.2796ZM40.9895 44.602C41.3573 45.1607 41.7212 45.7225 42.0806 46.2873L42.9242 45.7504C42.562 45.1812 42.1953 44.615 41.8247 44.0521L40.9895 44.602ZM43.1452 47.9903C43.4956 48.561 43.8412 49.1346 44.1816 49.7108L45.0426 49.2021C44.6992 48.6209 44.3507 48.0426 43.9975 47.4671L43.1452 47.9903ZM45.1872 51.4473C45.5178 52.0302 45.8429 52.6155 46.162 53.2033L47.0408 52.7261C46.7187 52.1328 46.3906 51.542 46.057 50.9539L45.1872 51.4473ZM47.102 54.9748C47.4103 55.5699 47.7123 56.1672 48.0075 56.7666L48.9046 56.3247C48.6063 55.719 48.3012 55.1157 47.9899 54.5148L47.102 54.9748ZM48.8742 58.5741C49.1574 59.1813 49.4334 59.7905 49.7018 60.4015L50.6174 59.9993C50.3459 59.3813 50.0668 58.7653 49.7805 58.1514L48.8742 58.5741ZM50.4862 62.2454C50.7411 62.8647 50.9878 63.4857 51.2261 64.1082L52.16 63.7507C51.9187 63.1203 51.6689 62.4917 51.411 61.8649L50.4862 62.2454ZM51.9178 65.988C52.1407 66.6189 52.3545 67.2513 52.5589 67.8849L53.5106 67.5779C53.3033 66.9354 53.0866 66.2944 52.8608 65.655L51.9178 65.988ZM53.1462 69.7988C53.333 70.4408 53.5098 71.0838 53.6762 71.7277L54.6444 71.4775C54.4754 70.8236 54.2959 70.1708 54.1063 69.5194L53.1462 69.7988ZM54.146 73.6724C54.2924 74.324 54.4277 74.9763 54.5517 75.6293L55.5341 75.4428C55.4081 74.7787 55.2705 74.1154 55.1217 73.4532L54.146 73.6724ZM54.8901 77.5994C54.9914 78.2586 55.0807 78.9182 55.1574 79.5781L56.1507 79.4626C56.0725 78.7903 55.9816 78.1185 55.8785 77.4475L54.8901 77.5994ZM55.3504 81.5659C55.4019 82.2298 55.4405 82.8937 55.4655 83.5576L56.4648 83.52C56.4392 82.8426 56.4 82.1653 56.3474 81.4885L55.3504 81.5659ZM55.4997 85.5527C55.4985 85.8852 55.4938 86.2176 55.4855 86.5499L56.4852 86.5747C56.4936 86.2353 56.4984 85.8958 56.4997 85.5564L55.4997 85.5527ZM55.4855 86.5499C55.4773 86.8803 55.4656 87.2106 55.4505 87.5409L56.4494 87.5867C56.4649 87.2495 56.4768 86.9122 56.4852 86.5747L55.4855 86.5499ZM55.3186 89.5215C55.2613 90.1797 55.1907 90.8375 55.1072 91.4947L56.0993 91.6206C56.1843 90.9506 56.2563 90.2798 56.3148 89.6082L55.3186 89.5215ZM54.8194 93.461C54.7115 94.1127 54.5913 94.7636 54.4594 95.4137L55.4394 95.6126C55.5737 94.951 55.6961 94.2882 55.806 93.6243L54.8194 93.461ZM54.0297 97.3566C53.876 97.9991 53.7111 98.6406 53.5356 99.2809L54.5 99.5454C54.6784 98.8948 54.846 98.2427 55.0023 97.5892L54.0297 97.3566ZM52.9784 101.194C52.7837 101.825 52.5789 102.456 52.3645 103.084L53.3109 103.407C53.5285 102.769 53.7364 102.13 53.934 101.488L52.9784 101.194ZM51.6938 104.962C51.4627 105.582 51.2224 106.2 50.9735 106.817L51.9007 107.191C52.1529 106.567 52.3964 105.94 52.6308 105.312L51.6938 104.962ZM50.2024 108.657C49.9388 109.265 49.6671 109.87 49.3876 110.474L50.2951 110.894C50.5778 110.283 50.8529 109.67 51.1197 109.055L50.2024 108.657ZM48.5278 112.275C48.2353 112.871 47.9357 113.463 47.6292 114.054L48.5169 114.515C48.8266 113.918 49.1295 113.318 49.4253 112.716L48.5278 112.275ZM46.6909 115.817C46.3728 116.399 46.0483 116.98 45.7179 117.558L46.586 118.054C46.9196 117.471 47.2473 116.884 47.5687 116.296L46.6909 115.817ZM44.7099 119.282C44.3689 119.853 44.0223 120.421 43.6705 120.986L44.5196 121.514C44.8745 120.944 45.2242 120.371 45.5684 119.794L44.7099 119.282ZM42.6007 122.672C42.2391 123.232 41.8727 123.788 41.5019 124.341L42.3326 124.898C42.7063 124.34 43.0758 123.779 43.4405 123.215L42.6007 122.672ZM40.3768 125.991C39.9966 126.539 39.6124 127.084 39.2246 127.625L40.0376 128.208C40.4282 127.662 40.8154 127.113 41.1985 126.561L40.3768 125.991ZM38.0498 129.24C37.6528 129.777 37.2526 130.311 36.8495 130.841L37.6454 131.446C38.0513 130.913 38.4543 130.375 38.8542 129.834L38.0498 129.24ZM35.63 132.422C35.2176 132.949 34.8028 133.472 34.3859 133.991L35.1654 134.617C35.585 134.095 36.0025 133.568 36.4176 133.038L35.63 132.422ZM33.1259 135.539C32.6993 136.056 32.2711 136.569 31.8416 137.077L32.6054 137.723C33.0375 137.211 33.4683 136.695 33.8975 136.175L33.1259 135.539ZM30.5452 138.593C30.1053 139.102 29.6647 139.605 29.2236 140.103L29.9722 140.766C30.4158 140.265 30.859 139.759 31.3013 139.248L30.5452 138.593ZM27.8946 141.587C27.4421 142.087 26.9896 142.581 26.5377 143.07L27.2717 143.749C27.726 143.258 28.1809 142.761 28.6359 142.258L27.8946 141.587ZM25.1799 144.522C24.715 145.014 24.2513 145.5 23.7893 145.979L24.5091 146.673C24.9735 146.191 25.4396 145.703 25.9068 145.209L25.1799 144.522ZM22.3991 147.406C21.9247 147.888 21.4527 148.363 20.9836 148.831L21.6896 149.539C22.1609 149.069 22.6352 148.592 23.112 148.107L22.3991 147.406ZM19.5602 150.236C19.0783 150.708 18.6003 151.171 18.127 151.625L18.8194 152.346C19.295 151.89 19.7752 151.425 20.2593 150.951L19.5602 150.236ZM16.6686 153.011C16.1779 153.474 15.6932 153.926 15.2152 154.368L15.8942 155.102C16.3743 154.658 16.8613 154.204 17.3543 153.739L16.6686 153.011ZM13.7338 155.725C13.2263 156.186 12.7281 156.634 12.24 157.069L12.9054 157.815C13.3956 157.378 13.8962 156.928 14.4059 156.466L13.7338 155.725ZM10.7476 158.387C10.2316 158.838 9.72948 159.273 9.24283 159.691L9.89426 160.45C10.3832 160.03 10.8876 159.593 11.406 159.139L10.7476 158.387ZM7.70741 160.996C7.16839 161.45 6.65364 161.879 6.16565 162.282L6.80204 163.053C7.29253 162.648 7.80985 162.217 8.35149 161.761L7.70741 160.996ZM4.61617 163.546C4.04513 164.007 3.52768 164.419 3.06986 164.78L3.68864 165.565C4.14947 165.202 4.67004 164.788 5.24427 164.324L4.61617 163.546ZM1.47119 166.02C1.2207 166.211 1.02837 166.355 0.898949 166.452C0.834238 166.501 0.785255 166.537 0.752592 166.561C0.736261 166.573 0.72401 166.582 0.715914 166.588C0.711866 166.591 0.708856 166.593 0.706895 166.595C0.705914 166.596 0.705195 166.596 0.70474 166.596C0.704512 166.597 0.70435 166.597 0.704254 166.597C0.704205 166.597 0.704174 166.597 0.704159 166.597C0.704151 166.597 0.704148 166.597 0.704149 166.597C0.704149 166.597 0.704153 166.597 0.704153 166.597C0.704157 166.597 0.704163 166.597 1 167C1.29584 167.403 1.29584 167.403 1.29585 167.403C1.29586 167.403 1.29587 167.403 1.29588 167.403C1.29589 167.403 1.29591 167.403 1.29594 167.403C1.29599 167.403 1.29606 167.403 1.29614 167.403C1.29631 167.403 1.29654 167.403 1.29684 167.402C1.29744 167.402 1.29831 167.401 1.29943 167.4C1.30168 167.399 1.30498 167.396 1.30932 167.393C1.318 167.387 1.33084 167.377 1.34776 167.365C1.3816 167.34 1.43177 167.302 1.49769 167.253C1.62953 167.155 1.82435 167.008 2.07739 166.815L1.47119 166.02Z" fill="black"/>
</svg>
