<svg width="57" height="132" viewBox="0 0 57 132" fill="none" xmlns="http://www.w3.org/2000/svg">
<path d="M56.2994 129.869C56.3719 130.135 56.2146 130.41 55.9482 130.482L51.606 131.664C51.3395 131.736 51.0648 131.579 50.9923 131.313C50.9198 131.046 51.077 130.771 51.3435 130.699L55.2032 129.649L54.1531 125.789C54.0806 125.523 54.2378 125.248 54.5043 125.175C54.7707 125.103 55.0455 125.26 55.118 125.527L56.2994 129.869ZM1.0145 67.4912L0.514748 67.5071L1.0145 67.4912ZM55.8169 1C56.0744 1.4286 56.0744 1.4286 56.0744 1.42859L56.0744 1.42859C56.0744 1.42859 56.0744 1.42859 56.0744 1.4286C56.0744 1.42861 56.0743 1.42863 56.0743 1.42866C56.0742 1.42873 56.074 1.42883 56.0737 1.42898C56.0732 1.42928 56.0725 1.42975 56.0714 1.4304C56.0693 1.43168 56.066 1.43364 56.0616 1.43629C56.0529 1.44157 56.0396 1.44958 56.022 1.46028C55.9867 1.48167 55.9338 1.51383 55.864 1.55656C55.7244 1.64201 55.5171 1.76972 55.2474 1.93806L54.7179 1.08977C54.9901 0.919821 55.1999 0.790569 55.342 0.703637C55.413 0.66017 55.4671 0.627282 55.5035 0.605176C55.5218 0.594123 55.5356 0.585765 55.5449 0.580127C55.5496 0.577308 55.5531 0.57517 55.5556 0.573714C55.5568 0.572987 55.5577 0.57243 55.5583 0.572044C55.5587 0.571851 55.5589 0.571701 55.5591 0.571594C55.5592 0.57154 55.5592 0.571497 55.5593 0.571465C55.5593 0.571449 55.5593 0.571436 55.5594 0.571425C55.5594 0.57142 55.5594 0.571414 55.5594 0.571411C55.5594 0.571406 55.5594 0.571401 55.8169 1ZM53.5245 3.03307C53.0263 3.35462 52.4631 3.72215 51.8418 4.13351L51.2898 3.2997C51.9144 2.88613 52.4809 2.51648 52.9821 2.19291L53.5245 3.03307ZM50.1572 5.26182C49.6269 5.62103 49.0678 6.00344 48.4828 6.40816L47.9138 5.5858C48.5016 5.17914 49.0634 4.79487 49.5964 4.43386L50.1572 5.26182ZM46.8169 7.57275C46.2797 7.95211 45.7257 8.34712 45.1565 8.75722L44.5719 7.94592C45.1437 7.53391 45.7003 7.13706 46.24 6.75591L46.8169 7.57275ZM43.5207 9.94775C42.9909 10.3372 42.4504 10.7382 41.9007 11.1503L41.3008 10.3502C41.8532 9.93613 42.3961 9.53327 42.9285 9.142L43.5207 9.94775ZM40.2804 12.3772C39.7501 12.7828 39.2126 13.1979 38.6691 13.6221L38.0539 12.8338C38.6 12.4075 39.14 11.9904 39.6729 11.5829L40.2804 12.3772ZM37.0868 14.8698C36.5633 15.2868 36.0353 15.7117 35.5037 16.1441L34.8726 15.3684C35.4069 14.9337 35.9376 14.5067 36.4637 14.0876L37.0868 14.8698ZM33.9375 17.432C33.4238 17.859 32.9075 18.2927 32.3895 18.7329L31.7419 17.9709C32.2628 17.5283 32.7818 17.0922 33.2983 16.663L33.9375 17.432ZM30.8459 20.0595C30.3415 20.4981 29.8361 20.9425 29.3305 21.3926L28.6656 20.6456C29.1742 20.1929 29.6825 19.7459 30.1898 19.3048L30.8459 20.0595ZM27.8232 22.7506C27.3267 23.2034 26.8307 23.6615 26.3357 24.1246L25.6525 23.3944C26.1506 22.9284 26.6497 22.4674 27.1493 22.0118L27.8232 22.7506ZM24.8664 25.5177C24.3805 25.9846 23.8963 26.4562 23.4144 26.9324L22.7116 26.221C23.1968 25.7415 23.6844 25.2667 24.1736 24.7966L24.8664 25.5177ZM21.986 28.3643C21.5132 28.8453 21.0433 29.3306 20.577 29.8198L19.8531 29.1299C20.3231 28.6368 20.7965 28.1479 21.2728 27.6633L21.986 28.3643ZM19.1933 31.2954C18.7358 31.7913 18.2824 32.291 17.8338 32.7944L17.0873 32.1291C17.5398 31.6213 17.997 31.1173 18.4582 30.6173L19.1933 31.2954ZM16.5019 34.3165C16.0619 34.8288 15.6273 35.3446 15.1987 35.8637L14.4276 35.227C14.8604 34.7028 15.2992 34.182 15.7433 33.6649L16.5019 34.3165ZM13.9288 37.4342C13.509 37.9645 13.0961 38.498 12.6905 39.0344L11.8929 38.4313C12.303 37.8888 12.7205 37.3495 13.1447 36.8136L13.9288 37.4342ZM11.4941 40.6559C11.0985 41.2057 10.7111 41.7583 10.3328 42.3135L9.5064 41.7504C9.88972 41.1879 10.2819 40.6283 10.6824 40.0718L11.4941 40.6559ZM9.22016 43.9944C8.85492 44.5632 8.4996 45.1344 8.15489 45.7079L7.29782 45.1927C7.64779 44.6105 8.00832 44.0309 8.3787 43.4541L9.22016 43.9944ZM7.14294 47.453C6.81464 48.041 6.49805 48.631 6.19389 49.2227L5.30449 48.7656C5.61409 48.1633 5.93612 47.5631 6.26984 46.9655L7.14294 47.453ZM5.30436 51.0356C5.01921 51.6459 4.74791 52.2578 4.49121 52.8712L3.56874 52.4851C3.83086 51.8588 4.10767 51.2345 4.39837 50.6123L5.30436 51.0356ZM3.75602 54.7415C3.52347 55.3745 3.30719 56.0086 3.10798 56.6437L2.15382 56.3443C2.35799 55.6935 2.57948 55.0441 2.81736 54.3966L3.75602 54.7415ZM2.55848 58.5664C2.39067 59.218 2.24161 59.8702 2.11217 60.5229L1.13128 60.3283C1.26448 59.6567 1.41774 58.9862 1.59008 58.317L2.55848 58.5664ZM1.7817 62.4956C1.6915 63.1573 1.62234 63.8191 1.57511 64.4808L0.577644 64.4096C0.626442 63.7259 0.697853 63.0428 0.790859 62.3605L1.7817 62.4956ZM1.50007 66.4776C1.49897 66.8102 1.50366 67.1428 1.51424 67.4753L0.514748 67.5071C0.503788 67.1628 0.49894 66.8185 0.500072 66.4743L1.50007 66.4776ZM1.51424 67.4753C1.52489 67.8097 1.54151 68.1442 1.56398 68.4785L0.566231 68.5456C0.542984 68.1996 0.525776 67.8535 0.514748 67.5071L1.51424 67.4753ZM1.76789 70.4829C1.8578 71.1449 1.96973 71.8063 2.1027 72.467L1.12235 72.6643C0.985325 71.9835 0.869843 71.3011 0.776989 70.6175L1.76789 70.4829ZM2.55949 74.4302C2.73052 75.0787 2.92101 75.7261 3.13004 76.3723L2.17859 76.6801C1.96411 76.0171 1.76842 75.352 1.59256 74.6852L2.55949 74.4302ZM3.79989 78.2753C4.0379 78.9013 4.29259 79.5258 4.5631 80.1486L3.6459 80.547C3.36944 79.9106 3.10888 79.2717 2.86517 78.6307L3.79989 78.2753ZM5.41326 81.9949C5.70594 82.5967 6.01274 83.1966 6.33288 83.7944L5.45135 84.2665C5.12529 83.6577 4.81254 83.0462 4.51396 82.4322L5.41326 81.9949ZM7.32404 85.5663C7.66345 86.1486 8.01492 86.7285 8.37768 87.3058L7.53096 87.8378C7.16252 87.2515 6.8053 86.6621 6.46012 86.07L7.32404 85.5663ZM9.48312 89.006C9.85997 89.5669 10.2469 90.1251 10.6433 90.6804L9.82938 91.2614C9.42772 90.6987 9.03536 90.1327 8.65306 89.5637L9.48312 89.006ZM11.8457 92.3185C12.2527 92.8582 12.6681 93.3949 13.0912 93.9284L12.3077 94.5498C11.8798 94.0101 11.4594 93.467 11.0473 92.9206L11.8457 92.3185ZM14.376 95.5106C14.8084 96.0312 15.2477 96.5483 15.6931 97.0619L14.9376 97.7171C14.4877 97.1983 14.0439 96.6758 13.6068 96.1496L14.376 95.5106ZM17.0446 98.589C17.4992 99.0926 17.9592 99.5925 18.4239 100.088L17.6943 100.772C17.2254 100.272 16.7612 99.7674 16.3023 99.2591L17.0446 98.589ZM19.8317 101.564C20.3052 102.052 20.7827 102.536 21.2637 103.015L20.5577 103.723C20.073 103.24 19.5915 102.753 19.1141 102.261L19.8317 101.564ZM22.7209 104.445C23.2104 104.918 23.7027 105.386 24.1971 105.85L23.5131 106.579C23.0152 106.112 22.5193 105.64 22.0261 105.164L22.7209 104.445ZM25.6977 107.237C26.2023 107.697 26.7084 108.151 27.2153 108.601L26.5517 109.349C26.0416 108.897 25.5321 108.439 25.024 107.976L25.6977 107.237ZM28.7494 109.944C29.2685 110.393 29.7875 110.836 30.3058 111.273L29.6613 112.037C29.1399 111.598 28.6177 111.152 28.0955 110.701L28.7494 109.944ZM31.87 112.575C32.4012 113.012 32.9308 113.443 33.458 113.867L32.8315 114.646C32.3014 114.22 31.7688 113.787 31.2346 113.347L31.87 112.575ZM35.0586 115.139C35.5966 115.562 36.1312 115.977 36.6615 116.385L36.052 117.178C35.519 116.768 34.9816 116.35 34.4407 115.925L35.0586 115.139ZM38.2969 117.628C38.8501 118.045 39.3973 118.452 39.9375 118.849L39.3445 119.655C38.8016 119.255 38.2517 118.846 37.6957 118.427L38.2969 117.628ZM41.5795 120.046C42.1447 120.454 42.7004 120.85 43.2452 121.235L42.6683 122.052C42.1208 121.665 41.5625 121.267 40.9946 120.857L41.5795 120.046ZM44.9272 122.411C45.5055 122.811 46.0688 123.196 46.615 123.566L46.0542 124.394C45.5053 124.022 44.9394 123.635 44.3583 123.233L44.9272 122.411ZM48.3111 124.703C48.9078 125.099 49.4782 125.472 50.0195 125.823L49.4754 126.662C48.9313 126.31 48.3581 125.934 47.7585 125.536L48.3111 124.703ZM51.743 126.928C52.3809 127.332 52.959 127.693 53.4699 128.008L52.945 128.859C52.4309 128.542 51.8494 128.179 51.208 127.773L51.743 126.928ZM55.2223 129.071C55.4971 129.235 55.7084 129.359 55.8508 129.442C55.9219 129.483 55.9758 129.514 56.0118 129.535C56.0298 129.546 56.0433 129.553 56.0522 129.559C56.0567 129.561 56.06 129.563 56.0622 129.564C56.0633 129.565 56.0641 129.565 56.0646 129.566C56.0648 129.566 56.065 129.566 56.0651 129.566C56.0652 129.566 56.0652 129.566 56.0652 129.566C56.0652 129.566 56.0652 129.566 56.0652 129.566C56.0652 129.566 56.0652 129.566 56.0652 129.566C56.0652 129.566 56.0652 129.566 55.8169 130C55.5686 130.434 55.5686 130.434 55.5685 130.434C55.5685 130.434 55.5685 130.434 55.5685 130.434C55.5685 130.434 55.5685 130.434 55.5684 130.434C55.5684 130.434 55.5683 130.434 55.5682 130.434C55.568 130.434 55.5678 130.434 55.5675 130.433C55.5668 130.433 55.5659 130.432 55.5646 130.432C55.5622 130.43 55.5585 130.428 55.5538 130.425C55.5443 130.42 55.5301 130.412 55.5116 130.401C55.4744 130.38 55.4192 130.348 55.3468 130.305C55.202 130.221 54.9881 130.095 54.7106 129.93L55.2223 129.071Z" fill="black"/>
</svg>
