<svg width="124" height="37" viewBox="0 0 124 37" fill="none" xmlns="http://www.w3.org/2000/svg">
<g clip-path="url(#clip0_206_3958)">
<g clip-path="url(#clip1_206_3958)">
<g clip-path="url(#clip2_206_3958)">
<path d="M121.442 32.2433C121.442 32.6963 121.353 33.1449 121.179 33.5633C121.006 33.9818 120.751 34.3619 120.431 34.682C120.11 35.0022 119.73 35.256 119.311 35.429C118.893 35.602 118.444 35.6907 117.991 35.6902H5.04949C4.13418 35.6913 3.25594 35.3287 2.60789 34.6823C1.95984 34.036 1.59505 33.1586 1.59375 32.2433V4.75747C1.59505 3.8418 1.95971 2.96408 2.60765 2.31707C3.25558 1.67005 4.13382 1.30664 5.04949 1.30664H117.989C118.904 1.30664 119.782 1.67021 120.429 2.31737C121.076 2.96452 121.44 3.84225 121.44 4.75747V32.2433H121.442Z" fill="white"/>
<path d="M117.998 36.5H5.04418C3.91641 36.4997 2.83479 36.0521 2.03669 35.2553C1.23859 34.4585 0.78919 33.3776 0.787109 32.2498L0.787109 4.75314C0.789189 3.6251 1.23849 2.54391 2.03651 1.74663C2.83453 0.949344 3.91613 0.501038 5.04418 0.5L117.997 0.5C119.125 0.501557 120.206 0.950164 121.004 1.74755C121.802 2.54493 122.251 3.62607 122.254 4.75413V32.2508C122.252 33.3785 121.803 34.4594 121.005 35.2562C120.207 36.053 119.125 36.4997 117.998 36.5Z" fill="#AAAAAA"/>
<path d="M121.442 32.2433C121.442 32.6963 121.353 33.1449 121.179 33.5633C121.006 33.9818 120.751 34.3619 120.431 34.682C120.11 35.0022 119.73 35.256 119.311 35.429C118.893 35.602 118.444 35.6907 117.991 35.6902H5.04949C4.13418 35.6913 3.25594 35.3287 2.60789 34.6823C1.95984 34.036 1.59505 33.1586 1.59375 32.2433V4.75747C1.59505 3.8418 1.95971 2.96408 2.60765 2.31707C3.25558 1.67005 4.13382 1.30664 5.04949 1.30664H117.989C118.904 1.30664 119.782 1.67021 120.429 2.31737C121.076 2.96452 121.44 3.84225 121.44 4.75747V32.2433H121.442Z" fill="white"/>
<path d="M28.1269 18.3302C28.1383 17.4428 28.3739 16.5728 28.8119 15.801C29.2499 15.0292 29.876 14.3807 30.632 13.916C30.1517 13.2302 29.518 12.6657 28.7815 12.2675C28.0449 11.8693 27.2256 11.6483 26.3887 11.622C24.6034 11.4344 22.8721 12.6904 21.9627 12.6904C21.0357 12.6904 19.6353 11.6406 18.126 11.6711C17.1504 11.7025 16.1996 11.9862 15.3663 12.4944C14.533 13.0026 13.8456 13.718 13.371 14.571C11.3146 18.1308 12.8486 23.3621 14.8185 26.2394C15.8005 27.6496 16.9554 29.2218 18.4628 29.1668C19.9358 29.1069 20.4887 28.228 22.2681 28.228C24.0358 28.228 24.5484 29.1668 26.0853 29.1315C27.6683 29.1069 28.6641 27.7154 29.6156 26.2934C30.324 25.2896 30.8689 24.1799 31.2301 23.0056C30.3115 22.6163 29.5275 21.9655 28.9758 21.1343C28.4241 20.303 28.1289 19.3279 28.1269 18.3302ZM25.223 9.72962C26.0859 8.6943 26.5111 7.36335 26.4084 6.01953C25.0897 6.15909 23.872 6.79019 22.9978 7.78717C22.5702 8.27367 22.2427 8.83972 22.0341 9.45291C21.8255 10.0661 21.7398 10.7144 21.782 11.3608C22.4418 11.367 23.0943 11.2234 23.6903 10.9406C24.2864 10.6579 24.8105 10.2445 25.223 9.72962Z" fill="#AAAAAA"/>
<path d="M48.5137 28.8001H46.4515L45.3232 25.253H41.3951L40.3197 28.8001H38.3184L42.2072 16.7212H44.6082L48.5137 28.8001ZM44.9843 23.7643L43.963 20.611C43.855 20.2889 43.6521 19.5305 43.3542 18.3357H43.3178C43.198 18.8496 43.0069 19.608 42.7443 20.611L41.7407 23.7643H44.9843ZM58.494 24.3388C58.5645 25.6216 58.1314 26.8812 57.2871 27.8495C56.9472 28.2207 56.5319 28.5151 56.0691 28.7129C55.6062 28.9107 55.1065 29.0074 54.6032 28.9965C54.1156 29.0365 53.6263 28.9426 53.1881 28.7249C52.7499 28.5072 52.3794 28.1739 52.1168 27.7611V32.3305H50.1822V22.9541C50.1822 22.0238 50.1583 21.0699 50.1105 20.0925H51.8114L51.9194 21.4722H51.9557C52.2482 21.0225 52.6419 20.6475 53.1053 20.3771C53.5687 20.1068 54.0889 19.9487 54.6243 19.9155C55.1598 19.8823 55.6955 19.9749 56.1888 20.1859C56.682 20.3968 57.119 20.7203 57.4648 21.1305C58.1836 22.0412 58.5491 23.1809 58.494 24.3398V24.3388ZM56.5251 24.4114C56.5551 23.6701 56.3548 22.9376 55.9516 22.3148C55.7647 22.0426 55.5127 21.8215 55.2186 21.6714C54.9244 21.5213 54.5975 21.4471 54.2674 21.4556C53.7922 21.4553 53.3323 21.6234 52.9691 21.9299C52.581 22.2465 52.3126 22.6861 52.2081 23.1761C52.1552 23.3682 52.1252 23.566 52.1187 23.7653V25.2177C52.1029 25.807 52.311 26.3803 52.7011 26.8223C52.8896 27.0361 53.1229 27.2056 53.3845 27.3187C53.6461 27.4317 53.9295 27.4856 54.2144 27.4763C54.5459 27.4895 54.8754 27.4193 55.1727 27.2721C55.47 27.1248 55.7257 26.9054 55.9162 26.6338C56.3501 25.9765 56.5633 25.1981 56.5251 24.4114ZM68.5117 24.3407C68.5821 25.6235 68.1491 26.8831 67.3047 27.8515C66.9645 28.2225 66.549 28.5167 66.086 28.7145C65.6231 28.9123 65.1232 29.0091 64.6199 28.9985C64.1322 29.0385 63.6429 28.9446 63.2047 28.7268C62.7665 28.5091 62.3961 28.1759 62.1334 27.7631V32.3324H60.1988V22.9561C60.1988 22.0258 60.1749 21.0719 60.1271 20.0945H61.828L61.936 21.4742H61.9724C62.2656 21.0253 62.6596 20.6511 63.1231 20.3814C63.5865 20.1117 64.1065 19.954 64.6417 19.9208C65.1769 19.8876 65.7123 19.9799 66.2055 20.1902C66.6987 20.4006 67.136 20.7232 67.4825 21.1325C68.2005 22.0435 68.566 23.183 68.5117 24.3417V24.3407ZM66.5417 24.4114C66.5716 23.67 66.3708 22.9375 65.9672 22.3148C65.7807 22.0427 65.5291 21.8216 65.2353 21.6715C64.9415 21.5214 64.6148 21.4472 64.285 21.4556C63.8093 21.4556 63.3489 21.6236 62.9848 21.9299C62.5971 22.2467 62.329 22.6863 62.2248 23.1761C62.172 23.3683 62.1417 23.566 62.1344 23.7653V25.2177C62.1191 25.8067 62.3267 26.3798 62.7158 26.8223C62.9047 27.0361 63.1384 27.2056 63.4003 27.3186C63.6623 27.4317 63.9459 27.4855 64.231 27.4763C64.5625 27.4897 64.8921 27.4195 65.1895 27.2723C65.4868 27.1251 65.7425 26.9055 65.9329 26.6338C66.3667 25.9765 66.58 25.1981 66.5417 24.4114ZM79.7116 25.4141C79.7269 25.8853 79.6388 26.3542 79.4533 26.7877C79.2679 27.2212 78.9897 27.6088 78.6383 27.9232C77.713 28.6755 76.5389 29.053 75.3485 28.9808C74.2558 29.033 73.1711 28.772 72.2218 28.2286L72.6696 26.6161C73.5149 27.1176 74.4815 27.3781 75.4644 27.3693C76.0713 27.4068 76.6725 27.2333 77.1662 26.8783C77.3639 26.7221 77.5222 26.5216 77.6283 26.2931C77.7344 26.0645 77.7853 25.8142 77.777 25.5624C77.7818 25.3329 77.7397 25.1049 77.6532 24.8923C77.5668 24.6797 77.4378 24.487 77.2742 24.326C76.788 23.9037 76.2196 23.5867 75.6048 23.395C73.4902 22.6094 72.4326 21.4565 72.4319 19.9363C72.4209 19.4718 72.5159 19.0109 72.7099 18.5887C72.9039 18.1665 73.1918 17.7942 73.5514 17.5C74.3924 16.8348 75.4461 16.4974 76.5171 16.5503C77.464 16.517 78.4048 16.7138 79.2589 17.1238L78.7738 18.701C78.0594 18.3234 77.2612 18.1325 76.4533 18.1461C75.8762 18.1114 75.3065 18.29 74.8526 18.6479C74.6978 18.7847 74.5744 18.9532 74.4907 19.142C74.407 19.3308 74.365 19.5354 74.3675 19.7419C74.364 19.9677 74.4123 20.1914 74.5086 20.3956C74.605 20.5999 74.7468 20.7794 74.9233 20.9204C75.455 21.322 76.0474 21.6362 76.6781 21.8513C77.5461 22.1583 78.3311 22.6626 78.9712 23.3243C79.4685 23.9044 79.7309 24.6494 79.7067 25.4131L79.7116 25.4141ZM86.1252 21.5459H83.9923V25.7735C83.9923 26.8491 84.3687 27.3863 85.1216 27.385C85.4107 27.3918 85.6994 27.3618 85.9809 27.2956L86.0339 28.7687C85.5487 28.9271 85.0395 28.9996 84.5294 28.9828C84.198 29.0013 83.8666 28.9484 83.5574 28.8278C83.2482 28.7072 82.9686 28.5216 82.7373 28.2835C82.2423 27.6061 82.0127 26.7708 82.092 25.9355V21.5459H80.8213V20.0905H82.092V18.4957L83.9923 17.9222V20.0905H86.1252V21.5459ZM95.7274 24.3761C95.7747 25.5803 95.365 26.7579 94.5805 27.6727C94.1779 28.113 93.6838 28.4598 93.133 28.6888C92.5821 28.9178 91.9879 29.0235 91.3918 28.9985C90.8206 29.0237 90.2507 28.923 89.7227 28.7034C89.1948 28.4838 88.7216 28.1507 88.3367 27.7277C87.5641 26.8418 87.1573 25.6952 87.1986 24.5204C87.1502 23.306 87.5703 22.1195 88.3721 21.2061C88.7742 20.7745 89.2654 20.4356 89.8116 20.2128C90.3578 19.9899 90.9459 19.8886 91.5352 19.9157C92.1105 19.893 92.6838 19.9954 93.2157 20.2158C93.7475 20.4362 94.2252 20.7694 94.6158 21.1924C95.3765 22.0736 95.7724 23.212 95.7225 24.3751L95.7274 24.3761ZM93.7222 24.4203C93.7423 23.7007 93.5628 22.9897 93.2036 22.3659C93.0397 22.0479 92.79 21.7823 92.4828 21.599C92.1755 21.4157 91.8232 21.3221 91.4655 21.3289C91.1023 21.3185 90.7435 21.4101 90.4298 21.5934C90.1161 21.7768 89.8602 22.0444 89.691 22.3659C89.3281 23.0015 89.1482 23.7251 89.1714 24.4566C89.1508 25.1766 89.3307 25.8882 89.691 26.512C89.8621 26.8272 90.1156 27.0901 90.4243 27.2728C90.7331 27.4554 91.0855 27.5509 91.4442 27.549C91.8029 27.5472 92.1544 27.4482 92.4613 27.2625C92.7682 27.0767 93.019 26.8113 93.187 26.4943C93.5532 25.8654 93.7368 25.1468 93.7172 24.4193L93.7222 24.4203ZM102.018 21.7953C101.817 21.7588 101.613 21.7407 101.408 21.7413C101.102 21.7269 100.797 21.79 100.521 21.9247C100.246 22.0595 100.008 22.2615 99.8313 22.5122C99.4938 23.0204 99.3247 23.622 99.3482 24.2317V28.8011H97.4136V22.8353C97.4136 21.8323 97.395 20.9184 97.3576 20.0935H99.0427L99.1135 21.7629H99.1675C99.3508 21.2197 99.6866 20.7407 100.135 20.3832C100.538 20.081 101.029 19.9174 101.533 19.9167C101.695 19.9158 101.857 19.9276 102.017 19.9521L102.018 21.7953ZM110.672 24.0353C110.677 24.3296 110.653 24.6236 110.601 24.9133H104.797C104.784 25.2838 104.853 25.6526 104.999 25.9936C105.144 26.3346 105.363 26.6393 105.64 26.8861C106.18 27.3083 106.853 27.5239 107.538 27.494C108.34 27.5047 109.136 27.3651 109.886 27.0825L110.19 28.425C109.264 28.8035 108.27 28.9867 107.27 28.9631C106.686 28.9952 106.102 28.9061 105.555 28.7012C105.007 28.4964 104.508 28.1803 104.088 27.7729C103.694 27.3431 103.388 26.8391 103.19 26.2901C102.992 25.7412 102.904 25.1584 102.934 24.5754C102.892 23.389 103.275 22.2267 104.014 21.2974C104.376 20.8422 104.84 20.4785 105.369 20.2359C105.898 19.9933 106.477 19.8786 107.058 19.901C107.613 19.8702 108.166 19.9825 108.665 20.227C109.163 20.4715 109.591 20.8401 109.906 21.2974C110.435 22.1095 110.701 23.0655 110.666 24.0343L110.672 24.0353ZM108.827 23.5335C108.853 23.0112 108.722 22.493 108.451 22.0457C108.291 21.7841 108.063 21.5707 107.792 21.4285C107.521 21.2864 107.216 21.2207 106.91 21.2385C106.608 21.2328 106.31 21.3016 106.042 21.4386C105.773 21.5756 105.542 21.7767 105.37 22.0241C105.04 22.4613 104.842 22.983 104.797 23.5286L108.827 23.5335Z" fill="#2C2C2C"/>
<path d="M44.0513 12.6314H43.0378L42.483 10.8883H40.5543L40.025 12.6314H39.043L40.954 6.69604H42.1324L44.0513 12.6314ZM42.3161 10.1567L41.8142 8.60706C41.7612 8.44797 41.6649 8.07874 41.5196 7.48952H41.5019C41.4401 7.74485 41.3517 8.11506 41.2201 8.60706L40.7291 10.1567H42.3161ZM48.8298 8.35174L47.2095 12.6314H46.2844L44.7132 8.35174H45.7344L46.466 10.6104C46.5898 10.9885 46.6949 11.3499 46.7735 11.6906H46.8C46.8707 11.3832 46.9757 11.0219 47.1073 10.6104L47.8301 8.35174H48.8298ZM52.2797 12.6314L52.2089 12.1404H52.1824C52.039 12.3342 51.8497 12.4895 51.6316 12.5924C51.4134 12.6952 51.1732 12.7423 50.9323 12.7296C50.762 12.7388 50.5917 12.7128 50.4318 12.6534C50.2719 12.594 50.1259 12.5024 50.0029 12.3843C49.8799 12.2662 49.7825 12.124 49.7167 11.9667C49.6508 11.8094 49.6181 11.6402 49.6203 11.4697C49.6203 10.413 50.5356 9.867 52.1216 9.867V9.7904C52.1216 9.22672 51.8269 8.94488 51.2318 8.94488C50.8361 8.93761 50.4472 9.04801 50.1143 9.26207L49.9179 8.63653C50.3642 8.37677 50.8748 8.24842 51.3909 8.2663C52.5085 8.2663 53.0731 8.85551 53.0731 10.0339V11.6101C53.0663 11.9516 53.087 12.2932 53.135 12.6314H52.2797ZM52.1471 10.4994C51.0904 10.4994 50.5621 10.7557 50.5621 11.3626C50.5526 11.4512 50.5627 11.5409 50.5918 11.6252C50.6208 11.7094 50.6682 11.7862 50.7304 11.8501C50.7926 11.914 50.8681 11.9633 50.9515 11.9947C51.035 12.026 51.1243 12.0385 51.2132 12.0314C51.452 12.0378 51.6838 11.95 51.8585 11.7871C52.0332 11.6241 52.1369 11.399 52.1471 11.1603V10.4994ZM55.1913 7.64664C55.0805 7.6407 54.9739 7.60247 54.8846 7.53666C54.7952 7.47085 54.7271 7.38034 54.6886 7.27629C54.6501 7.17223 54.6428 7.05917 54.6678 6.95105C54.6927 6.84294 54.7487 6.74448 54.8289 6.66782C54.9092 6.59115 55.01 6.53964 55.1192 6.51961C55.2283 6.49959 55.3409 6.51193 55.4431 6.55513C55.5453 6.59832 55.6327 6.67047 55.6944 6.76269C55.7561 6.85491 55.7894 6.96317 55.7904 7.07412C55.7926 7.15225 55.7785 7.22998 55.7489 7.30229C55.7192 7.37461 55.6747 7.43989 55.6183 7.49394C55.5618 7.54799 55.4946 7.58959 55.4211 7.61607C55.3475 7.64254 55.2693 7.65231 55.1913 7.64664ZM55.6823 12.6314H54.7318V8.35272H55.6823V12.6314ZM58.323 12.6314H57.3724V6.38867H58.323V12.6314ZM62.365 12.6314L62.2943 12.1404H62.2678C62.1243 12.3342 61.9351 12.4895 61.7169 12.5924C61.4987 12.6952 61.2585 12.7423 61.0177 12.7296C60.8474 12.7388 60.6771 12.7128 60.5172 12.6534C60.3573 12.594 60.2113 12.5024 60.0883 12.3843C59.9653 12.2662 59.8679 12.124 59.8021 11.9667C59.7362 11.8094 59.7034 11.6402 59.7057 11.4697C59.7057 10.413 60.621 9.867 62.207 9.867V9.7904C62.207 9.22672 61.9123 8.94488 61.3172 8.94488C60.9215 8.93761 60.5326 9.04801 60.1997 9.26207L60.0033 8.63554C60.4496 8.37573 60.9602 8.24739 61.4763 8.26531C62.5939 8.26531 63.1585 8.85453 63.1585 10.033V11.6091C63.1523 11.9506 63.1726 12.2921 63.2194 12.6304L62.365 12.6314ZM62.2325 10.4994C61.1748 10.4994 60.6475 10.7557 60.6475 11.3626C60.638 11.4512 60.6481 11.5409 60.6772 11.6252C60.7062 11.7094 60.7535 11.7862 60.8157 11.8501C60.8779 11.914 60.9535 11.9633 61.0369 11.9947C61.1204 12.026 61.2097 12.0385 61.2985 12.0314C61.5374 12.0378 61.7692 11.95 61.9439 11.7871C62.1186 11.6241 62.2223 11.399 62.2325 11.1603V10.4994ZM67.011 12.7276C66.7381 12.7406 66.4672 12.6763 66.2292 12.5422C65.9912 12.4081 65.7959 12.2096 65.6656 11.9695H65.647L65.593 12.6304H64.7799C64.8064 12.2877 64.8152 11.8988 64.8152 11.4775V6.38867H65.7668V8.97827H65.7844C65.924 8.74507 66.1254 8.55504 66.3663 8.42921C66.6073 8.30338 66.8783 8.24665 67.1494 8.26531C68.1806 8.26531 68.9024 9.14914 68.9024 10.4317C68.9348 10.7074 68.9112 10.9869 68.833 11.2534C68.7548 11.5198 68.6236 11.7677 68.4472 11.9822C68.2709 12.1967 68.053 12.3734 67.8067 12.5017C67.5604 12.6299 67.2908 12.7071 67.0139 12.7286L67.011 12.7276ZM66.8146 9.01067C66.525 9.02267 66.2521 9.14905 66.0557 9.36207C65.8592 9.57508 65.7554 9.85733 65.7668 10.1469V10.8952C65.7634 11.0336 65.7874 11.1714 65.8376 11.3005C65.8877 11.4297 65.963 11.5476 66.0589 11.6474C66.1549 11.7473 66.2697 11.8272 66.3967 11.8825C66.5237 11.9378 66.6604 11.9673 66.7989 11.9695C67.5108 11.9695 67.935 11.3891 67.935 10.4641C67.939 9.60284 67.4981 9.01165 66.8205 9.01165L66.8146 9.01067ZM71.2582 12.6304H70.3086V6.38867H71.2582V12.6304ZM76.4354 10.7194H73.5807C73.5743 10.8945 73.6054 11.069 73.6719 11.2311C73.7385 11.3931 73.8389 11.5391 73.9665 11.6592C74.0942 11.7793 74.246 11.8707 74.4118 11.9272C74.5777 11.9838 74.7537 12.0043 74.9281 11.9872C75.3218 11.9911 75.713 11.9225 76.0819 11.7849L76.2302 12.4458C75.7753 12.6317 75.2868 12.7217 74.7955 12.71C74.5074 12.7323 74.2178 12.6915 73.9471 12.5904C73.6763 12.4893 73.4309 12.3304 73.2279 12.1247C73.0249 11.919 72.8693 11.6715 72.7718 11.3994C72.6743 11.1274 72.6373 10.8373 72.6635 10.5495C72.6346 10.2634 72.6651 9.97441 72.753 9.70063C72.841 9.42684 72.9845 9.17415 73.1745 8.95836C73.3646 8.74257 73.5971 8.56834 73.8576 8.44655C74.1181 8.32477 74.401 8.25805 74.6884 8.25058C74.966 8.29595 75.2317 8.396 75.4703 8.54492C75.7088 8.69383 75.9154 8.88866 76.078 9.11807C76.2406 9.34748 76.356 9.60691 76.4176 9.88129C76.4791 10.1557 76.4855 10.4396 76.4365 10.7164L76.4354 10.7194ZM75.5634 10.0418C75.5634 9.3809 75.2286 8.91443 74.6207 8.91443C74.3373 8.93693 74.0728 9.06551 73.88 9.27449C73.6872 9.48347 73.5803 9.75748 73.5807 10.0418H75.5634ZM82.1999 12.7276C81.9158 12.7321 81.634 12.6771 81.3724 12.5662C81.1109 12.4553 80.8754 12.2909 80.6812 12.0835C80.487 11.8762 80.3383 11.6305 80.2447 11.3622C80.1511 11.094 80.1146 10.8091 80.1377 10.5259C80.1131 10.2338 80.1505 9.93977 80.2473 9.66304C80.3441 9.38631 80.4981 9.1331 80.6994 8.91996C80.9007 8.70681 81.1447 8.53852 81.4155 8.42605C81.6862 8.31359 81.9776 8.25949 82.2706 8.26728C82.5546 8.26045 82.8368 8.31354 83.0989 8.42311C83.3609 8.53267 83.5969 8.69624 83.7915 8.90315C83.9861 9.11006 84.1349 9.35566 84.2282 9.62394C84.3214 9.89221 84.3571 10.1771 84.3329 10.4601C84.3568 10.7521 84.3193 11.0459 84.2228 11.3225C84.1262 11.5991 83.9728 11.8524 83.7724 12.0661C83.5721 12.2798 83.3291 12.4492 83.0593 12.5633C82.7895 12.6774 82.4988 12.7337 82.2059 12.7286L82.1999 12.7276ZM82.2363 8.95764C81.5489 8.95764 81.1089 9.59989 81.1089 10.4984C81.1089 11.3823 81.5577 12.0216 82.2265 12.0216C82.8952 12.0216 83.343 11.3341 83.343 10.4798C83.3509 9.61069 82.91 8.95961 82.2412 8.95961L82.2363 8.95764ZM89.4443 12.6304H88.4947V10.1753C88.4947 9.41821 88.2001 9.03915 87.6315 9.03915C87.4997 9.04389 87.3702 9.07494 87.2506 9.13049C87.131 9.18603 87.0236 9.26495 86.935 9.36258C86.8463 9.46022 86.7781 9.5746 86.7343 9.69901C86.6905 9.82341 86.672 9.95532 86.6799 10.087V12.6324H85.7303V9.57533C85.7303 9.19725 85.7205 8.78972 85.695 8.35076H86.5316L86.5758 9.01165H86.6024C86.7418 8.77795 86.9409 8.58551 87.1792 8.45403C87.4175 8.32255 87.6864 8.25674 87.9585 8.26335C88.8561 8.26335 89.4463 8.95077 89.4463 10.0683V12.6314L89.4443 12.6304ZM95.6674 9.0637H94.6216V11.1417C94.6216 11.6706 94.8062 11.9351 95.1754 11.9351C95.3177 11.9365 95.4597 11.9216 95.5987 11.8909L95.6252 12.6137C95.3872 12.6925 95.1372 12.7284 94.8867 12.7198C94.1374 12.7198 93.6896 12.3063 93.6896 11.2222V9.06174H93.0651V8.34879H93.6896V7.56317L94.6225 7.28133V8.34682H95.6684L95.6674 9.0637ZM100.704 12.6304H99.7526V10.193C99.7526 9.42705 99.458 9.04013 98.8894 9.04013C98.7584 9.037 98.6283 9.06155 98.5074 9.11219C98.3866 9.16282 98.2778 9.23839 98.1881 9.33396C98.0985 9.42952 98.0301 9.54293 97.9873 9.66677C97.9445 9.79061 97.9283 9.92208 97.9398 10.0526V12.6324H96.9902V6.38867H97.9418V8.95961H97.9595C98.0925 8.73882 98.2822 8.55775 98.509 8.43529C98.7358 8.31283 98.9913 8.25345 99.2489 8.26335C100.155 8.26335 100.71 8.96746 100.71 10.086L100.704 12.6304ZM105.563 10.7194H102.709C102.703 10.8944 102.734 11.0689 102.8 11.231C102.867 11.3931 102.967 11.5391 103.095 11.6592C103.222 11.7793 103.374 11.8707 103.54 11.9273C103.706 11.9838 103.882 12.0043 104.056 11.9872C104.449 11.991 104.84 11.9225 105.209 11.7849L105.358 12.4458C104.903 12.6317 104.414 12.7217 103.922 12.71C103.634 12.7323 103.345 12.6915 103.074 12.5904C102.803 12.4893 102.558 12.3304 102.355 12.1247C102.152 11.919 101.996 11.6715 101.899 11.3994C101.801 11.1274 101.764 10.8373 101.79 10.5495C101.761 10.2634 101.792 9.97441 101.88 9.70063C101.968 9.42684 102.111 9.17415 102.301 8.95836C102.491 8.74257 102.724 8.56834 102.984 8.44655C103.245 8.32477 103.528 8.25805 103.815 8.25058C104.071 8.25101 104.324 8.30604 104.557 8.412C104.79 8.51795 104.997 8.67239 105.166 8.86499C105.334 9.0576 105.46 9.28393 105.534 9.52887C105.608 9.7738 105.628 10.0317 105.595 10.2853C105.603 10.4309 105.594 10.5769 105.568 10.7204L105.563 10.7194ZM104.691 10.0418C104.691 9.3809 104.357 8.91443 103.749 8.91443C103.466 8.93671 103.201 9.06522 103.008 9.27425C102.816 9.48328 102.709 9.75742 102.709 10.0418H104.691Z" fill="#2C2C2C"/>
</g>
</g>
</g>
<defs>
<clipPath id="clip0_206_3958">
<rect width="123" height="36" fill="white" transform="translate(0.0195312 0.5)"/>
</clipPath>
<clipPath id="clip1_206_3958">
<rect width="123" height="36" fill="white" transform="translate(0.0195312 0.5)"/>
</clipPath>
<clipPath id="clip2_206_3958">
<rect width="121.466" height="36" fill="white" transform="translate(0.787109 0.5)"/>
</clipPath>
</defs>
</svg>
