<svg width="95" height="96" viewBox="0 0 95 96" fill="none" xmlns="http://www.w3.org/2000/svg">
<g filter="url(#filter0_d_206_5396)">
<rect x="15" y="10.9395" width="65" height="65" rx="32.5" fill="#09B14F"/>
<g clip-path="url(#clip0_206_5396)">
<g clip-path="url(#clip1_206_5396)">
<g clip-path="url(#clip2_206_5396)">
<path d="M46.8868 62.9981C46.085 62.9962 45.3078 62.7217 44.6827 62.2197C44.0576 61.7177 43.6216 61.0182 43.4467 60.2358C41.1837 59.5459 39.1332 58.2924 37.4874 56.5927C35.8417 54.8931 34.6545 52.8031 34.0378 50.519H32.641C31.277 50.5164 29.9697 49.9729 29.0059 49.0077C28.0421 48.0425 27.5007 46.7345 27.5 45.3705V42.4542C27.5007 41.0903 28.0424 39.7824 29.0062 38.8174C29.97 37.8524 31.2771 37.3092 32.641 37.3069H33.5748C33.7142 33.7043 35.2411 30.2953 37.8362 27.7926C40.4313 25.29 43.8934 23.8876 47.4986 23.8789C51.0941 23.887 54.548 25.2813 57.1413 27.7717C59.7346 30.2621 61.2679 33.6566 61.4215 37.2488H62.359C63.7229 37.2511 65.03 37.7945 65.9938 38.7595C66.9576 39.7245 67.4993 41.0322 67.5 42.3961V45.3124C67.4993 46.6764 66.9579 47.9845 65.9941 48.9496C65.0303 49.9148 63.723 50.4583 62.359 50.461H60.4951C60.3693 50.4608 60.2449 50.4359 60.1288 50.3876C60.0127 50.3393 59.9071 50.2687 59.8182 50.1797C59.7294 50.0906 59.6589 49.9849 59.6109 49.8687C59.5629 49.7524 59.5383 49.6278 59.5385 49.502V37.852C59.5372 34.6581 58.2691 31.5951 56.0122 29.3351C53.7553 27.0751 50.6941 25.8027 47.5002 25.797C44.3066 25.803 41.2455 27.0757 38.989 29.3357C36.7326 31.5957 35.465 34.6584 35.464 37.852V46.8721C35.4642 49.3792 36.2457 51.8241 37.6997 53.8665C39.1537 55.9089 41.2078 57.4475 43.5767 58.2684C43.8207 57.5845 44.2696 56.9925 44.862 56.5727C45.4545 56.153 46.1619 55.9259 46.888 55.9225H49.8712C50.8083 55.9225 51.7071 56.2949 52.3697 56.9575C53.0323 57.6201 53.4046 58.5188 53.4046 59.4559C53.4046 60.393 53.0323 61.2917 52.3697 61.9543C51.7071 62.6169 50.8083 62.9893 49.8712 62.9893L46.8868 62.9981ZM45.269 59.4647C45.2693 59.8939 45.4396 60.3055 45.7428 60.6092C46.0461 60.9129 46.4576 61.084 46.8868 61.085H49.8699C50.299 61.084 50.7102 60.9128 51.0132 60.6091C51.3163 60.3053 51.4864 59.8938 51.4864 59.4647C51.4864 59.0357 51.316 58.6243 51.0129 58.3208C50.7098 58.0172 50.2989 57.8464 49.8699 57.8457H46.8868C46.4578 57.8467 46.0467 58.0176 45.7435 58.3211C45.4403 58.6245 45.2697 59.0357 45.269 59.4647ZM29.4144 42.4617V45.378C29.4148 46.2342 29.7544 47.0552 30.3593 47.6611C30.9642 48.2669 31.7849 48.6082 32.641 48.6098H33.5483V39.2325H32.641C31.7862 39.2342 30.9668 39.5743 30.3621 40.1785C29.7574 40.7827 29.4168 41.602 29.4144 42.4568V42.4617ZM61.4517 43.195V48.5479H62.359C63.2149 48.5459 64.0351 48.2047 64.6398 47.5989C65.2444 46.993 65.584 46.1722 65.5843 45.3163V42.4C65.5837 41.5444 65.2438 40.7239 64.6391 40.1186C64.0345 39.5132 63.2146 39.1724 62.359 39.1708H61.4517V43.195ZM47.7851 52.407C47.6531 52.4066 47.5225 52.3791 47.4016 52.3261C47.2806 52.2731 47.1721 52.1959 47.0824 52.099L44.9107 49.748H42.4775C41.764 49.7464 41.0805 49.4618 40.5766 48.9567C40.0727 48.4517 39.7897 47.7673 39.7898 47.0539V39.1757C39.7897 38.4623 40.0727 37.7781 40.5766 37.273C41.0805 36.7679 41.764 36.4833 42.4775 36.4817H53.1547C53.8686 36.4827 54.5527 36.7669 55.0571 37.2721C55.5616 37.7772 55.8449 38.4618 55.8449 39.1757V47.0539C55.8446 47.7676 55.5612 48.4521 55.0568 48.9572C54.5525 49.4623 53.8685 49.7467 53.1547 49.748H50.6081L48.4956 52.0901C48.4061 52.1886 48.2975 52.2676 48.1761 52.3221C48.0547 52.3766 47.9234 52.4056 47.7904 52.407H47.7851ZM41.7026 39.1757V47.0539C41.7026 47.2592 41.7841 47.4563 41.9291 47.6018C42.0741 47.7473 42.2708 47.8293 42.4762 47.8299H45.3269C45.4589 47.8299 45.5896 47.8573 45.7105 47.91C45.8314 47.9628 45.9402 48.0399 46.03 48.1366L47.775 50.0295L49.4697 48.1492C49.5594 48.0498 49.6693 47.9702 49.7917 47.9159C49.9141 47.8615 50.0462 47.8336 50.1802 47.8338H53.1519C53.3577 47.8334 53.5552 47.7516 53.7006 47.6061C53.8461 47.4606 53.928 47.2634 53.9283 47.0577V39.1796C53.928 38.9738 53.8461 38.7766 53.7006 38.6312C53.5552 38.4857 53.3577 38.4038 53.1519 38.4035H42.475C42.2707 38.4048 42.0753 38.4866 41.9309 38.6312C41.7866 38.7757 41.7052 38.9714 41.7042 39.1757H41.7026Z" fill="white"/>
</g>
</g>
</g>
</g>
<defs>
<filter id="filter0_d_206_5396" x="0" y="0.939453" width="95" height="95" filterUnits="userSpaceOnUse" color-interpolation-filters="sRGB">
<feFlood flood-opacity="0" result="BackgroundImageFix"/>
<feColorMatrix in="SourceAlpha" type="matrix" values="0 0 0 0 0 0 0 0 0 0 0 0 0 0 0 0 0 0 127 0" result="hardAlpha"/>
<feOffset dy="5"/>
<feGaussianBlur stdDeviation="7.5"/>
<feComposite in2="hardAlpha" operator="out"/>
<feColorMatrix type="matrix" values="0 0 0 0 0.945098 0 0 0 0 0.403922 0 0 0 0 0 0 0 0 0.5 0"/>
<feBlend mode="normal" in2="BackgroundImageFix" result="effect1_dropShadow_206_5396"/>
<feBlend mode="normal" in="SourceGraphic" in2="effect1_dropShadow_206_5396" result="shape"/>
</filter>
<clipPath id="clip0_206_5396">
<rect width="40" height="40" fill="white" transform="translate(27.5 23.4395)"/>
</clipPath>
<clipPath id="clip1_206_5396">
<rect width="40" height="40" fill="white" transform="translate(27.5 23.4395)"/>
</clipPath>
<clipPath id="clip2_206_5396">
<rect width="40" height="39.1192" fill="white" transform="translate(27.5 23.8789)"/>
</clipPath>
</defs>
</svg>
