<svg width="529" height="330" viewBox="0 0 529 330" fill="none" xmlns="http://www.w3.org/2000/svg">
<g clip-path="url(#clip0_300_98)">
<path d="M528.819 292.647C528.819 306.797 443.588 318.266 338.453 318.266C233.317 318.266 148.086 306.797 148.086 292.647C148.086 278.497 233.315 267.029 338.453 267.029C443.59 267.029 528.819 278.499 528.819 292.647Z" fill="#A6ADB3" fill-opacity="0.24"/>
<path d="M427.066 253.704L250.637 249.949L193.752 256.316V282.61L306.22 305.924L427.011 274.4L427.058 273.83L427.066 253.704Z" fill="white"/>
<path d="M312.147 283.635V304.831L195.561 282.982C195.561 282.982 189.191 260.747 197.711 257.077C206.231 253.407 312.152 283.629 312.152 283.629" fill="#C8C8C8"/>
<path d="M428.732 249.001L407.041 253.667L319.61 238.105L218.593 256.237L195.562 251.843V260.369L312.149 283.634L428.733 257.527L428.732 249.001Z" fill="#2C2C2C"/>
<path d="M428.731 249.002L312.145 275.109L195.561 251.842L319.61 229.58L428.731 249.002Z" fill="#C8C8C8"/>
<path d="M419.983 275.293C419.983 275.293 312.391 301.661 310.788 301.661C309.338 301.661 216.496 284.392 198.554 281.25C194.958 273.301 198.896 260.36 198.896 260.36L197.735 257.073H197.711C200.021 254.004 195.561 251.84 195.561 251.84C195.561 251.84 192.473 250.914 190.414 259.193C189.728 262.566 189.421 265.996 189.501 269.428C189.501 269.576 189.746 282.266 191.992 285.321L310.089 310.653L429.647 279.219V272.969L419.983 275.293Z" fill="#2C2C2C"/>
<path d="M204.988 271.48C204.988 271.48 202.137 295.284 203.537 295.027C204.938 294.771 211.368 289.72 211.368 289.72C211.368 289.72 219.69 300.158 219.69 298.875C219.69 297.592 222.752 275.027 222.752 275.027L204.988 271.48Z" fill="#5F5F5F"/>
<path d="M253.83 245.014C255.442 245.547 320.111 233.768 320.111 233.768L376.686 243.451L253.83 245.014Z" fill="#2A95F5"/>
<path d="M241.223 256.315L313.644 266.55L380.571 253.281L241.223 256.315Z" fill="#2A95F5"/>
<path d="M185.686 222.981L362.115 219.232L418.992 225.599V251.893L306.53 275.201L185.739 243.677L185.692 243.109L185.686 222.981Z" fill="#C8C8C8"/>
<path d="M300.606 252.912V274.108L417.191 252.26C417.191 252.26 423.562 230.024 415.04 226.354C406.519 222.684 300.6 252.906 300.6 252.906" fill="white"/>
<path d="M184.02 218.28L205.71 222.947L293.141 207.385L394.16 225.516L417.19 221.127V229.653L300.606 252.917L184.021 226.809L184.02 218.28Z" fill="#5F5F5F"/>
<path d="M184.02 218.28L300.604 244.387L417.189 221.122L293.141 198.859L184.02 218.28Z" fill="#2C2C2C"/>
<path d="M192.772 244.568C192.772 244.568 300.363 270.937 301.965 270.937C303.415 270.937 396.258 253.666 414.199 250.524C417.795 242.576 413.857 229.634 413.857 229.634L415.019 226.347H415.042C412.732 223.278 417.192 221.115 417.192 221.115C417.192 221.115 420.28 220.189 422.339 228.468C423.026 231.842 423.333 235.272 423.254 238.703C423.254 238.852 423.008 251.54 420.761 254.596L302.658 279.938L183.107 248.499V242.248L192.772 244.568Z" fill="#5F5F5F"/>
<path d="M348.582 215.889L273.689 230.834L300.607 236.861L378.656 221.285L348.582 215.889Z" fill="#C8C8C8"/>
<path d="M310.796 155.27L224.379 164.787V215.687C224.379 215.687 248.418 231.147 310.796 231.147C373.175 231.147 397.191 215.687 397.191 215.687V164.787L310.796 155.27Z" fill="#C8C8C8"/>
<path d="M368.453 161.621C368.464 176.371 362.493 190.594 351.711 201.506C340.928 212.419 326.109 219.237 310.153 220.625C301.808 221.343 292.461 221.776 282.044 221.776C263.224 221.99 244.438 220.259 226.037 216.617C232.404 219.954 257.708 231.145 310.783 231.145C373.152 231.145 397.192 215.685 397.192 215.685V164.785L368.453 161.621Z" fill="#5F5F5F"/>
<path d="M310.783 122.424L171.262 155.273V159.475L310.783 192.323L450.312 159.475V155.273L310.783 122.424Z" fill="#2C2C2C"/>
<path d="M310.783 122.424L171.262 155.273L310.783 188.121L450.312 155.273L310.783 122.424Z" fill="#C8C8C8"/>
<path d="M415.764 223.864L414.323 223.824C414.323 223.769 414.503 218.202 414.323 209.256C414.265 206.373 414.162 205.129 414.078 204.031C413.894 201.716 413.773 200.185 414.265 185.554C414.292 184.709 414.345 183.807 414.402 182.868C414.735 177.176 415.151 170.093 410.509 166.435C406.963 163.635 401.908 163.529 397.028 163.427C395.106 163.387 393.291 163.348 391.567 163.154C382.702 162.147 373.656 161.254 364.913 160.391L358.422 159.747C337.041 157.615 318.713 155.949 318.529 155.933L318.671 154.611C318.855 154.628 337.19 156.295 358.579 158.428L365.068 159.072C373.816 159.937 382.86 160.83 391.742 161.837C393.396 162.025 395.176 162.062 397.062 162.101C402.195 162.209 407.503 162.319 411.447 165.428C416.628 169.512 416.191 176.958 415.841 182.941C415.786 183.869 415.735 184.761 415.704 185.596C415.221 200.157 415.335 201.659 415.516 203.935C415.604 205.05 415.704 206.308 415.764 209.232C415.944 218.212 415.764 223.807 415.764 223.864Z" fill="#2C2C2C"/>
<path d="M320.161 155.274C320.161 157.38 315.971 159.09 310.789 159.09C305.606 159.09 301.414 157.382 301.414 155.274C301.414 153.166 305.605 151.457 310.789 151.457C315.972 151.457 320.161 153.166 320.161 155.274Z" fill="#2C2C2C"/>
<path d="M419.687 218.329C419.687 219.191 419.409 220.033 418.889 220.75C418.369 221.466 417.629 222.025 416.764 222.354C415.899 222.684 414.947 222.77 414.029 222.602C413.111 222.434 412.267 222.019 411.605 221.41C410.943 220.801 410.492 220.024 410.31 219.179C410.127 218.334 410.221 217.458 410.579 216.662C410.937 215.866 411.544 215.186 412.323 214.707C413.101 214.228 414.016 213.973 414.953 213.973C416.208 213.973 417.412 214.432 418.3 215.249C419.188 216.066 419.687 217.174 419.687 218.329Z" fill="#2C2C2C"/>
<path d="M414.951 220.637C411.243 220.637 410.512 220.01 410.512 220.01V223.539H419.377V220.01C419.377 220.01 418.663 220.637 414.957 220.637" fill="#2C2C2C"/>
<path d="M421.424 224.742C420.646 223.769 419.616 222.989 418.429 222.472C417.241 221.956 415.933 221.719 414.621 221.784C413.31 221.848 412.036 222.212 410.915 222.841C409.794 223.471 408.861 224.347 408.199 225.392C404.703 230.828 407.458 238.957 411.299 243.637C411.529 243.917 411.75 244.207 411.963 244.496C412.013 244.566 412.059 244.637 412.109 244.705C412.271 244.935 412.432 245.166 412.593 245.399L412.707 245.577C412.869 245.831 413.03 246.087 413.191 246.341L413.244 246.432C413.415 246.728 413.579 247.013 413.728 247.299C414.268 248.307 414.753 249.339 415.178 250.392C417.31 248.537 419.078 246.357 420.402 243.948C422.005 241.528 423.132 238.867 423.732 236.087C425.07 228.6 421.431 224.725 421.427 224.74" fill="#2C2C2C"/>
<path d="M412.553 223.21C412.34 223.421 412.139 223.642 411.95 223.872C411.447 224.465 410.997 225.096 410.608 225.758C410.343 226.195 410.105 226.644 409.895 227.105C409.786 227.35 409.702 227.613 409.599 227.874C409.488 228.138 409.399 228.409 409.331 228.685L409.102 229.535C409.06 229.832 409.017 230.128 408.973 230.425L408.906 230.87L408.896 231.326L408.881 232.242C408.93 232.852 408.991 233.465 409.091 234.059C409.252 234.644 409.357 235.237 409.549 235.788C409.769 236.33 409.964 236.86 410.153 237.366C410.393 237.849 410.645 238.3 410.864 238.723L411.186 239.328C411.306 239.512 411.417 239.687 411.525 239.85L412.079 240.699C412.381 241.178 412.555 241.45 412.555 241.45L411.965 240.775L411.297 239.985L410.89 239.496L410.516 238.903C410.258 238.489 409.964 238.045 409.679 237.568C409.444 237.063 409.196 236.529 408.949 235.971C408.731 235.405 408.585 234.785 408.411 234.18C408.296 233.555 408.222 232.908 408.164 232.266L408.191 231.297L408.208 230.815L408.287 230.341L408.448 229.408L408.723 228.518C408.803 228.23 408.911 227.95 409.046 227.681C409.173 227.415 409.281 227.15 409.416 226.904C409.671 226.444 409.953 225.999 410.261 225.569C410.516 225.201 410.798 224.851 411.106 224.52C411.385 224.223 411.626 223.977 411.844 223.778C412.063 223.569 412.3 223.377 412.551 223.201" fill="white"/>
<path d="M414.144 223.21L413.944 224.1C413.878 224.385 413.81 224.732 413.733 225.131C413.655 225.53 413.571 225.98 413.488 226.466C413.326 227.448 413.165 228.598 413.039 229.83C412.964 230.444 412.928 231.084 412.891 231.731C412.854 232.377 412.851 233.037 412.836 233.695C412.822 234.352 412.877 235.009 412.894 235.656C412.973 236.296 413.012 236.933 413.102 237.542C413.233 238.145 413.297 238.741 413.438 239.288C413.578 239.836 413.723 240.355 413.881 240.825C414.076 241.282 414.242 241.715 414.387 242.09C414.525 242.414 414.686 242.728 414.87 243.031L415.311 243.853L414.748 243.095C414.525 242.807 414.324 242.507 414.145 242.194C413.949 241.828 413.728 241.412 413.5 240.951C413.304 240.479 413.135 239.956 412.928 239.405C412.722 238.855 412.624 238.25 412.477 237.625C412.364 237.002 412.282 236.354 412.201 235.697C412.175 235.035 412.113 234.362 412.117 233.69C412.122 233.018 412.13 232.345 412.2 231.688C412.24 231.027 412.319 230.381 412.414 229.759C412.509 229.138 412.62 228.538 412.736 227.979C412.852 227.42 412.989 226.884 413.102 226.395C413.354 225.419 413.626 224.615 413.82 224.066C414.013 223.517 414.155 223.201 414.155 223.201" fill="white"/>
<path d="M415.309 225.559C415.309 225.559 415.428 225.863 415.594 226.408C415.76 226.952 415.992 227.732 416.184 228.686C416.292 229.161 416.38 229.678 416.488 230.226C416.596 230.773 416.69 231.353 416.754 231.958C416.916 233.163 417.016 234.455 417.062 235.748C417.095 236.395 417.077 237.043 417.082 237.677C417.086 238.31 417.032 238.939 417.011 239.546C416.99 240.152 416.908 240.732 416.85 241.29C416.792 241.848 416.721 242.364 416.646 242.843C416.524 243.808 416.324 244.595 416.208 245.15C416.092 245.705 416.003 246.016 416.003 246.016C416.003 246.016 416.027 245.694 416.069 245.126C416.095 244.846 416.126 244.505 416.163 244.115C416.2 243.724 416.214 243.282 416.245 242.8C416.276 242.318 416.319 241.801 416.327 241.25C416.335 240.7 416.372 240.12 416.372 239.519C416.372 238.918 416.393 238.298 416.38 237.668C416.368 237.037 416.38 236.398 416.337 235.76C416.306 234.48 416.214 233.203 416.119 232.004C416.024 230.806 415.918 229.689 415.782 228.741C415.647 227.793 415.552 226.988 415.46 226.431L415.312 225.555" fill="white"/>
<path d="M416.023 222.958C416.023 222.958 416.207 223.212 416.476 223.682C416.852 224.332 417.189 224.999 417.487 225.682C417.911 226.648 418.277 227.636 418.583 228.639C418.722 229.197 418.913 229.764 419.02 230.36C419.126 230.956 419.268 231.547 419.342 232.159C419.416 232.772 419.487 233.374 419.523 233.977C419.567 234.565 419.578 235.155 419.557 235.745C419.557 236.296 419.521 236.847 419.449 237.394C419.422 237.655 419.396 237.909 419.371 238.155C419.328 238.399 419.286 238.635 419.246 238.861C419.163 239.306 419.084 239.726 418.997 240.088L418.722 241.015C418.56 241.525 418.469 241.816 418.469 241.816L418.585 240.987C418.625 240.726 418.675 240.408 418.731 240.045C418.788 239.682 418.802 239.268 418.841 238.817C418.864 238.593 418.886 238.358 418.909 238.118C418.931 237.878 418.918 237.624 418.923 237.366C418.933 236.851 418.952 236.308 418.923 235.748C418.894 235.187 418.891 234.608 418.828 234.021C418.765 233.434 418.727 232.834 418.627 232.241C418.562 231.648 418.446 231.054 418.335 230.476C418.224 229.897 418.083 229.328 417.966 228.777C417.805 228.234 417.695 227.699 417.545 227.202C417.395 226.705 417.258 226.232 417.103 225.803C416.81 224.941 416.555 224.225 416.347 223.727C416.139 223.228 416.025 222.949 416.025 222.949" fill="white"/>
<path d="M419.687 225.559C420.16 226.502 420.547 227.479 420.846 228.48C420.972 228.932 421.128 229.42 421.243 229.945C421.357 230.471 421.497 231.025 421.581 231.605C421.691 232.182 421.742 232.792 421.804 233.403C421.841 234.017 421.862 234.646 421.865 235.274C421.815 235.9 421.831 236.53 421.728 237.144C421.663 237.747 421.555 238.346 421.406 238.936C421.287 239.491 421.12 240.037 420.906 240.568C420.738 241.051 420.536 241.523 420.3 241.981C420.079 242.406 419.861 242.787 419.67 243.124C419.447 243.446 419.234 243.717 419.07 243.941L418.533 244.637L418.951 243.874C419.083 243.634 419.257 243.348 419.434 243.011C419.578 242.659 419.739 242.269 419.929 241.839C420.124 241.379 420.286 240.908 420.413 240.428C420.572 239.899 420.699 239.362 420.793 238.819C420.938 238.264 420.954 237.669 421.048 237.076C421.141 236.483 421.115 235.869 421.156 235.26C421.156 234.649 421.156 234.04 421.12 233.439C421.061 232.845 421.056 232.252 420.959 231.675C420.862 231.098 420.825 230.552 420.732 230.03C420.638 229.508 420.545 229.017 420.458 228.561C420.253 227.66 420.089 226.9 419.929 226.379C419.77 225.859 419.692 225.555 419.692 225.555" fill="white"/>
<path d="M491.365 327.615C491.365 327.615 473.042 323.759 463.539 312.754C457.483 305.969 449.624 300.741 440.725 297.577L447.839 294.624C449.353 293.996 454.211 296.095 455.586 296.586C463.508 299.424 469.425 305.498 477.359 308.481C483.211 310.683 491.814 314.049 498.266 312.338C498.266 312.338 499.928 323.185 491.367 327.617" fill="#5F5F5F"/>
<path d="M459.222 324.63C459.222 324.63 459.097 311.048 451.534 302.484C446.902 297.066 443.871 290.637 442.736 283.822L439.076 288.345C438.297 289.308 439.228 293.092 439.398 294.142C440.425 300.212 444.489 305.416 445.636 311.515C446.482 316.017 447.836 322.655 445.323 326.921C445.323 326.921 454.079 329.922 459.216 324.63" fill="#5F5F5F"/>
<path d="M340.742 299.274C340.742 299.274 345.268 312.383 359.343 330.001C359.082 329.314 385.777 317.352 387.75 316.425C403.139 309.012 419.318 303.082 436.031 298.73C441.945 297.246 447.88 295.923 453.779 294.387C459.582 292.873 465.399 291.362 471.251 290.025C486.427 286.559 511.725 285.442 511.725 285.442L502.179 278.967L374.496 294.76L360.01 277.432L340.742 299.274Z" fill="#DBDBDB"/>
<path d="M505.818 257.42C503.785 256.31 501.53 255.588 499.187 255.297C499.187 255.297 442.242 262.976 419.989 265.532C397.736 268.088 347.479 271.261 347.479 271.261L359.122 316.941C364.421 314.408 423.757 298.421 441.575 293.433C459.392 288.444 506.766 279.732 506.766 279.732C507.959 278.929 508.94 277.887 509.633 276.686C513.663 269.927 512.891 261.25 505.818 257.414" fill="#F4F4F4"/>
<path d="M511.903 270.395C511.38 270.977 510.777 271.495 510.109 271.936C510.109 271.936 460.397 280.961 441.693 286.145C424.367 290.947 369.682 305.552 357.297 309.778L359.123 316.947C364.421 314.412 423.758 298.426 441.575 293.439C459.393 288.452 506.766 279.737 506.766 279.737C507.961 278.934 508.941 277.892 509.634 276.69C510.802 274.737 511.571 272.603 511.903 270.395Z" fill="#EDEDED"/>
<path d="M358.652 317.066C353.671 318.314 343.388 309.391 339.955 296.787C336.521 284.183 341.233 272.668 346.215 271.422C351.197 270.176 358.02 279.383 361.457 291.987C364.893 304.591 363.637 315.822 358.657 317.068" fill="#C5C9C9"/>
<path d="M363.005 299.669C362.795 299.725 362.578 299.755 362.36 299.758C358.928 299.796 356.082 290.277 356.082 290.277L359.306 285.545C358.255 282.869 356.932 280.291 355.353 277.844H355.249C355.249 277.844 349.917 279.398 349.04 287.408C348.899 288.72 348.934 290.042 349.141 291.345C349.607 294.431 350.68 297.412 352.309 300.143C356.499 307.842 361.206 308.133 363.318 307.788C363.491 305.079 363.392 302.36 363.021 299.667" fill="#BABDBD"/>
<path d="M362.353 299.758C362.571 299.755 362.788 299.725 362.997 299.669C362.357 294.846 361.113 290.107 359.29 285.547L356.066 290.279C356.066 290.279 358.913 299.796 362.345 299.758" fill="#A8ABAB"/>
<path d="M441.047 262.643C437.392 262.286 433.701 262.854 430.373 264.288C430.373 264.288 449.256 275.533 440.726 297.576C446.061 298.008 451.783 294.896 451.783 294.896C460.313 272.853 441.047 262.643 441.047 262.643Z" fill="#5F5F5F"/>
<path d="M76.6582 221.958L70.4316 230.652L74.2792 232.959L80.5058 224.265L76.6582 221.958Z" fill="#5F5F5F"/>
<path d="M79.722 218.289L82.8401 220.112C83.4578 220.475 83.8872 221.055 84.0341 221.725C84.181 222.394 84.0335 223.099 83.6239 223.684L82.6568 225.064C82.247 225.65 81.6083 226.067 80.8808 226.226C80.1533 226.385 79.3964 226.272 78.776 225.912L75.658 224.089C75.0379 223.727 74.6063 223.146 74.458 222.476C74.3098 221.805 74.4571 221.099 74.8675 220.513L75.8345 219.133C76.2451 218.546 76.8854 218.128 77.6145 217.97C78.3435 217.812 79.1016 217.927 79.722 218.289Z" fill="#C8C8C8"/>
<path d="M72.5523 291.705C72.3702 291.964 72.0873 292.148 71.7658 292.217C71.4443 292.286 71.1105 292.234 70.8376 292.073L12.6925 257.574C12.4333 257.407 12.2571 257.149 12.2011 256.857C12.1451 256.565 12.2137 256.26 12.3923 256.008C12.571 255.755 12.8458 255.573 13.159 255.502C13.4722 255.43 13.7993 255.473 14.0715 255.623L72.2185 290.119C72.4911 290.281 72.6803 290.539 72.7445 290.836C72.8087 291.134 72.7426 291.447 72.5609 291.706" fill="#5F5F5F"/>
<path d="M0.446849 287.588C0.200448 287.741 -0.0979786 287.8 -0.384253 287.753C-0.670527 287.705 -0.921789 287.555 -1.084 287.334C-1.28757 287.145 -1.40064 286.887 -1.39894 286.616C-1.39723 286.345 -1.28087 286.082 -1.07487 285.884L14.6067 273.705C14.853 273.553 15.1509 273.494 15.4367 273.541C15.7224 273.589 15.9732 273.739 16.1353 273.96C16.3393 274.148 16.4528 274.406 16.4514 274.678C16.4499 274.949 16.3336 275.212 16.1275 275.411L0.446849 287.588Z" fill="#C8C8C8"/>
<path d="M52.8895 242.11L1.89453 281.217L5.90771 285.659L56.9026 246.552L52.8895 242.11Z" fill="#2C2C2C"/>
<path d="M46.3246 314.657C46.3017 314.922 46.3779 315.183 46.5403 315.396C46.7027 315.608 46.9413 315.76 47.2156 315.826C47.4898 315.891 47.7829 315.865 48.0451 315.753C48.3073 315.642 48.5225 315.45 48.6541 315.212L54.2161 297.095C54.2379 296.831 54.1612 296.571 53.9988 296.359C53.8363 296.147 53.5982 295.996 53.3245 295.931C53.0509 295.866 52.7585 295.891 52.4967 296.002C52.235 296.114 52.0199 296.304 51.8879 296.542L46.3246 314.657Z" fill="#C8C8C8"/>
<path d="M69.4619 251.87L63.498 250.41L45.9449 309.313L51.9087 310.773L69.4619 251.87Z" fill="#2C2C2C"/>
<path d="M39.8291 282.708C39.3679 283.332 38.6674 283.772 37.8775 283.932C37.0877 284.092 36.2712 283.96 35.6029 283.565C34.9345 283.17 34.4674 282.543 34.3015 281.818C34.1356 281.092 34.2841 280.327 34.7152 279.685L44.7141 265.501C44.9382 265.183 45.2262 264.907 45.5617 264.689C45.8972 264.471 46.2736 264.315 46.6695 264.231C47.0653 264.146 47.4729 264.134 47.8688 264.196C48.2647 264.257 48.6414 264.391 48.9771 264.59C49.3129 264.788 49.6012 265.047 49.8257 265.352C50.0501 265.657 50.2063 266.002 50.2853 266.367C50.3642 266.732 50.3645 267.111 50.2859 267.48C50.2074 267.85 50.0517 268.204 49.8276 268.522L39.8291 282.708Z" fill="#2C2C2C"/>
<path d="M75.282 227.138C72.4373 225.461 69.0934 224.618 65.673 224.717C62.2526 224.815 58.9094 225.851 56.0661 227.693C53.2229 229.534 51.0073 232.099 49.6996 235.062C48.3919 238.026 48.0507 241.255 48.7194 244.342C49.388 247.429 51.0363 250.234 53.4559 252.404C55.8754 254.573 58.9576 256.009 62.3125 256.53C65.6675 257.051 69.1446 256.633 72.304 255.33C75.4635 254.027 78.1635 251.896 80.0625 249.208C82.6089 245.604 83.5357 241.254 82.6392 237.115C81.7427 232.976 79.0962 229.387 75.282 227.138ZM61.7144 246.34C60.5392 245.647 59.6231 244.641 59.0819 243.447C58.5407 242.254 58.3988 240.928 58.6741 239.637C58.9494 238.346 59.6295 237.148 60.6284 236.194C61.6274 235.24 62.9003 234.574 64.2861 234.279C65.6719 233.984 67.1085 234.074 68.414 234.537C69.7195 235 70.8354 235.816 71.6205 236.882C72.4057 237.947 72.8247 239.214 72.8247 240.522C72.8247 241.831 72.4057 243.122 71.6206 244.232C70.5681 245.72 68.9333 246.778 67.0756 247.174C65.2178 247.569 63.2892 247.27 61.7135 246.341" fill="#C8C8C8"/>
<path d="M89.6222 271.049C90.1635 269.914 91.1435 268.998 92.3638 268.488C93.5842 267.977 94.9538 267.91 96.1956 268.3C97.4374 268.689 98.4587 269.507 99.0529 270.587C99.6471 271.667 99.7698 272.928 99.3962 274.117L80.4034 322.346C79.862 323.482 78.8821 324.398 77.6618 324.908C76.4414 325.419 75.0718 325.486 73.83 325.096C72.5882 324.707 71.5669 323.889 70.9727 322.809C70.3785 321.729 70.2558 320.468 70.6294 319.279L89.6222 271.049Z" fill="#C8C8C8"/>
<path d="M95.8017 268.385C96.5831 268.623 97.2883 269.028 97.8612 269.568C98.4342 270.108 98.8591 270.769 99.1022 271.497L101.91 258.266L97.4169 257.222L90.2636 269.57C90.9849 268.909 91.8882 268.447 92.8678 268.238C93.8474 268.028 94.8625 268.08 95.7941 268.388" fill="#5F5F5F"/>
<path d="M103.15 244.139C104.612 245.27 105.692 246.766 106.269 248.459C106.846 250.152 106.897 251.975 106.417 253.723C104.935 260.137 99.8369 260.325 98.0697 258.502C96.3025 256.679 96.5339 254.242 100.397 251.169C101.501 250.324 102.341 249.222 102.827 247.982C103.312 246.742 103.424 245.412 103.15 244.139Z" fill="#2C2C2C"/>
<path d="M257.761 32.9568L249.408 40.8418L270.846 60.0752L279.199 52.1902L257.761 32.9568Z" fill="#5F5F5F"/>
<path d="M241.131 91.2717L220.107 72.2505L226.637 69.9023L245.741 86.9195L241.131 91.2717Z" fill="#5F5F5F"/>
<path d="M258.098 94.0188L282.211 62.0078C283.78 59.8283 284.359 57.1696 283.823 54.6019C283.287 52.0343 281.679 49.7623 279.343 48.2732C277.008 46.7841 274.132 46.1967 271.331 46.6368C268.53 47.0769 266.029 48.5095 264.363 50.6274L231.965 93.6895L258.098 94.0188Z" fill="#36A4BD"/>
<path d="M258.098 94.0188L282.211 62.0078C283.78 59.8283 284.359 57.1696 283.823 54.6019C283.287 52.0343 281.679 49.7623 279.343 48.2732C277.008 46.7841 274.132 46.1967 271.331 46.6368C268.53 47.0769 266.029 48.5095 264.363 50.6274L231.965 93.6895L258.098 94.0188Z" fill="#C8C8C8"/>
<path d="M210.879 66.1638L210.848 69.8203L236.091 70.0062L236.123 66.3497L210.879 66.1638Z" fill="#2C2C2C"/>
<path d="M278.606 54.3254C278.6 55.1411 278.331 55.9368 277.833 56.6117C277.335 57.2866 276.631 57.8105 275.81 58.1171C274.988 58.4236 274.086 58.4991 273.218 58.334C272.35 58.1689 271.555 57.7706 270.933 57.1895C270.311 56.6083 269.89 55.8705 269.724 55.0692C269.558 54.268 269.653 53.4394 269.999 52.6882C270.345 51.937 270.924 51.297 271.665 50.8491C272.406 50.4012 273.274 50.1656 274.161 50.172C274.749 50.1761 275.331 50.2867 275.872 50.4977C276.414 50.7086 276.905 51.0157 277.318 51.4014C277.731 51.7871 278.057 52.2438 278.278 52.7455C278.499 53.2472 278.611 53.7841 278.606 54.3254Z" fill="white"/>
<path d="M209.721 89.0742L209.654 96.6836L269.906 97.1288L269.973 89.5194L209.721 89.0742Z" fill="#5F5F5F"/>
<path d="M244.004 71.2292C244.001 71.5311 243.934 71.8297 243.806 72.1077C243.678 72.3858 243.492 72.638 243.258 72.8498C243.024 73.0617 242.747 73.2291 242.443 73.3424C242.139 73.4558 241.814 73.513 241.486 73.5106L205.393 73.2451C205.058 73.2534 204.724 73.1995 204.412 73.0865C204.099 72.9735 203.815 72.8037 203.575 72.5873C203.336 72.371 203.146 72.1124 203.017 71.8271C202.888 71.5418 202.824 71.2356 202.826 70.9267C202.829 70.6178 202.899 70.3125 203.033 70.0292C203.167 69.7458 203.361 69.4901 203.604 69.2773C203.847 69.0646 204.135 68.8991 204.449 68.7907C204.764 68.6824 205.098 68.6334 205.434 68.6467L241.525 68.9137C241.853 68.9158 242.177 68.9775 242.479 69.0951C242.782 69.2127 243.056 69.384 243.286 69.5992C243.516 69.8144 243.698 70.0693 243.821 70.3492C243.944 70.6292 244.006 70.9287 244.004 71.2307" fill="#C8C8C8"/>
<path d="M272.357 2.53019C272.701 2.17608 273.118 1.88782 273.583 1.68186C274.048 1.4759 274.552 1.35628 275.068 1.32983C275.583 1.30338 276.099 1.37062 276.586 1.52772C277.073 1.68481 277.522 1.92867 277.907 2.24538L283.766 7.06632C284.543 7.70562 285.012 8.60278 285.07 9.56043C285.128 10.5181 284.771 11.4578 284.076 12.1728C283.381 12.8878 282.406 13.3196 281.366 13.3732C280.325 13.4267 279.304 13.0977 278.527 12.4584L272.667 7.63742C271.89 6.99758 271.422 6.10033 271.364 5.14273C271.306 4.18514 271.663 3.2455 272.357 2.53019Z" fill="#2C2C2C"/>
<path d="M228.792 53.7996L222.646 60.125L227.44 64.0689L233.585 57.7435L228.792 53.7996Z" fill="#2C2C2C"/>
<path d="M225.278 50.9065C225.625 50.5492 226.045 50.2583 226.514 50.0504C226.984 49.8426 227.493 49.7219 228.013 49.6951C228.533 49.6684 229.054 49.7362 229.545 49.8947C230.037 50.0531 230.489 50.2992 230.877 50.6187L236.788 55.4827C237.55 56.1329 238.005 57.0325 238.054 57.988C238.102 58.9435 237.741 59.8784 237.049 60.5915C236.356 61.3045 235.386 61.7387 234.349 61.8006C233.312 61.8624 232.29 61.547 231.503 60.9222L225.591 56.0597C224.807 55.4141 224.334 54.5088 224.276 53.5426C224.217 52.5764 224.578 51.6283 225.278 50.9065Z" fill="#5F5F5F"/>
<path d="M269.304 0.0310404L222.895 47.7363L240.777 62.4706L287.187 14.7653L269.304 0.0310404Z" fill="#C8C8C8"/>
<path d="M262.374 7.0955L255.816 13.8457L273.713 28.5697L280.27 21.8195L262.374 7.0955Z" fill="#2C2C2C"/>
<path d="M278.189 98.7537C278.186 99.1453 278.099 99.5324 277.933 99.8929C277.767 100.253 277.526 100.58 277.222 100.855C276.919 101.13 276.56 101.347 276.166 101.494C275.771 101.641 275.349 101.715 274.924 101.712L203.211 101.182C202.786 101.179 202.365 101.098 201.974 100.946C201.582 100.793 201.227 100.571 200.928 100.291C200.63 100.012 200.394 99.6818 200.235 99.3188C200.075 98.9558 199.995 98.5675 199.998 98.1759C200.002 97.7844 200.089 97.3973 200.255 97.0368C200.421 96.6763 200.663 96.3494 200.966 96.0748C201.269 95.8002 201.628 95.5833 202.023 95.4364C202.417 95.2896 202.839 95.2156 203.265 95.2189L274.975 95.7484C275.401 95.7515 275.822 95.8317 276.213 95.9844C276.605 96.1371 276.96 96.3594 277.259 96.6384C277.557 96.9175 277.793 97.248 277.953 97.6109C278.112 97.9738 278.193 98.3622 278.189 98.7537Z" fill="#2C2C2C"/>
<path d="M457.65 109.899L463.346 112.421L458.617 94.5625L453.87 95.6276L449.123 96.6926L453.855 114.549L457.65 109.899Z" fill="#2C2C2C"/>
<path d="M493.643 89.3849L475.025 21.2568L474.946 20.9512C474.791 20.3686 474.391 19.8662 473.834 19.5545C473.277 19.2427 472.608 19.147 471.975 19.2884L418.536 31.2784C417.903 31.4207 417.357 31.7884 417.019 32.3008C416.681 32.8133 416.578 33.4284 416.732 34.0108L417.403 36.5325L433.636 97.8208L433.984 99.1335C434.827 102.309 436.414 106.725 446.638 104.432L490.177 94.6642C490.783 94.5282 491.354 94.2834 491.857 93.9436C492.359 93.6039 492.784 93.176 493.106 92.6846C493.428 92.1932 493.641 91.648 493.733 91.0804C493.826 90.5128 493.795 89.934 493.643 89.3774" fill="#5F5F5F"/>
<path d="M425.297 29.7617L418.537 31.2777C417.904 31.42 417.358 31.7879 417.02 32.3006C416.681 32.8133 416.578 33.4287 416.732 34.0116L417.403 36.5333L433.637 97.8215L433.985 99.1343L435.507 105.057C435.679 105.572 436.06 106.006 436.569 106.269C437.079 106.533 437.68 106.606 438.247 106.474L445.152 104.721L425.297 29.7617Z" fill="#2C2C2C"/>
<path d="M467.13 29.9219L434.979 37.0332L439.098 52.8076L471.249 45.6963L467.13 29.9219Z" fill="white"/>
<path d="M488.172 98.5601L497.682 101.221L528.826 32.3278L518.263 29.3418L488.172 98.5601Z" fill="#C8C8C8"/>
<path d="M523.725 30.8887L493.316 100.003L497.676 101.222L528.82 32.329L523.725 30.8887Z" fill="#5F5F5F"/>
<path d="M486.926 113.473L497.674 101.224L488.164 98.5625L486.926 113.473Z" fill="#C8C8C8"/>
<path d="M487.55 106.008L486.926 113.472L491.91 107.792L487.55 106.008Z" fill="#2C2C2C"/>
<path d="M514.264 38.5387L523.935 43.1163L526.514 37.4128L516.559 33.252L514.264 38.5387Z" fill="#2C2C2C"/>
<path d="M98.6837 113.42L87.9404 91.6162L66.6783 100.126L77.4215 121.93C73.106 126.435 70.637 132.254 70.4272 138.415C70.2174 144.575 72.2796 150.704 76.2689 155.776C80.2582 160.848 85.9329 164.556 92.3442 166.28C98.7555 168.004 105.515 167.639 111.492 165.247C117.469 162.854 122.302 158.58 125.182 153.137C128.062 147.694 128.815 141.414 127.316 135.345C125.816 129.277 122.154 123.788 116.943 119.797C111.731 115.807 105.285 113.555 98.6837 113.42Z" fill="#C8C8C8"/>
<path d="M91.6459 136.82C87.4385 139.621 82.6516 141.603 77.5547 142.653C78.1482 146.037 79.6371 149.263 81.8843 152.032C84.1315 154.802 87.0649 157.026 90.4144 158.502C93.7638 159.977 97.4219 160.655 101.052 160.474C104.682 160.292 108.167 159.258 111.186 157.465C114.206 155.672 116.663 153.178 118.331 150.213C120 147.248 120.826 143.907 120.733 140.498C120.641 137.089 119.633 133.72 117.803 130.703C115.973 127.686 113.379 125.117 110.26 123.232C104.324 127.769 97.9559 132.591 91.6472 136.823" fill="#5F5F5F"/>
<path d="M93.7722 89.5515C93.9541 89.9238 94.0579 90.3232 94.0777 90.7269C94.0975 91.1306 94.0328 91.5308 93.8875 91.9046C93.7422 92.2784 93.519 92.6184 93.2308 92.9053C92.9425 93.1922 92.5947 93.4204 92.2073 93.5768L65.9345 104.173C65.1523 104.49 64.256 104.495 63.4425 104.188C62.6291 103.88 61.9653 103.285 61.5972 102.533C61.229 101.782 61.1866 100.935 61.4793 100.18C61.7721 99.4242 62.376 98.822 63.1581 98.5054L89.431 87.9087C90.2137 87.5937 91.1099 87.5899 91.9227 87.8984C92.7356 88.2069 93.3987 88.8023 93.7664 89.5539" fill="#C8C8C8"/>
<path d="M95.2303 135.734C95.8548 137.001 96.071 138.396 95.8514 139.745C95.6318 141.094 94.9863 142.334 93.9966 143.311C93.0069 144.287 91.7174 144.955 90.2912 145.229C88.8649 145.504 87.3661 145.373 85.9842 144.854C84.6023 144.334 83.3995 143.45 82.5278 142.311C81.6561 141.173 81.1547 139.832 81.087 138.458C81.0194 137.084 81.3885 135.74 82.1477 134.594C82.907 133.448 84.0221 132.553 85.3523 132.021C87.1352 131.309 89.1774 131.299 91.0298 131.996C92.8822 132.692 94.393 134.037 95.2303 135.734Z" fill="white"/>
<path d="M111.738 143.837C112.124 144.621 112.258 145.485 112.122 146.319C111.986 147.154 111.586 147.922 110.974 148.526C110.361 149.13 109.563 149.543 108.68 149.713C107.798 149.883 106.87 149.802 106.015 149.481C105.16 149.159 104.415 148.612 103.876 147.907C103.336 147.203 103.026 146.373 102.984 145.523C102.942 144.673 103.17 143.84 103.64 143.131C104.11 142.422 104.8 141.868 105.623 141.539C106.169 141.32 106.761 141.206 107.364 141.203C107.967 141.2 108.57 141.308 109.138 141.522C109.706 141.735 110.228 142.05 110.674 142.447C111.12 142.844 111.481 143.316 111.738 143.837Z" fill="white"/>
<path d="M72.8617 81.9558C73.5204 83.2879 73.7496 84.7565 73.5202 86.1759C73.2908 87.5954 72.6131 88.9019 71.5729 89.9303C70.5327 90.9587 69.1767 91.6627 67.6763 91.9534C66.1759 92.2441 64.5986 92.1083 63.1439 91.5633C61.6891 91.0183 60.4222 90.0885 59.5034 88.8915C58.5846 87.6945 58.0552 86.2841 57.9821 84.8386C57.909 83.3931 58.2955 81.9775 59.0928 80.7708C59.89 79.5641 61.0622 78.6205 62.461 78.0593C63.3896 77.6866 64.3953 77.4917 65.4205 77.4858C66.4458 77.4799 67.4706 77.6631 68.4364 78.0249C69.4022 78.3867 70.2902 78.9201 71.0495 79.5946C71.8087 80.2691 72.4246 81.0714 72.8617 81.9558Z" fill="#2C2C2C"/>
<path d="M65.0594 82.5078C65.2534 82.9002 65.3208 83.3328 65.2531 83.7509C65.1855 84.169 64.9858 84.5538 64.6794 84.8567C64.3729 85.1596 63.9734 85.3669 63.5315 85.4525C63.0895 85.538 62.6249 85.498 62.1964 85.3374C61.7679 85.1768 61.3947 84.9029 61.1241 84.5503C60.8535 84.1977 60.6976 83.7822 60.6761 83.3564C60.6546 82.9307 60.7684 82.5137 61.0033 82.1582C61.2381 81.8028 61.5834 81.5248 61.9955 81.3595C62.548 81.1379 63.1812 81.1343 63.7558 81.3497C64.3304 81.565 64.7993 81.9816 65.0594 82.5078Z" fill="white"/>
<path d="M73.4631 68.938C73.8101 69.6393 73.9309 70.4126 73.8102 71.1601C73.6895 71.9076 73.3327 72.5956 72.785 73.1371C72.2372 73.6787 71.5232 74.0494 70.7331 74.2024C69.943 74.3555 69.1125 74.284 68.3465 73.9969C67.5804 73.7098 66.9134 73.2201 66.4297 72.5897C65.946 71.9594 65.6674 71.2166 65.6291 70.4554C65.5908 69.6943 65.7946 68.9489 66.2146 68.3137C66.6346 67.6784 67.252 67.1817 67.9888 66.8865C68.976 66.4904 70.1073 66.4841 71.134 66.8688C72.1606 67.2535 72.9984 67.9978 73.4631 68.938Z" fill="#2C2C2C"/>
<path d="M69.3525 69.2231C69.4547 69.4297 69.4901 69.6574 69.4545 69.8775C69.4189 70.0977 69.3138 70.3003 69.1524 70.4597C68.9911 70.6192 68.7808 70.7284 68.5481 70.7734C68.3154 70.8185 68.0708 70.7974 67.8452 70.7128C67.6196 70.6283 67.4231 70.4841 67.2807 70.2984C67.1382 70.1128 67.0561 69.8941 67.0448 69.6699C67.0335 69.4457 67.0934 69.2262 67.2171 69.0391C67.3407 68.8519 67.5225 68.7056 67.7394 68.6186C68.0303 68.5019 68.3637 68.5 68.6662 68.6134C68.9687 68.7267 69.2156 68.9461 69.3525 69.2231Z" fill="white"/>
</g>
<defs>
<clipPath id="clip0_300_98">
<rect width="528.82" height="330" fill="white"/>
</clipPath>
</defs>
</svg>
