<svg width="53" height="54" viewBox="0 0 53 54" fill="none" xmlns="http://www.w3.org/2000/svg">
<g clip-path="url(#clip0_680_1739)">
<path d="M13.725 20.6706H44.0459V15.7419C44.0459 13.0208 42.0836 10.8131 39.6648 10.8131H25.0611L19.2197 4.24146H4.61597C2.19632 4.24146 0.234863 6.4481 0.234863 9.1702V42.891L8.49872 24.2953C9.48995 22.0671 11.498 20.6706 13.725 20.6706ZM49.8053 23.9564H13.725C12.6206 23.9564 11.6075 24.6547 11.1146 25.7739L0.234863 50.2431H41.043C42.1493 50.2431 43.1606 49.5395 43.6553 48.4266L52.4175 28.7116C53.4653 26.5235 52.0506 23.9564 49.8053 23.9564Z" fill="#55C360" fill-opacity="0.89"/>
</g>
<defs>
<clipPath id="clip0_680_1739">
<rect width="52.5733" height="52.5733" fill="white" transform="translate(0.234863 0.955811)"/>
</clipPath>
</defs>
</svg>
