<svg width="54" height="54" viewBox="0 0 54 54" fill="none" xmlns="http://www.w3.org/2000/svg">
<path d="M21.1161 48.3724C22.9863 48.8842 24.9163 49.1449 26.8553 49.1479L27.1642 49.1457C28.2712 49.1319 29.3567 48.8385 30.3199 48.2928C31.2831 47.747 32.0927 46.9667 32.6734 46.0242C33.8607 44.1052 33.9878 41.746 33.0086 39.7154L32.5749 38.8063C31.5825 36.7428 32.3624 34.8721 33.4248 33.8096C34.4872 32.7472 36.3623 31.9674 38.4192 32.9597H38.4214L39.3261 33.3956C40.3209 33.8767 41.4213 34.0982 42.5247 34.0396C43.6282 33.981 44.6989 33.6442 45.6371 33.0605C46.5802 32.4801 47.3611 31.6707 47.9072 30.7074C48.4534 29.7442 48.747 28.6584 48.7608 27.5512C48.7882 25.5096 48.5279 23.4743 47.9876 21.5053C45.7138 13.1221 38.4521 6.71031 29.9243 5.54712C23.0262 4.61176 16.253 6.86584 11.3681 11.753C6.48317 16.6401 4.21814 23.4023 5.16008 30.3091C6.32107 38.8391 12.735 46.0986 21.1161 48.3724ZM34.5223 14.099C35.3937 14.099 36.2295 14.4452 36.8457 15.0614C37.4619 15.6777 37.8081 16.5134 37.8081 17.3849C37.8081 18.2563 37.4619 19.0921 36.8457 19.7083C36.2295 20.3245 35.3937 20.6707 34.5223 20.6707C33.6508 20.6707 32.815 20.3245 32.1988 19.7083C31.5826 19.0921 31.2364 18.2563 31.2364 17.3849C31.2364 16.5134 31.5826 15.6777 32.1988 15.0614C32.815 14.4452 33.6508 14.099 34.5223 14.099ZM23.5695 11.9085C24.4409 11.9085 25.2767 12.2547 25.8929 12.8709C26.5091 13.4871 26.8553 14.3229 26.8553 15.1943C26.8553 16.0658 26.5091 16.9015 25.8929 17.5178C25.2767 18.134 24.4409 18.4801 23.5695 18.4801C22.698 18.4801 21.8623 18.134 21.2461 17.5178C20.6298 16.9015 20.2837 16.0658 20.2837 15.1943C20.2837 14.3229 20.6298 13.4871 21.2461 12.8709C21.8623 12.2547 22.698 11.9085 23.5695 11.9085ZM20.2837 34.9224C20.2837 35.7939 19.9375 36.6297 19.3213 37.2459C18.705 37.8621 17.8693 38.2083 16.9978 38.2083C16.1264 38.2083 15.2906 37.8621 14.6744 37.2459C14.0582 36.6297 13.712 35.7939 13.712 34.9224C13.712 34.051 14.0582 33.2152 14.6744 32.599C15.2906 31.9828 16.1264 31.6366 16.9978 31.6366C17.8693 31.6366 18.705 31.9828 19.3213 32.599C19.9375 33.2152 20.2837 34.051 20.2837 34.9224ZM14.8073 20.6838C15.679 20.6841 16.5149 21.0307 17.1312 21.6473C17.7474 22.264 18.0934 23.1001 18.0931 23.9719C18.0928 24.8436 17.7462 25.6795 17.1296 26.2958C16.513 26.912 15.6768 27.258 14.8051 27.2577C13.9333 27.2574 13.0974 26.9108 12.4812 26.2942C11.865 25.6776 11.519 24.8414 11.5193 23.9697C11.5195 23.0979 11.8661 22.262 12.4827 21.6458C13.0994 21.0296 13.9355 20.6836 14.8073 20.6838Z" fill="#55C360" fill-opacity="0.89"/>
</svg>
