<svg width="53" height="54" viewBox="0 0 53 54" fill="none" xmlns="http://www.w3.org/2000/svg">
<mask id="mask0_680_1725" style="mask-type:alpha" maskUnits="userSpaceOnUse" x="2" y="7" width="49" height="42">
<path d="M25.4265 44.7671H7.90204C7.03058 44.7671 6.19482 44.4209 5.57861 43.8047C4.9624 43.1885 4.61621 42.3527 4.61621 41.4813V13.0041C4.61621 12.1326 4.9624 11.2969 5.57861 10.6807C6.19482 10.0644 7.03058 9.71826 7.90204 9.71826H45.1414C46.0129 9.71826 46.8487 10.0644 47.4649 10.6807C48.0811 11.2969 48.4273 12.1326 48.4273 13.0041V29.304" stroke="white" stroke-width="4.38111" stroke-linecap="round" stroke-linejoin="round"/>
<path d="M4.61621 13.0041C4.61621 12.1326 4.9624 11.2969 5.57861 10.6807C6.19482 10.0644 7.03058 9.71826 7.90204 9.71826H45.1414C46.0129 9.71826 46.8487 10.0644 47.4649 10.6807C48.0811 11.2969 48.4273 12.1326 48.4273 13.0041V22.8616H4.61621V13.0041Z" fill="white" stroke="white" stroke-width="4.38111"/>
<path d="M44.046 37.1001L48.4271 41.4812L44.046 45.8623M37.4744 37.1001L33.0933 41.4812L37.4744 45.8623V37.1001Z" stroke="white" stroke-width="4.38111" stroke-linecap="round" stroke-linejoin="round"/>
<path d="M8.99731 16.2899C8.99731 15.0801 9.97806 14.0994 11.1879 14.0994C12.3977 14.0994 13.3784 15.0801 13.3784 16.2899C13.3784 17.4997 12.3977 18.4805 11.1879 18.4805C9.97806 18.4805 8.99731 17.4997 8.99731 16.2899Z" fill="black"/>
<path d="M15.5691 16.2899C15.5691 15.0801 16.5498 14.0994 17.7596 14.0994C18.9695 14.0994 19.9502 15.0801 19.9502 16.2899C19.9502 17.4997 18.9695 18.4805 17.7596 18.4805C16.5498 18.4805 15.5691 17.4997 15.5691 16.2899Z" fill="black"/>
</mask>
<g mask="url(#mask0_680_1725)">
<path d="M0.235352 0.955811H52.8086V53.5291H0.235352V0.955811Z" fill="#55C360" fill-opacity="0.89"/>
</g>
</svg>
