<svg width="53" height="54" viewBox="0 0 53 54" fill="none" xmlns="http://www.w3.org/2000/svg">
<path d="M45.5002 8.57462L17.759 18.4803V33.8142L19.3976 34.3991L16.9288 39.3366C16.6476 39.8979 16.4904 40.5131 16.4679 41.1405C16.4454 41.7679 16.558 42.3928 16.7982 42.9729C17.0383 43.553 17.4004 44.0746 17.8599 44.5024C18.3193 44.9303 18.8654 45.2543 19.4611 45.4526L28.4073 48.4339C29.4081 48.7602 30.4925 48.7181 31.4649 48.3152C32.4374 47.9123 33.2338 47.1752 33.7106 46.2368L36.5649 40.5282L45.5002 43.7199C45.8306 43.8377 46.1845 43.8745 46.5321 43.8271C46.8797 43.7798 47.2108 43.6496 47.4976 43.4476C47.7845 43.2456 48.0185 42.9776 48.1802 42.6663C48.3419 42.355 48.4265 42.0094 48.4268 41.6585V10.6359C48.4265 10.2851 48.3419 9.93951 48.1802 9.62819C48.0185 9.31686 47.7845 9.04892 47.4976 8.84691C47.2108 8.6449 46.8797 8.51472 46.5321 8.46734C46.1845 8.41996 45.8306 8.45675 45.5002 8.57462ZM29.7917 44.2785L20.8477 41.2971L23.5531 35.8842L32.4073 39.0474L29.7917 44.2785ZM8.99683 33.8142H13.3779V18.4803H8.99683C6.58065 18.4803 4.61572 20.4452 4.61572 22.8614V29.4331C4.61572 31.8493 6.58065 33.8142 8.99683 33.8142Z" fill="#55C360" fill-opacity="0.89"/>
</svg>
