<svg width="102" height="31" viewBox="0 0 102 31" fill="none" xmlns="http://www.w3.org/2000/svg">
<g clip-path="url(#clip0_206_4738)">
<g clip-path="url(#clip1_206_4738)">
<g clip-path="url(#clip2_206_4738)">
<path d="M97.6187 30.9023H4.10036C3.60777 30.9071 3.11917 30.8136 2.66314 30.6273C2.20711 30.441 1.79281 30.1657 1.44448 29.8174C1.09616 29.469 0.820791 29.0547 0.634502 28.5987C0.448213 28.1427 0.35474 27.6541 0.359552 27.1615V4.71755C0.35474 4.22496 0.448213 3.73636 0.634502 3.28033C0.820791 2.8243 1.09616 2.41 1.44448 2.06167C1.79281 1.71334 2.20711 1.43798 2.66314 1.25169C3.11917 1.0654 3.60777 0.971927 4.10036 0.976739H97.6187C98.1113 0.971927 98.5999 1.0654 99.056 1.25169C99.512 1.43798 99.9263 1.71334 100.275 2.06167C100.623 2.41 100.898 2.8243 101.085 3.28033C101.271 3.73636 101.364 4.22496 101.36 4.71755V27.1615C101.364 27.6541 101.271 28.1427 101.085 28.5987C100.898 29.0547 100.623 29.469 100.275 29.8174C99.9263 30.1657 99.512 30.441 99.056 30.6273C98.5999 30.8136 98.1113 30.9071 97.6187 30.9023Z" fill="black"/>
<path d="M97.6187 1.57494C98.4497 1.58051 99.2451 1.91308 99.8327 2.50068C100.42 3.08828 100.753 3.88363 100.758 4.7146V27.1613C100.753 27.9923 100.42 28.7876 99.8327 29.3752C99.2451 29.9628 98.4497 30.2954 97.6187 30.301H4.10036C3.26939 30.2954 2.47404 29.9628 1.88644 29.3752C1.29884 28.7876 0.966269 27.9923 0.960704 27.1613V4.71737C0.966269 3.8864 1.29884 3.09105 1.88644 2.50345C2.47404 1.91585 3.26939 1.58328 4.10036 1.57771L97.6187 1.57494ZM97.6187 0.976562H4.10036C3.10914 0.979486 2.15934 1.37454 1.45844 2.07545C0.757534 2.77635 0.362475 3.72615 0.359552 4.71737V27.1613C0.35474 27.6539 0.448213 28.1425 0.634502 28.5985C0.820791 29.0546 1.09616 29.4689 1.44448 29.8172C1.79281 30.1655 2.20711 30.4409 2.66314 30.6272C3.11917 30.8134 3.60777 30.9069 4.10036 30.9021H97.6187C98.1113 30.9069 98.5999 30.8134 99.056 30.6272C99.512 30.4409 99.9263 30.1655 100.275 29.8172C100.623 29.4689 100.898 29.0546 101.085 28.5985C101.271 28.1425 101.364 27.6539 101.36 27.1613V4.71737C101.357 3.72615 100.962 2.77635 100.261 2.07545C99.5598 1.37454 98.61 0.979486 97.6187 0.976562Z" fill="#A6A6A6"/>
<path d="M35.7573 8.61888C35.7745 8.89277 35.7366 9.16733 35.6458 9.42633C35.5551 9.68533 35.4134 9.92352 35.2291 10.1268C34.9018 10.4562 34.484 10.6806 34.0287 10.7716C33.5734 10.8625 33.1014 10.8159 32.6727 10.6376C32.244 10.4593 31.8781 10.1575 31.6216 9.77049C31.3652 9.38351 31.2297 8.92892 31.2325 8.46466C31.2303 8.15717 31.2893 7.85231 31.406 7.56784C31.5228 7.28337 31.695 7.02498 31.9126 6.80772C32.1302 6.59046 32.3889 6.41867 32.6735 6.30235C32.9582 6.18604 33.2631 6.12753 33.5706 6.13024C33.8858 6.13355 34.1959 6.21105 34.4756 6.35648C34.7447 6.46911 34.979 6.65143 35.1543 6.88468L34.7775 7.26144C34.6348 7.08154 34.4501 6.93935 34.2397 6.84727C34.0293 6.7552 33.7996 6.71604 33.5706 6.73323C33.3425 6.72366 33.1152 6.76627 32.9061 6.8578C32.6969 6.94933 32.5114 7.08738 32.3637 7.26144C32.1824 7.41958 32.0403 7.61767 31.9487 7.8401C31.857 8.06252 31.8182 8.3032 31.8355 8.54315C31.8182 8.78311 31.857 9.02379 31.9487 9.24621C32.0403 9.46864 32.1824 9.66673 32.3637 9.82487C32.692 10.1364 33.119 10.3232 33.5706 10.3531C33.8098 10.3629 34.0483 10.3207 34.2696 10.2293C34.4909 10.138 34.6897 9.99966 34.8523 9.82395C34.9729 9.70633 35.0685 9.56552 35.1332 9.40999C35.198 9.25447 35.2306 9.08745 35.2291 8.91899H33.5669V8.31691H35.7573V8.61888ZM39.2266 6.73323H37.1951V8.16178H39.0807V8.68998H37.1904V10.1231H39.222V10.7261H36.5884V6.20134H39.2275L39.2266 6.73323ZM41.7152 10.7298H41.1132V6.73323H39.8296V6.20596H42.997V6.73416H41.7152V10.7298ZM45.1846 10.7298V6.20503H45.7876V10.7298H45.1846ZM48.3519 10.7298H47.7489V6.73323H46.4691V6.20596H49.5607V6.73416H48.2762V10.7308L48.3519 10.7298ZM55.5159 10.1268C55.1886 10.4562 54.7708 10.6806 54.3155 10.7716C53.8602 10.8625 53.3882 10.8159 52.9595 10.6376C52.5308 10.4593 52.1649 10.1575 51.9084 9.77049C51.652 9.38351 51.5165 8.92892 51.5193 8.46466C51.5131 8.15377 51.569 7.84476 51.6837 7.55573C51.7984 7.26671 51.9696 7.00346 52.1873 6.78141C52.405 6.55935 52.6648 6.38295 52.9515 6.26253C53.2382 6.14211 53.546 6.08008 53.8569 6.08008C54.1679 6.08008 54.4757 6.14211 54.7624 6.26253C55.0491 6.38295 55.3089 6.55935 55.5266 6.78141C55.7443 7.00346 55.9155 7.26671 56.0302 7.55573C56.1449 7.84476 56.2008 8.15377 56.1946 8.46466C56.204 8.77354 56.1488 9.08097 56.0324 9.36722C55.916 9.65347 55.741 9.91221 55.5186 10.1268H55.5159ZM52.6533 9.75008C52.9732 10.0741 53.4051 10.2631 53.8602 10.2783C54.0883 10.2878 54.3155 10.2452 54.5247 10.1537C54.7338 10.0622 54.9194 9.92413 55.0671 9.75008C55.4054 9.4093 55.5953 8.94857 55.5953 8.46836C55.6125 8.2284 55.5738 7.98772 55.4821 7.7653C55.3905 7.54287 55.2484 7.34478 55.0671 7.18664C54.7463 6.86178 54.3128 6.67267 53.8565 6.65844C53.6284 6.64887 53.4011 6.69147 53.1919 6.783C52.9828 6.87453 52.7973 7.01258 52.6496 7.18664C52.3112 7.52742 52.1214 7.98815 52.1214 8.46836C52.1041 8.70831 52.1429 8.94899 52.2345 9.17141C52.3262 9.39384 52.4683 9.59193 52.6496 9.75008H52.6533ZM57.0275 10.7308V6.20596H57.7063L59.8929 9.75008V6.20596H60.4959V10.7308H59.8929L57.5548 7.03704V10.7308H57.0275Z" fill="white" stroke="white" stroke-width="0.184686" stroke-miterlimit="10"/>
<path d="M50.9085 17.1771C50.48 17.1675 50.054 17.2448 49.6562 17.4044C49.2583 17.564 48.897 17.8025 48.5939 18.1056C48.2908 18.4087 48.0523 18.77 47.8927 19.1678C47.7331 19.5656 47.6558 19.9916 47.6654 20.4201C47.6622 20.8469 47.7439 21.2701 47.9058 21.665C48.0676 22.0599 48.3064 22.4187 48.6082 22.7205C48.9099 23.0223 49.2687 23.261 49.6636 23.4229C50.0585 23.5847 50.4817 23.6664 50.9085 23.6632C51.337 23.6728 51.763 23.5955 52.1608 23.4359C52.5586 23.2763 52.92 23.0378 53.223 22.7347C53.5261 22.4316 53.7646 22.0703 53.9242 21.6725C54.0838 21.2747 54.1611 20.8487 54.1516 20.4201C54.1676 19.9899 54.0947 19.5611 53.9374 19.1603C53.7801 18.7596 53.5418 18.3956 53.2374 18.0912C52.933 17.7868 52.569 17.5485 52.1683 17.3912C51.7676 17.2339 51.3387 17.161 50.9085 17.1771ZM50.9085 22.3049C50.4149 22.2662 49.9541 22.0429 49.6179 21.6794C49.2818 21.3159 49.0951 20.839 49.0951 20.344C49.0951 19.8489 49.2818 19.372 49.6179 19.0085C49.9541 18.6451 50.4149 18.4217 50.9085 18.3831C51.1586 18.3847 51.4058 18.4376 51.6346 18.5387C51.8635 18.6398 52.0691 18.7867 52.2388 18.9706C52.4085 19.1544 52.5387 19.3711 52.6211 19.6072C52.7036 19.8434 52.7367 20.094 52.7184 20.3435C52.7305 20.5917 52.6931 20.8398 52.6084 21.0734C52.5236 21.307 52.3932 21.5213 52.2247 21.704C52.0563 21.8867 51.8531 22.0339 51.6271 22.1373C51.4011 22.2406 51.1568 22.2979 50.9085 22.3058V22.3049ZM43.895 17.1771C43.4665 17.1675 43.0405 17.2448 42.6427 17.4044C42.2449 17.564 41.8836 17.8025 41.5805 18.1056C41.2774 18.4087 41.0389 18.77 40.8793 19.1678C40.7197 19.5656 40.6424 19.9916 40.652 20.4201C40.6488 20.8469 40.7305 21.2701 40.8923 21.665C41.0542 22.0599 41.2929 22.4187 41.5947 22.7205C41.8965 23.0223 42.2553 23.261 42.6502 23.4229C43.0451 23.5847 43.4683 23.6664 43.895 23.6632C44.3235 23.6728 44.7496 23.5955 45.1474 23.4359C45.5452 23.2763 45.9065 23.0378 46.2096 22.7347C46.5127 22.4316 46.7512 22.0703 46.9108 21.6725C47.0704 21.2747 47.1477 20.8487 47.1381 20.4201C47.1542 19.9899 47.0813 19.5611 46.924 19.1603C46.7667 18.7596 46.5284 18.3956 46.224 18.0912C45.9195 17.7868 45.5556 17.5485 45.1549 17.3912C44.7541 17.2339 44.3252 17.161 43.895 17.1771ZM43.895 22.3049C43.4015 22.2662 42.9406 22.0429 42.6045 21.6794C42.2684 21.3159 42.0817 20.839 42.0817 20.344C42.0817 19.8489 42.2684 19.372 42.6045 19.0085C42.9406 18.6451 43.4015 18.4217 43.895 18.3831C44.1452 18.3847 44.3924 18.4376 44.6212 18.5387C44.85 18.6398 45.0557 18.7867 45.2254 18.9706C45.3951 19.1544 45.5252 19.3711 45.6077 19.6072C45.6902 19.8434 45.7233 20.094 45.705 20.3435C45.7171 20.5917 45.6797 20.8398 45.5949 21.0734C45.5102 21.307 45.3798 21.5213 45.2113 21.704C45.0428 21.8867 44.8397 22.0339 44.6137 22.1373C44.3877 22.2406 44.1434 22.2979 43.895 22.3058V22.3049ZM35.5242 18.1577V19.5152H38.7654C38.7185 20.1622 38.4524 20.774 38.0109 21.2494C37.6864 21.5754 37.2979 21.8308 36.87 21.9995C36.4421 22.1683 35.9839 22.2468 35.5242 22.2301C35.0509 22.235 34.5816 22.1442 34.1444 21.9631C33.7071 21.782 33.3111 21.5143 32.98 21.1761C32.6489 20.838 32.3896 20.4363 32.2178 19.9954C32.0459 19.5544 31.9651 19.0832 31.98 18.6102C31.9717 18.1389 32.0571 17.6707 32.2314 17.2327C32.4056 16.7947 32.6651 16.3957 32.9949 16.0589C33.3246 15.7221 33.7181 15.4542 34.1523 15.2708C34.5865 15.0873 35.0528 14.992 35.5242 14.9904C36.4463 14.9992 37.3326 15.3485 38.0128 15.9711L38.9935 14.9904C38.0836 14.111 36.8652 13.6237 35.5999 13.6329C34.2754 13.6415 33.0065 14.1663 32.0629 15.0958C31.1194 16.0252 30.5755 17.286 30.5469 18.6102C30.5755 19.9344 31.1194 21.1952 32.0629 22.1247C33.0065 23.0541 34.2754 23.5789 35.5999 23.5875C36.2485 23.6235 36.897 23.5134 37.4975 23.2654C38.0979 23.0173 38.6351 22.6377 39.0692 22.1543C39.8654 21.294 40.2978 20.159 40.2761 18.987C40.2921 18.7077 40.2666 18.4277 40.2004 18.1559L35.5242 18.1577ZM69.7612 19.2132C69.5751 18.6349 69.2139 18.1288 68.7275 17.7648C68.2411 17.4009 67.6536 17.1971 67.0463 17.1817C66.6317 17.1837 66.222 17.2705 65.8422 17.4369C65.4625 17.6032 65.1208 17.8455 64.8383 18.1489C64.5557 18.4523 64.3383 18.8103 64.1993 19.201C64.0604 19.5916 64.0029 20.0065 64.0304 20.4201C64.0188 20.8428 64.0922 21.2635 64.2463 21.6573C64.4004 22.051 64.632 22.4098 64.9274 22.7123C65.2229 23.0148 65.5761 23.2548 65.9661 23.4182C66.3561 23.5815 66.7749 23.6649 67.1978 23.6632C67.7232 23.6681 68.2412 23.5391 68.7029 23.2884C69.1647 23.0376 69.5549 22.6734 69.8369 22.2301L68.7768 21.4756C68.6144 21.7512 68.3829 21.9796 68.1051 22.1383C67.8274 22.2971 67.513 22.3805 67.1931 22.3806C66.8608 22.3976 66.5311 22.3128 66.2481 22.1376C65.9652 21.9624 65.7424 21.705 65.6095 21.3999L69.908 19.59L69.7612 19.2132ZM65.3878 20.2696C65.3722 19.8026 65.5356 19.3473 65.8445 18.9968C66.1535 18.6463 66.5847 18.4271 67.05 18.384C67.294 18.3759 67.5356 18.4349 67.7484 18.5545C67.9612 18.6742 68.1371 18.85 68.2569 19.0627L65.3878 20.2696ZM61.8437 23.3613H63.2769V13.9349H61.8428L61.8437 23.3613ZM59.5813 17.8558C59.1254 17.3854 58.5021 17.1142 57.8471 17.1013C57.0133 17.1396 56.2264 17.4982 55.6504 18.1024C55.0745 18.7066 54.7539 19.5097 54.7555 20.3444C54.7496 20.7556 54.825 21.1639 54.9774 21.5459C55.1298 21.9279 55.3561 22.276 55.6433 22.5703C55.9306 22.8646 56.2731 23.0993 56.6513 23.2609C57.0295 23.4224 57.4359 23.5077 57.8471 23.5118C58.1624 23.5146 58.4745 23.4486 58.7616 23.3183C59.0487 23.188 59.3039 22.9965 59.5093 22.7573H59.585V23.2098C59.6258 23.6254 59.5136 24.0416 59.2694 24.3803C59.0252 24.719 58.6658 24.957 58.2586 25.0496C57.8515 25.1422 57.4245 25.083 57.0578 24.8832C56.6912 24.6834 56.41 24.3566 56.2671 23.9643L55.0602 24.4925C55.3002 25.0526 55.6995 25.5299 56.2084 25.8651C56.7173 26.2003 57.3135 26.3787 57.9228 26.3781C59.585 26.3781 60.9397 25.3974 60.9397 23.0602V17.3267H59.5822L59.5813 17.8558ZM57.9191 22.3049C57.4256 22.2662 56.9647 22.0429 56.6286 21.6794C56.2925 21.3159 56.1058 20.839 56.1058 20.344C56.1058 19.8489 56.2925 19.372 56.6286 19.0085C56.9647 18.6451 57.4256 18.4217 57.9191 18.3831C58.1634 18.3931 58.4031 18.4523 58.6239 18.5573C58.8446 18.6622 59.0419 18.8107 59.2039 18.9938C59.3659 19.1769 59.4892 19.3908 59.5664 19.6228C59.6436 19.8547 59.6732 20.0999 59.6533 20.3435C59.6735 20.5871 59.6442 20.8322 59.5672 21.0642C59.4903 21.2961 59.3673 21.5102 59.2056 21.6934C59.0439 21.8767 58.8468 22.0254 58.6262 22.1306C58.4057 22.2358 58.1661 22.2954 57.9219 22.3058L57.9191 22.3049ZM76.3194 13.934H72.9322V23.3613H74.3654V19.8199H76.3259C76.7245 19.8399 77.123 19.7786 77.4972 19.6399C77.8715 19.5011 78.2136 19.2877 78.5028 19.0126C78.792 18.7375 79.0223 18.4065 79.1796 18.0397C79.337 17.6729 79.4181 17.2779 79.4181 16.8788C79.4181 16.4797 79.337 16.0847 79.1796 15.7179C79.0223 15.3511 78.792 15.0201 78.5028 14.745C78.2136 14.4699 77.8715 14.2565 77.4972 14.1177C77.123 13.9789 76.7245 13.9177 76.3259 13.9377L76.3194 13.934ZM76.3951 18.4588H74.3636V15.2166H76.3951C76.8231 15.2148 77.2352 15.3786 77.545 15.6738C77.8549 15.9691 78.0384 16.3727 78.0573 16.8003C78.0415 17.2361 77.8613 17.6498 77.5529 17.9581C77.2446 18.2665 76.8309 18.4467 76.3951 18.4625V18.4588ZM85.0679 17.1013C84.5569 17.0605 84.0454 17.1756 83.6011 17.4315C83.1568 17.6874 82.8005 18.072 82.5793 18.5345L83.861 19.0627C83.9863 18.8379 84.174 18.6541 84.4015 18.5337C84.6289 18.4132 84.8864 18.3612 85.1427 18.384C85.5001 18.3573 85.8543 18.4669 86.1341 18.6908C86.4139 18.9148 86.5985 19.2364 86.6507 19.5909V19.6666C86.2122 19.4228 85.7193 19.2932 85.2175 19.2899C83.8601 19.2899 82.5027 20.0443 82.5027 21.4017C82.515 21.6951 82.5857 21.9831 82.7106 22.2488C82.8356 22.5145 83.0122 22.7526 83.2303 22.9493C83.4483 23.1459 83.7034 23.2971 83.9805 23.394C84.2577 23.4909 84.5514 23.5316 84.8445 23.5136C85.1976 23.5252 85.5481 23.4486 85.8641 23.2906C86.1802 23.1325 86.4518 22.8982 86.6544 22.6087H86.7301V23.3631H88.0876V19.7433C88.0328 18.9947 87.6854 18.2978 87.1206 17.8035C86.5558 17.3092 85.819 17.0573 85.0698 17.1023L85.0679 17.1013ZM84.9174 22.3049C84.4649 22.3049 83.7862 22.0786 83.7862 21.4738C83.7862 20.7193 84.6173 20.4931 85.2942 20.4931C85.7389 20.4947 86.1773 20.598 86.5759 20.7951C86.5195 21.2006 86.3229 21.5736 86.0204 21.8495C85.7178 22.1255 85.3283 22.2869 84.9193 22.3058L84.9174 22.3049ZM92.8358 17.3276L91.2521 21.3999H91.1764L89.5143 17.3276H88.0063L90.4949 23.0593L89.0618 26.2267H90.4949L94.341 17.3276H92.8358ZM80.1664 23.3603H81.5996V13.9349H80.1682L80.1664 23.3603Z" fill="white"/>
<path d="M8.20228 6.63281C7.96981 6.9278 7.86149 7.30179 7.90032 7.67536V24.1299C7.88415 24.5134 8.01948 24.8879 8.27707 25.1725L8.3528 25.2473L17.7044 16.013V15.8671L8.20228 6.63281Z" fill="url(#paint0_linear_206_4738)"/>
<path d="M20.5721 19.1819L17.4805 16.0894V15.8631L20.5721 12.7715L20.6478 12.8472L24.3415 14.9591C24.5719 15.0346 24.7726 15.181 24.9149 15.3773C25.0571 15.5737 25.1337 15.81 25.1337 16.0524C25.1337 16.2949 25.0571 16.5312 24.9149 16.7275C24.7726 16.9238 24.5719 17.0702 24.3415 17.1458L20.5721 19.1819Z" fill="url(#paint1_linear_206_4738)"/>
<path d="M20.7949 19.0502L17.6275 15.8828L8.20117 25.3092C8.57793 25.6859 9.10613 25.6859 9.78485 25.3849L20.7949 19.0502Z" fill="url(#paint2_linear_206_4738)"/>
<path d="M20.7949 12.8285L9.78485 6.56949C9.55493 6.39189 9.26927 6.30197 8.97907 6.31585C8.68888 6.32972 8.4131 6.44649 8.20117 6.64521L17.6275 15.9959L20.7949 12.8285Z" fill="url(#paint3_linear_206_4738)"/>
<path opacity="0.2" d="M20.7201 18.9668L9.78485 25.1538C9.56888 25.3205 9.30373 25.411 9.03087 25.411C8.75802 25.411 8.49286 25.3205 8.27689 25.1538L8.20117 25.2295L8.27689 25.3052C8.49286 25.472 8.75802 25.5624 9.03087 25.5624C9.30373 25.5624 9.56888 25.472 9.78485 25.3052L20.7201 18.9668Z" fill="black"/>
<path opacity="0.12" d="M8.20239 25.1626C7.96945 24.8621 7.8613 24.4834 7.90043 24.1052V24.181C7.88411 24.5684 8.01924 24.9469 8.27719 25.2364V25.1607L8.20239 25.1626ZM24.4917 16.8674L20.7213 18.9793L20.797 19.055L24.4907 16.9431C24.7009 16.8526 24.8823 16.7064 25.0153 16.5201C25.1483 16.3339 25.2278 16.1149 25.2452 15.8867C25.2452 16.2635 24.9441 16.5654 24.4917 16.8674Z" fill="black"/>
<path opacity="0.25" d="M9.78603 6.64431L24.4916 15.0152C24.9441 15.3172 25.2461 15.6182 25.2461 15.9959C25.2285 15.7679 25.1489 15.549 25.016 15.363C24.883 15.177 24.7017 15.0308 24.4916 14.9404L9.78603 6.56859C8.73148 5.96559 7.90039 6.41807 7.90039 7.62499V7.69979C7.90039 6.56859 8.73148 6.04131 9.78603 6.64431Z" fill="white"/>
</g>
</g>
</g>
<defs>
<linearGradient id="paint0_linear_206_4738" x1="16.8017" y1="25.8429" x2="1.82966" y2="21.735" gradientUnits="userSpaceOnUse">
<stop stop-color="#00A0FF"/>
<stop offset="0.007" stop-color="#00A1FF"/>
<stop offset="0.26" stop-color="#00BEFF"/>
<stop offset="0.512" stop-color="#00D2FF"/>
<stop offset="0.76" stop-color="#00DFFF"/>
<stop offset="1" stop-color="#00E3FF"/>
</linearGradient>
<linearGradient id="paint1_linear_206_4738" x1="25.723" y1="17.4447" x2="7.47769" y2="17.4447" gradientUnits="userSpaceOnUse">
<stop stop-color="#FFE000"/>
<stop offset="0.409" stop-color="#FFBD00"/>
<stop offset="0.775" stop-color="#FFA500"/>
<stop offset="1" stop-color="#FF9C00"/>
</linearGradient>
<linearGradient id="paint2_linear_206_4738" x1="19.0821" y1="15.6593" x2="7.04074" y2="-4.55676" gradientUnits="userSpaceOnUse">
<stop stop-color="#FF3A44"/>
<stop offset="1" stop-color="#C31162"/>
</linearGradient>
<linearGradient id="paint3_linear_206_4738" x1="5.85874" y1="32.4639" x2="11.2036" y2="23.422" gradientUnits="userSpaceOnUse">
<stop stop-color="#32A071"/>
<stop offset="0.069" stop-color="#2DA771"/>
<stop offset="0.476" stop-color="#15CF74"/>
<stop offset="0.801" stop-color="#06E775"/>
<stop offset="1" stop-color="#00F076"/>
</linearGradient>
<clipPath id="clip0_206_4738">
<rect width="101" height="30" fill="white" transform="translate(0.359375 0.939453)"/>
</clipPath>
<clipPath id="clip1_206_4738">
<rect width="101" height="30" fill="white" transform="translate(0.359375 0.939453)"/>
</clipPath>
<clipPath id="clip2_206_4738">
<rect width="101" height="29.9256" fill="white" transform="translate(0.359375 0.976562)"/>
</clipPath>
</defs>
</svg>
