<svg width="15" height="25" viewBox="0 0 15 25" fill="none" xmlns="http://www.w3.org/2000/svg">
<g clip-path="url(#clip0_206_4718)">
<g clip-path="url(#clip1_206_4718)">
<g clip-path="url(#clip2_206_4718)">
<path d="M14.0821 9.80473C13.258 9.80608 12.456 9.53804 11.7984 9.04144C11.3335 8.69232 10.9554 8.24069 10.6935 7.72166C10.4316 7.20263 10.2929 6.63018 10.2882 6.04883H7.83933V12.7409V16.4065C7.84028 16.8761 7.69233 17.3338 7.41675 17.714C7.14117 18.0942 6.75215 18.3772 6.3056 18.5224C5.85905 18.6675 5.37798 18.6674 4.93152 18.5219C4.48507 18.3765 4.09623 18.0932 3.82089 17.7129C3.54555 17.3325 3.3979 16.8747 3.39915 16.4051C3.4004 15.9356 3.5505 15.4785 3.82786 15.0996C4.10523 14.7207 4.49558 14.4396 4.9428 14.2965C5.39002 14.1534 5.8711 14.1558 6.31686 14.3034V11.8166C6.08149 11.7816 5.84385 11.7641 5.6059 11.7642C4.93946 11.762 4.28018 11.9017 3.67187 12.1739C3.06356 12.4461 2.52015 12.8447 2.07775 13.3431C1.29033 14.2249 0.872408 15.3758 0.910609 16.5574C0.94881 17.7389 1.44021 18.8604 2.28294 19.6895C2.42226 19.8274 2.56993 19.9565 2.72511 20.0763C3.55097 20.7109 4.56436 21.053 5.6059 21.0488C5.84214 21.0487 6.07805 21.0312 6.31173 20.9965C7.30073 20.8509 8.21714 20.3925 8.92681 19.6885C9.36174 19.2625 9.70748 18.7542 9.94386 18.1932C10.1802 17.6321 10.3025 17.0297 10.3036 16.4209L10.2913 10.9466C11.3789 11.7849 12.7139 12.2388 14.0872 12.2372V9.8037H14.08L14.0821 9.80473Z" fill="#AAAAAA"/>
</g>
</g>
</g>
<defs>
<clipPath id="clip0_206_4718">
<rect width="15" height="15" fill="white" transform="translate(0 6.04883)"/>
</clipPath>
<clipPath id="clip1_206_4718">
<rect width="15" height="15" fill="white" transform="translate(0 6.04883)"/>
</clipPath>
<clipPath id="clip2_206_4718">
<rect width="13.179" height="15" fill="white" transform="translate(0.910156 6.04883)"/>
</clipPath>
</defs>
</svg>
