<svg width="12" height="25" viewBox="0 0 12 25" fill="none" xmlns="http://www.w3.org/2000/svg">
<g clip-path="url(#clip0_206_4708)">
<g clip-path="url(#clip1_206_4708)">
<g clip-path="url(#clip2_206_4708)">
<path d="M6.20078 6.11719C2.15292 6.11719 -0.00292969 8.72781 -0.00292969 11.5745C-0.00292969 12.8944 0.729969 14.5406 1.90336 15.0631C2.08151 15.1442 2.17848 15.1097 2.21832 14.9435C2.25365 14.8173 2.40774 14.2084 2.48216 13.922C2.4955 13.8772 2.49668 13.8296 2.48559 13.7842C2.47449 13.7387 2.45152 13.6971 2.41902 13.6634C1.96774 13.0734 1.7222 12.3518 1.71995 11.609C1.72924 11.0697 1.84778 10.5379 2.06841 10.0457C2.28903 9.55353 2.60716 9.11118 3.00357 8.74541C3.39998 8.37963 3.86644 8.09803 4.37475 7.91761C4.88307 7.7372 5.42268 7.66172 5.96099 7.69574C8.26868 7.69574 9.88332 9.20438 9.88332 11.3625C9.88332 13.801 8.60093 15.4885 6.93443 15.4885C6.72631 15.5044 6.51739 15.4708 6.32467 15.3907C6.13195 15.3106 5.96087 15.186 5.82535 15.0273C5.68982 14.8686 5.59369 14.6801 5.54477 14.4772C5.49585 14.2743 5.49552 14.0627 5.5438 13.8596C5.89065 12.884 6.15148 11.8799 6.32331 10.8589C6.34055 10.695 6.32238 10.5294 6.27003 10.3733C6.21768 10.2171 6.13237 10.074 6.01988 9.95364C5.90739 9.83331 5.77036 9.73857 5.61806 9.67583C5.46575 9.61309 5.30174 9.58382 5.13714 9.59C4.19827 9.59 3.43681 10.5259 3.43681 11.7819C3.43111 12.2426 3.52683 12.6989 3.71719 13.1184C3.71719 13.1184 2.78885 16.8942 2.61596 17.5993C2.45821 18.6933 2.48132 19.8059 2.68437 20.8924C2.686 20.9125 2.69384 20.9316 2.70681 20.947C2.71979 20.9624 2.73724 20.9734 2.75675 20.9785C2.77626 20.9835 2.79686 20.9824 2.81568 20.9752C2.8345 20.968 2.85061 20.9551 2.86177 20.9383C3.50451 20.0487 4.01918 19.0732 4.39071 18.0405C4.50496 17.6158 4.97477 15.8944 4.97477 15.8944C5.22188 16.2294 5.54733 16.4987 5.92265 16.6788C6.29796 16.8588 6.71169 16.9442 7.12761 16.9273C9.95623 16.9273 12.0001 14.4256 12.0001 11.3204C11.9896 8.3437 9.45861 6.11719 6.20078 6.11719Z" fill="#AAAAAA"/>
</g>
</g>
</g>
<defs>
<clipPath id="clip0_206_4708">
<rect width="12" height="15" fill="white" transform="translate(0 6.04883)"/>
</clipPath>
<clipPath id="clip1_206_4708">
<rect width="12" height="15" fill="white" transform="translate(0 6.04883)"/>
</clipPath>
<clipPath id="clip2_206_4708">
<rect width="12" height="14.8632" fill="white" transform="translate(0 6.11719)"/>
</clipPath>
</defs>
</svg>
