<svg width="123" height="22" viewBox="0 0 123 22" fill="none" xmlns="http://www.w3.org/2000/svg">
<path d="M8.358 11.3615H5.376V14.3855H4.186V11.3615H1.218V10.2835H4.186V7.24545H5.376V10.2835H8.358V11.3615ZM10.0886 6.97945V5.81745H12.7206V15.9395H11.4326V6.97945H10.0886ZM20.439 10.2695V11.3475H14.853V10.2695H20.439ZM22.466 14.9175C23.6513 13.9655 24.58 13.1861 25.252 12.5795C25.924 11.9635 26.4886 11.3241 26.946 10.6615C27.4126 9.98945 27.646 9.33145 27.646 8.68745C27.646 8.08079 27.4966 7.60479 27.198 7.25945C26.9086 6.90479 26.4373 6.72745 25.784 6.72745C25.1493 6.72745 24.6546 6.92812 24.3 7.32945C23.9546 7.72145 23.768 8.24879 23.74 8.91145H22.508C22.5453 7.86612 22.8626 7.05879 23.46 6.48945C24.0573 5.92012 24.8273 5.63545 25.77 5.63545C26.7313 5.63545 27.492 5.90145 28.052 6.43345C28.6213 6.96545 28.906 7.69812 28.906 8.63145C28.906 9.40612 28.6726 10.1621 28.206 10.8995C27.7486 11.6275 27.226 12.2715 26.638 12.8315C26.05 13.3821 25.2986 14.0261 24.384 14.7635H29.2V15.8275H22.466V14.9175ZM30.6727 10.7735C30.6727 9.16812 30.934 7.91745 31.4567 7.02145C31.9794 6.11612 32.894 5.66345 34.2007 5.66345C35.498 5.66345 36.408 6.11612 36.9307 7.02145C37.4534 7.91745 37.7147 9.16812 37.7147 10.7735C37.7147 12.4068 37.4534 13.6761 36.9307 14.5815C36.408 15.4868 35.498 15.9395 34.2007 15.9395C32.894 15.9395 31.9794 15.4868 31.4567 14.5815C30.934 13.6761 30.6727 12.4068 30.6727 10.7735ZM36.4547 10.7735C36.4547 9.96145 36.3987 9.27545 36.2867 8.71545C36.184 8.14612 35.9647 7.68879 35.6287 7.34345C35.302 6.99812 34.826 6.82545 34.2007 6.82545C33.566 6.82545 33.0807 6.99812 32.7447 7.34345C32.418 7.68879 32.1987 8.14612 32.0867 8.71545C31.984 9.27545 31.9327 9.96145 31.9327 10.7735C31.9327 11.6135 31.984 12.3181 32.0867 12.8875C32.1987 13.4568 32.418 13.9141 32.7447 14.2595C33.0807 14.6048 33.566 14.7775 34.2007 14.7775C34.826 14.7775 35.302 14.6048 35.6287 14.2595C35.9647 13.9141 36.184 13.4568 36.2867 12.8875C36.3987 12.3181 36.4547 11.6135 36.4547 10.7735ZM45.9177 6.92345H41.0037V10.1155C41.2184 9.81679 41.5357 9.57412 41.9557 9.38745C42.3757 9.19145 42.8284 9.09345 43.3137 9.09345C44.0884 9.09345 44.7184 9.25679 45.2037 9.58345C45.689 9.90079 46.0344 10.3161 46.2397 10.8295C46.4544 11.3335 46.5617 11.8701 46.5617 12.4395C46.5617 13.1115 46.4357 13.7135 46.1837 14.2455C45.9317 14.7775 45.5444 15.1975 45.0217 15.5055C44.5084 15.8135 43.869 15.9675 43.1037 15.9675C42.1237 15.9675 41.3304 15.7155 40.7237 15.2115C40.117 14.7075 39.7484 14.0355 39.6177 13.1955H40.8637C40.985 13.7275 41.2417 14.1428 41.6337 14.4415C42.0257 14.7401 42.5204 14.8895 43.1177 14.8895C43.855 14.8895 44.4104 14.6701 44.7837 14.2315C45.157 13.7835 45.3437 13.1955 45.3437 12.4675C45.3437 11.7395 45.157 11.1795 44.7837 10.7875C44.4104 10.3861 43.8597 10.1855 43.1317 10.1855C42.637 10.1855 42.203 10.3068 41.8297 10.5495C41.4657 10.7828 41.1997 11.1048 41.0317 11.5155H39.8277V5.80345H45.9177V6.92345ZM53.7847 10.2695V11.3475H48.1987V10.2695H53.7847ZM55.9377 8.36545C56.003 7.50679 56.3343 6.83479 56.9317 6.34945C57.529 5.86412 58.3037 5.62145 59.2557 5.62145C59.8903 5.62145 60.4363 5.73812 60.8937 5.97145C61.3603 6.19545 61.7103 6.50345 61.9437 6.89545C62.1863 7.28745 62.3077 7.73079 62.3077 8.22545C62.3077 8.80412 62.1397 9.30345 61.8037 9.72345C61.477 10.1435 61.0477 10.4141 60.5157 10.5355V10.6055C61.1223 10.7548 61.603 11.0488 61.9577 11.4875C62.3123 11.9261 62.4897 12.5001 62.4897 13.2095C62.4897 13.7415 62.3683 14.2221 62.1257 14.6515C61.883 15.0715 61.519 15.4028 61.0337 15.6455C60.5483 15.8881 59.965 16.0095 59.2837 16.0095C58.2943 16.0095 57.4823 15.7528 56.8477 15.2395C56.213 14.7168 55.8583 13.9795 55.7837 13.0275H57.0157C57.081 13.5875 57.3097 14.0448 57.7017 14.3995C58.0937 14.7541 58.6163 14.9315 59.2697 14.9315C59.923 14.9315 60.4177 14.7635 60.7537 14.4275C61.099 14.0821 61.2717 13.6388 61.2717 13.0975C61.2717 12.3975 61.0383 11.8935 60.5717 11.5855C60.105 11.2775 59.4003 11.1235 58.4577 11.1235H58.1357V10.0595H58.4717C59.3303 10.0501 59.979 9.91012 60.4177 9.63945C60.8563 9.35945 61.0757 8.93012 61.0757 8.35145C61.0757 7.85679 60.9123 7.46012 60.5857 7.16145C60.2683 6.86279 59.811 6.71345 59.2137 6.71345C58.635 6.71345 58.1683 6.86279 57.8137 7.16145C57.459 7.46012 57.249 7.86145 57.1837 8.36545H55.9377ZM70.6638 6.92345H65.7498V10.1155C65.9645 9.81679 66.2818 9.57412 66.7018 9.38745C67.1218 9.19145 67.5745 9.09345 68.0598 9.09345C68.8345 9.09345 69.4645 9.25679 69.9498 9.58345C70.4351 9.90079 70.7805 10.3161 70.9858 10.8295C71.2005 11.3335 71.3078 11.8701 71.3078 12.4395C71.3078 13.1115 71.1818 13.7135 70.9298 14.2455C70.6778 14.7775 70.2905 15.1975 69.7678 15.5055C69.2545 15.8135 68.6151 15.9675 67.8498 15.9675C66.8698 15.9675 66.0765 15.7155 65.4698 15.2115C64.8631 14.7075 64.4945 14.0355 64.3638 13.1955H65.6098C65.7311 13.7275 65.9878 14.1428 66.3798 14.4415C66.7718 14.7401 67.2665 14.8895 67.8638 14.8895C68.6011 14.8895 69.1565 14.6701 69.5298 14.2315C69.9031 13.7835 70.0898 13.1955 70.0898 12.4675C70.0898 11.7395 69.9031 11.1795 69.5298 10.7875C69.1565 10.3861 68.6058 10.1855 67.8778 10.1855C67.3831 10.1855 66.9491 10.3068 66.5758 10.5495C66.2118 10.7828 65.9458 11.1048 65.7778 11.5155H64.5738V5.80345H70.6638V6.92345ZM73.0008 10.7735C73.0008 9.16812 73.2621 7.91745 73.7848 7.02145C74.3075 6.11612 75.2221 5.66345 76.5288 5.66345C77.8261 5.66345 78.7361 6.11612 79.2588 7.02145C79.7815 7.91745 80.0428 9.16812 80.0428 10.7735C80.0428 12.4068 79.7815 13.6761 79.2588 14.5815C78.7361 15.4868 77.8261 15.9395 76.5288 15.9395C75.2221 15.9395 74.3075 15.4868 73.7848 14.5815C73.2621 13.6761 73.0008 12.4068 73.0008 10.7735ZM78.7828 10.7735C78.7828 9.96145 78.7268 9.27545 78.6148 8.71545C78.5121 8.14612 78.2928 7.68879 77.9568 7.34345C77.6301 6.99812 77.1541 6.82545 76.5288 6.82545C75.8941 6.82545 75.4088 6.99812 75.0728 7.34345C74.7461 7.68879 74.5268 8.14612 74.4148 8.71545C74.3121 9.27545 74.2608 9.96145 74.2608 10.7735C74.2608 11.6135 74.3121 12.3181 74.4148 12.8875C74.5268 13.4568 74.7461 13.9141 75.0728 14.2595C75.4088 14.6048 75.8941 14.7775 76.5288 14.7775C77.1541 14.7775 77.6301 14.6048 77.9568 14.2595C78.2928 13.9141 78.5121 13.4568 78.6148 12.8875C78.7268 12.3181 78.7828 11.6135 78.7828 10.7735ZM87.3218 10.2695V11.3475H81.7358V10.2695H87.3218ZM95.9568 6.92345H91.0428V10.1155C91.2574 9.81679 91.5748 9.57412 91.9948 9.38745C92.4148 9.19145 92.8674 9.09345 93.3528 9.09345C94.1274 9.09345 94.7574 9.25679 95.2428 9.58345C95.7281 9.90079 96.0734 10.3161 96.2788 10.8295C96.4934 11.3335 96.6008 11.8701 96.6008 12.4395C96.6008 13.1115 96.4748 13.7135 96.2228 14.2455C95.9708 14.7775 95.5834 15.1975 95.0608 15.5055C94.5474 15.8135 93.9081 15.9675 93.1428 15.9675C92.1628 15.9675 91.3694 15.7155 90.7628 15.2115C90.1561 14.7075 89.7874 14.0355 89.6568 13.1955H90.9028C91.0241 13.7275 91.2808 14.1428 91.6728 14.4415C92.0648 14.7401 92.5594 14.8895 93.1568 14.8895C93.8941 14.8895 94.4494 14.6701 94.8228 14.2315C95.1961 13.7835 95.3828 13.1955 95.3828 12.4675C95.3828 11.7395 95.1961 11.1795 94.8228 10.7875C94.4494 10.3861 93.8988 10.1855 93.1708 10.1855C92.6761 10.1855 92.2421 10.3068 91.8688 10.5495C91.5048 10.7828 91.2388 11.1048 91.0708 11.5155H89.8668V5.80345H95.9568V6.92345ZM104.524 6.81145L100.632 15.9395H99.3438L103.292 6.93745H97.8878V5.84545H104.524V6.81145ZM105.936 10.7735C105.936 9.16812 106.198 7.91745 106.72 7.02145C107.243 6.11612 108.158 5.66345 109.464 5.66345C110.762 5.66345 111.672 6.11612 112.194 7.02145C112.717 7.91745 112.978 9.16812 112.978 10.7735C112.978 12.4068 112.717 13.6761 112.194 14.5815C111.672 15.4868 110.762 15.9395 109.464 15.9395C108.158 15.9395 107.243 15.4868 106.72 14.5815C106.198 13.6761 105.936 12.4068 105.936 10.7735ZM111.718 10.7735C111.718 9.96145 111.662 9.27545 111.55 8.71545C111.448 8.14612 111.228 7.68879 110.892 7.34345C110.566 6.99812 110.09 6.82545 109.464 6.82545C108.83 6.82545 108.344 6.99812 108.008 7.34345C107.682 7.68879 107.462 8.14612 107.35 8.71545C107.248 9.27545 107.196 9.96145 107.196 10.7735C107.196 11.6135 107.248 12.3181 107.35 12.8875C107.462 13.4568 107.682 13.9141 108.008 14.2595C108.344 14.6048 108.83 14.7775 109.464 14.7775C110.09 14.7775 110.566 14.6048 110.892 14.2595C111.228 13.9141 111.448 13.4568 111.55 12.8875C111.662 12.3181 111.718 11.6135 111.718 10.7735ZM114.727 10.7735C114.727 9.16812 114.989 7.91745 115.511 7.02145C116.034 6.11612 116.949 5.66345 118.255 5.66345C119.553 5.66345 120.463 6.11612 120.985 7.02145C121.508 7.91745 121.769 9.16812 121.769 10.7735C121.769 12.4068 121.508 13.6761 120.985 14.5815C120.463 15.4868 119.553 15.9395 118.255 15.9395C116.949 15.9395 116.034 15.4868 115.511 14.5815C114.989 13.6761 114.727 12.4068 114.727 10.7735ZM120.509 10.7735C120.509 9.96145 120.453 9.27545 120.341 8.71545C120.239 8.14612 120.019 7.68879 119.683 7.34345C119.357 6.99812 118.881 6.82545 118.255 6.82545C117.621 6.82545 117.135 6.99812 116.799 7.34345C116.473 7.68879 116.253 8.14612 116.141 8.71545C116.039 9.27545 115.987 9.96145 115.987 10.7735C115.987 11.6135 116.039 12.3181 116.141 12.8875C116.253 13.4568 116.473 13.9141 116.799 14.2595C117.135 14.6048 117.621 14.7775 118.255 14.7775C118.881 14.7775 119.357 14.6048 119.683 14.2595C120.019 13.9141 120.239 13.4568 120.341 12.8875C120.453 12.3181 120.509 11.6135 120.509 10.7735Z" fill="#8A8A8A"/>
</svg>
