<svg width="101" height="101" viewBox="0 0 101 101" fill="none" xmlns="http://www.w3.org/2000/svg">
<g clip-path="url(#clip0_206_3985)">
<g clip-path="url(#clip1_206_3985)">
<g clip-path="url(#clip2_206_3985)">
<path d="M100.02 0.5H0.0195312V100.5H100.02V0.5Z" fill="white"/>
<path d="M10.5456 8.39453H7.91406V11.0261H10.5456V8.39453Z" fill="black"/>
<path d="M13.1765 8.39453H10.5449V11.0261H13.1765V8.39453Z" fill="black"/>
<path d="M15.8093 8.39453H13.1777V11.0261H15.8093V8.39453Z" fill="black"/>
<path d="M18.4402 8.39453H15.8086V11.0261H18.4402V8.39453Z" fill="black"/>
<path d="M21.073 8.39453H18.4414V11.0261H21.073V8.39453Z" fill="black"/>
<path d="M23.7038 8.39453H21.0723V11.0261H23.7038V8.39453Z" fill="black"/>
<path d="M26.3347 8.39453H23.7031V11.0261H26.3347V8.39453Z" fill="black"/>
<path d="M34.2292 8.39453H31.5977V11.0261H34.2292V8.39453Z" fill="black"/>
<path d="M48.7038 8.39453H46.0723V11.0261H48.7038V8.39453Z" fill="black"/>
<path d="M51.3347 8.39453H48.7031V11.0261H51.3347V8.39453Z" fill="black"/>
<path d="M56.5984 8.39453H53.9668V11.0261H56.5984V8.39453Z" fill="black"/>
<path d="M59.2292 8.39453H56.5977V11.0261H59.2292V8.39453Z" fill="black"/>
<path d="M61.862 8.39453H59.2305V11.0261H61.862V8.39453Z" fill="black"/>
<path d="M68.4402 8.39453H65.8086V11.0261H68.4402V8.39453Z" fill="black"/>
<path d="M76.3347 8.39453H73.7031V11.0261H76.3347V8.39453Z" fill="black"/>
<path d="M78.9675 8.39453H76.3359V11.0261H78.9675V8.39453Z" fill="black"/>
<path d="M81.5984 8.39453H78.9668V11.0261H81.5984V8.39453Z" fill="black"/>
<path d="M84.2292 8.39453H81.5977V11.0261H84.2292V8.39453Z" fill="black"/>
<path d="M86.862 8.39453H84.2305V11.0261H86.862V8.39453Z" fill="black"/>
<path d="M89.4929 8.39453H86.8613V11.0261H89.4929V8.39453Z" fill="black"/>
<path d="M90.8099 8.39453H89.4941V11.0261H90.8099V8.39453Z" fill="black"/>
<path d="M10.5456 11.0254H7.91406V13.657H10.5456V11.0254Z" fill="black"/>
<path d="M26.3347 11.0254H23.7031V13.657H26.3347V11.0254Z" fill="black"/>
<path d="M31.5984 11.0254H28.9668V13.657H31.5984V11.0254Z" fill="black"/>
<path d="M34.2292 11.0254H31.5977V13.657H34.2292V11.0254Z" fill="black"/>
<path d="M38.1765 11.0254H35.5449V13.657H38.1765V11.0254Z" fill="black"/>
<path d="M40.8093 11.0254H38.1777V13.657H40.8093V11.0254Z" fill="black"/>
<path d="M53.9675 11.0254H51.3359V13.657H53.9675V11.0254Z" fill="black"/>
<path d="M61.862 11.0254H59.2305V13.657H61.862V11.0254Z" fill="black"/>
<path d="M63.1771 11.0254H61.8613V13.657H63.1771V11.0254Z" fill="black"/>
<path d="M65.8093 11.0254H63.1777V13.657H65.8093V11.0254Z" fill="black"/>
<path d="M76.3347 11.0254H73.7031V13.657H76.3347V11.0254Z" fill="black"/>
<path d="M90.8099 11.0254H89.4941V13.657H90.8099V11.0254Z" fill="black"/>
<path d="M10.5456 13.6582H7.91406V16.2898H10.5456V13.6582Z" fill="black"/>
<path d="M15.8093 13.6582H13.1777V16.2898H15.8093V13.6582Z" fill="black"/>
<path d="M18.4402 13.6582H15.8086V16.2898H18.4402V13.6582Z" fill="black"/>
<path d="M21.073 13.6582H18.4414V16.2898H21.073V13.6582Z" fill="black"/>
<path d="M26.3347 13.6582H23.7031V16.2898H26.3347V13.6582Z" fill="black"/>
<path d="M34.2292 13.6582H31.5977V16.2898H34.2292V13.6582Z" fill="black"/>
<path d="M35.5463 13.6582H34.2305V16.2898H35.5463V13.6582Z" fill="black"/>
<path d="M38.1765 13.6582H35.5449V16.2898H38.1765V13.6582Z" fill="black"/>
<path d="M46.073 13.6582H43.4414V16.2898H46.073V13.6582Z" fill="black"/>
<path d="M51.3347 13.6582H48.7031V16.2898H51.3347V13.6582Z" fill="black"/>
<path d="M56.5984 13.6582H53.9668V16.2898H56.5984V13.6582Z" fill="black"/>
<path d="M61.862 13.6582H59.2305V16.2898H61.862V13.6582Z" fill="black"/>
<path d="M63.1771 13.6582H61.8613V16.2898H63.1771V13.6582Z" fill="black"/>
<path d="M65.8093 13.6582H63.1777V16.2898H65.8093V13.6582Z" fill="black"/>
<path d="M68.4402 13.6582H65.8086V16.2898H68.4402V13.6582Z" fill="black"/>
<path d="M76.3347 13.6582H73.7031V16.2898H76.3347V13.6582Z" fill="black"/>
<path d="M81.5984 13.6582H78.9668V16.2898H81.5984V13.6582Z" fill="black"/>
<path d="M84.2292 13.6582H81.5977V16.2898H84.2292V13.6582Z" fill="black"/>
<path d="M86.862 13.6582H84.2305V16.2898H86.862V13.6582Z" fill="black"/>
<path d="M90.8099 13.6582H89.4941V16.2898H90.8099V13.6582Z" fill="black"/>
<path d="M10.5456 16.2891H7.91406V18.9206H10.5456V16.2891Z" fill="black"/>
<path d="M15.8093 16.2891H13.1777V18.9206H15.8093V16.2891Z" fill="black"/>
<path d="M18.4402 16.2891H15.8086V18.9206H18.4402V16.2891Z" fill="black"/>
<path d="M21.073 16.2891H18.4414V18.9206H21.073V16.2891Z" fill="black"/>
<path d="M26.3347 16.2891H23.7031V18.9206H26.3347V16.2891Z" fill="black"/>
<path d="M31.5984 16.2891H28.9668V18.9206H31.5984V16.2891Z" fill="black"/>
<path d="M34.2292 16.2891H31.5977V18.9206H34.2292V16.2891Z" fill="black"/>
<path d="M38.1765 16.2891H35.5449V18.9206H38.1765V16.2891Z" fill="black"/>
<path d="M51.3347 16.2891H48.7031V18.9206H51.3347V16.2891Z" fill="black"/>
<path d="M53.9675 16.2891H51.3359V18.9206H53.9675V16.2891Z" fill="black"/>
<path d="M59.2292 16.2891H56.5977V18.9206H59.2292V16.2891Z" fill="black"/>
<path d="M68.4402 16.2891H65.8086V18.9206H68.4402V16.2891Z" fill="black"/>
<path d="M71.073 16.2891H68.4414V18.9206H71.073V16.2891Z" fill="black"/>
<path d="M76.3347 16.2891H73.7031V18.9206H76.3347V16.2891Z" fill="black"/>
<path d="M81.5984 16.2891H78.9668V18.9206H81.5984V16.2891Z" fill="black"/>
<path d="M84.2292 16.2891H81.5977V18.9206H84.2292V16.2891Z" fill="black"/>
<path d="M86.862 16.2891H84.2305V18.9206H86.862V16.2891Z" fill="black"/>
<path d="M90.8099 16.2891H89.4941V18.9206H90.8099V16.2891Z" fill="black"/>
<path d="M10.5456 18.9219H7.91406V21.5535H10.5456V18.9219Z" fill="black"/>
<path d="M15.8093 18.9219H13.1777V21.5535H15.8093V18.9219Z" fill="black"/>
<path d="M18.4402 18.9219H15.8086V21.5535H18.4402V18.9219Z" fill="black"/>
<path d="M21.073 18.9219H18.4414V21.5535H21.073V18.9219Z" fill="black"/>
<path d="M26.3347 18.9219H23.7031V21.5535H26.3347V18.9219Z" fill="black"/>
<path d="M35.5463 18.9219H34.2305V21.5535H35.5463V18.9219Z" fill="black"/>
<path d="M40.8093 18.9219H38.1777V21.5535H40.8093V18.9219Z" fill="black"/>
<path d="M43.4402 18.9219H40.8086V21.5535H43.4402V18.9219Z" fill="black"/>
<path d="M46.073 18.9219H43.4414V21.5535H46.073V18.9219Z" fill="black"/>
<path d="M48.7038 18.9219H46.0723V21.5535H48.7038V18.9219Z" fill="black"/>
<path d="M53.9675 18.9219H51.3359V21.5535H53.9675V18.9219Z" fill="black"/>
<path d="M56.5984 18.9219H53.9668V21.5535H56.5984V18.9219Z" fill="black"/>
<path d="M59.2292 18.9219H56.5977V21.5535H59.2292V18.9219Z" fill="black"/>
<path d="M68.4402 18.9219H65.8086V21.5535H68.4402V18.9219Z" fill="black"/>
<path d="M76.3347 18.9219H73.7031V21.5535H76.3347V18.9219Z" fill="black"/>
<path d="M81.5984 18.9219H78.9668V21.5535H81.5984V18.9219Z" fill="black"/>
<path d="M84.2292 18.9219H81.5977V21.5535H84.2292V18.9219Z" fill="black"/>
<path d="M86.862 18.9219H84.2305V21.5535H86.862V18.9219Z" fill="black"/>
<path d="M90.8099 18.9219H89.4941V21.5535H90.8099V18.9219Z" fill="black"/>
<path d="M10.5456 21.5527H7.91406V24.1843H10.5456V21.5527Z" fill="black"/>
<path d="M26.3347 21.5527H23.7031V24.1843H26.3347V21.5527Z" fill="black"/>
<path d="M31.5984 21.5527H28.9668V24.1843H31.5984V21.5527Z" fill="black"/>
<path d="M35.5463 21.5527H34.2305V24.1843H35.5463V21.5527Z" fill="black"/>
<path d="M43.4402 21.5527H40.8086V24.1843H43.4402V21.5527Z" fill="black"/>
<path d="M46.073 21.5527H43.4414V24.1843H46.073V21.5527Z" fill="black"/>
<path d="M48.7038 21.5527H46.0723V24.1843H48.7038V21.5527Z" fill="black"/>
<path d="M51.3347 21.5527H48.7031V24.1843H51.3347V21.5527Z" fill="black"/>
<path d="M53.9675 21.5527H51.3359V24.1843H53.9675V21.5527Z" fill="black"/>
<path d="M65.8093 21.5527H63.1777V24.1843H65.8093V21.5527Z" fill="black"/>
<path d="M76.3347 21.5527H73.7031V24.1843H76.3347V21.5527Z" fill="black"/>
<path d="M90.8099 21.5527H89.4941V24.1843H90.8099V21.5527Z" fill="black"/>
<path d="M10.5456 24.1836H7.91406V26.8152H10.5456V24.1836Z" fill="black"/>
<path d="M13.1765 24.1836H10.5449V26.8152H13.1765V24.1836Z" fill="black"/>
<path d="M15.8093 24.1836H13.1777V26.8152H15.8093V24.1836Z" fill="black"/>
<path d="M18.4402 24.1836H15.8086V26.8152H18.4402V24.1836Z" fill="black"/>
<path d="M21.073 24.1836H18.4414V26.8152H21.073V24.1836Z" fill="black"/>
<path d="M23.7038 24.1836H21.0723V26.8152H23.7038V24.1836Z" fill="black"/>
<path d="M26.3347 24.1836H23.7031V26.8152H26.3347V24.1836Z" fill="black"/>
<path d="M31.5984 24.1836H28.9668V26.8152H31.5984V24.1836Z" fill="black"/>
<path d="M35.5463 24.1836H34.2305V26.8152H35.5463V24.1836Z" fill="black"/>
<path d="M40.8093 24.1836H38.1777V26.8152H40.8093V24.1836Z" fill="black"/>
<path d="M46.073 24.1836H43.4414V26.8152H46.073V24.1836Z" fill="black"/>
<path d="M51.3347 24.1836H48.7031V26.8152H51.3347V24.1836Z" fill="black"/>
<path d="M56.5984 24.1836H53.9668V26.8152H56.5984V24.1836Z" fill="black"/>
<path d="M61.862 24.1836H59.2305V26.8152H61.862V24.1836Z" fill="black"/>
<path d="M65.8093 24.1836H63.1777V26.8152H65.8093V24.1836Z" fill="black"/>
<path d="M71.073 24.1836H68.4414V26.8152H71.073V24.1836Z" fill="black"/>
<path d="M76.3347 24.1836H73.7031V26.8152H76.3347V24.1836Z" fill="black"/>
<path d="M78.9675 24.1836H76.3359V26.8152H78.9675V24.1836Z" fill="black"/>
<path d="M81.5984 24.1836H78.9668V26.8152H81.5984V24.1836Z" fill="black"/>
<path d="M84.2292 24.1836H81.5977V26.8152H84.2292V24.1836Z" fill="black"/>
<path d="M86.862 24.1836H84.2305V26.8152H86.862V24.1836Z" fill="black"/>
<path d="M89.4929 24.1836H86.8613V26.8152H89.4929V24.1836Z" fill="black"/>
<path d="M90.8099 24.1836H89.4941V26.8152H90.8099V24.1836Z" fill="black"/>
<path d="M40.8093 26.8164H38.1777V28.1322H40.8093V26.8164Z" fill="black"/>
<path d="M43.4402 26.8164H40.8086V28.1322H43.4402V26.8164Z" fill="black"/>
<path d="M48.7038 26.8164H46.0723V28.1322H48.7038V26.8164Z" fill="black"/>
<path d="M61.862 26.8164H59.2305V28.1322H61.862V26.8164Z" fill="black"/>
<path d="M63.1771 26.8164H61.8613V28.1322H63.1771V26.8164Z" fill="black"/>
<path d="M65.8093 26.8164H63.1777V28.1322H65.8093V26.8164Z" fill="black"/>
<path d="M68.4402 26.8164H65.8086V28.1322H68.4402V26.8164Z" fill="black"/>
<path d="M71.073 26.8164H68.4414V28.1322H71.073V26.8164Z" fill="black"/>
<path d="M10.5456 28.1309H7.91406V30.7624H10.5456V28.1309Z" fill="black"/>
<path d="M13.1765 28.1309H10.5449V30.7624H13.1765V28.1309Z" fill="black"/>
<path d="M15.8093 28.1309H13.1777V30.7624H15.8093V28.1309Z" fill="black"/>
<path d="M18.4402 28.1309H15.8086V30.7624H18.4402V28.1309Z" fill="black"/>
<path d="M21.073 28.1309H18.4414V30.7624H21.073V28.1309Z" fill="black"/>
<path d="M26.3347 28.1309H23.7031V30.7624H26.3347V28.1309Z" fill="black"/>
<path d="M28.9675 28.1309H26.3359V30.7624H28.9675V28.1309Z" fill="black"/>
<path d="M31.5984 28.1309H28.9668V30.7624H31.5984V28.1309Z" fill="black"/>
<path d="M34.2292 28.1309H31.5977V30.7624H34.2292V28.1309Z" fill="black"/>
<path d="M35.5463 28.1309H34.2305V30.7624H35.5463V28.1309Z" fill="black"/>
<path d="M40.8093 28.1309H38.1777V30.7624H40.8093V28.1309Z" fill="black"/>
<path d="M46.073 28.1309H43.4414V30.7624H46.073V28.1309Z" fill="black"/>
<path d="M48.7038 28.1309H46.0723V30.7624H48.7038V28.1309Z" fill="black"/>
<path d="M53.9675 28.1309H51.3359V30.7624H53.9675V28.1309Z" fill="black"/>
<path d="M61.862 28.1309H59.2305V30.7624H61.862V28.1309Z" fill="black"/>
<path d="M65.8093 28.1309H63.1777V30.7624H65.8093V28.1309Z" fill="black"/>
<path d="M71.073 28.1309H68.4414V30.7624H71.073V28.1309Z" fill="black"/>
<path d="M73.7038 28.1309H71.0723V30.7624H73.7038V28.1309Z" fill="black"/>
<path d="M78.9675 28.1309H76.3359V30.7624H78.9675V28.1309Z" fill="black"/>
<path d="M84.2292 28.1309H81.5977V30.7624H84.2292V28.1309Z" fill="black"/>
<path d="M89.4929 28.1309H86.8613V30.7624H89.4929V28.1309Z" fill="black"/>
<path d="M10.5456 30.7637H7.91406V33.3953H10.5456V30.7637Z" fill="black"/>
<path d="M13.1765 30.7637H10.5449V33.3953H13.1765V30.7637Z" fill="black"/>
<path d="M15.8093 30.7637H13.1777V33.3953H15.8093V30.7637Z" fill="black"/>
<path d="M23.7038 30.7637H21.0723V33.3953H23.7038V30.7637Z" fill="black"/>
<path d="M28.9675 30.7637H26.3359V33.3953H28.9675V30.7637Z" fill="black"/>
<path d="M34.2292 30.7637H31.5977V33.3953H34.2292V30.7637Z" fill="black"/>
<path d="M48.7038 30.7637H46.0723V33.3953H48.7038V30.7637Z" fill="black"/>
<path d="M51.3347 30.7637H48.7031V33.3953H51.3347V30.7637Z" fill="black"/>
<path d="M59.2292 30.7637H56.5977V33.3953H59.2292V30.7637Z" fill="black"/>
<path d="M61.862 30.7637H59.2305V33.3953H61.862V30.7637Z" fill="black"/>
<path d="M63.1771 30.7637H61.8613V33.3953H63.1771V30.7637Z" fill="black"/>
<path d="M68.4402 30.7637H65.8086V33.3953H68.4402V30.7637Z" fill="black"/>
<path d="M76.3347 30.7637H73.7031V33.3953H76.3347V30.7637Z" fill="black"/>
<path d="M86.862 30.7637H84.2305V33.3953H86.862V30.7637Z" fill="black"/>
<path d="M89.4929 30.7637H86.8613V33.3953H89.4929V30.7637Z" fill="black"/>
<path d="M90.8099 30.7637H89.4941V33.3953H90.8099V30.7637Z" fill="black"/>
<path d="M10.5456 33.3945H7.91406V36.0261H10.5456V33.3945Z" fill="black"/>
<path d="M18.4402 33.3945H15.8086V36.0261H18.4402V33.3945Z" fill="black"/>
<path d="M21.073 33.3945H18.4414V36.0261H21.073V33.3945Z" fill="black"/>
<path d="M26.3347 33.3945H23.7031V36.0261H26.3347V33.3945Z" fill="black"/>
<path d="M31.5984 33.3945H28.9668V36.0261H31.5984V33.3945Z" fill="black"/>
<path d="M34.2292 33.3945H31.5977V36.0261H34.2292V33.3945Z" fill="black"/>
<path d="M38.1765 33.3945H35.5449V36.0261H38.1765V33.3945Z" fill="black"/>
<path d="M40.8093 33.3945H38.1777V36.0261H40.8093V33.3945Z" fill="black"/>
<path d="M53.9675 33.3945H51.3359V36.0261H53.9675V33.3945Z" fill="black"/>
<path d="M56.5984 33.3945H53.9668V36.0261H56.5984V33.3945Z" fill="black"/>
<path d="M61.862 33.3945H59.2305V36.0261H61.862V33.3945Z" fill="black"/>
<path d="M63.1771 33.3945H61.8613V36.0261H63.1771V33.3945Z" fill="black"/>
<path d="M65.8093 33.3945H63.1777V36.0261H65.8093V33.3945Z" fill="black"/>
<path d="M71.073 33.3945H68.4414V36.0261H71.073V33.3945Z" fill="black"/>
<path d="M73.7038 33.3945H71.0723V36.0261H73.7038V33.3945Z" fill="black"/>
<path d="M76.3347 33.3945H73.7031V36.0261H76.3347V33.3945Z" fill="black"/>
<path d="M81.5984 33.3945H78.9668V36.0261H81.5984V33.3945Z" fill="black"/>
<path d="M84.2292 33.3945H81.5977V36.0261H84.2292V33.3945Z" fill="black"/>
<path d="M89.4929 33.3945H86.8613V36.0261H89.4929V33.3945Z" fill="black"/>
<path d="M10.5456 36.0254H7.91406V38.657H10.5456V36.0254Z" fill="black"/>
<path d="M13.1765 36.0254H10.5449V38.657H13.1765V36.0254Z" fill="black"/>
<path d="M15.8093 36.0254H13.1777V38.657H15.8093V36.0254Z" fill="black"/>
<path d="M28.9675 36.0254H26.3359V38.657H28.9675V36.0254Z" fill="black"/>
<path d="M34.2292 36.0254H31.5977V38.657H34.2292V36.0254Z" fill="black"/>
<path d="M35.5463 36.0254H34.2305V38.657H35.5463V36.0254Z" fill="black"/>
<path d="M38.1765 36.0254H35.5449V38.657H38.1765V36.0254Z" fill="black"/>
<path d="M46.073 36.0254H43.4414V38.657H46.073V36.0254Z" fill="black"/>
<path d="M51.3347 36.0254H48.7031V38.657H51.3347V36.0254Z" fill="black"/>
<path d="M56.5984 36.0254H53.9668V38.657H56.5984V36.0254Z" fill="black"/>
<path d="M59.2292 36.0254H56.5977V38.657H59.2292V36.0254Z" fill="black"/>
<path d="M63.1771 36.0254H61.8613V38.657H63.1771V36.0254Z" fill="black"/>
<path d="M68.4402 36.0254H65.8086V38.657H68.4402V36.0254Z" fill="black"/>
<path d="M76.3347 36.0254H73.7031V38.657H76.3347V36.0254Z" fill="black"/>
<path d="M86.862 36.0254H84.2305V38.657H86.862V36.0254Z" fill="black"/>
<path d="M10.5456 38.6582H7.91406V41.2898H10.5456V38.6582Z" fill="black"/>
<path d="M13.1765 38.6582H10.5449V41.2898H13.1765V38.6582Z" fill="black"/>
<path d="M18.4402 38.6582H15.8086V41.2898H18.4402V38.6582Z" fill="black"/>
<path d="M26.3347 38.6582H23.7031V41.2898H26.3347V38.6582Z" fill="black"/>
<path d="M28.9675 38.6582H26.3359V41.2898H28.9675V38.6582Z" fill="black"/>
<path d="M34.2292 38.6582H31.5977V41.2898H34.2292V38.6582Z" fill="black"/>
<path d="M38.1765 38.6582H35.5449V41.2898H38.1765V38.6582Z" fill="black"/>
<path d="M51.3347 38.6582H48.7031V41.2898H51.3347V38.6582Z" fill="black"/>
<path d="M53.9675 38.6582H51.3359V41.2898H53.9675V38.6582Z" fill="black"/>
<path d="M56.5984 38.6582H53.9668V41.2898H56.5984V38.6582Z" fill="black"/>
<path d="M65.8093 38.6582H63.1777V41.2898H65.8093V38.6582Z" fill="black"/>
<path d="M68.4402 38.6582H65.8086V41.2898H68.4402V38.6582Z" fill="black"/>
<path d="M71.073 38.6582H68.4414V41.2898H71.073V38.6582Z" fill="black"/>
<path d="M73.7038 38.6582H71.0723V41.2898H73.7038V38.6582Z" fill="black"/>
<path d="M78.9675 38.6582H76.3359V41.2898H78.9675V38.6582Z" fill="black"/>
<path d="M81.5984 38.6582H78.9668V41.2898H81.5984V38.6582Z" fill="black"/>
<path d="M84.2292 38.6582H81.5977V41.2898H84.2292V38.6582Z" fill="black"/>
<path d="M10.5456 41.2891H7.91406V43.9206H10.5456V41.2891Z" fill="black"/>
<path d="M18.4402 41.2891H15.8086V43.9206H18.4402V41.2891Z" fill="black"/>
<path d="M35.5463 41.2891H34.2305V43.9206H35.5463V41.2891Z" fill="black"/>
<path d="M40.8093 41.2891H38.1777V43.9206H40.8093V41.2891Z" fill="black"/>
<path d="M43.4402 41.2891H40.8086V43.9206H43.4402V41.2891Z" fill="black"/>
<path d="M46.073 41.2891H43.4414V43.9206H46.073V41.2891Z" fill="black"/>
<path d="M48.7038 41.2891H46.0723V43.9206H48.7038V41.2891Z" fill="black"/>
<path d="M53.9675 41.2891H51.3359V43.9206H53.9675V41.2891Z" fill="black"/>
<path d="M56.5984 41.2891H53.9668V43.9206H56.5984V41.2891Z" fill="black"/>
<path d="M59.2292 41.2891H56.5977V43.9206H59.2292V41.2891Z" fill="black"/>
<path d="M61.862 41.2891H59.2305V43.9206H61.862V41.2891Z" fill="black"/>
<path d="M63.1771 41.2891H61.8613V43.9206H63.1771V41.2891Z" fill="black"/>
<path d="M68.4402 41.2891H65.8086V43.9206H68.4402V41.2891Z" fill="black"/>
<path d="M71.073 41.2891H68.4414V43.9206H71.073V41.2891Z" fill="black"/>
<path d="M76.3347 41.2891H73.7031V43.9206H76.3347V41.2891Z" fill="black"/>
<path d="M89.4929 41.2891H86.8613V43.9206H89.4929V41.2891Z" fill="black"/>
<path d="M90.8099 41.2891H89.4941V43.9206H90.8099V41.2891Z" fill="black"/>
<path d="M10.5456 43.9219H7.91406V46.5535H10.5456V43.9219Z" fill="black"/>
<path d="M18.4402 43.9219H15.8086V46.5535H18.4402V43.9219Z" fill="black"/>
<path d="M26.3347 43.9219H23.7031V46.5535H26.3347V43.9219Z" fill="black"/>
<path d="M28.9675 43.9219H26.3359V46.5535H28.9675V43.9219Z" fill="black"/>
<path d="M35.5463 43.9219H34.2305V46.5535H35.5463V43.9219Z" fill="black"/>
<path d="M43.4402 43.9219H40.8086V46.5535H43.4402V43.9219Z" fill="black"/>
<path d="M46.073 43.9219H43.4414V46.5535H46.073V43.9219Z" fill="black"/>
<path d="M48.7038 43.9219H46.0723V46.5535H48.7038V43.9219Z" fill="black"/>
<path d="M51.3347 43.9219H48.7031V46.5535H51.3347V43.9219Z" fill="black"/>
<path d="M61.862 43.9219H59.2305V46.5535H61.862V43.9219Z" fill="black"/>
<path d="M63.1771 43.9219H61.8613V46.5535H63.1771V43.9219Z" fill="black"/>
<path d="M65.8093 43.9219H63.1777V46.5535H65.8093V43.9219Z" fill="black"/>
<path d="M71.073 43.9219H68.4414V46.5535H71.073V43.9219Z" fill="black"/>
<path d="M73.7038 43.9219H71.0723V46.5535H73.7038V43.9219Z" fill="black"/>
<path d="M76.3347 43.9219H73.7031V46.5535H76.3347V43.9219Z" fill="black"/>
<path d="M89.4929 43.9219H86.8613V46.5535H89.4929V43.9219Z" fill="black"/>
<path d="M13.1765 46.5527H10.5449V49.1843H13.1765V46.5527Z" fill="black"/>
<path d="M15.8093 46.5527H13.1777V49.1843H15.8093V46.5527Z" fill="black"/>
<path d="M21.073 46.5527H18.4414V49.1843H21.073V46.5527Z" fill="black"/>
<path d="M23.7038 46.5527H21.0723V49.1843H23.7038V46.5527Z" fill="black"/>
<path d="M31.5984 46.5527H28.9668V49.1843H31.5984V46.5527Z" fill="black"/>
<path d="M34.2292 46.5527H31.5977V49.1843H34.2292V46.5527Z" fill="black"/>
<path d="M40.8093 46.5527H38.1777V49.1843H40.8093V46.5527Z" fill="black"/>
<path d="M43.4402 46.5527H40.8086V49.1843H43.4402V46.5527Z" fill="black"/>
<path d="M48.7038 46.5527H46.0723V49.1843H48.7038V46.5527Z" fill="black"/>
<path d="M61.862 46.5527H59.2305V49.1843H61.862V46.5527Z" fill="black"/>
<path d="M63.1771 46.5527H61.8613V49.1843H63.1771V46.5527Z" fill="black"/>
<path d="M65.8093 46.5527H63.1777V49.1843H65.8093V46.5527Z" fill="black"/>
<path d="M71.073 46.5527H68.4414V49.1843H71.073V46.5527Z" fill="black"/>
<path d="M73.7038 46.5527H71.0723V49.1843H73.7038V46.5527Z" fill="black"/>
<path d="M78.9675 46.5527H76.3359V49.1843H78.9675V46.5527Z" fill="black"/>
<path d="M81.5984 46.5527H78.9668V49.1843H81.5984V46.5527Z" fill="black"/>
<path d="M86.862 46.5527H84.2305V49.1843H86.862V46.5527Z" fill="black"/>
<path d="M18.4402 49.1836H15.8086V51.8152H18.4402V49.1836Z" fill="black"/>
<path d="M21.073 49.1836H18.4414V51.8152H21.073V49.1836Z" fill="black"/>
<path d="M26.3347 49.1836H23.7031V51.8152H26.3347V49.1836Z" fill="black"/>
<path d="M28.9675 49.1836H26.3359V51.8152H28.9675V49.1836Z" fill="black"/>
<path d="M31.5984 49.1836H28.9668V51.8152H31.5984V49.1836Z" fill="black"/>
<path d="M40.8093 49.1836H38.1777V51.8152H40.8093V49.1836Z" fill="black"/>
<path d="M46.073 49.1836H43.4414V51.8152H46.073V49.1836Z" fill="black"/>
<path d="M48.7038 49.1836H46.0723V51.8152H48.7038V49.1836Z" fill="black"/>
<path d="M53.9675 49.1836H51.3359V51.8152H53.9675V49.1836Z" fill="black"/>
<path d="M65.8093 49.1836H63.1777V51.8152H65.8093V49.1836Z" fill="black"/>
<path d="M73.7038 49.1836H71.0723V51.8152H73.7038V49.1836Z" fill="black"/>
<path d="M78.9675 49.1836H76.3359V51.8152H78.9675V49.1836Z" fill="black"/>
<path d="M81.5984 49.1836H78.9668V51.8152H81.5984V49.1836Z" fill="black"/>
<path d="M89.4929 49.1836H86.8613V51.8152H89.4929V49.1836Z" fill="black"/>
<path d="M10.5456 51.8164H7.91406V54.448H10.5456V51.8164Z" fill="black"/>
<path d="M15.8093 51.8164H13.1777V54.448H15.8093V51.8164Z" fill="black"/>
<path d="M18.4402 51.8164H15.8086V54.448H18.4402V51.8164Z" fill="black"/>
<path d="M23.7038 51.8164H21.0723V54.448H23.7038V51.8164Z" fill="black"/>
<path d="M28.9675 51.8164H26.3359V54.448H28.9675V51.8164Z" fill="black"/>
<path d="M34.2292 51.8164H31.5977V54.448H34.2292V51.8164Z" fill="black"/>
<path d="M48.7038 51.8164H46.0723V54.448H48.7038V51.8164Z" fill="black"/>
<path d="M51.3347 51.8164H48.7031V54.448H51.3347V51.8164Z" fill="black"/>
<path d="M56.5984 51.8164H53.9668V54.448H56.5984V51.8164Z" fill="black"/>
<path d="M59.2292 51.8164H56.5977V54.448H59.2292V51.8164Z" fill="black"/>
<path d="M61.862 51.8164H59.2305V54.448H61.862V51.8164Z" fill="black"/>
<path d="M63.1771 51.8164H61.8613V54.448H63.1771V51.8164Z" fill="black"/>
<path d="M65.8093 51.8164H63.1777V54.448H65.8093V51.8164Z" fill="black"/>
<path d="M68.4402 51.8164H65.8086V54.448H68.4402V51.8164Z" fill="black"/>
<path d="M76.3347 51.8164H73.7031V54.448H76.3347V51.8164Z" fill="black"/>
<path d="M84.2292 51.8164H81.5977V54.448H84.2292V51.8164Z" fill="black"/>
<path d="M89.4929 51.8164H86.8613V54.448H89.4929V51.8164Z" fill="black"/>
<path d="M90.8099 51.8164H89.4941V54.448H90.8099V51.8164Z" fill="black"/>
<path d="M13.1765 54.4473H10.5449V55.7631H13.1765V54.4473Z" fill="black"/>
<path d="M15.8093 54.4473H13.1777V55.7631H15.8093V54.4473Z" fill="black"/>
<path d="M18.4402 54.4473H15.8086V55.7631H18.4402V54.4473Z" fill="black"/>
<path d="M21.073 54.4473H18.4414V55.7631H21.073V54.4473Z" fill="black"/>
<path d="M26.3347 54.4473H23.7031V55.7631H26.3347V54.4473Z" fill="black"/>
<path d="M31.5984 54.4473H28.9668V55.7631H31.5984V54.4473Z" fill="black"/>
<path d="M38.1765 54.4473H35.5449V55.7631H38.1765V54.4473Z" fill="black"/>
<path d="M40.8093 54.4473H38.1777V55.7631H40.8093V54.4473Z" fill="black"/>
<path d="M56.5984 54.4473H53.9668V55.7631H56.5984V54.4473Z" fill="black"/>
<path d="M65.8093 54.4473H63.1777V55.7631H65.8093V54.4473Z" fill="black"/>
<path d="M71.073 54.4473H68.4414V55.7631H71.073V54.4473Z" fill="black"/>
<path d="M73.7038 54.4473H71.0723V55.7631H73.7038V54.4473Z" fill="black"/>
<path d="M81.5984 54.4473H78.9668V55.7631H81.5984V54.4473Z" fill="black"/>
<path d="M84.2292 54.4473H81.5977V55.7631H84.2292V54.4473Z" fill="black"/>
<path d="M89.4929 54.4473H86.8613V55.7631H89.4929V54.4473Z" fill="black"/>
<path d="M10.5456 55.7637H7.91406V58.3953H10.5456V55.7637Z" fill="black"/>
<path d="M13.1765 55.7637H10.5449V58.3953H13.1765V55.7637Z" fill="black"/>
<path d="M18.4402 55.7637H15.8086V58.3953H18.4402V55.7637Z" fill="black"/>
<path d="M23.7038 55.7637H21.0723V58.3953H23.7038V55.7637Z" fill="black"/>
<path d="M34.2292 55.7637H31.5977V58.3953H34.2292V55.7637Z" fill="black"/>
<path d="M38.1765 55.7637H35.5449V58.3953H38.1765V55.7637Z" fill="black"/>
<path d="M46.073 55.7637H43.4414V58.3953H46.073V55.7637Z" fill="black"/>
<path d="M51.3347 55.7637H48.7031V58.3953H51.3347V55.7637Z" fill="black"/>
<path d="M61.862 55.7637H59.2305V58.3953H61.862V55.7637Z" fill="black"/>
<path d="M63.1771 55.7637H61.8613V58.3953H63.1771V55.7637Z" fill="black"/>
<path d="M73.7038 55.7637H71.0723V58.3953H73.7038V55.7637Z" fill="black"/>
<path d="M78.9675 55.7637H76.3359V58.3953H78.9675V55.7637Z" fill="black"/>
<path d="M86.862 55.7637H84.2305V58.3953H86.862V55.7637Z" fill="black"/>
<path d="M10.5456 58.3945H7.91406V61.0261H10.5456V58.3945Z" fill="black"/>
<path d="M18.4402 58.3945H15.8086V61.0261H18.4402V58.3945Z" fill="black"/>
<path d="M26.3347 58.3945H23.7031V61.0261H26.3347V58.3945Z" fill="black"/>
<path d="M31.5984 58.3945H28.9668V61.0261H31.5984V58.3945Z" fill="black"/>
<path d="M34.2292 58.3945H31.5977V61.0261H34.2292V58.3945Z" fill="black"/>
<path d="M35.5463 58.3945H34.2305V61.0261H35.5463V58.3945Z" fill="black"/>
<path d="M38.1765 58.3945H35.5449V61.0261H38.1765V58.3945Z" fill="black"/>
<path d="M53.9675 58.3945H51.3359V61.0261H53.9675V58.3945Z" fill="black"/>
<path d="M61.862 58.3945H59.2305V61.0261H61.862V58.3945Z" fill="black"/>
<path d="M65.8093 58.3945H63.1777V61.0261H65.8093V58.3945Z" fill="black"/>
<path d="M68.4402 58.3945H65.8086V61.0261H68.4402V58.3945Z" fill="black"/>
<path d="M71.073 58.3945H68.4414V61.0261H71.073V58.3945Z" fill="black"/>
<path d="M73.7038 58.3945H71.0723V61.0261H73.7038V58.3945Z" fill="black"/>
<path d="M81.5984 58.3945H78.9668V61.0261H81.5984V58.3945Z" fill="black"/>
<path d="M89.4929 58.3945H86.8613V61.0261H89.4929V58.3945Z" fill="black"/>
<path d="M10.5456 61.0254H7.91406V63.657H10.5456V61.0254Z" fill="black"/>
<path d="M13.1765 61.0254H10.5449V63.657H13.1765V61.0254Z" fill="black"/>
<path d="M21.073 61.0254H18.4414V63.657H21.073V61.0254Z" fill="black"/>
<path d="M23.7038 61.0254H21.0723V63.657H23.7038V61.0254Z" fill="black"/>
<path d="M34.2292 61.0254H31.5977V63.657H34.2292V61.0254Z" fill="black"/>
<path d="M40.8093 61.0254H38.1777V63.657H40.8093V61.0254Z" fill="black"/>
<path d="M43.4402 61.0254H40.8086V63.657H43.4402V61.0254Z" fill="black"/>
<path d="M46.073 61.0254H43.4414V63.657H46.073V61.0254Z" fill="black"/>
<path d="M48.7038 61.0254H46.0723V63.657H48.7038V61.0254Z" fill="black"/>
<path d="M59.2292 61.0254H56.5977V63.657H59.2292V61.0254Z" fill="black"/>
<path d="M61.862 61.0254H59.2305V63.657H61.862V61.0254Z" fill="black"/>
<path d="M68.4402 61.0254H65.8086V63.657H68.4402V61.0254Z" fill="black"/>
<path d="M76.3347 61.0254H73.7031V63.657H76.3347V61.0254Z" fill="black"/>
<path d="M84.2292 61.0254H81.5977V63.657H84.2292V61.0254Z" fill="black"/>
<path d="M89.4929 61.0254H86.8613V63.657H89.4929V61.0254Z" fill="black"/>
<path d="M90.8099 61.0254H89.4941V63.657H90.8099V61.0254Z" fill="black"/>
<path d="M10.5456 63.6582H7.91406V66.2898H10.5456V63.6582Z" fill="black"/>
<path d="M15.8093 63.6582H13.1777V66.2898H15.8093V63.6582Z" fill="black"/>
<path d="M21.073 63.6582H18.4414V66.2898H21.073V63.6582Z" fill="black"/>
<path d="M26.3347 63.6582H23.7031V66.2898H26.3347V63.6582Z" fill="black"/>
<path d="M34.2292 63.6582H31.5977V66.2898H34.2292V63.6582Z" fill="black"/>
<path d="M35.5463 63.6582H34.2305V66.2898H35.5463V63.6582Z" fill="black"/>
<path d="M43.4402 63.6582H40.8086V66.2898H43.4402V63.6582Z" fill="black"/>
<path d="M46.073 63.6582H43.4414V66.2898H46.073V63.6582Z" fill="black"/>
<path d="M48.7038 63.6582H46.0723V66.2898H48.7038V63.6582Z" fill="black"/>
<path d="M56.5984 63.6582H53.9668V66.2898H56.5984V63.6582Z" fill="black"/>
<path d="M61.862 63.6582H59.2305V66.2898H61.862V63.6582Z" fill="black"/>
<path d="M63.1771 63.6582H61.8613V66.2898H63.1771V63.6582Z" fill="black"/>
<path d="M73.7038 63.6582H71.0723V66.2898H73.7038V63.6582Z" fill="black"/>
<path d="M76.3347 63.6582H73.7031V66.2898H76.3347V63.6582Z" fill="black"/>
<path d="M81.5984 63.6582H78.9668V66.2898H81.5984V63.6582Z" fill="black"/>
<path d="M84.2292 63.6582H81.5977V66.2898H84.2292V63.6582Z" fill="black"/>
<path d="M89.4929 63.6582H86.8613V66.2898H89.4929V63.6582Z" fill="black"/>
<path d="M10.5456 66.2891H7.91406V68.9206H10.5456V66.2891Z" fill="black"/>
<path d="M21.073 66.2891H18.4414V68.9206H21.073V66.2891Z" fill="black"/>
<path d="M31.5984 66.2891H28.9668V68.9206H31.5984V66.2891Z" fill="black"/>
<path d="M34.2292 66.2891H31.5977V68.9206H34.2292V66.2891Z" fill="black"/>
<path d="M35.5463 66.2891H34.2305V68.9206H35.5463V66.2891Z" fill="black"/>
<path d="M40.8093 66.2891H38.1777V68.9206H40.8093V66.2891Z" fill="black"/>
<path d="M43.4402 66.2891H40.8086V68.9206H43.4402V66.2891Z" fill="black"/>
<path d="M48.7038 66.2891H46.0723V68.9206H48.7038V66.2891Z" fill="black"/>
<path d="M56.5984 66.2891H53.9668V68.9206H56.5984V66.2891Z" fill="black"/>
<path d="M61.862 66.2891H59.2305V68.9206H61.862V66.2891Z" fill="black"/>
<path d="M63.1771 66.2891H61.8613V68.9206H63.1771V66.2891Z" fill="black"/>
<path d="M65.8093 66.2891H63.1777V68.9206H65.8093V66.2891Z" fill="black"/>
<path d="M76.3347 66.2891H73.7031V68.9206H76.3347V66.2891Z" fill="black"/>
<path d="M78.9675 66.2891H76.3359V68.9206H78.9675V66.2891Z" fill="black"/>
<path d="M84.2292 66.2891H81.5977V68.9206H84.2292V66.2891Z" fill="black"/>
<path d="M86.862 66.2891H84.2305V68.9206H86.862V66.2891Z" fill="black"/>
<path d="M10.5456 68.9219H7.91406V71.5535H10.5456V68.9219Z" fill="black"/>
<path d="M18.4402 68.9219H15.8086V71.5535H18.4402V68.9219Z" fill="black"/>
<path d="M23.7038 68.9219H21.0723V71.5535H23.7038V68.9219Z" fill="black"/>
<path d="M26.3347 68.9219H23.7031V71.5535H26.3347V68.9219Z" fill="black"/>
<path d="M35.5463 68.9219H34.2305V71.5535H35.5463V68.9219Z" fill="black"/>
<path d="M40.8093 68.9219H38.1777V71.5535H40.8093V68.9219Z" fill="black"/>
<path d="M46.073 68.9219H43.4414V71.5535H46.073V68.9219Z" fill="black"/>
<path d="M48.7038 68.9219H46.0723V71.5535H48.7038V68.9219Z" fill="black"/>
<path d="M51.3347 68.9219H48.7031V71.5535H51.3347V68.9219Z" fill="black"/>
<path d="M53.9675 68.9219H51.3359V71.5535H53.9675V68.9219Z" fill="black"/>
<path d="M65.8093 68.9219H63.1777V71.5535H65.8093V68.9219Z" fill="black"/>
<path d="M71.073 68.9219H68.4414V71.5535H71.073V68.9219Z" fill="black"/>
<path d="M73.7038 68.9219H71.0723V71.5535H73.7038V68.9219Z" fill="black"/>
<path d="M76.3347 68.9219H73.7031V71.5535H76.3347V68.9219Z" fill="black"/>
<path d="M78.9675 68.9219H76.3359V71.5535H78.9675V68.9219Z" fill="black"/>
<path d="M81.5984 68.9219H78.9668V71.5535H81.5984V68.9219Z" fill="black"/>
<path d="M90.8099 68.9219H89.4941V71.5535H90.8099V68.9219Z" fill="black"/>
<path d="M31.5984 71.5527H28.9668V74.1843H31.5984V71.5527Z" fill="black"/>
<path d="M35.5463 71.5527H34.2305V74.1843H35.5463V71.5527Z" fill="black"/>
<path d="M51.3347 71.5527H48.7031V74.1843H51.3347V71.5527Z" fill="black"/>
<path d="M59.2292 71.5527H56.5977V74.1843H59.2292V71.5527Z" fill="black"/>
<path d="M61.862 71.5527H59.2305V74.1843H61.862V71.5527Z" fill="black"/>
<path d="M63.1771 71.5527H61.8613V74.1843H63.1771V71.5527Z" fill="black"/>
<path d="M71.073 71.5527H68.4414V74.1843H71.073V71.5527Z" fill="black"/>
<path d="M81.5984 71.5527H78.9668V74.1843H81.5984V71.5527Z" fill="black"/>
<path d="M84.2292 71.5527H81.5977V74.1843H84.2292V71.5527Z" fill="black"/>
<path d="M90.8099 71.5527H89.4941V74.1843H90.8099V71.5527Z" fill="black"/>
<path d="M10.5456 74.1836H7.91406V76.8152H10.5456V74.1836Z" fill="black"/>
<path d="M13.1765 74.1836H10.5449V76.8152H13.1765V74.1836Z" fill="black"/>
<path d="M15.8093 74.1836H13.1777V76.8152H15.8093V74.1836Z" fill="black"/>
<path d="M18.4402 74.1836H15.8086V76.8152H18.4402V74.1836Z" fill="black"/>
<path d="M21.073 74.1836H18.4414V76.8152H21.073V74.1836Z" fill="black"/>
<path d="M23.7038 74.1836H21.0723V76.8152H23.7038V74.1836Z" fill="black"/>
<path d="M26.3347 74.1836H23.7031V76.8152H26.3347V74.1836Z" fill="black"/>
<path d="M31.5984 74.1836H28.9668V76.8152H31.5984V74.1836Z" fill="black"/>
<path d="M35.5463 74.1836H34.2305V76.8152H35.5463V74.1836Z" fill="black"/>
<path d="M38.1765 74.1836H35.5449V76.8152H38.1765V74.1836Z" fill="black"/>
<path d="M40.8093 74.1836H38.1777V76.8152H40.8093V74.1836Z" fill="black"/>
<path d="M48.7038 74.1836H46.0723V76.8152H48.7038V74.1836Z" fill="black"/>
<path d="M56.5984 74.1836H53.9668V76.8152H56.5984V74.1836Z" fill="black"/>
<path d="M68.4402 74.1836H65.8086V76.8152H68.4402V74.1836Z" fill="black"/>
<path d="M71.073 74.1836H68.4414V76.8152H71.073V74.1836Z" fill="black"/>
<path d="M76.3347 74.1836H73.7031V76.8152H76.3347V74.1836Z" fill="black"/>
<path d="M81.5984 74.1836H78.9668V76.8152H81.5984V74.1836Z" fill="black"/>
<path d="M84.2292 74.1836H81.5977V76.8152H84.2292V74.1836Z" fill="black"/>
<path d="M86.862 74.1836H84.2305V76.8152H86.862V74.1836Z" fill="black"/>
<path d="M89.4929 74.1836H86.8613V76.8152H89.4929V74.1836Z" fill="black"/>
<path d="M10.5456 76.8164H7.91406V79.448H10.5456V76.8164Z" fill="black"/>
<path d="M26.3347 76.8164H23.7031V79.448H26.3347V76.8164Z" fill="black"/>
<path d="M38.1765 76.8164H35.5449V79.448H38.1765V76.8164Z" fill="black"/>
<path d="M46.073 76.8164H43.4414V79.448H46.073V76.8164Z" fill="black"/>
<path d="M48.7038 76.8164H46.0723V79.448H48.7038V76.8164Z" fill="black"/>
<path d="M56.5984 76.8164H53.9668V79.448H56.5984V76.8164Z" fill="black"/>
<path d="M61.862 76.8164H59.2305V79.448H61.862V76.8164Z" fill="black"/>
<path d="M63.1771 76.8164H61.8613V79.448H63.1771V76.8164Z" fill="black"/>
<path d="M65.8093 76.8164H63.1777V79.448H65.8093V76.8164Z" fill="black"/>
<path d="M68.4402 76.8164H65.8086V79.448H68.4402V76.8164Z" fill="black"/>
<path d="M71.073 76.8164H68.4414V79.448H71.073V76.8164Z" fill="black"/>
<path d="M81.5984 76.8164H78.9668V79.448H81.5984V76.8164Z" fill="black"/>
<path d="M84.2292 76.8164H81.5977V79.448H84.2292V76.8164Z" fill="black"/>
<path d="M86.862 76.8164H84.2305V79.448H86.862V76.8164Z" fill="black"/>
<path d="M90.8099 76.8164H89.4941V79.448H90.8099V76.8164Z" fill="black"/>
<path d="M10.5456 79.4473H7.91406V80.7631H10.5456V79.4473Z" fill="black"/>
<path d="M15.8093 79.4473H13.1777V80.7631H15.8093V79.4473Z" fill="black"/>
<path d="M18.4402 79.4473H15.8086V80.7631H18.4402V79.4473Z" fill="black"/>
<path d="M21.073 79.4473H18.4414V80.7631H21.073V79.4473Z" fill="black"/>
<path d="M26.3347 79.4473H23.7031V80.7631H26.3347V79.4473Z" fill="black"/>
<path d="M31.5984 79.4473H28.9668V80.7631H31.5984V79.4473Z" fill="black"/>
<path d="M38.1765 79.4473H35.5449V80.7631H38.1765V79.4473Z" fill="black"/>
<path d="M53.9675 79.4473H51.3359V80.7631H53.9675V79.4473Z" fill="black"/>
<path d="M56.5984 79.4473H53.9668V80.7631H56.5984V79.4473Z" fill="black"/>
<path d="M65.8093 79.4473H63.1777V80.7631H65.8093V79.4473Z" fill="black"/>
<path d="M71.073 79.4473H68.4414V80.7631H71.073V79.4473Z" fill="black"/>
<path d="M73.7038 79.4473H71.0723V80.7631H73.7038V79.4473Z" fill="black"/>
<path d="M76.3347 79.4473H73.7031V80.7631H76.3347V79.4473Z" fill="black"/>
<path d="M78.9675 79.4473H76.3359V80.7631H78.9675V79.4473Z" fill="black"/>
<path d="M81.5984 79.4473H78.9668V80.7631H81.5984V79.4473Z" fill="black"/>
<path d="M84.2292 79.4473H81.5977V80.7631H84.2292V79.4473Z" fill="black"/>
<path d="M89.4929 79.4473H86.8613V80.7631H89.4929V79.4473Z" fill="black"/>
<path d="M10.5456 80.7637H7.91406V83.3953H10.5456V80.7637Z" fill="black"/>
<path d="M15.8093 80.7637H13.1777V83.3953H15.8093V80.7637Z" fill="black"/>
<path d="M18.4402 80.7637H15.8086V83.3953H18.4402V80.7637Z" fill="black"/>
<path d="M21.073 80.7637H18.4414V83.3953H21.073V80.7637Z" fill="black"/>
<path d="M26.3347 80.7637H23.7031V83.3953H26.3347V80.7637Z" fill="black"/>
<path d="M31.5984 80.7637H28.9668V83.3953H31.5984V80.7637Z" fill="black"/>
<path d="M34.2292 80.7637H31.5977V83.3953H34.2292V80.7637Z" fill="black"/>
<path d="M35.5463 80.7637H34.2305V83.3953H35.5463V80.7637Z" fill="black"/>
<path d="M40.8093 80.7637H38.1777V83.3953H40.8093V80.7637Z" fill="black"/>
<path d="M43.4402 80.7637H40.8086V83.3953H43.4402V80.7637Z" fill="black"/>
<path d="M46.073 80.7637H43.4414V83.3953H46.073V80.7637Z" fill="black"/>
<path d="M51.3347 80.7637H48.7031V83.3953H51.3347V80.7637Z" fill="black"/>
<path d="M53.9675 80.7637H51.3359V83.3953H53.9675V80.7637Z" fill="black"/>
<path d="M56.5984 80.7637H53.9668V83.3953H56.5984V80.7637Z" fill="black"/>
<path d="M59.2292 80.7637H56.5977V83.3953H59.2292V80.7637Z" fill="black"/>
<path d="M61.862 80.7637H59.2305V83.3953H61.862V80.7637Z" fill="black"/>
<path d="M63.1771 80.7637H61.8613V83.3953H63.1771V80.7637Z" fill="black"/>
<path d="M71.073 80.7637H68.4414V83.3953H71.073V80.7637Z" fill="black"/>
<path d="M73.7038 80.7637H71.0723V83.3953H73.7038V80.7637Z" fill="black"/>
<path d="M81.5984 80.7637H78.9668V83.3953H81.5984V80.7637Z" fill="black"/>
<path d="M89.4929 80.7637H86.8613V83.3953H89.4929V80.7637Z" fill="black"/>
<path d="M90.8099 80.7637H89.4941V83.3953H90.8099V80.7637Z" fill="black"/>
<path d="M10.5456 83.3945H7.91406V86.0261H10.5456V83.3945Z" fill="black"/>
<path d="M15.8093 83.3945H13.1777V86.0261H15.8093V83.3945Z" fill="black"/>
<path d="M18.4402 83.3945H15.8086V86.0261H18.4402V83.3945Z" fill="black"/>
<path d="M21.073 83.3945H18.4414V86.0261H21.073V83.3945Z" fill="black"/>
<path d="M26.3347 83.3945H23.7031V86.0261H26.3347V83.3945Z" fill="black"/>
<path d="M31.5984 83.3945H28.9668V86.0261H31.5984V83.3945Z" fill="black"/>
<path d="M35.5463 83.3945H34.2305V86.0261H35.5463V83.3945Z" fill="black"/>
<path d="M43.4402 83.3945H40.8086V86.0261H43.4402V83.3945Z" fill="black"/>
<path d="M46.073 83.3945H43.4414V86.0261H46.073V83.3945Z" fill="black"/>
<path d="M48.7038 83.3945H46.0723V86.0261H48.7038V83.3945Z" fill="black"/>
<path d="M53.9675 83.3945H51.3359V86.0261H53.9675V83.3945Z" fill="black"/>
<path d="M61.862 83.3945H59.2305V86.0261H61.862V83.3945Z" fill="black"/>
<path d="M63.1771 83.3945H61.8613V86.0261H63.1771V83.3945Z" fill="black"/>
<path d="M65.8093 83.3945H63.1777V86.0261H65.8093V83.3945Z" fill="black"/>
<path d="M73.7038 83.3945H71.0723V86.0261H73.7038V83.3945Z" fill="black"/>
<path d="M76.3347 83.3945H73.7031V86.0261H76.3347V83.3945Z" fill="black"/>
<path d="M84.2292 83.3945H81.5977V86.0261H84.2292V83.3945Z" fill="black"/>
<path d="M86.862 83.3945H84.2305V86.0261H86.862V83.3945Z" fill="black"/>
<path d="M10.5456 86.0254H7.91406V88.657H10.5456V86.0254Z" fill="black"/>
<path d="M26.3347 86.0254H23.7031V88.657H26.3347V86.0254Z" fill="black"/>
<path d="M31.5984 86.0254H28.9668V88.657H31.5984V86.0254Z" fill="black"/>
<path d="M40.8093 86.0254H38.1777V88.657H40.8093V86.0254Z" fill="black"/>
<path d="M43.4402 86.0254H40.8086V88.657H43.4402V86.0254Z" fill="black"/>
<path d="M48.7038 86.0254H46.0723V88.657H48.7038V86.0254Z" fill="black"/>
<path d="M56.5984 86.0254H53.9668V88.657H56.5984V86.0254Z" fill="black"/>
<path d="M61.862 86.0254H59.2305V88.657H61.862V86.0254Z" fill="black"/>
<path d="M63.1771 86.0254H61.8613V88.657H63.1771V86.0254Z" fill="black"/>
<path d="M65.8093 86.0254H63.1777V88.657H65.8093V86.0254Z" fill="black"/>
<path d="M73.7038 86.0254H71.0723V88.657H73.7038V86.0254Z" fill="black"/>
<path d="M84.2292 86.0254H81.5977V88.657H84.2292V86.0254Z" fill="black"/>
<path d="M86.862 86.0254H84.2305V88.657H86.862V86.0254Z" fill="black"/>
<path d="M10.5456 88.6582H7.91406V91.2898H10.5456V88.6582Z" fill="black"/>
<path d="M13.1765 88.6582H10.5449V91.2898H13.1765V88.6582Z" fill="black"/>
<path d="M15.8093 88.6582H13.1777V91.2898H15.8093V88.6582Z" fill="black"/>
<path d="M18.4402 88.6582H15.8086V91.2898H18.4402V88.6582Z" fill="black"/>
<path d="M21.073 88.6582H18.4414V91.2898H21.073V88.6582Z" fill="black"/>
<path d="M23.7038 88.6582H21.0723V91.2898H23.7038V88.6582Z" fill="black"/>
<path d="M26.3347 88.6582H23.7031V91.2898H26.3347V88.6582Z" fill="black"/>
<path d="M31.5984 88.6582H28.9668V91.2898H31.5984V88.6582Z" fill="black"/>
<path d="M34.2292 88.6582H31.5977V91.2898H34.2292V88.6582Z" fill="black"/>
<path d="M35.5463 88.6582H34.2305V91.2898H35.5463V88.6582Z" fill="black"/>
<path d="M40.8093 88.6582H38.1777V91.2898H40.8093V88.6582Z" fill="black"/>
<path d="M46.073 88.6582H43.4414V91.2898H46.073V88.6582Z" fill="black"/>
<path d="M48.7038 88.6582H46.0723V91.2898H48.7038V88.6582Z" fill="black"/>
<path d="M51.3347 88.6582H48.7031V91.2898H51.3347V88.6582Z" fill="black"/>
<path d="M53.9675 88.6582H51.3359V91.2898H53.9675V88.6582Z" fill="black"/>
<path d="M59.2292 88.6582H56.5977V91.2898H59.2292V88.6582Z" fill="black"/>
<path d="M68.4402 88.6582H65.8086V91.2898H68.4402V88.6582Z" fill="black"/>
<path d="M71.073 88.6582H68.4414V91.2898H71.073V88.6582Z" fill="black"/>
<path d="M78.9675 88.6582H76.3359V91.2898H78.9675V88.6582Z" fill="black"/>
<path d="M89.4929 88.6582H86.8613V91.2898H89.4929V88.6582Z" fill="black"/>
</g>
</g>
</g>
<defs>
<clipPath id="clip0_206_3985">
<rect width="100" height="100" fill="white" transform="translate(0.0195312 0.5)"/>
</clipPath>
<clipPath id="clip1_206_3985">
<rect width="100" height="100" fill="white" transform="translate(0.0195312 0.5)"/>
</clipPath>
<clipPath id="clip2_206_3985">
<rect width="100" height="100" fill="white" transform="translate(0.0195312 0.5)"/>
</clipPath>
</defs>
</svg>
