<svg width="126" height="39" viewBox="0 0 126 39" fill="none" xmlns="http://www.w3.org/2000/svg">
<g clip-path="url(#clip0_804_2403)">
<path d="M62.8773 31.0534L62.8737 33.5192L53.5946 33.5277L53.5958 30.7085L53.4641 30.7038C51.6149 32.6236 48.8863 34.0853 45.8349 34.0853C42.0888 34.0853 38.1132 31.7996 38.1132 26.8204V14.8019C38.1132 14.1625 37.881 13.3849 37.1411 13.2474C37.1411 13.2474 35.0653 12.9164 34.875 12.8806V10.3338C35.0411 10.3216 44.4947 9.50947 44.7707 9.48522V24.5365C44.7707 27.8712 46.7594 29.3329 49.0713 29.3329C51.4299 29.3329 53.3255 27.6887 53.3255 25.1298V14.8019C53.3255 14.1625 53.0945 13.3849 52.3544 13.2474L50.0823 12.925L50.0829 10.3036C50.0829 10.3036 59.74 9.49764 59.9845 9.47398V28.6012L59.995 29.235C59.995 30.1489 60.3724 30.5665 60.7833 30.652C61.4647 30.7934 62.8773 31.0534 62.8773 31.0534ZM74.144 34.2793C66.5145 34.2793 62.3078 28.9327 62.3078 22.0337C62.3078 15.0421 67.0687 9.10072 74.6067 9.10072C82.2359 9.10072 86.4452 14.3559 86.4452 21.2567C86.4449 28.2477 81.681 34.2793 74.144 34.2793ZM74.375 12.757C70.6295 12.757 69.5653 16.3668 69.5653 21.2567C69.5653 28.886 72.295 30.6236 74.375 30.6236C78.1199 30.6236 79.1841 26.9236 79.1841 22.0337C79.1841 14.402 76.4562 12.757 74.375 12.757Z" fill="#101010"/>
<path d="M94.9729 14.0063C96.5651 11.2524 100.194 8.85701 103.88 9.48965L104.682 14.9915C102.187 14.8191 96.9302 16.0021 95.3794 19.9068L95.3758 29.2137C95.3758 30.1276 95.7466 30.5852 96.1641 30.6307L99.8195 31.0537L99.8027 33.5552H84.5494V31.1731L87.9324 30.6307C88.3484 30.5393 88.7183 30.1276 88.7183 29.2137L88.7198 14.872C88.7198 14.232 88.4885 13.4094 87.7486 13.3186L85.6507 12.9986C85.6507 12.9986 86.1236 13.1222 84.9932 12.8998L85.0001 10.2196C85.0001 10.2196 93.982 9.45357 94.2834 9.42931L94.8595 14.0075L94.9729 14.0063ZM123.869 30.6757C123.457 30.5943 123.08 30.1726 123.08 29.2586L123.087 17.9589C123.087 12.1001 119.842 9.66859 114.916 9.33999C112.068 9.15011 107.953 9.6677 105.561 10.7884L106.307 15.5091C108.895 14.3787 111.751 13.476 114.124 14.0897C115.687 14.494 116.647 15.5904 116.647 17.4558L116.653 18.879C116.521 18.879 116.016 18.8669 115.877 18.8669C109.363 18.879 102.959 20.9742 102.959 27.5083C102.959 31.3914 105.641 34.087 109.942 34.087C113.779 34.087 115.814 32.3506 117.017 30.9339L117.143 30.9392L117.141 33.562L125.966 33.5529L125.976 31.0877L123.869 30.6757ZM116.617 24.7157C116.617 27.6872 113.866 28.4908 111.957 28.4346C109.992 28.3776 109.222 27.1401 109.222 25.8526C109.222 23.9186 111.209 22.7101 116.626 22.7101L116.617 24.7157ZM25.9727 32.3666L25.9817 32.3405C30.9057 29.3228 34.1984 23.818 34.1984 17.2216C34.1984 4.51398 25.8713 0 17.1664 0C8.95092 0 0.0234375 6.37849 0.0234375 17.4665C0.0234375 30.1743 8.34878 34.835 17.0578 34.835C18.4264 34.835 19.757 34.6726 21.0337 34.3718C21.0337 34.3718 21.0526 34.3781 21.0648 34.3798C24.4961 40.4383 29.606 38.9722 30.9243 38.4945C30.9243 38.4945 30.7474 37.4283 30.4379 35.444C27.9728 35.3813 26.8744 34.1583 25.9727 32.3666ZM19.3835 30.303C18.6036 30.4926 17.8147 30.5665 17.0524 30.5665C12.9999 30.5665 8.14646 28.8369 8.14646 18.0417C8.14646 7.24922 13.2291 4.26909 17.2819 4.26909C21.3339 4.26909 26.0463 6.83752 26.0463 17.6312C26.0463 22.5241 25.0393 25.6355 23.5578 27.579C23.5357 27.5802 23.5171 27.5749 23.5171 27.5749C20.1472 23.278 15.7745 24.3075 14.7258 24.7742C14.7258 24.7742 14.8596 25.7597 15.137 27.5512C17.4501 27.5506 18.5955 28.736 19.3955 30.2669C19.3904 30.2786 19.3864 30.2907 19.3835 30.303Z" fill="#101010"/>
</g>
<defs>
<clipPath id="clip0_804_2403">
<rect width="126" height="39" fill="white"/>
</clipPath>
</defs>
</svg>
