<svg width="1326" height="536" viewBox="0 0 1326 536" fill="none" xmlns="http://www.w3.org/2000/svg">
<g clip-path="url(#clip0_206_2783)">
<mask id="mask0_206_2783" style="mask-type:luminance" maskUnits="userSpaceOnUse" x="0" y="0" width="1366" height="536">
<path d="M1366 0H0V536H1366V0Z" fill="white"/>
</mask>
<g mask="url(#mask0_206_2783)">
<path opacity="0.2" d="M1276.02 535.294C1276.02 535.294 1257 400.161 1087.01 387.85C917.013 375.539 810.024 357.075 807.648 244.232C805.272 131.389 722.884 -87.6602 475.373 -87.6602" stroke="#C8C8C8" stroke-width="2"/>
<path opacity="0.2" d="M1253.23 535.294C1253.23 535.294 1234.21 400.161 1064.22 387.85C894.222 375.539 787.233 357.075 784.857 244.232C782.481 131.389 700.093 -87.6602 452.582 -87.6602" stroke="#C8C8C8" stroke-width="2"/>
<path opacity="0.2" d="M1230.44 535.294C1230.44 535.294 1211.42 400.161 1041.43 387.85C871.433 375.539 764.444 357.075 762.068 244.232C759.692 131.389 677.304 -87.6602 429.793 -87.6602" stroke="#C8C8C8" stroke-width="2"/>
<path opacity="0.2" d="M1207.65 535.294C1207.65 535.294 1188.63 400.161 1018.64 387.85C848.642 375.539 741.653 357.075 739.277 244.232C736.901 131.389 654.513 -87.6602 407.002 -87.6602" stroke="#C8C8C8" stroke-width="2"/>
<path opacity="0.2" d="M1184.86 535.294C1184.86 535.294 1165.84 400.161 995.846 387.85C825.851 375.539 718.862 357.075 716.486 244.232C714.11 131.389 631.722 -87.6602 384.211 -87.6602" stroke="#C8C8C8" stroke-width="2"/>
<path opacity="0.2" d="M1162.07 535.294C1162.07 535.294 1143.05 400.161 973.057 387.85C803.062 375.539 696.073 357.075 693.697 244.232C691.321 131.389 608.933 -87.6602 361.422 -87.6602" stroke="#C8C8C8" stroke-width="2"/>
<path opacity="0.2" d="M1139.28 535.294C1139.28 535.294 1120.26 400.161 950.265 387.85C780.27 375.539 673.281 357.075 670.905 244.232C668.529 131.389 586.141 -87.6602 338.63 -87.6602" stroke="#C8C8C8" stroke-width="2"/>
<path opacity="0.2" d="M1116.49 535.294C1116.49 535.294 1097.47 400.161 927.475 387.85C757.48 375.539 650.491 357.075 648.115 244.232C645.739 131.389 563.351 -87.6602 315.84 -87.6602" stroke="#C8C8C8" stroke-width="2"/>
<path opacity="0.2" d="M1093.7 535.294C1093.7 535.294 1074.68 400.161 904.686 387.85C734.691 375.539 627.702 357.075 625.326 244.232C622.95 131.389 540.562 -87.6602 293.051 -87.6602" stroke="#C8C8C8" stroke-width="2"/>
<path opacity="0.2" d="M1070.91 535.294C1070.91 535.294 1051.89 400.161 881.895 387.85C711.9 375.539 604.911 357.075 602.535 244.232C600.159 131.389 517.771 -87.6602 270.26 -87.6602" stroke="#C8C8C8" stroke-width="2"/>
<path opacity="0.2" d="M1048.12 535.294C1048.12 535.294 1029.1 400.161 859.105 387.85C689.11 375.539 582.121 357.075 579.745 244.232C577.369 131.389 494.981 -87.6602 247.47 -87.6602" stroke="#C8C8C8" stroke-width="2"/>
<path opacity="0.2" d="M1025.33 535.294C1025.33 535.294 1006.31 400.161 836.315 387.85C666.32 375.539 559.331 357.075 556.955 244.232C554.579 131.389 472.191 -87.6602 224.68 -87.6602" stroke="#C8C8C8" stroke-width="2"/>
<path opacity="0.2" d="M1002.54 535.294C1002.54 535.294 983.519 400.161 813.524 387.85C643.529 375.539 536.54 357.075 534.164 244.232C531.788 131.389 449.4 -87.6602 201.889 -87.6602" stroke="#C8C8C8" stroke-width="2"/>
<path opacity="0.2" d="M979.75 535.294C979.75 535.294 960.729 400.161 790.734 387.85C620.739 375.539 513.75 357.075 511.374 244.232C508.998 131.389 426.61 -87.6602 179.099 -87.6602" stroke="#C8C8C8" stroke-width="2"/>
<path opacity="0.2" d="M956.959 535.294C956.959 535.294 937.938 400.161 767.943 387.85C597.948 375.539 490.959 357.075 488.583 244.232C486.207 131.389 403.819 -87.6602 156.308 -87.6602" stroke="#C8C8C8" stroke-width="2"/>
<path opacity="0.2" d="M934.169 535.294C934.169 535.294 915.148 400.161 745.153 387.85C575.158 375.539 468.169 357.075 465.793 244.232C463.417 131.389 381.029 -87.6602 133.518 -87.6602" stroke="#C8C8C8" stroke-width="2"/>
<path opacity="0.2" d="M911.378 535.294C911.378 535.294 892.357 400.161 722.362 387.85C552.367 375.539 445.379 357.075 443.003 244.232C440.627 131.389 358.239 -87.6602 110.728 -87.6602" stroke="#C8C8C8" stroke-width="2"/>
<path opacity="0.2" d="M888.587 535.294C888.587 535.294 869.566 400.161 699.571 387.85C529.576 375.539 422.587 357.075 420.211 244.232C417.835 131.389 335.448 -87.6602 87.9365 -87.6602" stroke="#C8C8C8" stroke-width="2"/>
<path opacity="0.2" d="M865.797 535.294C865.797 535.294 846.776 400.161 676.781 387.85C506.786 375.539 399.797 357.075 397.421 244.232C395.045 131.389 312.657 -87.6602 65.1465 -87.6602" stroke="#C8C8C8" stroke-width="2"/>
<path opacity="0.2" d="M843.007 535.294C843.007 535.294 823.986 400.161 653.991 387.85C483.996 375.539 377.007 357.075 374.631 244.232C372.255 131.389 289.867 -87.6602 42.3564 -87.6602" stroke="#C8C8C8" stroke-width="2"/>
<path opacity="0.2" d="M820.216 535.294C820.216 535.294 801.195 400.161 631.2 387.85C461.205 375.539 354.216 357.075 351.84 244.232C349.464 131.389 267.076 -87.6602 19.5654 -87.6602" stroke="#C8C8C8" stroke-width="2"/>
<path opacity="0.2" d="M797.426 535.294C797.426 535.294 778.405 400.161 608.41 387.85C438.415 375.539 331.426 357.075 329.05 244.232C326.674 131.389 244.286 -87.6602 -3.22461 -87.6602" stroke="#C8C8C8" stroke-width="2"/>
<path opacity="0.2" d="M774.635 535.294C774.635 535.294 755.614 400.161 585.619 387.85C415.624 375.539 308.635 357.075 306.259 244.232C303.883 131.389 221.495 -87.6602 -26.0156 -87.6602" stroke="#C8C8C8" stroke-width="2"/>
<path opacity="0.2" d="M751.845 535.294C751.845 535.294 732.824 400.161 562.829 387.85C392.834 375.539 285.845 357.075 283.469 244.232C281.093 131.389 198.705 -87.6602 -48.8057 -87.6602" stroke="#C8C8C8" stroke-width="2"/>
<path opacity="0.2" d="M729.055 535.294C729.055 535.294 710.034 400.161 540.039 387.85C370.044 375.539 263.055 357.075 260.679 244.232C258.303 131.389 175.915 -87.6602 -71.5957 -87.6602" stroke="#C8C8C8" stroke-width="2"/>
<path opacity="0.2" d="M706.264 535.294C706.264 535.294 687.243 400.161 517.248 387.85C347.253 375.539 240.264 357.075 237.888 244.232C235.512 131.389 153.124 -87.6602 -94.3867 -87.6602" stroke="#C8C8C8" stroke-width="2"/>
</g>
</g>
<defs>
<clipPath id="clip0_206_2783">
<rect width="1366" height="536" fill="white"/>
</clipPath>
</defs>
</svg>
