<svg width="15" height="15" viewBox="0 0 15 15" fill="none" xmlns="http://www.w3.org/2000/svg">
<g clip-path="url(#clip0_602_195)">
<g clip-path="url(#clip1_602_195)">
<g clip-path="url(#clip2_602_195)">
<path d="M8.22405 0.712535L9.91596 4.17421C9.97342 4.29246 10.0589 4.39491 10.1649 4.47268C10.2709 4.55045 10.3942 4.60119 10.5243 4.6205L14.3073 5.17542C14.4576 5.19783 14.5986 5.26181 14.7144 5.36012C14.8302 5.45843 14.9162 5.58717 14.9627 5.73178C15.0092 5.8764 15.0144 6.03114 14.9776 6.17853C14.9408 6.32592 14.8635 6.46009 14.7545 6.56588L12.017 9.25991C11.9228 9.35295 11.8525 9.46742 11.8122 9.59353C11.7718 9.71964 11.7626 9.85366 11.7853 9.98411L12.4317 13.7862C12.4585 13.9353 12.4429 14.0889 12.3867 14.2296C12.3305 14.3702 12.236 14.4923 12.1138 14.5819C11.9917 14.6715 11.8468 14.7251 11.6958 14.7364C11.5447 14.7478 11.3935 14.7165 11.2594 14.6461L7.87462 12.8501C7.75879 12.7886 7.62964 12.7565 7.49849 12.7565C7.36734 12.7565 7.23819 12.7886 7.12236 12.8501L3.74034 14.6461C3.60618 14.7165 3.45497 14.7478 3.30391 14.7364C3.15285 14.7251 3.00801 14.6715 2.88587 14.5819C2.76372 14.4923 2.66918 14.3702 2.613 14.2296C2.55681 14.0889 2.54123 13.9353 2.56804 13.7862L3.21439 9.98411C3.2371 9.85366 3.22787 9.71964 3.18752 9.59353C3.14716 9.46742 3.07687 9.35295 2.98265 9.25991L0.244266 6.56588C0.135236 6.46003 0.0579854 6.32579 0.021243 6.17833C-0.0154995 6.03087 -0.0102691 5.87608 0.0363432 5.73144C0.0829555 5.5868 0.169092 5.45808 0.285019 5.35983C0.400945 5.26157 0.542042 5.1977 0.692365 5.17542L4.47541 4.6205C4.60545 4.60119 4.72883 4.55045 4.83483 4.47268C4.94083 4.39491 5.02627 4.29246 5.08373 4.17421L6.77565 0.712535C6.84131 0.576234 6.94411 0.461231 7.07222 0.380748C7.20033 0.300264 7.34855 0.257568 7.49985 0.257568C7.65114 0.257568 7.79936 0.300264 7.92748 0.380748C8.05559 0.461231 8.15838 0.576234 8.22405 0.712535Z" fill="#FDC639"/>
</g>
</g>
</g>
<defs>
<clipPath id="clip0_602_195">
<rect width="15" height="15" fill="white"/>
</clipPath>
<clipPath id="clip1_602_195">
<rect width="15" height="15" fill="white"/>
</clipPath>
<clipPath id="clip2_602_195">
<rect width="15" height="14.484" fill="white" transform="translate(0 0.258057)"/>
</clipPath>
</defs>
</svg>
