<svg width="105" height="16" viewBox="0 0 105 16" fill="none" xmlns="http://www.w3.org/2000/svg">
<g clip-path="url(#clip0_802_400)">
<g clip-path="url(#clip1_802_400)">
<g clip-path="url(#clip2_802_400)">
<path d="M8.74456 0.821177L10.4365 4.28286C10.4939 4.4011 10.5794 4.50355 10.6854 4.58132C10.7914 4.65909 10.9148 4.70983 11.0448 4.72914L14.8278 5.28406C14.9781 5.30648 15.1191 5.37045 15.2349 5.46876C15.3507 5.56708 15.4367 5.69581 15.4832 5.84043C15.5297 5.98504 15.5349 6.13978 15.4981 6.28717C15.4613 6.43456 15.384 6.56873 15.275 6.67453L12.5376 9.36855C12.4433 9.46159 12.373 9.57606 12.3327 9.70217C12.2923 9.82829 12.2831 9.9623 12.3058 10.0928L12.9522 13.8948C12.979 14.0439 12.9634 14.1975 12.9072 14.3382C12.851 14.4789 12.7565 14.601 12.6343 14.6906C12.5122 14.7802 12.3674 14.8337 12.2163 14.845C12.0652 14.8564 11.914 14.8251 11.7799 14.7548L8.39513 12.9588C8.2793 12.8973 8.15015 12.8651 8.019 12.8651C7.88785 12.8651 7.7587 12.8973 7.64287 12.9588L4.26085 14.7548C4.12669 14.8251 3.97547 14.8564 3.82442 14.845C3.67336 14.8337 3.52852 14.7802 3.40637 14.6906C3.28423 14.601 3.18969 14.4789 3.1335 14.3382C3.07732 14.1975 3.06174 14.0439 3.08855 13.8948L3.7349 10.0928C3.7576 9.9623 3.74838 9.82829 3.70802 9.70217C3.66767 9.57606 3.59738 9.46159 3.50316 9.36855L0.764774 6.67453C0.655744 6.56867 0.578493 6.43443 0.541751 6.28697C0.505008 6.13952 0.510239 5.98472 0.556851 5.84009C0.603463 5.69545 0.689599 5.56673 0.805526 5.46847C0.921453 5.37021 1.06255 5.30634 1.21287 5.28406L4.99591 4.72914C5.12596 4.70983 5.24933 4.65909 5.35534 4.58132C5.46134 4.50355 5.54678 4.4011 5.60424 4.28286L7.29616 0.821177C7.36182 0.684876 7.46462 0.569873 7.59273 0.48939C7.72084 0.408907 7.86906 0.366211 8.02036 0.366211C8.17165 0.366211 8.31987 0.408907 8.44798 0.48939C8.57609 0.569873 8.67889 0.684876 8.74456 0.821177Z" fill="#F16700"/>
</g>
</g>
</g>
<g clip-path="url(#clip3_802_400)">
<g clip-path="url(#clip4_802_400)">
<g clip-path="url(#clip5_802_400)">
<path d="M31.0258 0.821177L32.7177 4.28286C32.7752 4.4011 32.8606 4.50355 32.9666 4.58132C33.0726 4.65909 33.196 4.70983 33.326 4.72914L37.1091 5.28406C37.2593 5.30648 37.4003 5.37045 37.5161 5.46876C37.6319 5.56708 37.718 5.69581 37.7645 5.84043C37.811 5.98504 37.8161 6.13978 37.7793 6.28717C37.7426 6.43456 37.6653 6.56873 37.5563 6.67453L34.8188 9.36855C34.7246 9.46159 34.6543 9.57606 34.6139 9.70217C34.5736 9.82829 34.5644 9.9623 34.5871 10.0928L35.2334 13.8948C35.2602 14.0439 35.2446 14.1975 35.1885 14.3382C35.1323 14.4789 35.0377 14.601 34.9156 14.6906C34.7934 14.7802 34.6486 14.8337 34.4975 14.845C34.3465 14.8564 34.1953 14.8251 34.0611 14.7548L30.6764 12.9588C30.5605 12.8973 30.4314 12.8651 30.3002 12.8651C30.1691 12.8651 30.04 12.8973 29.9241 12.9588L26.5421 14.7548C26.4079 14.8251 26.2567 14.8564 26.1057 14.845C25.9546 14.8337 25.8098 14.7802 25.6876 14.6906C25.5655 14.601 25.4709 14.4789 25.4148 14.3382C25.3586 14.1975 25.343 14.0439 25.3698 13.8948L26.0162 10.0928C26.0389 9.9623 26.0296 9.82829 25.9893 9.70217C25.9489 9.57606 25.8786 9.46159 25.7844 9.36855L23.046 6.67453C22.937 6.56867 22.8597 6.43443 22.823 6.28697C22.7863 6.13952 22.7915 5.98472 22.8381 5.84009C22.8847 5.69545 22.9708 5.56673 23.0868 5.46847C23.2027 5.37021 23.3438 5.30634 23.4941 5.28406L27.2772 4.72914C27.4072 4.70983 27.5306 4.65909 27.6366 4.58132C27.7426 4.50355 27.828 4.4011 27.8855 4.28286L29.5774 0.821177C29.6431 0.684876 29.7459 0.569873 29.874 0.48939C30.0021 0.408907 30.1503 0.366211 30.3016 0.366211C30.4529 0.366211 30.6011 0.408907 30.7292 0.48939C30.8573 0.569873 30.9601 0.684876 31.0258 0.821177Z" fill="#F16700"/>
</g>
</g>
</g>
<g clip-path="url(#clip6_802_400)">
<g clip-path="url(#clip7_802_400)">
<g clip-path="url(#clip8_802_400)">
<path d="M53.3032 0.821177L54.9951 4.28286C55.0525 4.4011 55.138 4.50355 55.244 4.58132C55.35 4.65909 55.4733 4.70983 55.6034 4.72914L59.3864 5.28406C59.5367 5.30648 59.6777 5.37045 59.7935 5.46876C59.9093 5.56708 59.9953 5.69581 60.0418 5.84043C60.0883 5.98504 60.0935 6.13978 60.0567 6.28717C60.0199 6.43456 59.9426 6.56873 59.8336 6.67453L57.0961 9.36855C57.0019 9.46159 56.9316 9.57606 56.8913 9.70217C56.8509 9.82829 56.8417 9.9623 56.8644 10.0928L57.5108 13.8948C57.5376 14.0439 57.522 14.1975 57.4658 14.3382C57.4096 14.4789 57.3151 14.601 57.1929 14.6906C57.0708 14.7802 56.9259 14.8337 56.7749 14.845C56.6238 14.8564 56.4726 14.8251 56.3385 14.7548L52.9537 12.9588C52.8379 12.8973 52.7087 12.8651 52.5776 12.8651C52.4464 12.8651 52.3173 12.8973 52.2015 12.9588L48.8194 14.7548C48.6853 14.8251 48.5341 14.8564 48.383 14.845C48.232 14.8337 48.0871 14.7802 47.965 14.6906C47.8428 14.601 47.7483 14.4789 47.6921 14.3382C47.6359 14.1975 47.6203 14.0439 47.6471 13.8948L48.2935 10.0928C48.3162 9.9623 48.307 9.82829 48.2666 9.70217C48.2263 9.57606 48.156 9.46159 48.0618 9.36855L45.3234 6.67453C45.2143 6.56867 45.1371 6.43443 45.1003 6.28697C45.0636 6.13952 45.0688 5.98472 45.1154 5.84009C45.1621 5.69545 45.2482 5.56673 45.3641 5.46847C45.48 5.37021 45.6211 5.30634 45.7715 5.28406L49.5545 4.72914C49.6846 4.70983 49.8079 4.65909 49.9139 4.58132C50.0199 4.50355 50.1054 4.4011 50.1628 4.28286L51.8547 0.821177C51.9204 0.684876 52.0232 0.569873 52.1513 0.48939C52.2794 0.408907 52.4277 0.366211 52.5789 0.366211C52.7302 0.366211 52.8785 0.408907 53.0066 0.48939C53.1347 0.569873 53.2375 0.684876 53.3032 0.821177Z" fill="#F16700"/>
</g>
</g>
</g>
<g clip-path="url(#clip9_802_400)">
<g clip-path="url(#clip10_802_400)">
<g clip-path="url(#clip11_802_400)">
<path d="M75.5844 0.821177L77.2763 4.28286C77.3338 4.4011 77.4192 4.50355 77.5252 4.58132C77.6312 4.65909 77.7546 4.70983 77.8846 4.72914L81.6677 5.28406C81.8179 5.30648 81.9589 5.37045 82.0747 5.46876C82.1905 5.56708 82.2766 5.69581 82.3231 5.84043C82.3696 5.98504 82.3747 6.13978 82.3379 6.28717C82.3012 6.43456 82.2239 6.56873 82.1149 6.67453L79.3774 9.36855C79.2832 9.46159 79.2129 9.57606 79.1725 9.70217C79.1322 9.82829 79.123 9.9623 79.1457 10.0928L79.792 13.8948C79.8188 14.0439 79.8032 14.1975 79.7471 14.3382C79.6909 14.4789 79.5963 14.601 79.4742 14.6906C79.352 14.7802 79.2072 14.8337 79.0561 14.845C78.9051 14.8564 78.7539 14.8251 78.6197 14.7548L75.235 12.9588C75.1191 12.8973 74.99 12.8651 74.8588 12.8651C74.7277 12.8651 74.5985 12.8973 74.4827 12.9588L71.1007 14.7548C70.9665 14.8251 70.8153 14.8564 70.6643 14.845C70.5132 14.8337 70.3684 14.7802 70.2462 14.6906C70.1241 14.601 70.0295 14.4789 69.9733 14.3382C69.9172 14.1975 69.9016 14.0439 69.9284 13.8948L70.5747 10.0928C70.5974 9.9623 70.5882 9.82829 70.5479 9.70217C70.5075 9.57606 70.4372 9.46159 70.343 9.36855L67.6046 6.67453C67.4956 6.56867 67.4183 6.43443 67.3816 6.28697C67.3449 6.13952 67.3501 5.98472 67.3967 5.84009C67.4433 5.69545 67.5294 5.56673 67.6454 5.46847C67.7613 5.37021 67.9024 5.30634 68.0527 5.28406L71.8358 4.72914C71.9658 4.70983 72.0892 4.65909 72.1952 4.58132C72.3012 4.50355 72.3866 4.4011 72.4441 4.28286L74.136 0.821177C74.2017 0.684876 74.3045 0.569873 74.4326 0.48939C74.5607 0.408907 74.7089 0.366211 74.8602 0.366211C75.0115 0.366211 75.1597 0.408907 75.2878 0.48939C75.4159 0.569873 75.5187 0.684876 75.5844 0.821177Z" fill="#F16700"/>
</g>
</g>
</g>
<g clip-path="url(#clip12_802_400)">
<g clip-path="url(#clip13_802_400)">
<g clip-path="url(#clip14_802_400)">
<path d="M97.8735 0.821177L99.5654 4.28286C99.6228 4.4011 99.7083 4.50355 99.8143 4.58132C99.9203 4.65909 100.044 4.70983 100.174 4.72914L103.957 5.28406C104.107 5.30648 104.248 5.37045 104.364 5.46876C104.48 5.56708 104.566 5.69581 104.612 5.84043C104.659 5.98504 104.664 6.13978 104.627 6.28717C104.59 6.43456 104.513 6.56873 104.404 6.67453L101.666 9.36855C101.572 9.46159 101.502 9.57606 101.462 9.70217C101.421 9.82829 101.412 9.9623 101.435 10.0928L102.081 13.8948C102.108 14.0439 102.092 14.1975 102.036 14.3382C101.98 14.4789 101.885 14.601 101.763 14.6906C101.641 14.7802 101.496 14.8337 101.345 14.845C101.194 14.8564 101.043 14.8251 100.909 14.7548L97.524 12.9588C97.4082 12.8973 97.2791 12.8651 97.1479 12.8651C97.0168 12.8651 96.8876 12.8973 96.7718 12.9588L93.3898 14.7548C93.2556 14.8251 93.1044 14.8564 92.9533 14.845C92.8023 14.8337 92.6574 14.7802 92.5353 14.6906C92.4131 14.601 92.3186 14.4789 92.2624 14.3382C92.2062 14.1975 92.1906 14.0439 92.2175 13.8948L92.8638 10.0928C92.8865 9.9623 92.8773 9.82829 92.8369 9.70217C92.7966 9.57606 92.7263 9.46159 92.6321 9.36855L89.8937 6.67453C89.7847 6.56867 89.7074 6.43443 89.6707 6.28697C89.6339 6.13952 89.6391 5.98472 89.6858 5.84009C89.7324 5.69545 89.8185 5.56673 89.9344 5.46847C90.0504 5.37021 90.1915 5.30634 90.3418 5.28406L94.1248 4.72914C94.2549 4.70983 94.3782 4.65909 94.4842 4.58132C94.5902 4.50355 94.6757 4.4011 94.7331 4.28286L96.4251 0.821177C96.4907 0.684876 96.5935 0.569873 96.7216 0.48939C96.8497 0.408907 96.998 0.366211 97.1493 0.366211C97.3006 0.366211 97.4488 0.408907 97.5769 0.48939C97.705 0.569873 97.8078 0.684876 97.8735 0.821177Z" fill="#F16700"/>
</g>
</g>
</g>
<defs>
<clipPath id="clip0_802_400">
<rect width="15" height="15" fill="white" transform="translate(0.519531 0.109375)"/>
</clipPath>
<clipPath id="clip1_802_400">
<rect width="15" height="15" fill="white" transform="translate(0.519531 0.109375)"/>
</clipPath>
<clipPath id="clip2_802_400">
<rect width="15" height="14.484" fill="white" transform="translate(0.519531 0.367188)"/>
</clipPath>
<clipPath id="clip3_802_400">
<rect width="15" height="15" fill="white" transform="translate(22.8008 0.109375)"/>
</clipPath>
<clipPath id="clip4_802_400">
<rect width="15" height="15" fill="white" transform="translate(22.8008 0.109375)"/>
</clipPath>
<clipPath id="clip5_802_400">
<rect width="15" height="14.484" fill="white" transform="translate(22.8008 0.367188)"/>
</clipPath>
<clipPath id="clip6_802_400">
<rect width="15" height="15" fill="white" transform="translate(45.0781 0.109375)"/>
</clipPath>
<clipPath id="clip7_802_400">
<rect width="15" height="15" fill="white" transform="translate(45.0781 0.109375)"/>
</clipPath>
<clipPath id="clip8_802_400">
<rect width="15" height="14.484" fill="white" transform="translate(45.0781 0.367188)"/>
</clipPath>
<clipPath id="clip9_802_400">
<rect width="15" height="15" fill="white" transform="translate(67.3594 0.109375)"/>
</clipPath>
<clipPath id="clip10_802_400">
<rect width="15" height="15" fill="white" transform="translate(67.3594 0.109375)"/>
</clipPath>
<clipPath id="clip11_802_400">
<rect width="15" height="14.484" fill="white" transform="translate(67.3594 0.367188)"/>
</clipPath>
<clipPath id="clip12_802_400">
<rect width="15" height="15" fill="white" transform="translate(89.6484 0.109375)"/>
</clipPath>
<clipPath id="clip13_802_400">
<rect width="15" height="15" fill="white" transform="translate(89.6484 0.109375)"/>
</clipPath>
<clipPath id="clip14_802_400">
<rect width="15" height="14.484" fill="white" transform="translate(89.6484 0.367188)"/>
</clipPath>
</defs>
</svg>
