<svg width="57" height="116" viewBox="0 0 57 116" fill="none" xmlns="http://www.w3.org/2000/svg">
<path d="M0.525709 113.842C0.438301 114.104 0.57979 114.387 0.841734 114.474L5.11035 115.899C5.3723 115.986 5.6555 115.845 5.74291 115.583C5.83032 115.321 5.68883 115.038 5.42688 114.95L1.63256 113.684L2.89868 109.89C2.98609 109.628 2.8446 109.344 2.58266 109.257C2.32072 109.17 2.03751 109.311 1.9501 109.573L0.525709 113.842ZM55.9854 59.2442L56.485 59.2624L55.9854 59.2442ZM1 1C0.767752 1.44279 0.767747 1.44278 0.767743 1.44278C0.767743 1.44278 0.76774 1.44278 0.76774 1.44278C0.76774 1.44278 0.767745 1.44278 0.767754 1.44279C0.767773 1.4428 0.76781 1.44282 0.767865 1.44285C0.767974 1.4429 0.768156 1.443 0.768409 1.44313C0.768915 1.4434 0.769708 1.44381 0.770786 1.44438C0.772943 1.44552 0.776242 1.44725 0.780673 1.44959C0.789534 1.45425 0.802921 1.46132 0.820749 1.47076C0.856407 1.48963 0.90983 1.518 0.980342 1.55568C1.12137 1.63105 1.33075 1.74366 1.60308 1.8921L2.08167 1.01406C1.80684 0.86426 1.59503 0.750336 1.45166 0.673719C1.37997 0.635411 1.3254 0.606428 1.2886 0.586951C1.27021 0.577212 1.25626 0.56985 1.24683 0.564886C1.24212 0.562404 1.23855 0.560522 1.23611 0.559242C1.23489 0.558602 1.23396 0.558113 1.23332 0.557774C1.233 0.557605 1.23275 0.557474 1.23257 0.55738C1.23248 0.557333 1.23241 0.557296 1.23235 0.557268C1.23233 0.557254 1.2323 0.557242 1.23229 0.557233C1.23228 0.557228 1.23227 0.557223 1.23226 0.557221C1.23226 0.557216 1.23225 0.557212 1 1ZM3.3449 2.85879C3.84975 3.1434 4.42074 3.46881 5.05062 3.8331L5.55126 2.96744C4.91808 2.60124 4.3439 2.27402 3.83599 1.98768L3.3449 2.85879ZM6.75967 4.83307C7.29807 5.15166 7.86568 5.49088 8.45951 5.84992L8.9769 4.99417C8.38028 4.63344 7.80996 4.29261 7.26893 3.97246L6.75967 4.83307ZM10.1518 6.88383C10.6979 7.22088 11.261 7.57186 11.8394 7.93628L12.3725 7.09019C11.7914 6.7241 11.2256 6.3715 10.6771 6.0329L10.1518 6.88383ZM13.5127 9.00119C14.0524 9.34809 14.6027 9.70529 15.1625 10.0724L15.7109 9.23626C15.1485 8.86739 14.5956 8.50852 14.0535 8.16001L13.5127 9.00119ZM16.8134 11.1664C17.3566 11.5299 17.9069 11.902 18.4634 12.2823L19.0276 11.4567C18.4685 11.0745 17.9154 10.7007 17.3697 10.3354L16.8134 11.1664ZM20.0822 13.4002C20.6172 13.7736 21.1567 14.154 21.6997 14.5412L22.2803 13.727C21.7344 13.3378 21.1922 12.9554 20.6545 12.5802L20.0822 13.4002ZM23.3113 15.7031C23.8376 16.0868 24.3663 16.4766 24.8967 16.8721L25.4946 16.0705C24.9612 15.6727 24.4295 15.2809 23.9004 14.8951L23.3113 15.7031ZM26.4788 18.066C26.9996 18.4637 27.5213 18.8668 28.043 19.2751L28.6593 18.4876C28.1344 18.0768 27.6096 17.6713 27.0857 17.2712L26.4788 18.066ZM29.592 20.5027C30.1052 20.9147 30.6177 21.3315 31.1288 21.7529L31.7649 20.9813C31.2504 20.5571 30.7345 20.1375 30.218 19.7229L29.592 20.5027ZM32.6429 23.0187C33.1451 23.4444 33.6451 23.8745 34.1423 24.3086L34.8001 23.5554C34.2991 23.1179 33.7953 22.6847 33.2896 22.2559L32.6429 23.0187ZM35.6204 25.6192C36.11 26.0601 36.5961 26.505 37.078 26.9536L37.7593 26.2217C37.2733 25.7692 36.7831 25.3206 36.2896 24.8761L35.6204 25.6192ZM38.511 28.3108C38.9862 28.7689 39.4564 29.2305 39.9211 29.6955L40.6285 28.9887C40.1593 28.5191 39.6845 28.0531 39.205 27.5908L38.511 28.3108ZM41.3006 31.1039C41.7581 31.5804 42.209 32.0602 42.6528 32.5431L43.3891 31.8664C42.9403 31.3781 42.4844 30.893 42.0221 30.4114L41.3006 31.1039ZM43.9706 34.0106C44.4052 34.5063 44.8315 35.0048 45.249 35.506L46.0174 34.866C45.5943 34.3581 45.1624 33.8531 44.7225 33.3514L43.9706 34.0106ZM46.4919 37.0405C46.8995 37.5584 47.297 38.0789 47.6834 38.6018L48.4876 38.0073C48.0949 37.4761 47.6913 36.9476 47.2778 36.4221L46.4919 37.0405ZM48.8279 40.2041C49.2031 40.7486 49.5658 41.2953 49.915 41.844L50.7586 41.3071C50.4026 40.7477 50.0332 40.1908 49.6514 39.6367L48.8279 40.2041ZM50.932 43.5139C51.2648 44.0863 51.5822 44.6606 51.8833 45.2363L52.7694 44.7729C52.4612 44.1834 52.1365 43.5961 51.7965 43.0113L50.932 43.5139ZM52.7486 46.994C53.0234 47.5897 53.2798 48.1866 53.5168 48.7845L54.4464 48.416C54.2024 47.8004 53.9387 47.1867 53.6566 46.5752L52.7486 46.994ZM54.1831 50.6251C54.3872 51.2487 54.5691 51.873 54.7278 52.4977L55.697 52.2515C55.5326 51.6042 55.3443 50.9583 55.1335 50.3141L54.1831 50.6251ZM55.1371 54.3961C55.2504 55.0375 55.338 55.6789 55.3988 56.3202L56.3943 56.2259C56.331 55.5571 56.2397 54.889 56.1218 54.2221L55.1371 54.3961ZM55.4992 58.2573C55.5019 58.5803 55.4975 58.9032 55.4857 59.226L56.485 59.2624C56.4974 58.9246 56.502 58.5867 56.4992 58.249L55.4992 58.2573ZM55.4857 59.226C55.4738 59.5522 55.4544 59.8784 55.4278 60.2046L56.4244 60.2861C56.4523 59.9451 56.4726 59.6039 56.485 59.2624L55.4857 59.226ZM55.1823 62.1559C55.0735 62.7994 54.9375 63.4424 54.7756 64.0847L55.7453 64.329C55.9134 63.6621 56.0549 62.9932 56.1683 62.3227L55.1823 62.1559ZM54.225 65.975C54.0206 66.5944 53.7932 67.2128 53.544 67.8298L54.4713 68.2043C54.7282 67.568 54.9632 66.9293 55.1747 66.2884L54.225 65.975ZM52.7461 69.6478C52.4662 70.2387 52.1673 70.8281 51.8504 71.4155L52.7305 71.8903C53.0553 71.2882 53.3621 70.6833 53.6498 70.0759L52.7461 69.6478ZM50.8678 73.1373C50.5286 73.7011 50.1737 74.2628 49.8041 74.8221L50.6383 75.3735C51.0154 74.8028 51.3779 74.2292 51.7247 73.6528L50.8678 73.1373ZM48.6737 76.4626C48.2905 76.9969 47.8946 77.5288 47.4869 78.058L48.279 78.6684C48.6935 78.1305 49.0962 77.5894 49.4864 77.0453L48.6737 76.4626ZM46.2423 79.6213C45.8227 80.1319 45.3928 80.6397 44.9533 81.1444L45.7075 81.8011C46.153 81.2895 46.5891 80.7744 47.0149 80.2562L46.2423 79.6213ZM43.6234 82.6317C43.1743 83.1211 42.7169 83.6074 42.2519 84.0903L42.9722 84.784C43.4426 84.2955 43.9055 83.8034 44.3603 83.3078L43.6234 82.6317ZM40.8511 85.5128C40.3794 85.9814 39.9013 86.4465 39.4173 86.908L40.1075 87.6317C40.5962 87.1657 41.0792 86.6958 41.5559 86.2222L40.8511 85.5128ZM37.9553 88.2755C37.4646 88.7259 36.969 89.1725 36.4693 89.615L37.1323 90.3637C37.6363 89.9173 38.1363 89.4668 38.6315 89.0123L37.9553 88.2755ZM34.959 90.9301C34.4517 91.3644 33.9411 91.7946 33.4279 92.2204L34.0664 92.99C34.5835 92.561 35.0981 92.1275 35.6094 91.6896L34.959 90.9301ZM31.8759 93.4886C31.3552 93.9078 30.8327 94.3222 30.3092 94.7319L30.9254 95.5194C31.4525 95.107 31.9786 94.6897 32.5029 94.2676L31.8759 93.4886ZM28.7198 95.9584C28.1857 96.365 27.6514 96.7664 27.1175 97.1624L27.7132 97.9655C28.2503 97.5672 28.7881 97.1633 29.3255 96.7541L28.7198 95.9584ZM25.5036 98.3444C24.9565 98.7401 24.4109 99.1299 23.8675 99.5135L24.4442 100.33C24.9906 99.9446 25.5394 99.5526 26.0897 99.1546L25.5036 98.3444ZM22.2254 100.659C21.6704 101.042 21.1187 101.418 20.5715 101.787L21.1305 102.616C21.6806 102.245 22.2351 101.867 22.7931 101.482L22.2254 100.659ZM18.8963 102.904C18.3306 103.277 17.7708 103.641 17.2181 103.998L17.7602 104.838C18.3156 104.48 18.8781 104.113 19.4467 103.739L18.8963 102.904ZM15.5387 105.07C14.9579 105.437 14.3868 105.793 13.8268 106.139L14.3526 106.99C14.9152 106.642 15.489 106.284 16.0726 105.915L15.5387 105.07ZM12.1106 107.189C11.5209 107.546 10.9465 107.89 10.3893 108.22L10.899 109.08C11.4587 108.748 12.0358 108.403 12.6283 108.045L12.1106 107.189ZM8.66066 109.233C8.0529 109.585 7.47178 109.918 6.92039 110.23L7.41346 111.1C7.96757 110.786 8.5515 110.452 9.16215 110.098L8.66066 109.233ZM5.16556 111.213C4.51646 111.572 3.92819 111.893 3.40845 112.173L3.88266 113.053C4.40557 112.771 4.99715 112.449 5.64968 112.088L5.16556 111.213ZM1.63096 113.114C1.35249 113.259 1.13832 113.369 0.994052 113.443C0.921916 113.479 0.867256 113.507 0.830769 113.525C0.812526 113.535 0.798827 113.542 0.789759 113.546C0.785225 113.548 0.781849 113.55 0.779642 113.551C0.778538 113.552 0.777726 113.552 0.777208 113.552C0.776949 113.553 0.776764 113.553 0.776652 113.553C0.776596 113.553 0.776558 113.553 0.776539 113.553C0.776529 113.553 0.776524 113.553 0.776524 113.553C0.776524 113.553 0.776527 113.553 0.776527 113.553C0.776531 113.553 0.776537 113.553 1 114C1.22346 114.447 1.22347 114.447 1.22348 114.447C1.22348 114.447 1.22349 114.447 1.2235 114.447C1.22352 114.447 1.22354 114.447 1.22357 114.447C1.22363 114.447 1.2237 114.447 1.22379 114.447C1.22397 114.447 1.22423 114.447 1.22456 114.447C1.22522 114.446 1.22617 114.446 1.22742 114.445C1.22991 114.444 1.23357 114.442 1.23839 114.44C1.24803 114.435 1.26231 114.428 1.28114 114.418C1.31879 114.399 1.37463 114.371 1.44797 114.334C1.59464 114.259 1.8113 114.148 2.09233 114.002L1.63096 113.114Z" fill="black"/>
</svg>
