<svg width="24" height="25" viewBox="0 0 24 25" fill="none" xmlns="http://www.w3.org/2000/svg">
<path d="M10.2303 18.431L18.7202 9.94092L17.3402 8.59095L10.2303 15.7009L6.63024 12.101L5.28025 13.4509L10.2303 18.431ZM12.0002 24.971C10.4017 24.9794 8.81867 24.6577 7.35025 24.0259C5.92241 23.4177 4.62409 22.5419 3.52525 21.4459C2.42922 20.3471 1.55349 19.0488 0.945247 17.621C0.313538 16.1525 -0.00817774 14.5695 0.0002471 12.971C-0.0102126 11.3625 0.311502 9.76929 0.945247 8.29096C1.55129 6.86635 2.42741 5.57255 3.52525 4.48096C4.62738 3.39276 5.92512 2.52251 7.35025 1.91596C8.81867 1.28422 10.4017 0.962497 12.0002 0.97095C13.6087 0.960491 15.2019 1.28221 16.6802 1.91596C18.1021 2.52031 19.3953 3.39094 20.4902 4.48096C21.5803 5.57585 22.4509 6.86907 23.0552 8.29096C23.689 9.76929 24.0107 11.3625 24.0002 12.971C24.0087 14.5695 23.687 16.1526 23.0552 17.621C22.4487 19.0461 21.5784 20.3438 20.4902 21.4459C19.3987 22.5438 18.1049 23.4199 16.6802 24.0259C15.2019 24.6597 13.6087 24.9814 12.0002 24.971ZM12.0002 23.171C13.3456 23.1956 14.6817 22.9433 15.9254 22.4298C17.1692 21.9163 18.2941 21.1526 19.2303 20.186C20.1903 19.2489 20.949 18.1255 21.4597 16.8849C21.9704 15.6443 22.2224 14.3124 22.2002 12.971C22.2253 11.6269 21.9747 10.2919 21.4639 9.0484C20.9531 7.80491 20.1929 6.6793 19.2303 5.74097C18.2919 4.7783 17.1663 4.01808 15.9228 3.50727C14.6793 2.99645 13.3443 2.74586 12.0002 2.77094C10.6588 2.7488 9.32694 3.00084 8.08631 3.51154C6.84567 4.02224 5.72238 4.78087 4.78525 5.74097C3.81867 6.67711 3.0549 7.80195 2.5414 9.04572C2.0279 10.2895 1.77562 11.6256 1.80025 12.971C1.77858 14.3137 2.03226 15.6466 2.54565 16.8875C3.05904 18.1284 3.82125 19.251 4.78525 20.186C5.7202 21.15 6.84275 21.9122 8.08366 22.4255C9.32457 22.9389 10.6575 23.1926 12.0002 23.171Z" fill="#09B14F"/>
</svg>
