<svg width="49" height="49" viewBox="0 0 49 49" fill="none" xmlns="http://www.w3.org/2000/svg">
<rect x="0.333984" y="0.5" width="48" height="48" rx="24" fill="#09B14F"/>
<g clip-path="url(#clip0_318_119)">
<path d="M12.4067 39.5C12.034 39.4995 11.6766 39.3512 11.413 39.0876C11.1495 38.824 11.0011 38.4667 11.0006 38.0939V12.8985C10.9998 12.8822 10.9998 12.8659 11.0006 12.8496C11.0006 12.8072 11.0006 12.7648 11.0006 12.7191C11.0025 11.8654 11.3427 11.0472 11.9467 10.4438C12.5507 9.84042 13.3693 9.50103 14.223 9.5H30.0239C30.3967 9.50052 30.754 9.64882 31.0176 9.91241C31.2812 10.176 31.4295 10.5333 31.43 10.9061V14.5387C31.4302 14.6984 31.4031 14.857 31.3498 15.0076H32.7585C33.1313 15.0078 33.4888 15.1559 33.7525 15.4194C34.0163 15.6829 34.1647 16.0402 34.1652 16.413V21.2267C34.1607 21.348 34.1093 21.4628 34.0219 21.547C33.9346 21.6311 33.8179 21.6782 33.6966 21.6782C33.5753 21.6782 33.4587 21.6311 33.3713 21.547C33.2839 21.4628 33.2325 21.348 33.228 21.2267V16.413C33.2279 16.2888 33.1784 16.1697 33.0905 16.0819C33.0025 15.9941 32.8834 15.9448 32.7591 15.9448H14.223C13.7985 15.9447 13.3781 15.8605 12.9863 15.6969C12.5945 15.5334 12.239 15.2938 11.9404 14.992V38.0939C11.9408 38.2182 11.9903 38.3372 12.0781 38.4251C12.166 38.513 12.2851 38.5625 12.4093 38.5628H32.7585C32.8827 38.5625 33.0017 38.5129 33.0894 38.4251C33.1772 38.3372 33.2265 38.2181 33.2267 38.0939V37.0837C33.2267 36.9593 33.2761 36.8401 33.3641 36.7521C33.452 36.6642 33.5713 36.6148 33.6956 36.6148C33.82 36.6148 33.9393 36.6642 34.0272 36.7521C34.1151 36.8401 34.1645 36.9593 34.1645 37.0837V38.0939C34.164 38.4667 34.0157 38.824 33.7521 39.0876C33.4886 39.3512 33.1312 39.4995 32.7585 39.5H12.4067ZM11.9378 12.7224C11.9394 13.3273 12.1803 13.907 12.6081 14.3347C13.0358 14.7625 13.6155 15.0035 14.2204 15.005H30.0239C30.1483 15.005 30.2677 14.9556 30.3557 14.8677C30.4437 14.7798 30.4933 14.6605 30.4935 14.5361V10.9061C30.4933 10.7817 30.4437 10.6624 30.3557 10.5745C30.2677 10.4866 30.1483 10.4372 30.0239 10.4372H14.223C13.6172 10.4379 13.0363 10.6788 12.6079 11.1073C12.1795 11.5357 11.9385 12.1165 11.9378 12.7224ZM29.9861 34.2943C29.0808 33.8293 27.5639 32.8713 27.5639 31.6798V28.6674L26.4735 28.1293V30.8372C26.7643 30.9469 27.0073 31.1552 27.1603 31.4258C27.3133 31.6963 27.3666 32.012 27.3108 32.3178C27.255 32.6236 27.0937 32.9001 26.855 33.0991C26.6163 33.2982 26.3154 33.4073 26.0045 33.4073C25.6937 33.4073 25.3927 33.2982 25.1541 33.0991C24.9154 32.9001 24.7541 32.6236 24.6983 32.3178C24.6425 32.012 24.6957 31.6963 24.8488 31.4258C25.0018 31.1552 25.2448 30.9469 25.5356 30.8372V27.8098C25.5358 27.7656 25.5422 27.7217 25.5545 27.6793L24.9441 27.378L33.8098 23.0085L42.5998 27.1824L40.0967 28.4867C40.1005 28.5107 40.1025 28.5349 40.1026 28.5591V31.6087C40.1026 32.7357 38.6372 33.7707 38.0072 34.1633C36.8478 34.9195 35.5085 35.3548 34.1261 35.4246C32.6796 35.3579 31.2658 34.972 29.9861 34.2943ZM28.5011 31.6798C28.5011 32.0763 29.0926 32.7813 30.4152 33.4609C31.5632 34.0679 32.8293 34.4182 34.1261 34.4874C35.3332 34.4193 36.5008 34.0335 37.5108 33.3689C38.5974 32.692 39.1654 31.972 39.1654 31.608V28.9654L33.8176 31.7522L28.5004 29.1304L28.5011 31.6798ZM25.6093 32.0783C25.6093 32.1557 25.6323 32.2313 25.6753 32.2957C25.7183 32.36 25.7794 32.4102 25.8509 32.4398C25.9224 32.4694 26.0011 32.4771 26.077 32.462C26.1529 32.4469 26.2226 32.4097 26.2773 32.355C26.3321 32.3002 26.3693 32.2305 26.3844 32.1546C26.3995 32.0787 26.3918 32 26.3621 31.9285C26.3325 31.857 26.2824 31.7959 26.218 31.7529C26.1537 31.7099 26.078 31.687 26.0006 31.687C25.8969 31.687 25.7973 31.7282 25.7239 31.8016C25.6506 31.875 25.6093 31.9745 25.6093 32.0783ZM27.0617 27.3748L33.8058 30.7009L40.4945 27.2143L33.8169 24.0435L27.0617 27.3748ZM15.9063 13.3674C15.7819 13.3674 15.6627 13.318 15.5747 13.2301C15.4868 13.1421 15.4374 13.0228 15.4374 12.8985C15.4374 12.7741 15.4868 12.6548 15.5747 12.5669C15.6627 12.479 15.7819 12.4296 15.9063 12.4296H28.0322C28.1565 12.4296 28.2758 12.479 28.3637 12.5669C28.4517 12.6548 28.5011 12.7741 28.5011 12.8985C28.5011 13.0228 28.4517 13.1421 28.3637 13.2301C28.2758 13.318 28.1565 13.3674 28.0322 13.3674H15.9063Z" fill="white"/>
</g>
<defs>
<clipPath id="clip0_318_119">
<rect width="31.5985" height="30" fill="white" transform="translate(11 9.5)"/>
</clipPath>
</defs>
</svg>
