<svg width="48" height="49" viewBox="0 0 48 49" fill="none" xmlns="http://www.w3.org/2000/svg">
<rect y="0.5" width="48" height="48" rx="24" fill="#09B14F"/>
<g clip-path="url(#clip0_318_107)">
<path d="M13.2971 39.5007C12.2835 39.4995 11.3118 39.0963 10.595 38.3796C9.87833 37.6628 9.47515 36.6911 9.47394 35.6775V33.1816C9.47391 33.0897 9.5005 32.9998 9.55051 32.9227C9.60051 32.8456 9.67177 32.7847 9.75569 32.7473C9.8269 32.707 9.90735 32.6858 9.98917 32.6859H11.9301V21.9868C11.9301 21.8607 11.9802 21.7398 12.0693 21.6506C12.1585 21.5614 12.2794 21.5114 12.4055 21.5114C12.5316 21.5114 12.6526 21.5614 12.7417 21.6506C12.8309 21.7398 12.881 21.8607 12.881 21.9868V32.6859H25.9919V35.6573C25.9919 36.4191 26.2945 37.1496 26.8332 37.6883C27.3718 38.2269 28.1024 38.5296 28.8641 38.5296C29.6259 38.5296 30.3565 38.2269 30.8951 37.6883C31.4338 37.1496 31.7364 36.4191 31.7364 35.6573V13.8697C31.7362 13.3642 31.8365 12.8637 32.0315 12.3973C32.2266 11.931 32.5125 11.5081 32.8725 11.1533H18.8237C18.6976 11.1533 18.5767 11.1032 18.4875 11.0141C18.3984 10.9249 18.3483 10.804 18.3483 10.6779C18.3483 10.5518 18.3984 10.4308 18.4875 10.3417C18.5767 10.2525 18.6976 10.2024 18.8237 10.2024H34.4762C34.7504 10.1211 35.0328 10.071 35.3182 10.0531C35.3462 10.0479 35.3745 10.0453 35.403 10.0452H35.5615C35.5892 10.0454 35.617 10.048 35.6443 10.0531C36.6143 10.1157 37.5241 10.5449 38.1893 11.2536C38.8545 11.9624 39.2251 12.8977 39.2261 13.8697V15.9084H32.6899V35.6573C32.6884 36.6491 32.3021 37.6016 31.6124 38.3143C30.9226 39.0269 29.9832 39.444 28.992 39.4778C28.9456 39.4925 28.8972 39.5 28.8485 39.5L13.2971 39.5007ZM10.4274 35.6775C10.429 36.4381 10.7318 37.1671 11.2696 37.705C11.8075 38.2428 12.5365 38.5456 13.2971 38.5472H26.3689C25.9529 38.1889 25.6192 37.745 25.3905 37.246C25.1618 36.7469 25.0435 36.2043 25.0436 35.6554V33.6336H10.4248L10.4274 35.6775ZM38.2759 14.9582V13.8697C38.2873 13.4957 38.2235 13.1233 38.0883 12.7745C37.9531 12.4257 37.7492 12.1076 37.4888 11.8391C37.2283 11.5705 36.9166 11.357 36.5721 11.2113C36.2276 11.0655 35.8573 10.9903 35.4832 10.9903C35.1091 10.9903 34.7388 11.0655 34.3943 11.2113C34.0498 11.357 33.7381 11.5705 33.4776 11.8391C33.2172 12.1076 33.0133 12.4257 32.8781 12.7745C32.7429 13.1233 32.6791 13.4957 32.6905 13.8697V14.9588L38.2759 14.9582ZM19.5887 25.5888L9.38981 15.5073C8.99947 15.1181 8.77896 14.5903 8.77639 14.0391C8.77382 13.4879 8.98942 12.9581 9.37611 12.5653L11.799 10.117C11.9909 9.92215 12.2195 9.7673 12.4716 9.6614C12.7237 9.5555 12.9943 9.50064 13.2677 9.50001H13.2782C13.5497 9.49926 13.8187 9.55203 14.0698 9.65533C14.3209 9.75862 14.5492 9.91039 14.7417 10.102L24.9399 20.1809C25.2106 20.4483 25.4708 21.0111 25.3502 23.1542C25.2849 24.2695 25.1486 25.2888 25.1434 25.3325L25.0945 25.6867L24.7404 25.7382C24.6973 25.7447 23.6792 25.8934 22.5647 25.9665C22.1427 25.9938 21.782 26.0062 21.4716 26.0062C20.2116 26.0069 19.8053 25.8008 19.5881 25.5862L19.5887 25.5888ZM20.2527 24.9053C20.2872 24.9282 20.6674 25.144 22.5666 25.0136C23.2325 24.968 23.8664 24.8943 24.246 24.846C24.2903 24.4671 24.3582 23.8312 24.3973 23.1653C24.5095 21.2661 24.2903 20.8866 24.2669 20.8526L23.3055 19.9024L19.2744 23.9362L20.2527 24.9053ZM18.5961 23.2677L22.6299 19.2339L15.911 12.5946C15.8989 12.6102 15.8859 12.625 15.8719 12.639L11.8799 16.6304L18.5961 23.2677ZM13.2742 10.4509C13.1258 10.4512 12.9788 10.4809 12.8419 10.5383C12.705 10.5957 12.5809 10.6797 12.4766 10.7855L10.0511 13.2325C9.84029 13.4457 9.72269 13.7338 9.72415 14.0337C9.72562 14.3335 9.84604 14.6205 10.059 14.8316L11.2035 15.9625L15.1988 11.9672C15.2118 11.9543 15.2256 11.9421 15.2399 11.9307L14.0732 10.7783C13.8633 10.5691 13.579 10.4518 13.2827 10.4522L13.2742 10.4509Z" fill="white"/>
</g>
<defs>
<clipPath id="clip0_318_107">
<rect width="30.452" height="30" fill="white" transform="translate(8.77441 9.5)"/>
</clipPath>
</defs>
</svg>
