<svg width="48" height="49" viewBox="0 0 48 49" fill="none" xmlns="http://www.w3.org/2000/svg">
<rect y="0.5" width="48" height="48" rx="24" fill="#09B14F"/>
<g clip-path="url(#clip0_318_127)">
<path d="M18.3129 39.4996C17.9237 39.499 17.5506 39.3442 17.2754 39.069C17.0002 38.7938 16.8454 38.4207 16.8449 38.0315V35.5435C16.8452 35.1542 17 34.7809 17.2752 34.5056C17.5504 34.2302 17.9236 34.0753 18.3129 34.0748H21.4838L16.3525 28.093C15.9154 28.27 15.4422 28.3395 14.9727 28.2955C14.5033 28.2515 14.0512 28.0954 13.6546 27.8404C13.258 27.5853 12.9284 27.2388 12.6937 26.8298C12.4589 26.4209 12.3257 25.9615 12.3055 25.4904C12.2852 25.0193 12.3783 24.5502 12.5771 24.1226C12.7758 23.695 13.0744 23.3214 13.4476 23.0332C13.8208 22.745 14.2578 22.5506 14.7218 22.4665C15.1857 22.3823 15.6631 22.4108 16.1138 22.5496L22.8273 14.5109L22.3147 14.0354C21.7997 13.5775 21.4876 12.9337 21.4473 12.2458C21.4273 11.9051 21.4746 11.5639 21.5865 11.2415C21.6984 10.9191 21.8727 10.622 22.0994 10.367C22.3262 10.1119 22.6009 9.9041 22.908 9.75528C23.2151 9.60645 23.5485 9.51957 23.8891 9.49958C24.5771 9.45922 25.2529 9.69381 25.7679 10.1517L28.1901 12.3411C28.2339 12.3805 28.2706 12.4273 28.2984 12.4793C29.5003 12.0451 30.8011 11.9622 32.0485 12.2403C33.2958 12.5184 34.4382 13.1461 35.3418 14.0498L35.6999 14.4078L26.2277 23.9576L25.8671 23.6022C24.884 22.6341 24.2225 21.387 23.9723 20.0302C23.7222 18.6733 23.8955 17.2724 24.4688 16.0174C24.4363 15.9991 24.4059 15.9772 24.3781 15.9522L23.574 15.2041L17.0386 23.0302C17.3807 23.2925 17.661 23.6269 17.8596 24.0096C18.0582 24.3922 18.1702 24.8139 18.1877 25.2447C18.2053 25.6754 18.1279 26.1048 17.9611 26.5023C17.7943 26.8999 17.5422 27.2559 17.2225 27.5452L22.7007 33.9333V26.4267C22.7008 26.3746 22.7096 26.3227 22.7268 26.2735V26.1763C22.7274 25.8462 22.8589 25.5297 23.0926 25.2965C23.3263 25.0633 23.643 24.9324 23.9731 24.9326H29.3862C29.5875 24.9328 29.7805 25.0128 29.9228 25.1551C30.0651 25.2975 30.1451 25.4905 30.1453 25.6917V26.7489H30.2001C30.4114 26.7444 30.616 26.8238 30.7689 26.9697C30.9218 27.1157 31.0107 27.3163 31.016 27.5276V34.0754H32.1899C32.9093 34.0754 33.5992 34.3612 34.1078 34.8699C34.6165 35.3785 34.9023 36.0685 34.9023 36.7878C34.9023 37.5072 34.6165 38.1971 34.1078 38.7058C33.5992 39.2144 32.9093 39.5002 32.1899 39.5002L18.3129 39.4996ZM17.8623 35.5435V38.0315C17.8623 38.0907 17.8739 38.1493 17.8966 38.204C17.9192 38.2587 17.9524 38.3083 17.9943 38.3502C18.0361 38.392 18.0858 38.4252 18.1405 38.4479C18.1951 38.4705 18.2537 38.4822 18.3129 38.4822H32.1866C32.4093 38.4822 32.6298 38.4383 32.8355 38.3531C33.0412 38.2679 33.2282 38.143 33.3856 37.9855C33.5431 37.8281 33.668 37.6411 33.7532 37.4354C33.8384 37.2297 33.8823 37.0092 33.8823 36.7865C33.8823 36.5638 33.8384 36.3434 33.7532 36.1376C33.668 35.9319 33.5431 35.745 33.3856 35.5875C33.2282 35.4301 33.0412 35.3052 32.8355 35.2199C32.6298 35.1347 32.4093 35.0909 32.1866 35.0909H18.3129C18.2536 35.091 18.1949 35.1027 18.1401 35.1255C18.0854 35.1483 18.0356 35.1817 17.9938 35.2237C17.9519 35.2658 17.9187 35.3157 17.8962 35.3705C17.8736 35.4254 17.8621 35.4842 17.8623 35.5435ZM29.9927 34.0748V27.7187H29.6177C29.5411 27.7441 29.461 27.7571 29.3803 27.7572H23.9731C23.8881 27.7571 23.8033 27.7484 23.7201 27.7311V34.0748H29.9927ZM13.316 25.3643C13.316 25.7458 13.4291 26.1186 13.641 26.4358C13.8529 26.7529 14.1541 27.0001 14.5064 27.146C14.8588 27.292 15.2466 27.3302 15.6207 27.2558C15.9948 27.1814 16.3384 26.9977 16.6081 26.728C16.8778 26.4583 17.0615 26.1147 17.1359 25.7406C17.2103 25.3665 17.1721 24.9787 17.0261 24.6264C16.8802 24.274 16.633 23.9728 16.3158 23.7609C15.9987 23.549 15.6259 23.4359 15.2444 23.4359C14.7331 23.4364 14.2429 23.6397 13.8814 24.0013C13.5198 24.3628 13.3165 24.853 13.316 25.3643ZM23.7455 26.1763V26.5135C23.7457 26.5734 23.7696 26.6309 23.812 26.6733C23.8544 26.7157 23.9119 26.7396 23.9718 26.7398H29.124V25.9493H23.9731C23.9433 25.9493 23.9137 25.9551 23.8861 25.9664C23.8585 25.9778 23.8334 25.9945 23.8122 26.0156C23.7911 26.0367 23.7743 26.0617 23.7629 26.0893C23.7514 26.1169 23.7455 26.1464 23.7455 26.1763ZM24.8784 18.8107C24.8744 20.165 25.3559 21.476 26.2355 22.5059L34.2507 14.4307C33.4176 13.734 32.4031 13.2894 31.3261 13.1491C30.2492 13.0087 29.1546 13.1783 28.1707 13.6381C27.1869 14.0979 26.3545 14.8288 25.7713 15.745C25.1882 16.6611 24.8784 17.7246 24.8784 18.8107ZM22.8644 11.0465C22.5862 11.3598 22.4436 11.7707 22.4681 12.1891C22.4925 12.6074 22.682 12.9989 22.9949 13.2776L23.0034 13.2854L24.9703 15.1115C25.5688 14.2065 26.3757 13.4584 27.3234 12.93L25.0916 10.9122C24.7777 10.6351 24.3669 10.4937 23.949 10.5189C23.5311 10.5441 23.1402 10.7338 22.8618 11.0465H22.8644ZM19.7471 37.3161C19.6259 37.2971 19.5154 37.2355 19.4357 37.1422C19.3559 37.049 19.3121 36.9304 19.3121 36.8077C19.3121 36.685 19.3559 36.5664 19.4357 36.4732C19.5154 36.38 19.6259 36.3183 19.7471 36.2993H30.761C30.8829 36.3174 30.9943 36.3787 31.0748 36.472C31.1553 36.5653 31.1996 36.6845 31.1996 36.8077C31.1996 36.931 31.1553 37.0501 31.0748 37.1434C30.9943 37.2368 30.8829 37.298 30.761 37.3161H19.7471Z" fill="white"/>
</g>
<defs>
<clipPath id="clip0_318_127">
<rect width="23.4026" height="30" fill="white" transform="translate(12.2988 9.5)"/>
</clipPath>
</defs>
</svg>
