<svg width="49" height="49" viewBox="0 0 49 49" fill="none" xmlns="http://www.w3.org/2000/svg">
<rect x="0.666016" y="0.5" width="48" height="48" rx="24" fill="#09B14F"/>
<g clip-path="url(#clip0_318_113)">
<mask id="mask0_318_113" style="mask-type:luminance" maskUnits="userSpaceOnUse" x="10" y="9" width="30" height="31">
<path d="M39.1852 9.5H10.1465V39.5H39.1852V9.5Z" fill="white"/>
</mask>
<g mask="url(#mask0_318_113)">
<path d="M38.7247 39.5006H10.6069C10.4848 39.5006 10.3677 39.4521 10.2813 39.3658C10.195 39.2794 10.1465 39.1623 10.1465 39.0402V16.9067C10.1465 16.7846 10.195 16.6675 10.2813 16.5812C10.3677 16.4948 10.4848 16.4463 10.6069 16.4463H13.9063C14.0284 16.4463 14.1455 16.4948 14.2318 16.5812C14.3182 16.6675 14.3667 16.7846 14.3667 16.9067C14.3667 17.0288 14.3182 17.146 14.2318 17.2323C14.1455 17.3187 14.0284 17.3672 13.9063 17.3672H11.0667V38.5804H38.2624V17.3672H35.3471C35.225 17.3672 35.1079 17.3187 35.0216 17.2323C34.9352 17.146 34.8867 17.0288 34.8867 16.9067C34.8867 16.7846 34.9352 16.6675 35.0216 16.5812C35.1079 16.4948 35.225 16.4463 35.3471 16.4463H38.7247C38.8469 16.4463 38.964 16.4948 39.0503 16.5812C39.1367 16.6675 39.1852 16.7846 39.1852 16.9067V39.0402C39.1852 39.1623 39.1367 39.2794 39.0503 39.3658C38.964 39.4521 38.8469 39.5006 38.7247 39.5006Z" fill="white"/>
<path d="M24.7036 38.963C24.6594 38.9633 24.6155 38.9571 24.5731 38.9448L13.9114 35.832C13.8158 35.804 13.7318 35.7458 13.672 35.6661C13.6123 35.5864 13.58 35.4894 13.5801 35.3898V9.96088C13.5802 9.88965 13.5968 9.81942 13.6286 9.7557C13.6604 9.69198 13.7066 9.63651 13.7635 9.59365C13.8204 9.5508 13.8864 9.52172 13.9564 9.50872C14.0265 9.49571 14.0986 9.49913 14.167 9.5187L24.8327 12.6309C24.9283 12.6588 25.0123 12.717 25.072 12.7967C25.1318 12.8765 25.164 12.9734 25.164 13.073V38.5033C25.164 38.6254 25.1155 38.7425 25.0291 38.8288C24.9428 38.9152 24.8257 38.963 24.7036 38.963ZM14.5003 35.0448L24.2431 37.8896V13.4194L14.5009 10.5746L14.5003 35.0448Z" fill="white"/>
<path d="M24.687 38.963C24.5649 38.963 24.4478 38.9145 24.3614 38.8282C24.2751 38.7418 24.2266 38.6247 24.2266 38.5026V13.0737C24.2265 12.9741 24.2588 12.8771 24.3185 12.7974C24.3783 12.7177 24.4623 12.6595 24.5579 12.6315L35.2209 9.5187C35.2894 9.49913 35.3615 9.49571 35.4315 9.50872C35.5015 9.52172 35.5676 9.5508 35.6245 9.59365C35.6814 9.63651 35.7275 9.69198 35.7594 9.7557C35.7912 9.81942 35.8078 9.88965 35.8079 9.96088V35.3917C35.8079 35.4914 35.7757 35.5883 35.7159 35.668C35.6562 35.7478 35.5722 35.806 35.4766 35.8339L24.8129 38.9474C24.7718 38.9584 24.7295 38.9637 24.687 38.963ZM25.1468 13.4187V37.8889L34.8896 35.0441V10.5746L25.1468 13.4187Z" fill="white"/>
</g>
<path d="M16.7827 13.9141C16.8136 13.914 16.8444 13.9171 16.8747 13.9232L22.2818 15.0228C22.3859 15.044 22.4794 15.1005 22.5465 15.1827C22.6137 15.265 22.6503 15.3679 22.6503 15.4741V17.6262C22.6503 17.6951 22.6348 17.7631 22.605 17.8252C22.5752 17.8872 22.5319 17.9418 22.4782 17.985C22.4245 18.0281 22.3618 18.0586 22.2948 18.0743C22.2277 18.09 22.158 18.0904 22.0907 18.0756L16.6836 16.8854C16.5812 16.8628 16.4896 16.806 16.4239 16.7242C16.3582 16.6425 16.3223 16.5409 16.3223 16.436V14.3752C16.3223 14.253 16.3708 14.1359 16.4571 14.0496C16.5435 13.9632 16.6606 13.9141 16.7827 13.9141ZM21.7294 15.8504L17.2431 14.9373V16.0649L21.7294 17.053V15.8504Z" fill="white"/>
<path d="M22.1903 21.137C22.1554 21.137 22.1207 21.133 22.0866 21.1252L16.3729 19.8104C16.254 19.7831 16.1507 19.7096 16.0859 19.6061C16.0211 19.5027 16 19.3777 16.0273 19.2587C16.0546 19.1397 16.1281 19.0364 16.2316 18.9716C16.3351 18.9068 16.46 18.8857 16.579 18.913L22.2927 20.2278C22.4117 20.2552 22.515 20.3286 22.5798 20.4321C22.6446 20.5356 22.6657 20.6606 22.6384 20.7796C22.6151 20.881 22.5581 20.9716 22.4767 21.0365C22.3954 21.1014 22.2944 21.1368 22.1903 21.137Z" fill="white"/>
<path d="M22.1903 23.8606C22.1554 23.8606 22.1207 23.8567 22.0866 23.8488L16.3729 22.5341C16.254 22.5067 16.1507 22.4332 16.0859 22.3298C16.0211 22.2263 16 22.1013 16.0273 21.9823C16.0546 21.8633 16.1281 21.7601 16.2316 21.6952C16.3351 21.6304 16.46 21.6094 16.579 21.6367L22.2927 22.9515C22.4117 22.9788 22.515 23.0523 22.5798 23.1557C22.6446 23.2592 22.6657 23.3842 22.6384 23.5032C22.6151 23.6046 22.5581 23.6952 22.4767 23.7601C22.3954 23.825 22.2944 23.8604 22.1903 23.8606Z" fill="white"/>
<path d="M19.3338 25.9258C19.2989 25.9259 19.2641 25.9219 19.2301 25.9141L16.3729 25.2567C16.254 25.2294 16.1507 25.1559 16.0859 25.0524C16.0211 24.949 16 24.824 16.0273 24.705C16.0546 24.586 16.1281 24.4827 16.2316 24.4179C16.3351 24.3531 16.46 24.332 16.579 24.3593L19.4362 25.0167C19.5552 25.0441 19.6585 25.1175 19.7233 25.221C19.7881 25.3245 19.8092 25.4495 19.7819 25.5685C19.7586 25.6699 19.7016 25.7605 19.6202 25.8254C19.5389 25.8903 19.4379 25.9257 19.3338 25.9258Z" fill="white"/>
<path d="M27.1765 21.4055C27.0724 21.4053 26.9715 21.3699 26.8901 21.305C26.8087 21.2401 26.7518 21.1496 26.7285 21.0481C26.7012 20.9291 26.7222 20.8041 26.787 20.7007C26.8519 20.5972 26.9551 20.5237 27.0741 20.4964L32.7878 19.1816C32.9068 19.1543 33.0318 19.1754 33.1353 19.2402C33.2387 19.305 33.3122 19.4083 33.3396 19.5272C33.3669 19.6462 33.3458 19.7712 33.281 19.8747C33.2162 19.9782 33.1129 20.0516 32.9939 20.079L27.2802 21.3938C27.2462 21.4016 27.2114 21.4055 27.1765 21.4055Z" fill="white"/>
<path d="M27.1765 18.6047C27.0724 18.6046 26.9715 18.5691 26.8901 18.5042C26.8087 18.4393 26.7518 18.3488 26.7285 18.2473C26.7012 18.1283 26.7222 18.0034 26.787 17.8999C26.8519 17.7964 26.9551 17.7229 27.0741 17.6956L32.7878 16.3808C32.9068 16.3535 33.0318 16.3746 33.1353 16.4394C33.2387 16.5042 33.3122 16.6075 33.3396 16.7265C33.3669 16.8455 33.3458 16.9704 33.281 17.0739C33.2162 17.1774 33.1129 17.2509 32.9939 17.2782L27.2802 18.593C27.2462 18.6008 27.2114 18.6047 27.1765 18.6047Z" fill="white"/>
<path d="M27.1765 15.9202C27.0724 15.92 26.9715 15.8846 26.8901 15.8197C26.8087 15.7548 26.7518 15.6642 26.7285 15.5628C26.7012 15.4438 26.7222 15.3188 26.787 15.2153C26.8519 15.1119 26.9551 15.0384 27.0741 15.011L32.7878 13.6962C32.9068 13.6689 33.0318 13.69 33.1353 13.7548C33.2387 13.8196 33.3122 13.9229 33.3396 14.0419C33.3669 14.1609 33.3458 14.2859 33.281 14.3893C33.2162 14.4928 33.1129 14.5663 32.9939 14.5936L27.2802 15.9084C27.2462 15.9162 27.2114 15.9202 27.1765 15.9202Z" fill="white"/>
<path d="M27.1765 24.2053C27.0724 24.2051 26.9715 24.1697 26.8901 24.1048C26.8087 24.0399 26.7518 23.9494 26.7285 23.8479C26.7012 23.7289 26.7222 23.6039 26.787 23.5005C26.8519 23.397 26.9551 23.3235 27.0741 23.2962L32.7878 21.9814C32.9068 21.9541 33.0318 21.9752 33.1353 22.04C33.2387 22.1048 33.3122 22.2081 33.3396 22.327C33.3669 22.446 33.3458 22.571 33.281 22.6745C33.2162 22.778 33.1129 22.8514 32.9939 22.8788L27.2802 24.1936C27.2462 24.2014 27.2114 24.2053 27.1765 24.2053Z" fill="white"/>
<path d="M27.1765 26.9291C27.0724 26.9289 26.9715 26.8935 26.8901 26.8286C26.8087 26.7637 26.7518 26.6732 26.7285 26.5717C26.7012 26.4527 26.7222 26.3277 26.787 26.2243C26.8519 26.1208 26.9551 26.0473 27.0741 26.02L29.9274 25.3632C30.0464 25.3359 30.1714 25.357 30.2748 25.4218C30.3783 25.4866 30.4518 25.5899 30.4791 25.7089C30.5064 25.8279 30.4854 25.9529 30.4205 26.0563C30.3557 26.1598 30.2525 26.2333 30.1335 26.2606L27.2822 26.9187C27.2475 26.9262 27.212 26.9297 27.1765 26.9291Z" fill="white"/>
<path d="M19.3154 32.8258C19.2712 32.8256 19.2273 32.819 19.1849 32.8063L16.4002 31.9715C16.2833 31.9363 16.1851 31.8562 16.1272 31.7487C16.0694 31.6412 16.0566 31.5151 16.0917 31.3982C16.1268 31.2813 16.207 31.1831 16.3145 31.1253C16.422 31.0674 16.548 31.0547 16.6649 31.0897L19.4497 31.9245C19.5666 31.9597 19.6648 32.0398 19.7227 32.1473C19.7805 32.2548 19.7933 32.3809 19.7582 32.4978C19.7297 32.5929 19.6711 32.6762 19.5913 32.7354C19.5115 32.7945 19.4147 32.8262 19.3154 32.8258Z" fill="white"/>
<path d="M17.6277 34.245C17.582 34.245 17.5365 34.2382 17.4927 34.2248L16.3958 33.889C16.338 33.8712 16.2842 33.8423 16.2376 33.8038C16.191 33.7653 16.1524 33.718 16.124 33.6646C16.0957 33.6111 16.0781 33.5527 16.0724 33.4925C16.0667 33.4323 16.0728 33.3715 16.0906 33.3137C16.1083 33.2559 16.1372 33.2022 16.1757 33.1555C16.2142 33.1089 16.2615 33.0703 16.3149 33.042C16.3684 33.0136 16.4268 32.9961 16.487 32.9904C16.5472 32.9846 16.608 32.9908 16.6658 33.0085L17.7627 33.3444C17.8205 33.3621 17.8743 33.3911 17.9209 33.4296C17.9675 33.4681 18.0061 33.5154 18.0345 33.5688C18.0628 33.6222 18.0804 33.6807 18.0861 33.7409C18.0918 33.8011 18.0857 33.8618 18.0679 33.9196C18.0391 34.0138 17.9807 34.0963 17.9015 34.1549C17.8222 34.2134 17.7263 34.245 17.6277 34.245Z" fill="white"/>
<path d="M20.2371 35.0888C20.1913 35.0888 20.1458 35.082 20.1021 35.0686L19.0051 34.7327C18.9473 34.715 18.8936 34.686 18.847 34.6475C18.8003 34.609 18.7617 34.5617 18.7334 34.5083C18.7051 34.4549 18.6875 34.3964 18.6818 34.3362C18.676 34.276 18.6822 34.2153 18.6999 34.1575C18.7177 34.0997 18.7466 34.0459 18.7851 33.9993C18.8236 33.9527 18.8709 33.9141 18.9243 33.8857C18.9777 33.8574 19.0362 33.8399 19.0964 33.8341C19.1566 33.8284 19.2173 33.8345 19.2751 33.8523L20.3721 34.1881C20.4299 34.2059 20.4837 34.2348 20.5303 34.2733C20.5769 34.3118 20.6155 34.3591 20.6438 34.4125C20.6722 34.4659 20.6897 34.5244 20.6955 34.5846C20.7012 34.6448 20.695 34.7055 20.6773 34.7634C20.6484 34.8576 20.5901 34.94 20.5108 34.9986C20.4316 35.0572 20.3356 35.0888 20.2371 35.0888Z" fill="white"/>
<path d="M22.8829 35.8945C22.8372 35.8945 22.7917 35.8876 22.7479 35.8742L21.6516 35.5384C21.5938 35.5206 21.5401 35.4917 21.4934 35.4532C21.4468 35.4147 21.4082 35.3674 21.3799 35.314C21.3515 35.2606 21.334 35.2021 21.3283 35.1419C21.3225 35.0817 21.3287 35.021 21.3464 34.9632C21.3641 34.9053 21.3931 34.8516 21.4316 34.805C21.4701 34.7583 21.5174 34.7197 21.5708 34.6914C21.6242 34.6631 21.6827 34.6455 21.7429 34.6398C21.8031 34.634 21.8638 34.6402 21.9216 34.6579L23.0186 34.9938C23.0764 35.0115 23.1302 35.0405 23.1768 35.079C23.2234 35.1175 23.262 35.1648 23.2903 35.2182C23.3187 35.2716 23.3362 35.3301 23.342 35.3903C23.3477 35.4505 23.3415 35.5112 23.3238 35.569C23.2949 35.6633 23.2364 35.7459 23.1571 35.8045C23.0777 35.8631 22.9816 35.8946 22.8829 35.8945Z" fill="white"/>
<path d="M27.1927 33.6696C27.094 33.6697 26.9978 33.638 26.9184 33.5793C26.8391 33.5206 26.7807 33.4379 26.7518 33.3435C26.7168 33.2266 26.7296 33.1005 26.7874 32.993C26.8452 32.8855 26.9434 32.8054 27.0603 32.7702L29.8451 31.9354C29.962 31.9004 30.0881 31.9131 30.1956 31.971C30.3031 32.0288 30.3832 32.127 30.4184 32.2439C30.4534 32.3608 30.4407 32.4869 30.3828 32.5944C30.325 32.7019 30.2268 32.782 30.1099 32.8172L27.3251 33.652C27.2821 33.6642 27.2375 33.6702 27.1927 33.6696Z" fill="white"/>
<path d="M32.4487 34.2447C32.3501 34.2447 32.2541 34.213 32.1749 34.1543C32.0956 34.0956 32.0373 34.013 32.0085 33.9186C31.9908 33.8608 31.9846 33.8001 31.9904 33.7399C31.9961 33.6797 32.0136 33.6212 32.042 33.5678C32.0703 33.5144 32.1089 33.4671 32.1555 33.4286C32.2022 33.3901 32.2559 33.3611 32.3137 33.3434L33.4107 33.0075C33.4685 32.9898 33.5292 32.9836 33.5894 32.9894C33.6496 32.9951 33.7081 33.0127 33.7615 33.041C33.8149 33.0694 33.8622 33.1079 33.9007 33.1546C33.9392 33.2012 33.9682 33.2549 33.9859 33.3128C34.0036 33.3706 34.0098 33.4313 34.0041 33.4915C33.9983 33.5517 33.9808 33.6102 33.9524 33.6636C33.9241 33.717 33.8855 33.7643 33.8389 33.8028C33.7923 33.8413 33.7385 33.8703 33.6807 33.888L32.5837 34.2238C32.54 34.2375 32.4945 34.2445 32.4487 34.2447Z" fill="white"/>
<path d="M29.8394 35.0885C29.7407 35.0884 29.6447 35.0567 29.5655 34.998C29.4862 34.9393 29.4279 34.8567 29.3991 34.7624C29.3814 34.7046 29.3752 34.6438 29.381 34.5836C29.3867 34.5234 29.4043 34.465 29.4326 34.4116C29.461 34.3581 29.4995 34.3108 29.5462 34.2723C29.5928 34.2338 29.6466 34.2049 29.7044 34.1872L30.8013 33.8513C30.8591 33.8336 30.9199 33.8274 30.9801 33.8331C31.0403 33.8389 31.0987 33.8564 31.1521 33.8848C31.2056 33.9131 31.2529 33.9517 31.2914 33.9983C31.3299 34.0449 31.3588 34.0987 31.3765 34.1565C31.3943 34.2143 31.4004 34.2751 31.3947 34.3353C31.389 34.3954 31.3714 34.4539 31.3431 34.5073C31.3147 34.5608 31.2761 34.6081 31.2295 34.6466C31.1829 34.6851 31.1291 34.714 31.0713 34.7317L29.9744 35.0676C29.9307 35.0812 29.8852 35.0883 29.8394 35.0885Z" fill="white"/>
<path d="M27.1929 35.8941C27.0943 35.8941 26.9982 35.8624 26.919 35.8037C26.8397 35.745 26.7814 35.6624 26.7527 35.568C26.7349 35.5102 26.7288 35.4495 26.7345 35.3893C26.7402 35.3291 26.7578 35.2706 26.7861 35.2172C26.8145 35.1638 26.8531 35.1165 26.8997 35.078C26.9463 35.0395 27.0001 35.0106 27.0579 34.9928L28.1548 34.657C28.2126 34.6392 28.2734 34.6331 28.3336 34.6388C28.3938 34.6445 28.4522 34.6621 28.5057 34.6904C28.5591 34.7188 28.6064 34.7574 28.6449 34.804C28.6834 34.8506 28.7123 34.9044 28.7301 34.9622C28.7478 35.02 28.754 35.0807 28.7482 35.1409C28.7425 35.2011 28.7249 35.2596 28.6966 35.313C28.6682 35.3664 28.6297 35.4137 28.583 35.4522C28.5364 35.4907 28.4826 35.5197 28.4248 35.5374L27.3279 35.8733C27.2842 35.8869 27.2387 35.8939 27.1929 35.8941Z" fill="white"/>
</g>
<defs>
<clipPath id="clip0_318_113">
<rect width="29.0387" height="30" fill="white" transform="translate(10.1465 9.5)"/>
</clipPath>
</defs>
</svg>
